M48
; DRILL file {KiCad 7.0.5} date Sat Oct 12 11:09:48 2024
; FORMAT={-:-/ absolute / metric / decimal}
; #@! TF.CreationDate,2024-10-12T11:09:48-04:00
; #@! TF.GenerationSoftware,Kicad,Pcbnew,7.0.5
; #@! TF.FileFunction,Plated,1,4,PTH
FMAT,2
METRIC
; #@! TA.AperFunction,Plated,PTH,ViaDrill
T1C0.400
; #@! TA.AperFunction,Plated,PTH,ComponentDrill
T2C0.700
; #@! TA.AperFunction,Plated,PTH,ComponentDrill
T3C0.750
; #@! TA.AperFunction,Plated,PTH,ComponentDrill
T4C0.800
; #@! TA.AperFunction,Plated,PTH,ComponentDrill
T5C0.900
; #@! TA.AperFunction,Plated,PTH,ComponentDrill
T6C0.920
; #@! TA.AperFunction,Plated,PTH,ComponentDrill
T7C1.000
; #@! TA.AperFunction,Plated,PTH,ComponentDrill
T8C1.020
; #@! TA.AperFunction,Plated,PTH,ComponentDrill
T9C1.200
; #@! TA.AperFunction,Plated,PTH,ComponentDrill
T10C1.500
; #@! TA.AperFunction,Plated,PTH,ComponentDrill
T11C1.600
; #@! TA.AperFunction,Plated,PTH,ComponentDrill
T12C2.330
; #@! TA.AperFunction,Plated,PTH,ComponentDrill
T13C2.800
%
G90
G05
T1
X108.814Y-170.409
X120.04Y-104.369
X123.774Y-98.755
X127.152Y-91.186
X128.143Y-94.361
X131.648Y-101.307
X133.807Y-120.244
X133.915Y-97.936
X134.874Y-107.022
X135.128Y-97.028
X138.405Y-97.053
X153.664Y-101.272
X178.511Y-124.358
X228.321Y-119.075
X237.388Y-97.587
X260.731Y-98.425
X266.878Y-96.698
X270.916Y-107.417
X274.091Y-104.216
X277.051Y-91.243
X277.851Y-93.205
X278.65Y-91.606
X285.09Y-74.32
X285.293Y-77.826
X287.63Y-94.945
X325.755Y-151.892
X326.771Y-149.352
X327.203Y-76.2
X328.168Y-125.603
X328.422Y-128.092
X329.235Y-73.05
X331.089Y-118.745
T2
X89.1Y-60.249
X91.754Y-186.994
X97.553Y-189.594
X97.653Y-184.394
X116.853Y-183.994
X117.221Y-83.439
X117.221Y-88.519
X117.253Y-189.394
X120.777Y-187.071
X178.537Y-163.347
X248.159Y-167.844
X255.143Y-167.767
X266.217Y-184.709
X266.217Y-189.205
X278.892Y-122.047
X279.007Y-117.877
X279.532Y-146.02
X279.532Y-152.319
X282.651Y-172.441
X283.718Y-142.367
X287.782Y-172.441
X294.221Y-101.257
X299.301Y-101.257
X304.381Y-101.257
X308.641Y-77.724
X323.469Y-73.66
X326.961Y-63.484
X326.961Y-68.824
X336.753Y-168.605
X338.582Y-95.885
X341.122Y-168.656
X344.119Y-99.111
T3
X107.823Y-96.266
X109.093Y-94.996
X110.363Y-96.266
X227.381Y-81.788
X228.651Y-80.518
X229.921Y-81.788
T4
X77.343Y-74.752
X77.343Y-84.912
X80.086Y-144.247
X80.136Y-148.897
X84.887Y-84.48
X84.963Y-76.327
X85.471Y-95.123
X90.246Y-144.247
X90.296Y-148.897
X95.047Y-84.48
X95.123Y-76.327
X95.631Y-95.123
X122.235Y-145.706
X122.25Y-167.208
X122.585Y-124.356
X129.855Y-145.706
X129.87Y-167.208
X130.205Y-124.356
X208.955Y-162.814
X211.045Y-140.456
X211.045Y-150.616
X211.455Y-162.814
X222.834Y-178.029
X224.257Y-64.821
X224.257Y-74.981
X232.994Y-178.029
X242.646Y-139.802
X242.646Y-142.342
X242.646Y-144.882
X242.646Y-147.422
X242.646Y-149.962
X242.646Y-152.502
X242.646Y-155.042
X242.646Y-157.582
X242.799Y-110.922
X242.799Y-113.462
X242.799Y-116.002
X242.799Y-118.542
X242.799Y-121.082
X242.799Y-123.622
X242.799Y-126.162
X242.799Y-128.702
X250.266Y-139.802
X250.266Y-142.342
X250.266Y-144.882
X250.266Y-147.422
X250.266Y-149.962
X250.266Y-152.502
X250.266Y-155.042
X250.266Y-157.582
X250.419Y-110.922
X250.419Y-113.462
X250.419Y-116.002
X250.419Y-118.542
X250.419Y-121.082
X250.419Y-123.622
X250.419Y-126.162
X250.419Y-128.702
X265.684Y-128.651
X265.684Y-138.811
X277.495Y-128.778
X277.495Y-138.938
X289.941Y-163.449
X294.941Y-163.449
X306.476Y-179.172
X315.341Y-166.497
X315.341Y-171.196
X316.636Y-179.172
X325.501Y-166.497
X325.501Y-171.196
X328.209Y-84.201
X330.709Y-84.201
T5
X81.342Y-159.842
X81.342Y-164.922
X81.342Y-167.462
X81.402Y-162.382
X81.402Y-170.002
X81.428Y-174.498
X81.428Y-179.578
X81.428Y-182.118
X81.428Y-184.658
X81.428Y-187.198
X81.488Y-177.038
X83.942Y-159.842
X83.942Y-164.922
X83.942Y-167.462
X84.002Y-162.382
X84.002Y-170.002
X84.028Y-174.498
X84.028Y-179.578
X84.028Y-182.118
X84.028Y-184.658
X84.028Y-187.198
X84.088Y-177.038
X85.009Y-80.62
X85.009Y-89.383
X87.609Y-80.62
X87.609Y-89.383
X93.46Y-60.219
X93.52Y-70.269
X93.57Y-63.609
X96.06Y-60.219
X96.12Y-70.269
X96.17Y-63.609
X96.345Y-111.256
X96.345Y-113.856
X97.345Y-144.056
X97.345Y-146.656
X97.515Y-130.346
X97.515Y-132.946
X97.612Y-135.098
X97.612Y-137.698
X98.295Y-152.006
X98.295Y-154.606
X98.88Y-63.649
X98.91Y-70.269
X98.96Y-73.569
X98.98Y-66.909
X101.48Y-63.649
X101.51Y-70.269
X101.56Y-73.569
X101.58Y-66.909
X107.417Y-71.379
X107.417Y-73.979
X107.43Y-61.079
X107.43Y-63.679
X107.442Y-66.179
X107.442Y-68.779
X109.96Y-61.079
X109.96Y-63.679
X109.981Y-66.179
X109.981Y-68.779
X112.39Y-66.179
X112.39Y-68.779
X112.474Y-61.079
X112.474Y-63.679
X112.995Y-166.706
X113.495Y-116.156
X113.495Y-118.756
X113.545Y-109.606
X113.545Y-112.206
X113.615Y-137.456
X113.615Y-140.056
X113.645Y-151.856
X113.645Y-154.456
X113.695Y-128.956
X113.695Y-131.556
X114.045Y-158.956
X114.045Y-161.556
X114.795Y-145.606
X115.015Y-61.079
X115.015Y-63.679
X115.09Y-66.179
X115.09Y-68.779
X115.595Y-166.706
X116.455Y-124.056
X117.395Y-145.606
X117.557Y-61.079
X117.557Y-63.679
X117.577Y-71.379
X117.577Y-73.979
X117.598Y-66.179
X117.598Y-68.779
X118.085Y-160.147
X118.085Y-162.747
X118.11Y-149.932
X118.11Y-152.532
X118.11Y-154.961
X118.11Y-157.561
X118.168Y-108.441
X118.168Y-111.041
X118.491Y-134.717
X118.491Y-137.317
X119.055Y-124.056
X120.098Y-61.079
X120.098Y-63.679
X120.117Y-71.379
X120.117Y-73.979
X120.136Y-66.179
X120.136Y-68.779
X122.68Y-61.079
X122.68Y-63.679
X122.69Y-66.179
X122.69Y-68.779
X122.69Y-71.379
X122.69Y-73.979
X122.79Y-85.079
X122.79Y-88.279
X122.79Y-91.779
X122.79Y-95.379
X125.137Y-101.575
X125.181Y-61.079
X125.181Y-63.679
X125.214Y-66.179
X125.214Y-68.779
X125.22Y-71.379
X125.22Y-73.979
X125.39Y-85.079
X125.39Y-88.279
X125.39Y-91.779
X125.39Y-95.379
X127.722Y-61.079
X127.722Y-63.679
X127.737Y-101.575
X127.753Y-66.179
X127.753Y-68.779
X127.79Y-71.379
X127.79Y-73.979
X130.19Y-88.579
X130.19Y-92.179
X130.264Y-61.079
X130.264Y-63.679
X130.292Y-66.179
X130.292Y-68.779
X130.39Y-71.379
X130.39Y-73.979
X130.39Y-85.079
X132.79Y-88.579
X132.79Y-92.179
X132.805Y-61.079
X132.805Y-63.679
X132.817Y-71.379
X132.817Y-73.979
X132.831Y-66.179
X132.831Y-68.779
X132.99Y-85.079
X133.658Y-135.828
X133.658Y-138.428
X133.658Y-140.728
X133.658Y-143.328
X133.958Y-129.928
X133.958Y-132.528
X133.985Y-150.622
X133.985Y-153.222
X133.985Y-155.922
X133.985Y-158.522
X133.985Y-161.222
X133.985Y-163.822
X134.01Y-113.94
X134.01Y-116.54
X134.036Y-108.428
X134.036Y-111.028
X135.347Y-61.079
X135.347Y-63.679
X135.357Y-71.379
X135.357Y-73.979
X135.37Y-66.179
X135.37Y-68.779
X136.99Y-85.079
X136.99Y-88.579
X136.99Y-92.179
X137.888Y-61.079
X137.888Y-63.679
X137.897Y-66.179
X137.897Y-68.779
X137.897Y-71.379
X137.897Y-73.979
X137.998Y-166.696
X137.998Y-169.296
X138.145Y-154.006
X138.145Y-156.606
X138.252Y-112.39
X138.252Y-114.99
X138.278Y-119.888
X138.278Y-122.488
X139.59Y-85.079
X139.59Y-88.579
X139.59Y-92.179
X140.43Y-61.079
X140.43Y-63.679
X140.448Y-66.179
X140.448Y-68.779
X140.49Y-71.379
X140.49Y-73.979
X142.134Y-128.016
X142.971Y-61.079
X142.971Y-63.679
X142.977Y-71.379
X142.977Y-73.979
X142.987Y-66.179
X142.987Y-68.779
X143.59Y-92.079
X143.69Y-84.979
X143.69Y-88.479
X144.734Y-128.016
X145.512Y-61.079
X145.512Y-63.679
X145.517Y-71.379
X145.517Y-73.979
X145.525Y-66.179
X145.525Y-68.779
X146.19Y-92.079
X146.29Y-84.979
X146.29Y-88.479
X147.514Y-107.391
X148.054Y-61.079
X148.054Y-63.679
X148.064Y-66.179
X148.064Y-68.779
X148.184Y-71.379
X148.184Y-73.979
X150.114Y-107.391
X150.39Y-84.979
X150.49Y-88.579
X150.49Y-92.079
X150.595Y-61.079
X150.595Y-63.679
X150.6Y-95.709
X150.603Y-66.179
X150.603Y-68.779
X150.67Y-98.789
X150.724Y-71.379
X150.724Y-73.979
X152.99Y-84.979
X153.09Y-88.579
X153.09Y-92.079
X153.137Y-61.079
X153.137Y-63.679
X153.142Y-66.179
X153.142Y-68.779
X153.19Y-71.379
X153.19Y-73.979
X153.2Y-95.709
X153.27Y-98.789
X154.445Y-149.856
X154.445Y-152.456
X154.545Y-154.656
X154.545Y-157.256
X154.61Y-118.288
X154.61Y-120.888
X154.645Y-159.556
X154.645Y-162.156
X154.681Y-112.065
X154.707Y-114.986
X154.905Y-137.526
X154.905Y-140.126
X155.677Y-61.079
X155.677Y-63.679
X155.677Y-71.379
X155.677Y-73.979
X155.681Y-66.179
X155.681Y-68.779
X157.281Y-112.065
X157.307Y-114.986
X158.195Y-141.256
X158.195Y-143.856
X158.217Y-61.079
X158.217Y-63.679
X158.22Y-66.179
X158.22Y-68.779
X158.29Y-71.379
X158.29Y-73.979
X158.295Y-136.056
X158.295Y-138.656
X158.445Y-130.856
X158.445Y-133.456
X158.645Y-154.056
X158.645Y-156.656
X158.69Y-81.479
X158.69Y-84.979
X158.79Y-91.979
X158.79Y-95.379
X160.757Y-61.079
X160.757Y-63.679
X160.759Y-66.179
X160.759Y-68.779
X160.89Y-71.379
X160.89Y-73.979
X161.29Y-81.479
X161.29Y-84.979
X161.39Y-91.979
X161.39Y-95.379
X162.2Y-107.544
X163.297Y-61.079
X163.297Y-63.679
X163.298Y-66.179
X163.298Y-68.779
X163.39Y-71.379
X163.39Y-73.979
X164.8Y-107.544
X164.841Y-170.434
X164.99Y-88.579
X165.837Y-61.079
X165.837Y-63.679
X165.837Y-66.179
X165.837Y-68.779
X165.89Y-71.379
X165.89Y-73.979
X167.441Y-170.434
X167.59Y-88.579
X168.29Y-66.179
X168.29Y-68.779
X168.29Y-71.379
X168.29Y-73.979
X168.29Y-98.179
X168.39Y-61.079
X168.39Y-63.679
X170.506Y-170.434
X170.87Y-61.079
X170.87Y-63.679
X170.89Y-66.179
X170.89Y-68.779
X170.89Y-98.179
X170.99Y-71.379
X170.99Y-73.979
X171.89Y-85.079
X171.99Y-88.679
X171.99Y-92.179
X173.106Y-170.434
X173.39Y-71.379
X173.39Y-73.979
X173.478Y-61.079
X173.478Y-63.679
X173.49Y-66.179
X173.49Y-68.779
X173.641Y-112.692
X173.641Y-115.292
X173.701Y-117.812
X173.701Y-120.412
X173.945Y-131.356
X173.945Y-133.956
X173.945Y-141.156
X173.945Y-143.756
X174.045Y-136.156
X174.045Y-138.756
X174.345Y-154.156
X174.345Y-156.756
X174.49Y-85.079
X174.59Y-88.679
X174.59Y-92.179
X175.99Y-61.079
X175.99Y-63.679
X175.997Y-66.179
X175.997Y-68.779
X176.09Y-71.379
X176.09Y-73.979
X177.571Y-112.746
X177.571Y-115.346
X177.571Y-117.729
X177.571Y-120.329
X177.8Y-150.084
X177.8Y-152.684
X177.902Y-155.291
X177.902Y-157.891
X178.245Y-140.256
X178.245Y-142.856
X178.405Y-170.028
X178.49Y-71.379
X178.49Y-73.979
X178.511Y-130.043
X178.511Y-132.643
X178.59Y-61.079
X178.59Y-63.679
X178.59Y-66.179
X178.59Y-68.779
X179.19Y-84.979
X179.19Y-88.579
X179.19Y-92.079
X181.005Y-170.028
X181.19Y-61.079
X181.19Y-63.679
X181.19Y-66.179
X181.19Y-68.779
X181.19Y-71.379
X181.19Y-73.979
X181.79Y-84.979
X181.79Y-88.579
X181.79Y-92.079
X183.002Y-107.798
X183.69Y-61.079
X183.69Y-63.679
X183.79Y-66.179
X183.79Y-68.779
X183.79Y-71.379
X183.79Y-73.979
X185.602Y-107.798
X186.19Y-61.079
X186.19Y-63.679
X186.29Y-66.179
X186.29Y-68.779
X186.39Y-71.379
X186.39Y-73.979
X186.49Y-84.879
X186.59Y-88.479
X186.69Y-91.979
X189.09Y-84.879
X189.19Y-88.479
X189.29Y-91.979
X193.497Y-111.425
X193.497Y-114.025
X193.624Y-116.327
X193.624Y-118.927
X194.745Y-156.656
X194.79Y-88.479
X194.89Y-84.879
X194.89Y-91.979
X195.526Y-134.405
X195.526Y-140.465
X197.212Y-111.027
X197.212Y-113.627
X197.345Y-156.656
X197.39Y-88.479
X197.49Y-84.879
X197.49Y-91.979
X197.572Y-116.352
X197.572Y-118.952
X197.572Y-121.552
X197.572Y-124.152
X198.126Y-134.405
X198.126Y-140.465
X202.408Y-96.799
X205.008Y-96.799
X213.472Y-111.652
X216.022Y-129.642
X216.072Y-111.652
X216.122Y-117.202
X216.122Y-120.702
X218.622Y-129.642
X218.722Y-117.202
X218.722Y-120.702
X226.893Y-185.852
X229.433Y-185.852
X230.391Y-67.094
X230.491Y-70.664
X230.491Y-73.914
X231.237Y-99.873
X232.991Y-67.094
X233.091Y-70.664
X233.091Y-73.914
X233.521Y-85.914
X233.574Y-89.518
X233.591Y-82.634
X233.837Y-99.873
X235.066Y-142.282
X235.066Y-144.882
X235.066Y-147.482
X235.066Y-149.882
X235.066Y-152.482
X235.066Y-154.982
X235.066Y-157.582
X235.189Y-113.412
X235.189Y-116.012
X235.189Y-118.512
X235.189Y-121.112
X235.189Y-123.612
X235.189Y-126.212
X235.189Y-128.712
X236.121Y-85.914
X236.174Y-89.518
X236.191Y-82.634
X237.666Y-142.282
X237.666Y-144.882
X237.666Y-147.482
X237.666Y-149.882
X237.666Y-152.482
X237.666Y-154.982
X237.666Y-157.582
X237.789Y-113.412
X237.789Y-116.012
X237.789Y-118.512
X237.789Y-121.112
X237.789Y-123.612
X237.789Y-126.212
X237.789Y-128.712
X241.261Y-60.794
X241.261Y-63.394
X241.361Y-66.213
X241.361Y-68.813
X241.361Y-71.547
X241.361Y-74.147
X241.661Y-82.704
X241.661Y-86.004
X241.761Y-89.504
X244.161Y-66.213
X244.161Y-68.813
X244.161Y-71.547
X244.161Y-74.147
X244.17Y-60.794
X244.17Y-63.394
X244.261Y-82.704
X244.261Y-86.004
X244.361Y-89.504
X246.661Y-71.547
X246.661Y-74.147
X246.71Y-60.794
X246.71Y-63.394
X246.71Y-66.213
X246.71Y-68.813
X247.678Y-173.385
X247.678Y-175.985
X249.017Y-79.205
X249.017Y-82.38
X249.042Y-88.832
X249.068Y-85.606
X249.119Y-91.88
X249.25Y-60.794
X249.25Y-63.394
X249.25Y-66.213
X249.25Y-68.813
X249.25Y-71.547
X249.25Y-74.147
X251.617Y-79.205
X251.617Y-82.38
X251.642Y-88.832
X251.668Y-85.606
X251.719Y-91.88
X251.79Y-60.794
X251.79Y-63.394
X251.79Y-66.213
X251.79Y-68.813
X251.79Y-71.547
X251.79Y-74.147
X254.33Y-60.794
X254.33Y-63.394
X254.33Y-66.213
X254.33Y-68.813
X254.33Y-71.547
X254.33Y-74.147
X254.783Y-123.546
X254.783Y-126.606
X254.783Y-129.426
X255.108Y-173.545
X255.108Y-176.145
X255.866Y-142.382
X255.866Y-144.882
X255.866Y-147.382
X255.866Y-149.982
X255.866Y-152.482
X255.866Y-154.982
X255.866Y-157.582
X256.87Y-60.794
X256.87Y-63.394
X256.87Y-66.213
X256.87Y-68.813
X256.87Y-71.547
X256.87Y-74.147
X257.383Y-123.546
X257.383Y-126.606
X257.383Y-129.426
X258.466Y-142.382
X258.466Y-144.882
X258.466Y-147.382
X258.466Y-149.982
X258.466Y-152.482
X258.466Y-154.982
X258.466Y-157.582
X259.41Y-60.794
X259.41Y-63.394
X259.41Y-66.213
X259.41Y-68.813
X259.41Y-71.547
X259.41Y-74.147
X261.95Y-60.794
X261.95Y-63.394
X261.95Y-66.213
X261.95Y-68.813
X261.95Y-71.547
X261.95Y-74.147
X263.948Y-112.827
X263.948Y-115.747
X263.948Y-118.527
X263.948Y-121.097
X264.49Y-60.794
X264.49Y-63.394
X264.49Y-66.213
X264.49Y-68.813
X264.49Y-71.547
X264.49Y-74.147
X266.548Y-112.827
X266.548Y-115.747
X266.548Y-118.527
X266.548Y-121.097
X267.03Y-66.213
X267.03Y-68.813
X267.03Y-71.547
X267.03Y-74.147
X267.161Y-60.794
X267.161Y-63.394
X269.57Y-60.794
X269.57Y-63.394
X269.57Y-66.213
X269.57Y-68.813
X269.57Y-71.547
X269.57Y-74.147
X272.009Y-66.213
X272.009Y-68.813
X272.161Y-60.826
X272.161Y-63.426
X275.412Y-60.794
X275.412Y-63.394
X275.412Y-66.213
X275.412Y-68.813
X275.412Y-71.547
X275.412Y-74.147
X277.211Y-126.238
X277.8Y-189.281
X278.46Y-60.794
X278.46Y-63.394
X278.46Y-66.213
X278.46Y-68.813
X278.46Y-71.547
X278.46Y-74.147
X278.735Y-105.029
X278.735Y-107.629
X279.07Y-186.741
X279.811Y-126.238
X280.34Y-189.281
X281.335Y-105.029
X281.335Y-107.629
X281.61Y-186.741
X282.016Y-66.213
X282.016Y-68.813
X282.016Y-71.547
X282.016Y-74.147
X282.27Y-60.794
X282.27Y-63.394
X282.467Y-120.393
X282.587Y-112.893
X282.587Y-115.393
X282.587Y-117.893
X282.587Y-128.093
X282.587Y-130.693
X282.587Y-133.193
X282.587Y-138.193
X282.667Y-135.703
X282.88Y-189.281
X282.887Y-145.893
X284.15Y-186.741
X284.81Y-60.794
X284.81Y-63.394
X284.81Y-66.213
X284.81Y-68.813
X285.067Y-120.393
X285.187Y-112.893
X285.187Y-115.393
X285.187Y-117.893
X285.187Y-128.093
X285.187Y-130.693
X285.187Y-133.193
X285.187Y-138.193
X285.267Y-135.703
X285.42Y-189.281
X285.487Y-145.893
X286.69Y-186.741
X287.35Y-60.794
X287.35Y-63.394
X287.35Y-66.213
X287.35Y-68.813
X287.884Y-81.809
X287.884Y-84.409
X290.144Y-60.794
X290.144Y-63.394
X290.144Y-66.165
X290.144Y-68.765
X292.43Y-60.794
X292.43Y-63.394
X292.43Y-66.213
X292.43Y-68.813
X292.43Y-71.547
X292.43Y-74.147
X292.601Y-82.614
X292.601Y-85.214
X294.97Y-60.794
X294.97Y-63.394
X294.97Y-66.213
X294.97Y-68.813
X294.97Y-71.547
X294.97Y-74.147
X295.611Y-82.614
X295.611Y-85.214
X297.51Y-60.794
X297.51Y-63.394
X297.51Y-66.213
X297.51Y-68.813
X297.51Y-71.547
X297.51Y-74.147
X298.771Y-82.614
X298.771Y-85.214
X300.05Y-60.794
X300.05Y-63.394
X300.05Y-66.213
X300.05Y-68.813
X300.05Y-71.547
X300.05Y-74.147
X302.108Y-82.614
X302.108Y-85.214
X302.59Y-60.794
X302.59Y-63.394
X302.59Y-66.213
X302.59Y-68.813
X302.59Y-71.547
X302.59Y-74.147
X305.13Y-60.794
X305.13Y-63.394
X305.13Y-66.213
X305.13Y-68.813
X305.13Y-71.547
X305.13Y-74.147
X305.251Y-82.614
X305.251Y-85.214
X307.513Y-89.129
X307.67Y-60.794
X307.67Y-63.394
X307.67Y-66.213
X307.67Y-68.813
X307.67Y-71.547
X307.67Y-74.147
X308.361Y-82.614
X308.361Y-85.214
X309.875Y-185.953
X310.113Y-89.129
X310.21Y-60.794
X310.21Y-63.394
X310.21Y-66.213
X310.21Y-68.813
X310.21Y-71.547
X310.21Y-74.147
X311.471Y-82.614
X311.471Y-85.214
X312.415Y-185.953
X312.75Y-60.794
X312.75Y-63.394
X312.75Y-66.213
X312.75Y-68.813
X312.75Y-71.547
X312.75Y-74.147
X313.667Y-115.053
X313.687Y-105.193
X313.687Y-107.793
X313.687Y-111.703
X313.687Y-117.793
X313.687Y-120.493
X314.591Y-82.614
X314.591Y-85.214
X315.29Y-60.794
X315.29Y-63.394
X315.29Y-66.213
X315.29Y-68.813
X315.29Y-71.547
X315.29Y-74.147
X315.916Y-125.592
X315.916Y-128.092
X315.916Y-130.592
X315.916Y-133.192
X315.916Y-138.292
X315.916Y-140.792
X315.916Y-143.392
X315.916Y-145.892
X315.916Y-150.422
X315.916Y-153.492
X316.267Y-115.053
X316.287Y-105.193
X316.287Y-107.793
X316.287Y-111.703
X316.287Y-117.793
X316.287Y-120.493
X317.83Y-60.794
X317.83Y-63.394
X317.83Y-66.213
X317.83Y-68.813
X317.83Y-71.547
X317.83Y-74.147
X318.516Y-125.592
X318.516Y-128.092
X318.516Y-130.592
X318.516Y-133.192
X318.516Y-138.292
X318.516Y-140.792
X318.516Y-143.392
X318.516Y-145.892
X318.516Y-150.422
X318.516Y-153.492
X320.37Y-60.794
X320.37Y-63.394
X320.37Y-66.213
X320.37Y-68.813
X320.37Y-71.547
X320.37Y-74.147
X331.698Y-155.575
X331.698Y-158.175
X331.751Y-106.904
X331.751Y-109.504
X333.98Y-69.215
X334.898Y-155.675
X334.898Y-158.275
X334.951Y-106.904
X334.951Y-109.504
X336.58Y-69.215
X337.998Y-155.675
X337.998Y-158.275
X338.151Y-106.904
X338.151Y-109.504
X341.098Y-155.675
X341.098Y-158.275
X341.351Y-106.904
X341.351Y-109.504
X344.398Y-155.675
X344.398Y-158.275
X344.551Y-106.904
X344.551Y-109.504
X347.598Y-155.675
X347.598Y-158.275
X347.751Y-107.004
X347.751Y-109.604
X350.139Y-155.621
X350.139Y-158.221
X350.851Y-107.004
X350.851Y-109.604
X352.34Y-67.996
X352.34Y-73.076
X352.34Y-75.616
X352.4Y-70.536
X352.4Y-78.156
X352.4Y-80.696
X354.94Y-67.996
X354.94Y-73.076
X354.94Y-75.616
X355.0Y-70.536
X355.0Y-78.156
X355.0Y-80.696
T6
X247.968Y-181.315
X250.468Y-181.315
X252.468Y-181.315
X254.968Y-181.315
T7
X102.225Y-151.496
X102.225Y-154.036
X102.225Y-156.576
X102.225Y-159.116
X102.225Y-161.656
X102.295Y-109.026
X102.295Y-111.566
X102.295Y-114.106
X102.295Y-116.646
X102.295Y-119.186
X102.295Y-129.886
X102.295Y-132.426
X102.295Y-134.966
X102.295Y-137.506
X102.295Y-140.046
X103.724Y-181.924
X103.724Y-184.464
X103.724Y-187.004
X103.724Y-189.544
X103.724Y-192.084
X107.442Y-52.595
X107.442Y-55.135
X107.442Y-57.675
X109.845Y-151.496
X109.845Y-154.036
X109.845Y-156.576
X109.845Y-159.116
X109.845Y-161.656
X109.915Y-109.026
X109.915Y-111.566
X109.915Y-114.106
X109.915Y-116.646
X109.915Y-119.186
X109.915Y-129.886
X109.915Y-132.426
X109.915Y-134.966
X109.915Y-137.506
X109.915Y-140.046
X109.982Y-52.595
X109.982Y-55.135
X109.982Y-57.675
X111.343Y-181.924
X111.343Y-184.464
X111.343Y-187.004
X111.343Y-189.544
X111.343Y-192.084
X112.522Y-52.595
X112.522Y-55.135
X112.522Y-57.675
X115.062Y-52.595
X115.062Y-55.135
X115.062Y-57.675
X117.602Y-52.595
X117.602Y-55.135
X117.602Y-57.675
X120.142Y-52.595
X120.142Y-55.135
X120.142Y-57.675
X122.138Y-129.886
X122.138Y-132.426
X122.138Y-134.966
X122.138Y-137.506
X122.138Y-140.046
X122.138Y-151.496
X122.138Y-154.036
X122.138Y-156.576
X122.138Y-159.116
X122.138Y-161.656
X122.149Y-108.941
X122.149Y-111.481
X122.149Y-114.021
X122.149Y-116.561
X122.149Y-119.101
X122.682Y-52.595
X122.682Y-55.135
X122.682Y-57.675
X125.222Y-52.595
X125.222Y-55.135
X125.222Y-57.675
X127.762Y-52.595
X127.762Y-55.135
X127.762Y-57.675
X129.758Y-129.886
X129.758Y-132.426
X129.758Y-134.966
X129.758Y-137.506
X129.758Y-140.046
X129.758Y-151.496
X129.758Y-154.036
X129.758Y-156.576
X129.758Y-159.116
X129.758Y-161.656
X129.769Y-108.941
X129.769Y-111.481
X129.769Y-114.021
X129.769Y-116.561
X129.769Y-119.101
X130.302Y-52.595
X130.302Y-55.135
X130.302Y-57.675
X132.842Y-52.595
X132.842Y-55.135
X132.842Y-57.675
X135.382Y-52.595
X135.382Y-55.135
X135.382Y-57.675
X137.922Y-52.595
X137.922Y-55.135
X137.922Y-57.675
X140.462Y-52.595
X140.462Y-55.135
X140.462Y-57.675
X142.225Y-112.466
X142.225Y-115.006
X142.225Y-117.546
X142.225Y-120.086
X142.225Y-122.626
X142.225Y-132.496
X142.225Y-135.036
X142.225Y-137.576
X142.225Y-140.116
X142.225Y-142.656
X142.225Y-151.496
X142.225Y-154.036
X142.225Y-156.576
X142.225Y-159.116
X142.225Y-161.656
X143.002Y-52.595
X143.002Y-55.135
X143.002Y-57.675
X145.542Y-52.595
X145.542Y-55.135
X145.542Y-57.675
X148.082Y-52.595
X148.082Y-55.135
X148.082Y-57.675
X149.845Y-112.466
X149.845Y-115.006
X149.845Y-117.546
X149.845Y-120.086
X149.845Y-122.626
X149.845Y-132.496
X149.845Y-135.036
X149.845Y-137.576
X149.845Y-140.116
X149.845Y-142.656
X149.845Y-151.496
X149.845Y-154.036
X149.845Y-156.576
X149.845Y-159.116
X149.845Y-161.656
X150.622Y-52.595
X150.622Y-55.135
X150.622Y-57.675
X153.162Y-52.595
X153.162Y-55.135
X153.162Y-57.675
X155.702Y-52.595
X155.702Y-55.135
X155.702Y-57.675
X158.242Y-52.595
X158.242Y-55.135
X158.242Y-57.675
X160.782Y-52.595
X160.782Y-55.135
X160.782Y-57.675
X162.225Y-112.492
X162.225Y-115.032
X162.225Y-117.572
X162.225Y-120.112
X162.225Y-122.652
X162.225Y-132.496
X162.225Y-135.036
X162.225Y-137.576
X162.225Y-140.116
X162.225Y-142.656
X162.425Y-151.496
X162.425Y-154.036
X162.425Y-156.576
X162.425Y-159.116
X162.425Y-161.656
X163.322Y-52.595
X163.322Y-55.135
X163.322Y-57.675
X165.862Y-52.595
X165.862Y-55.135
X165.862Y-57.675
X168.402Y-52.595
X168.402Y-55.135
X168.402Y-57.675
X169.845Y-112.492
X169.845Y-115.032
X169.845Y-117.572
X169.845Y-120.112
X169.845Y-122.652
X169.845Y-132.496
X169.845Y-135.036
X169.845Y-137.576
X169.845Y-140.116
X169.845Y-142.656
X170.045Y-151.496
X170.045Y-154.036
X170.045Y-156.576
X170.045Y-159.116
X170.045Y-161.656
X170.942Y-52.595
X170.942Y-55.135
X170.942Y-57.675
X173.482Y-52.595
X173.482Y-55.135
X173.482Y-57.675
X176.022Y-52.595
X176.022Y-55.135
X176.022Y-57.675
X178.562Y-52.595
X178.562Y-55.135
X178.562Y-57.675
X181.102Y-52.595
X181.102Y-55.135
X181.102Y-57.675
X182.158Y-112.492
X182.158Y-115.032
X182.158Y-117.572
X182.158Y-120.112
X182.158Y-122.652
X182.225Y-132.496
X182.225Y-135.036
X182.225Y-137.576
X182.225Y-140.116
X182.225Y-142.656
X182.225Y-151.496
X182.225Y-154.036
X182.225Y-156.576
X182.225Y-159.116
X182.225Y-161.656
X183.642Y-52.595
X183.642Y-55.135
X183.642Y-57.675
X186.182Y-52.595
X186.182Y-55.135
X186.182Y-57.675
X189.778Y-112.492
X189.778Y-115.032
X189.778Y-117.572
X189.778Y-120.112
X189.778Y-122.652
X189.845Y-132.496
X189.845Y-135.036
X189.845Y-137.576
X189.845Y-140.116
X189.845Y-142.656
X189.845Y-151.496
X189.845Y-154.036
X189.845Y-156.576
X189.845Y-159.116
X189.845Y-161.656
X201.752Y-112.476
X201.752Y-115.016
X201.752Y-117.556
X201.752Y-120.096
X201.752Y-122.636
X209.372Y-112.476
X209.372Y-115.016
X209.372Y-117.556
X209.372Y-120.096
X209.372Y-122.636
X241.478Y-52.595
X241.478Y-55.135
X241.478Y-57.675
X244.018Y-52.595
X244.018Y-55.135
X244.018Y-57.675
X246.558Y-52.595
X246.558Y-55.135
X246.558Y-57.675
X249.098Y-52.595
X249.098Y-55.135
X249.098Y-57.675
X251.638Y-52.595
X251.638Y-55.135
X251.638Y-57.675
X254.178Y-52.595
X254.178Y-55.135
X254.178Y-57.675
X256.718Y-52.595
X256.718Y-55.135
X256.718Y-57.675
X259.258Y-52.595
X259.258Y-55.135
X259.258Y-57.675
X261.798Y-52.595
X261.798Y-55.135
X261.798Y-57.675
X264.338Y-52.595
X264.338Y-55.135
X264.338Y-57.675
X266.878Y-52.595
X266.878Y-55.135
X266.878Y-57.675
X269.418Y-52.595
X269.418Y-55.135
X269.418Y-57.675
X271.958Y-52.595
X271.958Y-55.135
X271.958Y-57.675
X274.498Y-52.595
X274.498Y-55.135
X274.498Y-57.675
X277.038Y-52.595
X277.038Y-55.135
X277.038Y-57.675
X279.578Y-52.595
X279.578Y-55.135
X279.578Y-57.675
X282.118Y-52.595
X282.118Y-55.135
X282.118Y-57.675
X284.658Y-52.595
X284.658Y-55.135
X284.658Y-57.675
X287.198Y-52.595
X287.198Y-55.135
X287.198Y-57.675
X289.738Y-52.595
X289.738Y-55.135
X289.738Y-57.675
X292.278Y-52.595
X292.278Y-55.135
X292.278Y-57.675
X294.818Y-52.595
X294.818Y-55.135
X294.818Y-57.675
X297.358Y-52.595
X297.358Y-55.135
X297.358Y-57.675
X299.898Y-52.595
X299.898Y-55.135
X299.898Y-57.675
X302.438Y-52.595
X302.438Y-55.135
X302.438Y-57.675
X304.978Y-52.595
X304.978Y-55.135
X304.978Y-57.675
X307.518Y-52.595
X307.518Y-55.135
X307.518Y-57.675
X310.058Y-52.595
X310.058Y-55.135
X310.058Y-57.675
X312.598Y-52.595
X312.598Y-55.135
X312.598Y-57.675
X315.138Y-52.595
X315.138Y-55.135
X315.138Y-57.675
X317.678Y-52.595
X317.678Y-55.135
X317.678Y-57.675
X320.218Y-52.595
X320.218Y-55.135
X320.218Y-57.675
X331.762Y-151.616
X331.966Y-113.516
X334.302Y-151.616
X334.506Y-113.516
X336.842Y-151.616
X337.046Y-113.516
X339.382Y-151.616
X339.586Y-113.516
X341.922Y-151.616
X342.126Y-113.516
X344.462Y-151.616
X344.666Y-113.516
X347.002Y-151.616
X347.206Y-113.516
X349.542Y-151.616
X349.746Y-113.516
T8
X290.322Y-105.283
X290.322Y-107.823
X290.322Y-110.363
X290.322Y-112.903
X290.322Y-115.443
X290.322Y-117.983
X290.322Y-120.523
X290.322Y-123.063
X290.322Y-125.603
X290.322Y-128.143
X290.322Y-130.683
X290.322Y-133.223
X290.322Y-135.763
X290.322Y-138.303
X290.322Y-140.843
X290.322Y-143.383
X290.322Y-145.923
X290.322Y-148.463
X290.322Y-151.003
X290.322Y-153.543
X296.672Y-105.513
X299.212Y-105.513
X301.752Y-105.513
X308.102Y-105.283
X308.102Y-107.823
X308.102Y-110.363
X308.102Y-112.903
X308.102Y-115.443
X308.102Y-117.983
X308.102Y-120.523
X308.102Y-123.063
X308.102Y-125.603
X308.102Y-128.143
X308.102Y-130.683
X308.102Y-133.223
X308.102Y-135.763
X308.102Y-138.303
X308.102Y-140.843
X308.102Y-143.383
X308.102Y-145.923
X308.102Y-148.463
X308.102Y-151.003
X308.102Y-153.543
T9
X204.045Y-132.056
X204.045Y-157.456
X212.369Y-60.173
X212.369Y-85.573
T10
X199.415Y-185.344
X229.87Y-166.446
X301.041Y-171.475
X319.075Y-88.451
T11
X274.22Y-183.141
X274.33Y-177.341
X290.16Y-177.341
X290.27Y-183.141
T12
X244.898Y-184.315
X258.038Y-184.315
T13
X102.362Y-50.055
X191.262Y-50.055
X236.398Y-50.055
X325.298Y-50.055
T0
M30
