  0
SECTION
  2
HEADER
  9
$ANGBASE
  50
0.0
  9
$ANGDIR
  70
1
  9
$MEASUREMENT
  70
1
  0
ENDSEC
  0
SECTION
  2
TABLES
  0
TABLE
  2
LTYPE
  70
4
  0
LTYPE
  5
40F
  2
CONTINUOUS
  70
0
  3
Solid line
  72
65
  73
0
  40
0.0
  0
LTYPE
  5
410
  2
DASHDOT
 70
0
  3
Dash Dot ____ _ ____ _
 72
65
 73
4
 40
2.0
 49
1.25
 49
-0.25
 49
0.25
 49
-0.25
  0
LTYPE
  5
411
  2
DASHED
 70
0
  3
Dashed __ __ __ __ __
 72
65
 73
2
 40
0.75
 49
0.5
 49
-0.25
  0
LTYPE
  5
43B
  2
DOTTED
 70
0
  3
Dotted .  .  .  .
 72
65
 73
2
 40
0.2
 49
0.0
 49
-0.2
  0
ENDTAB
  0
TABLE
  2
STYLE
  70
4
  0
STYLE
  2
KICAD
  70
0
  40
0
  41
1
  42
1
  50
0
  71
0
  3
isocp.shx
  0
STYLE
  2
KICADB
  70
0
  40
0
  41
1
  42
1
  50
0
  71
0
  3
isocp.shx
  0
STYLE
  2
KICADI
  70
0
  40
0
  41
1
  42
1
  50
15
  71
0
  3
isocp.shx
  0
STYLE
  2
KICADBI
  70
0
  40
0
  41
1
  42
1
  50
15
  71
0
  3
isocp.shx
  0
ENDTAB
  0
TABLE
  2
LAYER
  70
1
  0
LAYER
  2
BLACK
  70
0
  62
7
  6
CONTINUOUS
  0
ENDTAB
  0
ENDSEC
  0
SECTION
  2
ENTITIES
0
CIRCLE
8
BLACK
10
80.01
20
-140.655
40
1.4
0
CIRCLE
8
BLACK
10
70.18
20
-191.08
40
1.4
0
CIRCLE
8
BLACK
10
357.48
20
-191.08
40
1.4
0
CIRCLE
8
BLACK
10
70.18
20
-53.78
40
1.4
0
CIRCLE
8
BLACK
10
357.48
20
-53.78
40
1.4
0
LINE
8
BLACK
6
CONTINUOUS
10
63.83
20
-47.43
11
363.83
21
-47.43
0
LINE
8
BLACK
6
CONTINUOUS
10
363.83
20
-47.43
11
363.83
21
-197.43
0
LINE
8
BLACK
6
CONTINUOUS
10
363.83
20
-197.43
11
63.83
21
-197.43
0
LINE
8
BLACK
6
CONTINUOUS
10
63.83
20
-197.43
11
63.83
21
-47.43
0
LINE
8
BLACK
6
CONTINUOUS
10
119.57
20
-151.38
11
121.07
21
-152.88
0
LINE
8
BLACK
6
CONTINUOUS
10
121.07
20
-151.38
11
119.57
21
-152.88
0
LINE
8
BLACK
6
CONTINUOUS
10
124.42
20
-151.38
11
125.92
21
-152.88
0
LINE
8
BLACK
6
CONTINUOUS
10
125.92
20
-151.38
11
124.42
21
-152.88
0
CIRCLE
8
BLACK
10
120.02
20
-155.16
40
0.9
0
CIRCLE
8
BLACK
10
125.47
20
-155.16
40
0.9
0
LINE
8
BLACK
6
CONTINUOUS
10
150.292
20
-188.588
11
150.292
21
-191.838
0
LINE
8
BLACK
6
CONTINUOUS
10
148.667
20
-190.213
11
151.917
21
-190.213
0
LINE
8
BLACK
6
CONTINUOUS
10
161.722
20
-188.588
11
161.722
21
-191.838
0
LINE
8
BLACK
6
CONTINUOUS
10
160.097
20
-190.213
11
163.347
21
-190.213
0
LINE
8
BLACK
6
CONTINUOUS
10
66.3578
20
-200.625
11
66.3578
21
-198.625
0
LINE
8
BLACK
6
CONTINUOUS
10
66.3578
20
-198.625
11
66.834
21
-198.625
0
LINE
8
BLACK
6
CONTINUOUS
10
66.834
20
-198.625
11
67.1197
21
-198.72
0
LINE
8
BLACK
6
CONTINUOUS
10
67.1197
20
-198.72
11
67.3101
21
-198.911
0
LINE
8
BLACK
6
CONTINUOUS
10
67.3101
20
-198.911
11
67.4054
21
-199.101
0
LINE
8
BLACK
6
CONTINUOUS
10
67.4054
20
-199.101
11
67.5006
21
-199.482
0
LINE
8
BLACK
6
CONTINUOUS
10
67.5006
20
-199.482
11
67.5006
21
-199.768
0
LINE
8
BLACK
6
CONTINUOUS
10
67.5006
20
-199.768
11
67.4054
21
-200.149
0
LINE
8
BLACK
6
CONTINUOUS
10
67.4054
20
-200.149
11
67.3101
21
-200.339
0
LINE
8
BLACK
6
CONTINUOUS
10
67.3101
20
-200.339
11
67.1197
21
-200.53
0
LINE
8
BLACK
6
CONTINUOUS
10
67.1197
20
-200.53
11
66.834
21
-200.625
0
LINE
8
BLACK
6
CONTINUOUS
10
66.834
20
-200.625
11
66.3578
21
-200.625
0
LINE
8
BLACK
6
CONTINUOUS
10
68.3578
20
-200.625
11
68.3578
21
-199.292
0
LINE
8
BLACK
6
CONTINUOUS
10
68.3578
20
-199.672
11
68.453
21
-199.482
0
LINE
8
BLACK
6
CONTINUOUS
10
68.453
20
-199.482
11
68.5482
21
-199.387
0
LINE
8
BLACK
6
CONTINUOUS
10
68.5482
20
-199.387
11
68.7387
21
-199.292
0
LINE
8
BLACK
6
CONTINUOUS
10
68.7387
20
-199.292
11
68.9292
21
-199.292
0
LINE
8
BLACK
6
CONTINUOUS
10
69.5959
20
-200.625
11
69.5959
21
-199.292
0
LINE
8
BLACK
6
CONTINUOUS
10
69.5959
20
-198.625
11
69.5006
21
-198.72
0
LINE
8
BLACK
6
CONTINUOUS
10
69.5006
20
-198.72
11
69.5959
21
-198.815
0
LINE
8
BLACK
6
CONTINUOUS
10
69.5959
20
-198.815
11
69.6911
21
-198.72
0
LINE
8
BLACK
6
CONTINUOUS
10
69.6911
20
-198.72
11
69.5959
21
-198.625
0
LINE
8
BLACK
6
CONTINUOUS
10
69.5959
20
-198.625
11
69.5959
21
-198.815
0
LINE
8
BLACK
6
CONTINUOUS
10
70.834
20
-200.625
11
70.6435
21
-200.53
0
LINE
8
BLACK
6
CONTINUOUS
10
70.6435
20
-200.53
11
70.5482
21
-200.339
0
LINE
8
BLACK
6
CONTINUOUS
10
70.5482
20
-200.339
11
70.5482
21
-198.625
0
LINE
8
BLACK
6
CONTINUOUS
10
71.8816
20
-200.625
11
71.6911
21
-200.53
0
LINE
8
BLACK
6
CONTINUOUS
10
71.6911
20
-200.53
11
71.5959
21
-200.339
0
LINE
8
BLACK
6
CONTINUOUS
10
71.5959
20
-200.339
11
71.5959
21
-198.625
0
LINE
8
BLACK
6
CONTINUOUS
10
74.1673
20
-200.625
11
74.1673
21
-198.625
0
LINE
8
BLACK
6
CONTINUOUS
10
74.1673
20
-198.625
11
74.834
21
-200.053
0
LINE
8
BLACK
6
CONTINUOUS
10
74.834
20
-200.053
11
75.5006
21
-198.625
0
LINE
8
BLACK
6
CONTINUOUS
10
75.5006
20
-198.625
11
75.5006
21
-200.625
0
LINE
8
BLACK
6
CONTINUOUS
10
77.3101
20
-200.625
11
77.3101
21
-199.577
0
LINE
8
BLACK
6
CONTINUOUS
10
77.3101
20
-199.577
11
77.2149
21
-199.387
0
LINE
8
BLACK
6
CONTINUOUS
10
77.2149
20
-199.387
11
77.0244
21
-199.292
0
LINE
8
BLACK
6
CONTINUOUS
10
77.0244
20
-199.292
11
76.6435
21
-199.292
0
LINE
8
BLACK
6
CONTINUOUS
10
76.6435
20
-199.292
11
76.453
21
-199.387
0
LINE
8
BLACK
6
CONTINUOUS
10
77.3101
20
-200.53
11
77.1197
21
-200.625
0
LINE
8
BLACK
6
CONTINUOUS
10
77.1197
20
-200.625
11
76.6435
21
-200.625
0
LINE
8
BLACK
6
CONTINUOUS
10
76.6435
20
-200.625
11
76.453
21
-200.53
0
LINE
8
BLACK
6
CONTINUOUS
10
76.453
20
-200.53
11
76.3578
21
-200.339
0
LINE
8
BLACK
6
CONTINUOUS
10
76.3578
20
-200.339
11
76.3578
21
-200.149
0
LINE
8
BLACK
6
CONTINUOUS
10
76.3578
20
-200.149
11
76.453
21
-199.958
0
LINE
8
BLACK
6
CONTINUOUS
10
76.453
20
-199.958
11
76.6435
21
-199.863
0
LINE
8
BLACK
6
CONTINUOUS
10
76.6435
20
-199.863
11
77.1197
21
-199.863
0
LINE
8
BLACK
6
CONTINUOUS
10
77.1197
20
-199.863
11
77.3101
21
-199.768
0
LINE
8
BLACK
6
CONTINUOUS
10
78.2625
20
-199.292
11
78.2625
21
-201.292
0
LINE
8
BLACK
6
CONTINUOUS
10
78.2625
20
-199.387
11
78.453
21
-199.292
0
LINE
8
BLACK
6
CONTINUOUS
10
78.453
20
-199.292
11
78.834
21
-199.292
0
LINE
8
BLACK
6
CONTINUOUS
10
78.834
20
-199.292
11
79.0244
21
-199.387
0
LINE
8
BLACK
6
CONTINUOUS
10
79.0244
20
-199.387
11
79.1197
21
-199.482
0
LINE
8
BLACK
6
CONTINUOUS
10
79.1197
20
-199.482
11
79.2149
21
-199.672
0
LINE
8
BLACK
6
CONTINUOUS
10
79.2149
20
-199.672
11
79.2149
21
-200.244
0
LINE
8
BLACK
6
CONTINUOUS
10
79.2149
20
-200.244
11
79.1197
21
-200.434
0
LINE
8
BLACK
6
CONTINUOUS
10
79.1197
20
-200.434
11
79.0244
21
-200.53
0
LINE
8
BLACK
6
CONTINUOUS
10
79.0244
20
-200.53
11
78.834
21
-200.625
0
LINE
8
BLACK
6
CONTINUOUS
10
78.834
20
-200.625
11
78.453
21
-200.625
0
LINE
8
BLACK
6
CONTINUOUS
10
78.453
20
-200.625
11
78.2625
21
-200.53
0
LINE
8
BLACK
6
CONTINUOUS
10
80.0721
20
-200.434
11
80.1673
21
-200.53
0
LINE
8
BLACK
6
CONTINUOUS
10
80.1673
20
-200.53
11
80.0721
21
-200.625
0
LINE
8
BLACK
6
CONTINUOUS
10
80.0721
20
-200.625
11
79.9768
21
-200.53
0
LINE
8
BLACK
6
CONTINUOUS
10
79.9768
20
-200.53
11
80.0721
21
-200.434
0
LINE
8
BLACK
6
CONTINUOUS
10
80.0721
20
-200.434
11
80.0721
21
-200.625
0
LINE
8
BLACK
6
CONTINUOUS
10
80.0721
20
-199.387
11
80.1673
21
-199.482
0
LINE
8
BLACK
6
CONTINUOUS
10
80.1673
20
-199.482
11
80.0721
21
-199.577
0
LINE
8
BLACK
6
CONTINUOUS
10
80.0721
20
-199.577
11
79.9768
21
-199.482
0
LINE
8
BLACK
6
CONTINUOUS
10
79.9768
20
-199.482
11
80.0721
21
-199.387
0
LINE
8
BLACK
6
CONTINUOUS
10
80.0721
20
-199.387
11
80.0721
21
-199.577
0
LINE
8
BLACK
6
CONTINUOUS
10
62.25
20
-203.16
11
63.75
21
-204.66
0
LINE
8
BLACK
6
CONTINUOUS
10
63.75
20
-203.16
11
62.25
21
-204.66
0
LINE
8
BLACK
6
CONTINUOUS
10
67.4054
20
-204.825
11
66.2625
21
-204.825
0
LINE
8
BLACK
6
CONTINUOUS
10
66.834
20
-204.825
11
66.834
21
-202.825
0
LINE
8
BLACK
6
CONTINUOUS
10
66.834
20
-202.825
11
66.6435
21
-203.111
0
LINE
8
BLACK
6
CONTINUOUS
10
66.6435
20
-203.111
11
66.453
21
-203.301
0
LINE
8
BLACK
6
CONTINUOUS
10
66.453
20
-203.301
11
66.2625
21
-203.396
0
LINE
8
BLACK
6
CONTINUOUS
10
68.2625
20
-204.634
11
68.3578
21
-204.73
0
LINE
8
BLACK
6
CONTINUOUS
10
68.3578
20
-204.73
11
68.2625
21
-204.825
0
LINE
8
BLACK
6
CONTINUOUS
10
68.2625
20
-204.825
11
68.1673
21
-204.73
0
LINE
8
BLACK
6
CONTINUOUS
10
68.1673
20
-204.73
11
68.2625
21
-204.634
0
LINE
8
BLACK
6
CONTINUOUS
10
68.2625
20
-204.634
11
68.2625
21
-204.825
0
LINE
8
BLACK
6
CONTINUOUS
10
70.1673
20
-202.825
11
69.2149
21
-202.825
0
LINE
8
BLACK
6
CONTINUOUS
10
69.2149
20
-202.825
11
69.1197
21
-203.777
0
LINE
8
BLACK
6
CONTINUOUS
10
69.1197
20
-203.777
11
69.2149
21
-203.682
0
LINE
8
BLACK
6
CONTINUOUS
10
69.2149
20
-203.682
11
69.4054
21
-203.587
0
LINE
8
BLACK
6
CONTINUOUS
10
69.4054
20
-203.587
11
69.8816
21
-203.587
0
LINE
8
BLACK
6
CONTINUOUS
10
69.8816
20
-203.587
11
70.0721
21
-203.682
0
LINE
8
BLACK
6
CONTINUOUS
10
70.0721
20
-203.682
11
70.1673
21
-203.777
0
LINE
8
BLACK
6
CONTINUOUS
10
70.1673
20
-203.777
11
70.2625
21
-203.968
0
LINE
8
BLACK
6
CONTINUOUS
10
70.2625
20
-203.968
11
70.2625
21
-204.444
0
LINE
8
BLACK
6
CONTINUOUS
10
70.2625
20
-204.444
11
70.1673
21
-204.634
0
LINE
8
BLACK
6
CONTINUOUS
10
70.1673
20
-204.634
11
70.0721
21
-204.73
0
LINE
8
BLACK
6
CONTINUOUS
10
70.0721
20
-204.73
11
69.8816
21
-204.825
0
LINE
8
BLACK
6
CONTINUOUS
10
69.8816
20
-204.825
11
69.4054
21
-204.825
0
LINE
8
BLACK
6
CONTINUOUS
10
69.4054
20
-204.825
11
69.2149
21
-204.73
0
LINE
8
BLACK
6
CONTINUOUS
10
69.2149
20
-204.73
11
69.1197
21
-204.634
0
LINE
8
BLACK
6
CONTINUOUS
10
71.5006
20
-202.825
11
71.6911
21
-202.825
0
LINE
8
BLACK
6
CONTINUOUS
10
71.6911
20
-202.825
11
71.8816
21
-202.92
0
LINE
8
BLACK
6
CONTINUOUS
10
71.8816
20
-202.92
11
71.9768
21
-203.015
0
LINE
8
BLACK
6
CONTINUOUS
10
71.9768
20
-203.015
11
72.0721
21
-203.206
0
LINE
8
BLACK
6
CONTINUOUS
10
72.0721
20
-203.206
11
72.1673
21
-203.587
0
LINE
8
BLACK
6
CONTINUOUS
10
72.1673
20
-203.587
11
72.1673
21
-204.063
0
LINE
8
BLACK
6
CONTINUOUS
10
72.1673
20
-204.063
11
72.0721
21
-204.444
0
LINE
8
BLACK
6
CONTINUOUS
10
72.0721
20
-204.444
11
71.9768
21
-204.634
0
LINE
8
BLACK
6
CONTINUOUS
10
71.9768
20
-204.634
11
71.8816
21
-204.73
0
LINE
8
BLACK
6
CONTINUOUS
10
71.8816
20
-204.73
11
71.6911
21
-204.825
0
LINE
8
BLACK
6
CONTINUOUS
10
71.6911
20
-204.825
11
71.5006
21
-204.825
0
LINE
8
BLACK
6
CONTINUOUS
10
71.5006
20
-204.825
11
71.3101
21
-204.73
0
LINE
8
BLACK
6
CONTINUOUS
10
71.3101
20
-204.73
11
71.2149
21
-204.634
0
LINE
8
BLACK
6
CONTINUOUS
10
71.2149
20
-204.634
11
71.1197
21
-204.444
0
LINE
8
BLACK
6
CONTINUOUS
10
71.1197
20
-204.444
11
71.0244
21
-204.063
0
LINE
8
BLACK
6
CONTINUOUS
10
71.0244
20
-204.063
11
71.0244
21
-203.587
0
LINE
8
BLACK
6
CONTINUOUS
10
71.0244
20
-203.587
11
71.1197
21
-203.206
0
LINE
8
BLACK
6
CONTINUOUS
10
71.1197
20
-203.206
11
71.2149
21
-203.015
0
LINE
8
BLACK
6
CONTINUOUS
10
71.2149
20
-203.015
11
71.3101
21
-202.92
0
LINE
8
BLACK
6
CONTINUOUS
10
71.3101
20
-202.92
11
71.5006
21
-202.825
0
LINE
8
BLACK
6
CONTINUOUS
10
73.4054
20
-202.825
11
73.5959
21
-202.825
0
LINE
8
BLACK
6
CONTINUOUS
10
73.5959
20
-202.825
11
73.7863
21
-202.92
0
LINE
8
BLACK
6
CONTINUOUS
10
73.7863
20
-202.92
11
73.8816
21
-203.015
0
LINE
8
BLACK
6
CONTINUOUS
10
73.8816
20
-203.015
11
73.9768
21
-203.206
0
LINE
8
BLACK
6
CONTINUOUS
10
73.9768
20
-203.206
11
74.0721
21
-203.587
0
LINE
8
BLACK
6
CONTINUOUS
10
74.0721
20
-203.587
11
74.0721
21
-204.063
0
LINE
8
BLACK
6
CONTINUOUS
10
74.0721
20
-204.063
11
73.9768
21
-204.444
0
LINE
8
BLACK
6
CONTINUOUS
10
73.9768
20
-204.444
11
73.8816
21
-204.634
0
LINE
8
BLACK
6
CONTINUOUS
10
73.8816
20
-204.634
11
73.7863
21
-204.73
0
LINE
8
BLACK
6
CONTINUOUS
10
73.7863
20
-204.73
11
73.5959
21
-204.825
0
LINE
8
BLACK
6
CONTINUOUS
10
73.5959
20
-204.825
11
73.4054
21
-204.825
0
LINE
8
BLACK
6
CONTINUOUS
10
73.4054
20
-204.825
11
73.2149
21
-204.73
0
LINE
8
BLACK
6
CONTINUOUS
10
73.2149
20
-204.73
11
73.1197
21
-204.634
0
LINE
8
BLACK
6
CONTINUOUS
10
73.1197
20
-204.634
11
73.0244
21
-204.444
0
LINE
8
BLACK
6
CONTINUOUS
10
73.0244
20
-204.444
11
72.9292
21
-204.063
0
LINE
8
BLACK
6
CONTINUOUS
10
72.9292
20
-204.063
11
72.9292
21
-203.587
0
LINE
8
BLACK
6
CONTINUOUS
10
72.9292
20
-203.587
11
73.0244
21
-203.206
0
LINE
8
BLACK
6
CONTINUOUS
10
73.0244
20
-203.206
11
73.1197
21
-203.015
0
LINE
8
BLACK
6
CONTINUOUS
10
73.1197
20
-203.015
11
73.2149
21
-202.92
0
LINE
8
BLACK
6
CONTINUOUS
10
73.2149
20
-202.92
11
73.4054
21
-202.825
0
LINE
8
BLACK
6
CONTINUOUS
10
74.9292
20
-204.825
11
74.9292
21
-203.492
0
LINE
8
BLACK
6
CONTINUOUS
10
74.9292
20
-203.682
11
75.0244
21
-203.587
0
LINE
8
BLACK
6
CONTINUOUS
10
75.0244
20
-203.587
11
75.2149
21
-203.492
0
LINE
8
BLACK
6
CONTINUOUS
10
75.2149
20
-203.492
11
75.5006
21
-203.492
0
LINE
8
BLACK
6
CONTINUOUS
10
75.5006
20
-203.492
11
75.6911
21
-203.587
0
LINE
8
BLACK
6
CONTINUOUS
10
75.6911
20
-203.587
11
75.7863
21
-203.777
0
LINE
8
BLACK
6
CONTINUOUS
10
75.7863
20
-203.777
11
75.7863
21
-204.825
0
LINE
8
BLACK
6
CONTINUOUS
10
75.7863
20
-203.777
11
75.8816
21
-203.587
0
LINE
8
BLACK
6
CONTINUOUS
10
75.8816
20
-203.587
11
76.0721
21
-203.492
0
LINE
8
BLACK
6
CONTINUOUS
10
76.0721
20
-203.492
11
76.3578
21
-203.492
0
LINE
8
BLACK
6
CONTINUOUS
10
76.3578
20
-203.492
11
76.5482
21
-203.587
0
LINE
8
BLACK
6
CONTINUOUS
10
76.5482
20
-203.587
11
76.6435
21
-203.777
0
LINE
8
BLACK
6
CONTINUOUS
10
76.6435
20
-203.777
11
76.6435
21
-204.825
0
LINE
8
BLACK
6
CONTINUOUS
10
77.5959
20
-204.825
11
77.5959
21
-203.492
0
LINE
8
BLACK
6
CONTINUOUS
10
77.5959
20
-203.682
11
77.6911
21
-203.587
0
LINE
8
BLACK
6
CONTINUOUS
10
77.6911
20
-203.587
11
77.8816
21
-203.492
0
LINE
8
BLACK
6
CONTINUOUS
10
77.8816
20
-203.492
11
78.1673
21
-203.492
0
LINE
8
BLACK
6
CONTINUOUS
10
78.1673
20
-203.492
11
78.3578
21
-203.587
0
LINE
8
BLACK
6
CONTINUOUS
10
78.3578
20
-203.587
11
78.453
21
-203.777
0
LINE
8
BLACK
6
CONTINUOUS
10
78.453
20
-203.777
11
78.453
21
-204.825
0
LINE
8
BLACK
6
CONTINUOUS
10
78.453
20
-203.777
11
78.5482
21
-203.587
0
LINE
8
BLACK
6
CONTINUOUS
10
78.5482
20
-203.587
11
78.7387
21
-203.492
0
LINE
8
BLACK
6
CONTINUOUS
10
78.7387
20
-203.492
11
79.0244
21
-203.492
0
LINE
8
BLACK
6
CONTINUOUS
10
79.0244
20
-203.492
11
79.2149
21
-203.587
0
LINE
8
BLACK
6
CONTINUOUS
10
79.2149
20
-203.587
11
79.3101
21
-203.777
0
LINE
8
BLACK
6
CONTINUOUS
10
79.3101
20
-203.777
11
79.3101
21
-204.825
0
LINE
8
BLACK
6
CONTINUOUS
10
83.2149
20
-202.73
11
81.5006
21
-205.301
0
LINE
8
BLACK
6
CONTINUOUS
10
85.7863
20
-202.825
11
85.9768
21
-202.825
0
LINE
8
BLACK
6
CONTINUOUS
10
85.9768
20
-202.825
11
86.1673
21
-202.92
0
LINE
8
BLACK
6
CONTINUOUS
10
86.1673
20
-202.92
11
86.2625
21
-203.015
0
LINE
8
BLACK
6
CONTINUOUS
10
86.2625
20
-203.015
11
86.3578
21
-203.206
0
LINE
8
BLACK
6
CONTINUOUS
10
86.3578
20
-203.206
11
86.453
21
-203.587
0
LINE
8
BLACK
6
CONTINUOUS
10
86.453
20
-203.587
11
86.453
21
-204.063
0
LINE
8
BLACK
6
CONTINUOUS
10
86.453
20
-204.063
11
86.3578
21
-204.444
0
LINE
8
BLACK
6
CONTINUOUS
10
86.3578
20
-204.444
11
86.2625
21
-204.634
0
LINE
8
BLACK
6
CONTINUOUS
10
86.2625
20
-204.634
11
86.1673
21
-204.73
0
LINE
8
BLACK
6
CONTINUOUS
10
86.1673
20
-204.73
11
85.9768
21
-204.825
0
LINE
8
BLACK
6
CONTINUOUS
10
85.9768
20
-204.825
11
85.7863
21
-204.825
0
LINE
8
BLACK
6
CONTINUOUS
10
85.7863
20
-204.825
11
85.5959
21
-204.73
0
LINE
8
BLACK
6
CONTINUOUS
10
85.5959
20
-204.73
11
85.5006
21
-204.634
0
LINE
8
BLACK
6
CONTINUOUS
10
85.5006
20
-204.634
11
85.4054
21
-204.444
0
LINE
8
BLACK
6
CONTINUOUS
10
85.4054
20
-204.444
11
85.3102
21
-204.063
0
LINE
8
BLACK
6
CONTINUOUS
10
85.3102
20
-204.063
11
85.3102
21
-203.587
0
LINE
8
BLACK
6
CONTINUOUS
10
85.3102
20
-203.587
11
85.4054
21
-203.206
0
LINE
8
BLACK
6
CONTINUOUS
10
85.4054
20
-203.206
11
85.5006
21
-203.015
0
LINE
8
BLACK
6
CONTINUOUS
10
85.5006
20
-203.015
11
85.5959
21
-202.92
0
LINE
8
BLACK
6
CONTINUOUS
10
85.5959
20
-202.92
11
85.7863
21
-202.825
0
LINE
8
BLACK
6
CONTINUOUS
10
87.3102
20
-204.634
11
87.4054
21
-204.73
0
LINE
8
BLACK
6
CONTINUOUS
10
87.4054
20
-204.73
11
87.3102
21
-204.825
0
LINE
8
BLACK
6
CONTINUOUS
10
87.3102
20
-204.825
11
87.2149
21
-204.73
0
LINE
8
BLACK
6
CONTINUOUS
10
87.2149
20
-204.73
11
87.3102
21
-204.634
0
LINE
8
BLACK
6
CONTINUOUS
10
87.3102
20
-204.634
11
87.3102
21
-204.825
0
LINE
8
BLACK
6
CONTINUOUS
10
88.6435
20
-202.825
11
88.834
21
-202.825
0
LINE
8
BLACK
6
CONTINUOUS
10
88.834
20
-202.825
11
89.0244
21
-202.92
0
LINE
8
BLACK
6
CONTINUOUS
10
89.0244
20
-202.92
11
89.1197
21
-203.015
0
LINE
8
BLACK
6
CONTINUOUS
10
89.1197
20
-203.015
11
89.2149
21
-203.206
0
LINE
8
BLACK
6
CONTINUOUS
10
89.2149
20
-203.206
11
89.3102
21
-203.587
0
LINE
8
BLACK
6
CONTINUOUS
10
89.3102
20
-203.587
11
89.3102
21
-204.063
0
LINE
8
BLACK
6
CONTINUOUS
10
89.3102
20
-204.063
11
89.2149
21
-204.444
0
LINE
8
BLACK
6
CONTINUOUS
10
89.2149
20
-204.444
11
89.1197
21
-204.634
0
LINE
8
BLACK
6
CONTINUOUS
10
89.1197
20
-204.634
11
89.0244
21
-204.73
0
LINE
8
BLACK
6
CONTINUOUS
10
89.0244
20
-204.73
11
88.834
21
-204.825
0
LINE
8
BLACK
6
CONTINUOUS
10
88.834
20
-204.825
11
88.6435
21
-204.825
0
LINE
8
BLACK
6
CONTINUOUS
10
88.6435
20
-204.825
11
88.453
21
-204.73
0
LINE
8
BLACK
6
CONTINUOUS
10
88.453
20
-204.73
11
88.3578
21
-204.634
0
LINE
8
BLACK
6
CONTINUOUS
10
88.3578
20
-204.634
11
88.2625
21
-204.444
0
LINE
8
BLACK
6
CONTINUOUS
10
88.2625
20
-204.444
11
88.1673
21
-204.063
0
LINE
8
BLACK
6
CONTINUOUS
10
88.1673
20
-204.063
11
88.1673
21
-203.587
0
LINE
8
BLACK
6
CONTINUOUS
10
88.1673
20
-203.587
11
88.2625
21
-203.206
0
LINE
8
BLACK
6
CONTINUOUS
10
88.2625
20
-203.206
11
88.3578
21
-203.015
0
LINE
8
BLACK
6
CONTINUOUS
10
88.3578
20
-203.015
11
88.453
21
-202.92
0
LINE
8
BLACK
6
CONTINUOUS
10
88.453
20
-202.92
11
88.6435
21
-202.825
0
LINE
8
BLACK
6
CONTINUOUS
10
91.1197
20
-202.825
11
90.1673
21
-202.825
0
LINE
8
BLACK
6
CONTINUOUS
10
90.1673
20
-202.825
11
90.0721
21
-203.777
0
LINE
8
BLACK
6
CONTINUOUS
10
90.0721
20
-203.777
11
90.1673
21
-203.682
0
LINE
8
BLACK
6
CONTINUOUS
10
90.1673
20
-203.682
11
90.3578
21
-203.587
0
LINE
8
BLACK
6
CONTINUOUS
10
90.3578
20
-203.587
11
90.834
21
-203.587
0
LINE
8
BLACK
6
CONTINUOUS
10
90.834
20
-203.587
11
91.0244
21
-203.682
0
LINE
8
BLACK
6
CONTINUOUS
10
91.0244
20
-203.682
11
91.1197
21
-203.777
0
LINE
8
BLACK
6
CONTINUOUS
10
91.1197
20
-203.777
11
91.2149
21
-203.968
0
LINE
8
BLACK
6
CONTINUOUS
10
91.2149
20
-203.968
11
91.2149
21
-204.444
0
LINE
8
BLACK
6
CONTINUOUS
10
91.2149
20
-204.444
11
91.1197
21
-204.634
0
LINE
8
BLACK
6
CONTINUOUS
10
91.1197
20
-204.634
11
91.0244
21
-204.73
0
LINE
8
BLACK
6
CONTINUOUS
10
91.0244
20
-204.73
11
90.834
21
-204.825
0
LINE
8
BLACK
6
CONTINUOUS
10
90.834
20
-204.825
11
90.3578
21
-204.825
0
LINE
8
BLACK
6
CONTINUOUS
10
90.3578
20
-204.825
11
90.1673
21
-204.73
0
LINE
8
BLACK
6
CONTINUOUS
10
90.1673
20
-204.73
11
90.0721
21
-204.634
0
LINE
8
BLACK
6
CONTINUOUS
10
92.1673
20
-204.825
11
92.5482
21
-204.825
0
LINE
8
BLACK
6
CONTINUOUS
10
92.5482
20
-204.825
11
92.7387
21
-204.73
0
LINE
8
BLACK
6
CONTINUOUS
10
92.7387
20
-204.73
11
92.834
21
-204.634
0
LINE
8
BLACK
6
CONTINUOUS
10
92.834
20
-204.634
11
93.0244
21
-204.349
0
LINE
8
BLACK
6
CONTINUOUS
10
93.0244
20
-204.349
11
93.1197
21
-203.968
0
LINE
8
BLACK
6
CONTINUOUS
10
93.1197
20
-203.968
11
93.1197
21
-203.206
0
LINE
8
BLACK
6
CONTINUOUS
10
93.1197
20
-203.206
11
93.0244
21
-203.015
0
LINE
8
BLACK
6
CONTINUOUS
10
93.0244
20
-203.015
11
92.9292
21
-202.92
0
LINE
8
BLACK
6
CONTINUOUS
10
92.9292
20
-202.92
11
92.7387
21
-202.825
0
LINE
8
BLACK
6
CONTINUOUS
10
92.7387
20
-202.825
11
92.3578
21
-202.825
0
LINE
8
BLACK
6
CONTINUOUS
10
92.3578
20
-202.825
11
92.1673
21
-202.92
0
LINE
8
BLACK
6
CONTINUOUS
10
92.1673
20
-202.92
11
92.0721
21
-203.015
0
LINE
8
BLACK
6
CONTINUOUS
10
92.0721
20
-203.015
11
91.9768
21
-203.206
0
LINE
8
BLACK
6
CONTINUOUS
10
91.9768
20
-203.206
11
91.9768
21
-203.682
0
LINE
8
BLACK
6
CONTINUOUS
10
91.9768
20
-203.682
11
92.0721
21
-203.872
0
LINE
8
BLACK
6
CONTINUOUS
10
92.0721
20
-203.872
11
92.1673
21
-203.968
0
LINE
8
BLACK
6
CONTINUOUS
10
92.1673
20
-203.968
11
92.3578
21
-204.063
0
LINE
8
BLACK
6
CONTINUOUS
10
92.3578
20
-204.063
11
92.7387
21
-204.063
0
LINE
8
BLACK
6
CONTINUOUS
10
92.7387
20
-204.063
11
92.9292
21
-203.968
0
LINE
8
BLACK
6
CONTINUOUS
10
92.9292
20
-203.968
11
93.0244
21
-203.872
0
LINE
8
BLACK
6
CONTINUOUS
10
93.0244
20
-203.872
11
93.1197
21
-203.682
0
LINE
8
BLACK
6
CONTINUOUS
10
95.0244
20
-204.825
11
93.8816
21
-204.825
0
LINE
8
BLACK
6
CONTINUOUS
10
94.453
20
-204.825
11
94.453
21
-202.825
0
LINE
8
BLACK
6
CONTINUOUS
10
94.453
20
-202.825
11
94.2625
21
-203.111
0
LINE
8
BLACK
6
CONTINUOUS
10
94.2625
20
-203.111
11
94.0721
21
-203.301
0
LINE
8
BLACK
6
CONTINUOUS
10
94.0721
20
-203.301
11
93.8816
21
-203.396
0
LINE
8
BLACK
6
CONTINUOUS
10
95.7863
20
-202.825
11
95.7863
21
-203.206
0
LINE
8
BLACK
6
CONTINUOUS
10
96.5482
20
-202.825
11
96.5482
21
-203.206
0
LINE
8
BLACK
6
CONTINUOUS
10
99.5006
20
-205.587
11
99.4054
21
-205.492
0
LINE
8
BLACK
6
CONTINUOUS
10
99.4054
20
-205.492
11
99.2149
21
-205.206
0
LINE
8
BLACK
6
CONTINUOUS
10
99.2149
20
-205.206
11
99.1197
21
-205.015
0
LINE
8
BLACK
6
CONTINUOUS
10
99.1197
20
-205.015
11
99.0244
21
-204.73
0
LINE
8
BLACK
6
CONTINUOUS
10
99.0244
20
-204.73
11
98.9292
21
-204.253
0
LINE
8
BLACK
6
CONTINUOUS
10
98.9292
20
-204.253
11
98.9292
21
-203.872
0
LINE
8
BLACK
6
CONTINUOUS
10
98.9292
20
-203.872
11
99.0244
21
-203.396
0
LINE
8
BLACK
6
CONTINUOUS
10
99.0244
20
-203.396
11
99.1197
21
-203.111
0
LINE
8
BLACK
6
CONTINUOUS
10
99.1197
20
-203.111
11
99.2149
21
-202.92
0
LINE
8
BLACK
6
CONTINUOUS
10
99.2149
20
-202.92
11
99.4054
21
-202.634
0
LINE
8
BLACK
6
CONTINUOUS
10
99.4054
20
-202.634
11
99.5006
21
-202.539
0
LINE
8
BLACK
6
CONTINUOUS
10
100.167
20
-203.015
11
100.263
21
-202.92
0
LINE
8
BLACK
6
CONTINUOUS
10
100.263
20
-202.92
11
100.453
21
-202.825
0
LINE
8
BLACK
6
CONTINUOUS
10
100.453
20
-202.825
11
100.929
21
-202.825
0
LINE
8
BLACK
6
CONTINUOUS
10
100.929
20
-202.825
11
101.12
21
-202.92
0
LINE
8
BLACK
6
CONTINUOUS
10
101.12
20
-202.92
11
101.215
21
-203.015
0
LINE
8
BLACK
6
CONTINUOUS
10
101.215
20
-203.015
11
101.31
21
-203.206
0
LINE
8
BLACK
6
CONTINUOUS
10
101.31
20
-203.206
11
101.31
21
-203.396
0
LINE
8
BLACK
6
CONTINUOUS
10
101.31
20
-203.396
11
101.215
21
-203.682
0
LINE
8
BLACK
6
CONTINUOUS
10
101.215
20
-203.682
11
100.072
21
-204.825
0
LINE
8
BLACK
6
CONTINUOUS
10
100.072
20
-204.825
11
101.31
21
-204.825
0
LINE
8
BLACK
6
CONTINUOUS
10
103.691
20
-204.825
11
103.691
21
-202.825
0
LINE
8
BLACK
6
CONTINUOUS
10
104.548
20
-204.825
11
104.548
21
-203.777
0
LINE
8
BLACK
6
CONTINUOUS
10
104.548
20
-203.777
11
104.453
21
-203.587
0
LINE
8
BLACK
6
CONTINUOUS
10
104.453
20
-203.587
11
104.263
21
-203.492
0
LINE
8
BLACK
6
CONTINUOUS
10
104.263
20
-203.492
11
103.977
21
-203.492
0
LINE
8
BLACK
6
CONTINUOUS
10
103.977
20
-203.492
11
103.786
21
-203.587
0
LINE
8
BLACK
6
CONTINUOUS
10
103.786
20
-203.587
11
103.691
21
-203.682
0
LINE
8
BLACK
6
CONTINUOUS
10
105.786
20
-204.825
11
105.596
21
-204.73
0
LINE
8
BLACK
6
CONTINUOUS
10
105.596
20
-204.73
11
105.501
21
-204.634
0
LINE
8
BLACK
6
CONTINUOUS
10
105.501
20
-204.634
11
105.405
21
-204.444
0
LINE
8
BLACK
6
CONTINUOUS
10
105.405
20
-204.444
11
105.405
21
-203.872
0
LINE
8
BLACK
6
CONTINUOUS
10
105.405
20
-203.872
11
105.501
21
-203.682
0
LINE
8
BLACK
6
CONTINUOUS
10
105.501
20
-203.682
11
105.596
21
-203.587
0
LINE
8
BLACK
6
CONTINUOUS
10
105.596
20
-203.587
11
105.786
21
-203.492
0
LINE
8
BLACK
6
CONTINUOUS
10
105.786
20
-203.492
11
106.072
21
-203.492
0
LINE
8
BLACK
6
CONTINUOUS
10
106.072
20
-203.492
11
106.263
21
-203.587
0
LINE
8
BLACK
6
CONTINUOUS
10
106.263
20
-203.587
11
106.358
21
-203.682
0
LINE
8
BLACK
6
CONTINUOUS
10
106.358
20
-203.682
11
106.453
21
-203.872
0
LINE
8
BLACK
6
CONTINUOUS
10
106.453
20
-203.872
11
106.453
21
-204.444
0
LINE
8
BLACK
6
CONTINUOUS
10
106.453
20
-204.444
11
106.358
21
-204.634
0
LINE
8
BLACK
6
CONTINUOUS
10
106.358
20
-204.634
11
106.263
21
-204.73
0
LINE
8
BLACK
6
CONTINUOUS
10
106.263
20
-204.73
11
106.072
21
-204.825
0
LINE
8
BLACK
6
CONTINUOUS
10
106.072
20
-204.825
11
105.786
21
-204.825
0
LINE
8
BLACK
6
CONTINUOUS
10
107.596
20
-204.825
11
107.405
21
-204.73
0
LINE
8
BLACK
6
CONTINUOUS
10
107.405
20
-204.73
11
107.31
21
-204.539
0
LINE
8
BLACK
6
CONTINUOUS
10
107.31
20
-204.539
11
107.31
21
-202.825
0
LINE
8
BLACK
6
CONTINUOUS
10
109.12
20
-204.73
11
108.929
21
-204.825
0
LINE
8
BLACK
6
CONTINUOUS
10
108.929
20
-204.825
11
108.548
21
-204.825
0
LINE
8
BLACK
6
CONTINUOUS
10
108.548
20
-204.825
11
108.358
21
-204.73
0
LINE
8
BLACK
6
CONTINUOUS
10
108.358
20
-204.73
11
108.263
21
-204.539
0
LINE
8
BLACK
6
CONTINUOUS
10
108.263
20
-204.539
11
108.263
21
-203.777
0
LINE
8
BLACK
6
CONTINUOUS
10
108.263
20
-203.777
11
108.358
21
-203.587
0
LINE
8
BLACK
6
CONTINUOUS
10
108.358
20
-203.587
11
108.548
21
-203.492
0
LINE
8
BLACK
6
CONTINUOUS
10
108.548
20
-203.492
11
108.929
21
-203.492
0
LINE
8
BLACK
6
CONTINUOUS
10
108.929
20
-203.492
11
109.12
21
-203.587
0
LINE
8
BLACK
6
CONTINUOUS
10
109.12
20
-203.587
11
109.215
21
-203.777
0
LINE
8
BLACK
6
CONTINUOUS
10
109.215
20
-203.777
11
109.215
21
-203.968
0
LINE
8
BLACK
6
CONTINUOUS
10
109.215
20
-203.968
11
108.263
21
-204.158
0
LINE
8
BLACK
6
CONTINUOUS
10
109.977
20
-204.73
11
110.167
21
-204.825
0
LINE
8
BLACK
6
CONTINUOUS
10
110.167
20
-204.825
11
110.548
21
-204.825
0
LINE
8
BLACK
6
CONTINUOUS
10
110.548
20
-204.825
11
110.739
21
-204.73
0
LINE
8
BLACK
6
CONTINUOUS
10
110.739
20
-204.73
11
110.834
21
-204.539
0
LINE
8
BLACK
6
CONTINUOUS
10
110.834
20
-204.539
11
110.834
21
-204.444
0
LINE
8
BLACK
6
CONTINUOUS
10
110.834
20
-204.444
11
110.739
21
-204.253
0
LINE
8
BLACK
6
CONTINUOUS
10
110.739
20
-204.253
11
110.548
21
-204.158
0
LINE
8
BLACK
6
CONTINUOUS
10
110.548
20
-204.158
11
110.263
21
-204.158
0
LINE
8
BLACK
6
CONTINUOUS
10
110.263
20
-204.158
11
110.072
21
-204.063
0
LINE
8
BLACK
6
CONTINUOUS
10
110.072
20
-204.063
11
109.977
21
-203.872
0
LINE
8
BLACK
6
CONTINUOUS
10
109.977
20
-203.872
11
109.977
21
-203.777
0
LINE
8
BLACK
6
CONTINUOUS
10
109.977
20
-203.777
11
110.072
21
-203.587
0
LINE
8
BLACK
6
CONTINUOUS
10
110.072
20
-203.587
11
110.263
21
-203.492
0
LINE
8
BLACK
6
CONTINUOUS
10
110.263
20
-203.492
11
110.548
21
-203.492
0
LINE
8
BLACK
6
CONTINUOUS
10
110.548
20
-203.492
11
110.739
21
-203.587
0
LINE
8
BLACK
6
CONTINUOUS
10
111.501
20
-205.587
11
111.596
21
-205.492
0
LINE
8
BLACK
6
CONTINUOUS
10
111.596
20
-205.492
11
111.786
21
-205.206
0
LINE
8
BLACK
6
CONTINUOUS
10
111.786
20
-205.206
11
111.882
21
-205.015
0
LINE
8
BLACK
6
CONTINUOUS
10
111.882
20
-205.015
11
111.977
21
-204.73
0
LINE
8
BLACK
6
CONTINUOUS
10
111.977
20
-204.73
11
112.072
21
-204.253
0
LINE
8
BLACK
6
CONTINUOUS
10
112.072
20
-204.253
11
112.072
21
-203.872
0
LINE
8
BLACK
6
CONTINUOUS
10
112.072
20
-203.872
11
111.977
21
-203.396
0
LINE
8
BLACK
6
CONTINUOUS
10
111.977
20
-203.396
11
111.882
21
-203.111
0
LINE
8
BLACK
6
CONTINUOUS
10
111.882
20
-203.111
11
111.786
21
-202.92
0
LINE
8
BLACK
6
CONTINUOUS
10
111.786
20
-202.92
11
111.596
21
-202.634
0
LINE
8
BLACK
6
CONTINUOUS
10
111.596
20
-202.634
11
111.501
21
-202.539
0
LINE
8
BLACK
6
CONTINUOUS
10
115.12
20
-205.587
11
115.024
21
-205.492
0
LINE
8
BLACK
6
CONTINUOUS
10
115.024
20
-205.492
11
114.834
21
-205.206
0
LINE
8
BLACK
6
CONTINUOUS
10
114.834
20
-205.206
11
114.739
21
-205.015
0
LINE
8
BLACK
6
CONTINUOUS
10
114.739
20
-205.015
11
114.643
21
-204.73
0
LINE
8
BLACK
6
CONTINUOUS
10
114.643
20
-204.73
11
114.548
21
-204.253
0
LINE
8
BLACK
6
CONTINUOUS
10
114.548
20
-204.253
11
114.548
21
-203.872
0
LINE
8
BLACK
6
CONTINUOUS
10
114.548
20
-203.872
11
114.643
21
-203.396
0
LINE
8
BLACK
6
CONTINUOUS
10
114.643
20
-203.396
11
114.739
21
-203.111
0
LINE
8
BLACK
6
CONTINUOUS
10
114.739
20
-203.111
11
114.834
21
-202.92
0
LINE
8
BLACK
6
CONTINUOUS
10
114.834
20
-202.92
11
115.024
21
-202.634
0
LINE
8
BLACK
6
CONTINUOUS
10
115.024
20
-202.634
11
115.12
21
-202.539
0
LINE
8
BLACK
6
CONTINUOUS
10
115.882
20
-203.492
11
115.882
21
-204.825
0
LINE
8
BLACK
6
CONTINUOUS
10
115.882
20
-203.682
11
115.977
21
-203.587
0
LINE
8
BLACK
6
CONTINUOUS
10
115.977
20
-203.587
11
116.167
21
-203.492
0
LINE
8
BLACK
6
CONTINUOUS
10
116.167
20
-203.492
11
116.453
21
-203.492
0
LINE
8
BLACK
6
CONTINUOUS
10
116.453
20
-203.492
11
116.643
21
-203.587
0
LINE
8
BLACK
6
CONTINUOUS
10
116.643
20
-203.587
11
116.739
21
-203.777
0
LINE
8
BLACK
6
CONTINUOUS
10
116.739
20
-203.777
11
116.739
21
-204.825
0
LINE
8
BLACK
6
CONTINUOUS
10
117.977
20
-204.825
11
117.786
21
-204.73
0
LINE
8
BLACK
6
CONTINUOUS
10
117.786
20
-204.73
11
117.691
21
-204.634
0
LINE
8
BLACK
6
CONTINUOUS
10
117.691
20
-204.634
11
117.596
21
-204.444
0
LINE
8
BLACK
6
CONTINUOUS
10
117.596
20
-204.444
11
117.596
21
-203.872
0
LINE
8
BLACK
6
CONTINUOUS
10
117.596
20
-203.872
11
117.691
21
-203.682
0
LINE
8
BLACK
6
CONTINUOUS
10
117.691
20
-203.682
11
117.786
21
-203.587
0
LINE
8
BLACK
6
CONTINUOUS
10
117.786
20
-203.587
11
117.977
21
-203.492
0
LINE
8
BLACK
6
CONTINUOUS
10
117.977
20
-203.492
11
118.263
21
-203.492
0
LINE
8
BLACK
6
CONTINUOUS
10
118.263
20
-203.492
11
118.453
21
-203.587
0
LINE
8
BLACK
6
CONTINUOUS
10
118.453
20
-203.587
11
118.548
21
-203.682
0
LINE
8
BLACK
6
CONTINUOUS
10
118.548
20
-203.682
11
118.643
21
-203.872
0
LINE
8
BLACK
6
CONTINUOUS
10
118.643
20
-203.872
11
118.643
21
-204.444
0
LINE
8
BLACK
6
CONTINUOUS
10
118.643
20
-204.444
11
118.548
21
-204.634
0
LINE
8
BLACK
6
CONTINUOUS
10
118.548
20
-204.634
11
118.453
21
-204.73
0
LINE
8
BLACK
6
CONTINUOUS
10
118.453
20
-204.73
11
118.263
21
-204.825
0
LINE
8
BLACK
6
CONTINUOUS
10
118.263
20
-204.825
11
117.977
21
-204.825
0
LINE
8
BLACK
6
CONTINUOUS
10
119.215
20
-203.492
11
119.977
21
-203.492
0
LINE
8
BLACK
6
CONTINUOUS
10
119.501
20
-202.825
11
119.501
21
-204.539
0
LINE
8
BLACK
6
CONTINUOUS
10
119.501
20
-204.539
11
119.596
21
-204.73
0
LINE
8
BLACK
6
CONTINUOUS
10
119.596
20
-204.73
11
119.786
21
-204.825
0
LINE
8
BLACK
6
CONTINUOUS
10
119.786
20
-204.825
11
119.977
21
-204.825
0
LINE
8
BLACK
6
CONTINUOUS
10
122.167
20
-203.492
11
122.167
21
-205.492
0
LINE
8
BLACK
6
CONTINUOUS
10
122.167
20
-203.587
11
122.358
21
-203.492
0
LINE
8
BLACK
6
CONTINUOUS
10
122.358
20
-203.492
11
122.739
21
-203.492
0
LINE
8
BLACK
6
CONTINUOUS
10
122.739
20
-203.492
11
122.929
21
-203.587
0
LINE
8
BLACK
6
CONTINUOUS
10
122.929
20
-203.587
11
123.024
21
-203.682
0
LINE
8
BLACK
6
CONTINUOUS
10
123.024
20
-203.682
11
123.12
21
-203.872
0
LINE
8
BLACK
6
CONTINUOUS
10
123.12
20
-203.872
11
123.12
21
-204.444
0
LINE
8
BLACK
6
CONTINUOUS
10
123.12
20
-204.444
11
123.024
21
-204.634
0
LINE
8
BLACK
6
CONTINUOUS
10
123.024
20
-204.634
11
122.929
21
-204.73
0
LINE
8
BLACK
6
CONTINUOUS
10
122.929
20
-204.73
11
122.739
21
-204.825
0
LINE
8
BLACK
6
CONTINUOUS
10
122.739
20
-204.825
11
122.358
21
-204.825
0
LINE
8
BLACK
6
CONTINUOUS
10
122.358
20
-204.825
11
122.167
21
-204.73
0
LINE
8
BLACK
6
CONTINUOUS
10
124.263
20
-204.825
11
124.072
21
-204.73
0
LINE
8
BLACK
6
CONTINUOUS
10
124.072
20
-204.73
11
123.977
21
-204.539
0
LINE
8
BLACK
6
CONTINUOUS
10
123.977
20
-204.539
11
123.977
21
-202.825
0
LINE
8
BLACK
6
CONTINUOUS
10
125.882
20
-204.825
11
125.882
21
-203.777
0
LINE
8
BLACK
6
CONTINUOUS
10
125.882
20
-203.777
11
125.786
21
-203.587
0
LINE
8
BLACK
6
CONTINUOUS
10
125.786
20
-203.587
11
125.596
21
-203.492
0
LINE
8
BLACK
6
CONTINUOUS
10
125.596
20
-203.492
11
125.215
21
-203.492
0
LINE
8
BLACK
6
CONTINUOUS
10
125.215
20
-203.492
11
125.024
21
-203.587
0
LINE
8
BLACK
6
CONTINUOUS
10
125.882
20
-204.73
11
125.691
21
-204.825
0
LINE
8
BLACK
6
CONTINUOUS
10
125.691
20
-204.825
11
125.215
21
-204.825
0
LINE
8
BLACK
6
CONTINUOUS
10
125.215
20
-204.825
11
125.024
21
-204.73
0
LINE
8
BLACK
6
CONTINUOUS
10
125.024
20
-204.73
11
124.929
21
-204.539
0
LINE
8
BLACK
6
CONTINUOUS
10
124.929
20
-204.539
11
124.929
21
-204.349
0
LINE
8
BLACK
6
CONTINUOUS
10
124.929
20
-204.349
11
125.024
21
-204.158
0
LINE
8
BLACK
6
CONTINUOUS
10
125.024
20
-204.158
11
125.215
21
-204.063
0
LINE
8
BLACK
6
CONTINUOUS
10
125.215
20
-204.063
11
125.691
21
-204.063
0
LINE
8
BLACK
6
CONTINUOUS
10
125.691
20
-204.063
11
125.882
21
-203.968
0
LINE
8
BLACK
6
CONTINUOUS
10
126.548
20
-203.492
11
127.31
21
-203.492
0
LINE
8
BLACK
6
CONTINUOUS
10
126.834
20
-202.825
11
126.834
21
-204.539
0
LINE
8
BLACK
6
CONTINUOUS
10
126.834
20
-204.539
11
126.929
21
-204.73
0
LINE
8
BLACK
6
CONTINUOUS
10
126.929
20
-204.73
11
127.12
21
-204.825
0
LINE
8
BLACK
6
CONTINUOUS
10
127.12
20
-204.825
11
127.31
21
-204.825
0
LINE
8
BLACK
6
CONTINUOUS
10
128.739
20
-204.73
11
128.548
21
-204.825
0
LINE
8
BLACK
6
CONTINUOUS
10
128.548
20
-204.825
11
128.167
21
-204.825
0
LINE
8
BLACK
6
CONTINUOUS
10
128.167
20
-204.825
11
127.977
21
-204.73
0
LINE
8
BLACK
6
CONTINUOUS
10
127.977
20
-204.73
11
127.882
21
-204.539
0
LINE
8
BLACK
6
CONTINUOUS
10
127.882
20
-204.539
11
127.882
21
-203.777
0
LINE
8
BLACK
6
CONTINUOUS
10
127.882
20
-203.777
11
127.977
21
-203.587
0
LINE
8
BLACK
6
CONTINUOUS
10
127.977
20
-203.587
11
128.167
21
-203.492
0
LINE
8
BLACK
6
CONTINUOUS
10
128.167
20
-203.492
11
128.548
21
-203.492
0
LINE
8
BLACK
6
CONTINUOUS
10
128.548
20
-203.492
11
128.739
21
-203.587
0
LINE
8
BLACK
6
CONTINUOUS
10
128.739
20
-203.587
11
128.834
21
-203.777
0
LINE
8
BLACK
6
CONTINUOUS
10
128.834
20
-203.777
11
128.834
21
-203.968
0
LINE
8
BLACK
6
CONTINUOUS
10
128.834
20
-203.968
11
127.882
21
-204.158
0
LINE
8
BLACK
6
CONTINUOUS
10
130.548
20
-204.825
11
130.548
21
-202.825
0
LINE
8
BLACK
6
CONTINUOUS
10
130.548
20
-204.73
11
130.358
21
-204.825
0
LINE
8
BLACK
6
CONTINUOUS
10
130.358
20
-204.825
11
129.977
21
-204.825
0
LINE
8
BLACK
6
CONTINUOUS
10
129.977
20
-204.825
11
129.786
21
-204.73
0
LINE
8
BLACK
6
CONTINUOUS
10
129.786
20
-204.73
11
129.691
21
-204.634
0
LINE
8
BLACK
6
CONTINUOUS
10
129.691
20
-204.634
11
129.596
21
-204.444
0
LINE
8
BLACK
6
CONTINUOUS
10
129.596
20
-204.444
11
129.596
21
-203.872
0
LINE
8
BLACK
6
CONTINUOUS
10
129.596
20
-203.872
11
129.691
21
-203.682
0
LINE
8
BLACK
6
CONTINUOUS
10
129.691
20
-203.682
11
129.786
21
-203.587
0
LINE
8
BLACK
6
CONTINUOUS
10
129.786
20
-203.587
11
129.977
21
-203.492
0
LINE
8
BLACK
6
CONTINUOUS
10
129.977
20
-203.492
11
130.358
21
-203.492
0
LINE
8
BLACK
6
CONTINUOUS
10
130.358
20
-203.492
11
130.548
21
-203.587
0
LINE
8
BLACK
6
CONTINUOUS
10
131.31
20
-205.587
11
131.405
21
-205.492
0
LINE
8
BLACK
6
CONTINUOUS
10
131.405
20
-205.492
11
131.596
21
-205.206
0
LINE
8
BLACK
6
CONTINUOUS
10
131.596
20
-205.206
11
131.691
21
-205.015
0
LINE
8
BLACK
6
CONTINUOUS
10
131.691
20
-205.015
11
131.786
21
-204.73
0
LINE
8
BLACK
6
CONTINUOUS
10
131.786
20
-204.73
11
131.882
21
-204.253
0
LINE
8
BLACK
6
CONTINUOUS
10
131.882
20
-204.253
11
131.882
21
-203.872
0
LINE
8
BLACK
6
CONTINUOUS
10
131.882
20
-203.872
11
131.786
21
-203.396
0
LINE
8
BLACK
6
CONTINUOUS
10
131.786
20
-203.396
11
131.691
21
-203.111
0
LINE
8
BLACK
6
CONTINUOUS
10
131.691
20
-203.111
11
131.596
21
-202.92
0
LINE
8
BLACK
6
CONTINUOUS
10
131.596
20
-202.92
11
131.405
21
-202.634
0
LINE
8
BLACK
6
CONTINUOUS
10
131.405
20
-202.634
11
131.31
21
-202.539
0
CIRCLE
8
BLACK
10
62.85
20
-206.61
40
0.9
0
LINE
8
BLACK
6
CONTINUOUS
10
67.4054
20
-207.525
11
66.2625
21
-207.525
0
LINE
8
BLACK
6
CONTINUOUS
10
66.834
20
-207.525
11
66.834
21
-205.525
0
LINE
8
BLACK
6
CONTINUOUS
10
66.834
20
-205.525
11
66.6435
21
-205.811
0
LINE
8
BLACK
6
CONTINUOUS
10
66.6435
20
-205.811
11
66.453
21
-206.001
0
LINE
8
BLACK
6
CONTINUOUS
10
66.453
20
-206.001
11
66.2625
21
-206.096
0
LINE
8
BLACK
6
CONTINUOUS
10
68.2625
20
-207.334
11
68.3578
21
-207.43
0
LINE
8
BLACK
6
CONTINUOUS
10
68.3578
20
-207.43
11
68.2625
21
-207.525
0
LINE
8
BLACK
6
CONTINUOUS
10
68.2625
20
-207.525
11
68.1673
21
-207.43
0
LINE
8
BLACK
6
CONTINUOUS
10
68.1673
20
-207.43
11
68.2625
21
-207.334
0
LINE
8
BLACK
6
CONTINUOUS
10
68.2625
20
-207.334
11
68.2625
21
-207.525
0
LINE
8
BLACK
6
CONTINUOUS
10
69.5006
20
-206.382
11
69.3101
21
-206.287
0
LINE
8
BLACK
6
CONTINUOUS
10
69.3101
20
-206.287
11
69.2149
21
-206.192
0
LINE
8
BLACK
6
CONTINUOUS
10
69.2149
20
-206.192
11
69.1197
21
-206.001
0
LINE
8
BLACK
6
CONTINUOUS
10
69.1197
20
-206.001
11
69.1197
21
-205.906
0
LINE
8
BLACK
6
CONTINUOUS
10
69.1197
20
-205.906
11
69.2149
21
-205.715
0
LINE
8
BLACK
6
CONTINUOUS
10
69.2149
20
-205.715
11
69.3101
21
-205.62
0
LINE
8
BLACK
6
CONTINUOUS
10
69.3101
20
-205.62
11
69.5006
21
-205.525
0
LINE
8
BLACK
6
CONTINUOUS
10
69.5006
20
-205.525
11
69.8816
21
-205.525
0
LINE
8
BLACK
6
CONTINUOUS
10
69.8816
20
-205.525
11
70.0721
21
-205.62
0
LINE
8
BLACK
6
CONTINUOUS
10
70.0721
20
-205.62
11
70.1673
21
-205.715
0
LINE
8
BLACK
6
CONTINUOUS
10
70.1673
20
-205.715
11
70.2625
21
-205.906
0
LINE
8
BLACK
6
CONTINUOUS
10
70.2625
20
-205.906
11
70.2625
21
-206.001
0
LINE
8
BLACK
6
CONTINUOUS
10
70.2625
20
-206.001
11
70.1673
21
-206.192
0
LINE
8
BLACK
6
CONTINUOUS
10
70.1673
20
-206.192
11
70.0721
21
-206.287
0
LINE
8
BLACK
6
CONTINUOUS
10
70.0721
20
-206.287
11
69.8816
21
-206.382
0
LINE
8
BLACK
6
CONTINUOUS
10
69.8816
20
-206.382
11
69.5006
21
-206.382
0
LINE
8
BLACK
6
CONTINUOUS
10
69.5006
20
-206.382
11
69.3101
21
-206.477
0
LINE
8
BLACK
6
CONTINUOUS
10
69.3101
20
-206.477
11
69.2149
21
-206.572
0
LINE
8
BLACK
6
CONTINUOUS
10
69.2149
20
-206.572
11
69.1197
21
-206.763
0
LINE
8
BLACK
6
CONTINUOUS
10
69.1197
20
-206.763
11
69.1197
21
-207.144
0
LINE
8
BLACK
6
CONTINUOUS
10
69.1197
20
-207.144
11
69.2149
21
-207.334
0
LINE
8
BLACK
6
CONTINUOUS
10
69.2149
20
-207.334
11
69.3101
21
-207.43
0
LINE
8
BLACK
6
CONTINUOUS
10
69.3101
20
-207.43
11
69.5006
21
-207.525
0
LINE
8
BLACK
6
CONTINUOUS
10
69.5006
20
-207.525
11
69.8816
21
-207.525
0
LINE
8
BLACK
6
CONTINUOUS
10
69.8816
20
-207.525
11
70.0721
21
-207.43
0
LINE
8
BLACK
6
CONTINUOUS
10
70.0721
20
-207.43
11
70.1673
21
-207.334
0
LINE
8
BLACK
6
CONTINUOUS
10
70.1673
20
-207.334
11
70.2625
21
-207.144
0
LINE
8
BLACK
6
CONTINUOUS
10
70.2625
20
-207.144
11
70.2625
21
-206.763
0
LINE
8
BLACK
6
CONTINUOUS
10
70.2625
20
-206.763
11
70.1673
21
-206.572
0
LINE
8
BLACK
6
CONTINUOUS
10
70.1673
20
-206.572
11
70.0721
21
-206.477
0
LINE
8
BLACK
6
CONTINUOUS
10
70.0721
20
-206.477
11
69.8816
21
-206.382
0
LINE
8
BLACK
6
CONTINUOUS
10
71.5006
20
-205.525
11
71.6911
21
-205.525
0
LINE
8
BLACK
6
CONTINUOUS
10
71.6911
20
-205.525
11
71.8816
21
-205.62
0
LINE
8
BLACK
6
CONTINUOUS
10
71.8816
20
-205.62
11
71.9768
21
-205.715
0
LINE
8
BLACK
6
CONTINUOUS
10
71.9768
20
-205.715
11
72.0721
21
-205.906
0
LINE
8
BLACK
6
CONTINUOUS
10
72.0721
20
-205.906
11
72.1673
21
-206.287
0
LINE
8
BLACK
6
CONTINUOUS
10
72.1673
20
-206.287
11
72.1673
21
-206.763
0
LINE
8
BLACK
6
CONTINUOUS
10
72.1673
20
-206.763
11
72.0721
21
-207.144
0
LINE
8
BLACK
6
CONTINUOUS
10
72.0721
20
-207.144
11
71.9768
21
-207.334
0
LINE
8
BLACK
6
CONTINUOUS
10
71.9768
20
-207.334
11
71.8816
21
-207.43
0
LINE
8
BLACK
6
CONTINUOUS
10
71.8816
20
-207.43
11
71.6911
21
-207.525
0
LINE
8
BLACK
6
CONTINUOUS
10
71.6911
20
-207.525
11
71.5006
21
-207.525
0
LINE
8
BLACK
6
CONTINUOUS
10
71.5006
20
-207.525
11
71.3101
21
-207.43
0
LINE
8
BLACK
6
CONTINUOUS
10
71.3101
20
-207.43
11
71.2149
21
-207.334
0
LINE
8
BLACK
6
CONTINUOUS
10
71.2149
20
-207.334
11
71.1197
21
-207.144
0
LINE
8
BLACK
6
CONTINUOUS
10
71.1197
20
-207.144
11
71.0244
21
-206.763
0
LINE
8
BLACK
6
CONTINUOUS
10
71.0244
20
-206.763
11
71.0244
21
-206.287
0
LINE
8
BLACK
6
CONTINUOUS
10
71.0244
20
-206.287
11
71.1197
21
-205.906
0
LINE
8
BLACK
6
CONTINUOUS
10
71.1197
20
-205.906
11
71.2149
21
-205.715
0
LINE
8
BLACK
6
CONTINUOUS
10
71.2149
20
-205.715
11
71.3101
21
-205.62
0
LINE
8
BLACK
6
CONTINUOUS
10
71.3101
20
-205.62
11
71.5006
21
-205.525
0
LINE
8
BLACK
6
CONTINUOUS
10
73.4054
20
-205.525
11
73.5959
21
-205.525
0
LINE
8
BLACK
6
CONTINUOUS
10
73.5959
20
-205.525
11
73.7863
21
-205.62
0
LINE
8
BLACK
6
CONTINUOUS
10
73.7863
20
-205.62
11
73.8816
21
-205.715
0
LINE
8
BLACK
6
CONTINUOUS
10
73.8816
20
-205.715
11
73.9768
21
-205.906
0
LINE
8
BLACK
6
CONTINUOUS
10
73.9768
20
-205.906
11
74.0721
21
-206.287
0
LINE
8
BLACK
6
CONTINUOUS
10
74.0721
20
-206.287
11
74.0721
21
-206.763
0
LINE
8
BLACK
6
CONTINUOUS
10
74.0721
20
-206.763
11
73.9768
21
-207.144
0
LINE
8
BLACK
6
CONTINUOUS
10
73.9768
20
-207.144
11
73.8816
21
-207.334
0
LINE
8
BLACK
6
CONTINUOUS
10
73.8816
20
-207.334
11
73.7863
21
-207.43
0
LINE
8
BLACK
6
CONTINUOUS
10
73.7863
20
-207.43
11
73.5959
21
-207.525
0
LINE
8
BLACK
6
CONTINUOUS
10
73.5959
20
-207.525
11
73.4054
21
-207.525
0
LINE
8
BLACK
6
CONTINUOUS
10
73.4054
20
-207.525
11
73.2149
21
-207.43
0
LINE
8
BLACK
6
CONTINUOUS
10
73.2149
20
-207.43
11
73.1197
21
-207.334
0
LINE
8
BLACK
6
CONTINUOUS
10
73.1197
20
-207.334
11
73.0244
21
-207.144
0
LINE
8
BLACK
6
CONTINUOUS
10
73.0244
20
-207.144
11
72.9292
21
-206.763
0
LINE
8
BLACK
6
CONTINUOUS
10
72.9292
20
-206.763
11
72.9292
21
-206.287
0
LINE
8
BLACK
6
CONTINUOUS
10
72.9292
20
-206.287
11
73.0244
21
-205.906
0
LINE
8
BLACK
6
CONTINUOUS
10
73.0244
20
-205.906
11
73.1197
21
-205.715
0
LINE
8
BLACK
6
CONTINUOUS
10
73.1197
20
-205.715
11
73.2149
21
-205.62
0
LINE
8
BLACK
6
CONTINUOUS
10
73.2149
20
-205.62
11
73.4054
21
-205.525
0
LINE
8
BLACK
6
CONTINUOUS
10
74.9292
20
-207.525
11
74.9292
21
-206.192
0
LINE
8
BLACK
6
CONTINUOUS
10
74.9292
20
-206.382
11
75.0244
21
-206.287
0
LINE
8
BLACK
6
CONTINUOUS
10
75.0244
20
-206.287
11
75.2149
21
-206.192
0
LINE
8
BLACK
6
CONTINUOUS
10
75.2149
20
-206.192
11
75.5006
21
-206.192
0
LINE
8
BLACK
6
CONTINUOUS
10
75.5006
20
-206.192
11
75.6911
21
-206.287
0
LINE
8
BLACK
6
CONTINUOUS
10
75.6911
20
-206.287
11
75.7863
21
-206.477
0
LINE
8
BLACK
6
CONTINUOUS
10
75.7863
20
-206.477
11
75.7863
21
-207.525
0
LINE
8
BLACK
6
CONTINUOUS
10
75.7863
20
-206.477
11
75.8816
21
-206.287
0
LINE
8
BLACK
6
CONTINUOUS
10
75.8816
20
-206.287
11
76.0721
21
-206.192
0
LINE
8
BLACK
6
CONTINUOUS
10
76.0721
20
-206.192
11
76.3578
21
-206.192
0
LINE
8
BLACK
6
CONTINUOUS
10
76.3578
20
-206.192
11
76.5482
21
-206.287
0
LINE
8
BLACK
6
CONTINUOUS
10
76.5482
20
-206.287
11
76.6435
21
-206.477
0
LINE
8
BLACK
6
CONTINUOUS
10
76.6435
20
-206.477
11
76.6435
21
-207.525
0
LINE
8
BLACK
6
CONTINUOUS
10
77.5959
20
-207.525
11
77.5959
21
-206.192
0
LINE
8
BLACK
6
CONTINUOUS
10
77.5959
20
-206.382
11
77.6911
21
-206.287
0
LINE
8
BLACK
6
CONTINUOUS
10
77.6911
20
-206.287
11
77.8816
21
-206.192
0
LINE
8
BLACK
6
CONTINUOUS
10
77.8816
20
-206.192
11
78.1673
21
-206.192
0
LINE
8
BLACK
6
CONTINUOUS
10
78.1673
20
-206.192
11
78.3578
21
-206.287
0
LINE
8
BLACK
6
CONTINUOUS
10
78.3578
20
-206.287
11
78.453
21
-206.477
0
LINE
8
BLACK
6
CONTINUOUS
10
78.453
20
-206.477
11
78.453
21
-207.525
0
LINE
8
BLACK
6
CONTINUOUS
10
78.453
20
-206.477
11
78.5482
21
-206.287
0
LINE
8
BLACK
6
CONTINUOUS
10
78.5482
20
-206.287
11
78.7387
21
-206.192
0
LINE
8
BLACK
6
CONTINUOUS
10
78.7387
20
-206.192
11
79.0244
21
-206.192
0
LINE
8
BLACK
6
CONTINUOUS
10
79.0244
20
-206.192
11
79.2149
21
-206.287
0
LINE
8
BLACK
6
CONTINUOUS
10
79.2149
20
-206.287
11
79.3101
21
-206.477
0
LINE
8
BLACK
6
CONTINUOUS
10
79.3101
20
-206.477
11
79.3101
21
-207.525
0
LINE
8
BLACK
6
CONTINUOUS
10
83.2149
20
-205.43
11
81.5006
21
-208.001
0
LINE
8
BLACK
6
CONTINUOUS
10
85.7863
20
-205.525
11
85.9768
21
-205.525
0
LINE
8
BLACK
6
CONTINUOUS
10
85.9768
20
-205.525
11
86.1673
21
-205.62
0
LINE
8
BLACK
6
CONTINUOUS
10
86.1673
20
-205.62
11
86.2625
21
-205.715
0
LINE
8
BLACK
6
CONTINUOUS
10
86.2625
20
-205.715
11
86.3578
21
-205.906
0
LINE
8
BLACK
6
CONTINUOUS
10
86.3578
20
-205.906
11
86.453
21
-206.287
0
LINE
8
BLACK
6
CONTINUOUS
10
86.453
20
-206.287
11
86.453
21
-206.763
0
LINE
8
BLACK
6
CONTINUOUS
10
86.453
20
-206.763
11
86.3578
21
-207.144
0
LINE
8
BLACK
6
CONTINUOUS
10
86.3578
20
-207.144
11
86.2625
21
-207.334
0
LINE
8
BLACK
6
CONTINUOUS
10
86.2625
20
-207.334
11
86.1673
21
-207.43
0
LINE
8
BLACK
6
CONTINUOUS
10
86.1673
20
-207.43
11
85.9768
21
-207.525
0
LINE
8
BLACK
6
CONTINUOUS
10
85.9768
20
-207.525
11
85.7863
21
-207.525
0
LINE
8
BLACK
6
CONTINUOUS
10
85.7863
20
-207.525
11
85.5959
21
-207.43
0
LINE
8
BLACK
6
CONTINUOUS
10
85.5959
20
-207.43
11
85.5006
21
-207.334
0
LINE
8
BLACK
6
CONTINUOUS
10
85.5006
20
-207.334
11
85.4054
21
-207.144
0
LINE
8
BLACK
6
CONTINUOUS
10
85.4054
20
-207.144
11
85.3102
21
-206.763
0
LINE
8
BLACK
6
CONTINUOUS
10
85.3102
20
-206.763
11
85.3102
21
-206.287
0
LINE
8
BLACK
6
CONTINUOUS
10
85.3102
20
-206.287
11
85.4054
21
-205.906
0
LINE
8
BLACK
6
CONTINUOUS
10
85.4054
20
-205.906
11
85.5006
21
-205.715
0
LINE
8
BLACK
6
CONTINUOUS
10
85.5006
20
-205.715
11
85.5959
21
-205.62
0
LINE
8
BLACK
6
CONTINUOUS
10
85.5959
20
-205.62
11
85.7863
21
-205.525
0
LINE
8
BLACK
6
CONTINUOUS
10
87.3102
20
-207.334
11
87.4054
21
-207.43
0
LINE
8
BLACK
6
CONTINUOUS
10
87.4054
20
-207.43
11
87.3102
21
-207.525
0
LINE
8
BLACK
6
CONTINUOUS
10
87.3102
20
-207.525
11
87.2149
21
-207.43
0
LINE
8
BLACK
6
CONTINUOUS
10
87.2149
20
-207.43
11
87.3102
21
-207.334
0
LINE
8
BLACK
6
CONTINUOUS
10
87.3102
20
-207.334
11
87.3102
21
-207.525
0
LINE
8
BLACK
6
CONTINUOUS
10
88.6435
20
-205.525
11
88.834
21
-205.525
0
LINE
8
BLACK
6
CONTINUOUS
10
88.834
20
-205.525
11
89.0244
21
-205.62
0
LINE
8
BLACK
6
CONTINUOUS
10
89.0244
20
-205.62
11
89.1197
21
-205.715
0
LINE
8
BLACK
6
CONTINUOUS
10
89.1197
20
-205.715
11
89.2149
21
-205.906
0
LINE
8
BLACK
6
CONTINUOUS
10
89.2149
20
-205.906
11
89.3102
21
-206.287
0
LINE
8
BLACK
6
CONTINUOUS
10
89.3102
20
-206.287
11
89.3102
21
-206.763
0
LINE
8
BLACK
6
CONTINUOUS
10
89.3102
20
-206.763
11
89.2149
21
-207.144
0
LINE
8
BLACK
6
CONTINUOUS
10
89.2149
20
-207.144
11
89.1197
21
-207.334
0
LINE
8
BLACK
6
CONTINUOUS
10
89.1197
20
-207.334
11
89.0244
21
-207.43
0
LINE
8
BLACK
6
CONTINUOUS
10
89.0244
20
-207.43
11
88.834
21
-207.525
0
LINE
8
BLACK
6
CONTINUOUS
10
88.834
20
-207.525
11
88.6435
21
-207.525
0
LINE
8
BLACK
6
CONTINUOUS
10
88.6435
20
-207.525
11
88.453
21
-207.43
0
LINE
8
BLACK
6
CONTINUOUS
10
88.453
20
-207.43
11
88.3578
21
-207.334
0
LINE
8
BLACK
6
CONTINUOUS
10
88.3578
20
-207.334
11
88.2625
21
-207.144
0
LINE
8
BLACK
6
CONTINUOUS
10
88.2625
20
-207.144
11
88.1673
21
-206.763
0
LINE
8
BLACK
6
CONTINUOUS
10
88.1673
20
-206.763
11
88.1673
21
-206.287
0
LINE
8
BLACK
6
CONTINUOUS
10
88.1673
20
-206.287
11
88.2625
21
-205.906
0
LINE
8
BLACK
6
CONTINUOUS
10
88.2625
20
-205.906
11
88.3578
21
-205.715
0
LINE
8
BLACK
6
CONTINUOUS
10
88.3578
20
-205.715
11
88.453
21
-205.62
0
LINE
8
BLACK
6
CONTINUOUS
10
88.453
20
-205.62
11
88.6435
21
-205.525
0
LINE
8
BLACK
6
CONTINUOUS
10
89.9768
20
-205.525
11
91.3102
21
-205.525
0
LINE
8
BLACK
6
CONTINUOUS
10
91.3102
20
-205.525
11
90.453
21
-207.525
0
LINE
8
BLACK
6
CONTINUOUS
10
92.453
20
-205.525
11
92.6435
21
-205.525
0
LINE
8
BLACK
6
CONTINUOUS
10
92.6435
20
-205.525
11
92.834
21
-205.62
0
LINE
8
BLACK
6
CONTINUOUS
10
92.834
20
-205.62
11
92.9292
21
-205.715
0
LINE
8
BLACK
6
CONTINUOUS
10
92.9292
20
-205.715
11
93.0244
21
-205.906
0
LINE
8
BLACK
6
CONTINUOUS
10
93.0244
20
-205.906
11
93.1197
21
-206.287
0
LINE
8
BLACK
6
CONTINUOUS
10
93.1197
20
-206.287
11
93.1197
21
-206.763
0
LINE
8
BLACK
6
CONTINUOUS
10
93.1197
20
-206.763
11
93.0244
21
-207.144
0
LINE
8
BLACK
6
CONTINUOUS
10
93.0244
20
-207.144
11
92.9292
21
-207.334
0
LINE
8
BLACK
6
CONTINUOUS
10
92.9292
20
-207.334
11
92.834
21
-207.43
0
LINE
8
BLACK
6
CONTINUOUS
10
92.834
20
-207.43
11
92.6435
21
-207.525
0
LINE
8
BLACK
6
CONTINUOUS
10
92.6435
20
-207.525
11
92.453
21
-207.525
0
LINE
8
BLACK
6
CONTINUOUS
10
92.453
20
-207.525
11
92.2625
21
-207.43
0
LINE
8
BLACK
6
CONTINUOUS
10
92.2625
20
-207.43
11
92.1673
21
-207.334
0
LINE
8
BLACK
6
CONTINUOUS
10
92.1673
20
-207.334
11
92.0721
21
-207.144
0
LINE
8
BLACK
6
CONTINUOUS
10
92.0721
20
-207.144
11
91.9768
21
-206.763
0
LINE
8
BLACK
6
CONTINUOUS
10
91.9768
20
-206.763
11
91.9768
21
-206.287
0
LINE
8
BLACK
6
CONTINUOUS
10
91.9768
20
-206.287
11
92.0721
21
-205.906
0
LINE
8
BLACK
6
CONTINUOUS
10
92.0721
20
-205.906
11
92.1673
21
-205.715
0
LINE
8
BLACK
6
CONTINUOUS
10
92.1673
20
-205.715
11
92.2625
21
-205.62
0
LINE
8
BLACK
6
CONTINUOUS
10
92.2625
20
-205.62
11
92.453
21
-205.525
0
LINE
8
BLACK
6
CONTINUOUS
10
94.0721
20
-207.525
11
94.453
21
-207.525
0
LINE
8
BLACK
6
CONTINUOUS
10
94.453
20
-207.525
11
94.6435
21
-207.43
0
LINE
8
BLACK
6
CONTINUOUS
10
94.6435
20
-207.43
11
94.7387
21
-207.334
0
LINE
8
BLACK
6
CONTINUOUS
10
94.7387
20
-207.334
11
94.9292
21
-207.049
0
LINE
8
BLACK
6
CONTINUOUS
10
94.9292
20
-207.049
11
95.0244
21
-206.668
0
LINE
8
BLACK
6
CONTINUOUS
10
95.0244
20
-206.668
11
95.0244
21
-205.906
0
LINE
8
BLACK
6
CONTINUOUS
10
95.0244
20
-205.906
11
94.9292
21
-205.715
0
LINE
8
BLACK
6
CONTINUOUS
10
94.9292
20
-205.715
11
94.834
21
-205.62
0
LINE
8
BLACK
6
CONTINUOUS
10
94.834
20
-205.62
11
94.6435
21
-205.525
0
LINE
8
BLACK
6
CONTINUOUS
10
94.6435
20
-205.525
11
94.2625
21
-205.525
0
LINE
8
BLACK
6
CONTINUOUS
10
94.2625
20
-205.525
11
94.0721
21
-205.62
0
LINE
8
BLACK
6
CONTINUOUS
10
94.0721
20
-205.62
11
93.9768
21
-205.715
0
LINE
8
BLACK
6
CONTINUOUS
10
93.9768
20
-205.715
11
93.8816
21
-205.906
0
LINE
8
BLACK
6
CONTINUOUS
10
93.8816
20
-205.906
11
93.8816
21
-206.382
0
LINE
8
BLACK
6
CONTINUOUS
10
93.8816
20
-206.382
11
93.9768
21
-206.572
0
LINE
8
BLACK
6
CONTINUOUS
10
93.9768
20
-206.572
11
94.0721
21
-206.668
0
LINE
8
BLACK
6
CONTINUOUS
10
94.0721
20
-206.668
11
94.2625
21
-206.763
0
LINE
8
BLACK
6
CONTINUOUS
10
94.2625
20
-206.763
11
94.6435
21
-206.763
0
LINE
8
BLACK
6
CONTINUOUS
10
94.6435
20
-206.763
11
94.834
21
-206.668
0
LINE
8
BLACK
6
CONTINUOUS
10
94.834
20
-206.668
11
94.9292
21
-206.572
0
LINE
8
BLACK
6
CONTINUOUS
10
94.9292
20
-206.572
11
95.0244
21
-206.382
0
LINE
8
BLACK
6
CONTINUOUS
10
95.7863
20
-205.525
11
95.7863
21
-205.906
0
LINE
8
BLACK
6
CONTINUOUS
10
96.5482
20
-205.525
11
96.5482
21
-205.906
0
LINE
8
BLACK
6
CONTINUOUS
10
99.5006
20
-208.287
11
99.4054
21
-208.192
0
LINE
8
BLACK
6
CONTINUOUS
10
99.4054
20
-208.192
11
99.2149
21
-207.906
0
LINE
8
BLACK
6
CONTINUOUS
10
99.2149
20
-207.906
11
99.1197
21
-207.715
0
LINE
8
BLACK
6
CONTINUOUS
10
99.1197
20
-207.715
11
99.0244
21
-207.43
0
LINE
8
BLACK
6
CONTINUOUS
10
99.0244
20
-207.43
11
98.9292
21
-206.953
0
LINE
8
BLACK
6
CONTINUOUS
10
98.9292
20
-206.953
11
98.9292
21
-206.572
0
LINE
8
BLACK
6
CONTINUOUS
10
98.9292
20
-206.572
11
99.0244
21
-206.096
0
LINE
8
BLACK
6
CONTINUOUS
10
99.0244
20
-206.096
11
99.1197
21
-205.811
0
LINE
8
BLACK
6
CONTINUOUS
10
99.1197
20
-205.811
11
99.2149
21
-205.62
0
LINE
8
BLACK
6
CONTINUOUS
10
99.2149
20
-205.62
11
99.4054
21
-205.334
0
LINE
8
BLACK
6
CONTINUOUS
10
99.4054
20
-205.334
11
99.5006
21
-205.239
0
LINE
8
BLACK
6
CONTINUOUS
10
100.167
20
-205.715
11
100.263
21
-205.62
0
LINE
8
BLACK
6
CONTINUOUS
10
100.263
20
-205.62
11
100.453
21
-205.525
0
LINE
8
BLACK
6
CONTINUOUS
10
100.453
20
-205.525
11
100.929
21
-205.525
0
LINE
8
BLACK
6
CONTINUOUS
10
100.929
20
-205.525
11
101.12
21
-205.62
0
LINE
8
BLACK
6
CONTINUOUS
10
101.12
20
-205.62
11
101.215
21
-205.715
0
LINE
8
BLACK
6
CONTINUOUS
10
101.215
20
-205.715
11
101.31
21
-205.906
0
LINE
8
BLACK
6
CONTINUOUS
10
101.31
20
-205.906
11
101.31
21
-206.096
0
LINE
8
BLACK
6
CONTINUOUS
10
101.31
20
-206.096
11
101.215
21
-206.382
0
LINE
8
BLACK
6
CONTINUOUS
10
101.215
20
-206.382
11
100.072
21
-207.525
0
LINE
8
BLACK
6
CONTINUOUS
10
100.072
20
-207.525
11
101.31
21
-207.525
0
LINE
8
BLACK
6
CONTINUOUS
10
103.691
20
-207.525
11
103.691
21
-205.525
0
LINE
8
BLACK
6
CONTINUOUS
10
104.548
20
-207.525
11
104.548
21
-206.477
0
LINE
8
BLACK
6
CONTINUOUS
10
104.548
20
-206.477
11
104.453
21
-206.287
0
LINE
8
BLACK
6
CONTINUOUS
10
104.453
20
-206.287
11
104.263
21
-206.192
0
LINE
8
BLACK
6
CONTINUOUS
10
104.263
20
-206.192
11
103.977
21
-206.192
0
LINE
8
BLACK
6
CONTINUOUS
10
103.977
20
-206.192
11
103.786
21
-206.287
0
LINE
8
BLACK
6
CONTINUOUS
10
103.786
20
-206.287
11
103.691
21
-206.382
0
LINE
8
BLACK
6
CONTINUOUS
10
105.786
20
-207.525
11
105.596
21
-207.43
0
LINE
8
BLACK
6
CONTINUOUS
10
105.596
20
-207.43
11
105.501
21
-207.334
0
LINE
8
BLACK
6
CONTINUOUS
10
105.501
20
-207.334
11
105.405
21
-207.144
0
LINE
8
BLACK
6
CONTINUOUS
10
105.405
20
-207.144
11
105.405
21
-206.572
0
LINE
8
BLACK
6
CONTINUOUS
10
105.405
20
-206.572
11
105.501
21
-206.382
0
LINE
8
BLACK
6
CONTINUOUS
10
105.501
20
-206.382
11
105.596
21
-206.287
0
LINE
8
BLACK
6
CONTINUOUS
10
105.596
20
-206.287
11
105.786
21
-206.192
0
LINE
8
BLACK
6
CONTINUOUS
10
105.786
20
-206.192
11
106.072
21
-206.192
0
LINE
8
BLACK
6
CONTINUOUS
10
106.072
20
-206.192
11
106.263
21
-206.287
0
LINE
8
BLACK
6
CONTINUOUS
10
106.263
20
-206.287
11
106.358
21
-206.382
0
LINE
8
BLACK
6
CONTINUOUS
10
106.358
20
-206.382
11
106.453
21
-206.572
0
LINE
8
BLACK
6
CONTINUOUS
10
106.453
20
-206.572
11
106.453
21
-207.144
0
LINE
8
BLACK
6
CONTINUOUS
10
106.453
20
-207.144
11
106.358
21
-207.334
0
LINE
8
BLACK
6
CONTINUOUS
10
106.358
20
-207.334
11
106.263
21
-207.43
0
LINE
8
BLACK
6
CONTINUOUS
10
106.263
20
-207.43
11
106.072
21
-207.525
0
LINE
8
BLACK
6
CONTINUOUS
10
106.072
20
-207.525
11
105.786
21
-207.525
0
LINE
8
BLACK
6
CONTINUOUS
10
107.596
20
-207.525
11
107.405
21
-207.43
0
LINE
8
BLACK
6
CONTINUOUS
10
107.405
20
-207.43
11
107.31
21
-207.239
0
LINE
8
BLACK
6
CONTINUOUS
10
107.31
20
-207.239
11
107.31
21
-205.525
0
LINE
8
BLACK
6
CONTINUOUS
10
109.12
20
-207.43
11
108.929
21
-207.525
0
LINE
8
BLACK
6
CONTINUOUS
10
108.929
20
-207.525
11
108.548
21
-207.525
0
LINE
8
BLACK
6
CONTINUOUS
10
108.548
20
-207.525
11
108.358
21
-207.43
0
LINE
8
BLACK
6
CONTINUOUS
10
108.358
20
-207.43
11
108.263
21
-207.239
0
LINE
8
BLACK
6
CONTINUOUS
10
108.263
20
-207.239
11
108.263
21
-206.477
0
LINE
8
BLACK
6
CONTINUOUS
10
108.263
20
-206.477
11
108.358
21
-206.287
0
LINE
8
BLACK
6
CONTINUOUS
10
108.358
20
-206.287
11
108.548
21
-206.192
0
LINE
8
BLACK
6
CONTINUOUS
10
108.548
20
-206.192
11
108.929
21
-206.192
0
LINE
8
BLACK
6
CONTINUOUS
10
108.929
20
-206.192
11
109.12
21
-206.287
0
LINE
8
BLACK
6
CONTINUOUS
10
109.12
20
-206.287
11
109.215
21
-206.477
0
LINE
8
BLACK
6
CONTINUOUS
10
109.215
20
-206.477
11
109.215
21
-206.668
0
LINE
8
BLACK
6
CONTINUOUS
10
109.215
20
-206.668
11
108.263
21
-206.858
0
LINE
8
BLACK
6
CONTINUOUS
10
109.977
20
-207.43
11
110.167
21
-207.525
0
LINE
8
BLACK
6
CONTINUOUS
10
110.167
20
-207.525
11
110.548
21
-207.525
0
LINE
8
BLACK
6
CONTINUOUS
10
110.548
20
-207.525
11
110.739
21
-207.43
0
LINE
8
BLACK
6
CONTINUOUS
10
110.739
20
-207.43
11
110.834
21
-207.239
0
LINE
8
BLACK
6
CONTINUOUS
10
110.834
20
-207.239
11
110.834
21
-207.144
0
LINE
8
BLACK
6
CONTINUOUS
10
110.834
20
-207.144
11
110.739
21
-206.953
0
LINE
8
BLACK
6
CONTINUOUS
10
110.739
20
-206.953
11
110.548
21
-206.858
0
LINE
8
BLACK
6
CONTINUOUS
10
110.548
20
-206.858
11
110.263
21
-206.858
0
LINE
8
BLACK
6
CONTINUOUS
10
110.263
20
-206.858
11
110.072
21
-206.763
0
LINE
8
BLACK
6
CONTINUOUS
10
110.072
20
-206.763
11
109.977
21
-206.572
0
LINE
8
BLACK
6
CONTINUOUS
10
109.977
20
-206.572
11
109.977
21
-206.477
0
LINE
8
BLACK
6
CONTINUOUS
10
109.977
20
-206.477
11
110.072
21
-206.287
0
LINE
8
BLACK
6
CONTINUOUS
10
110.072
20
-206.287
11
110.263
21
-206.192
0
LINE
8
BLACK
6
CONTINUOUS
10
110.263
20
-206.192
11
110.548
21
-206.192
0
LINE
8
BLACK
6
CONTINUOUS
10
110.548
20
-206.192
11
110.739
21
-206.287
0
LINE
8
BLACK
6
CONTINUOUS
10
111.501
20
-208.287
11
111.596
21
-208.192
0
LINE
8
BLACK
6
CONTINUOUS
10
111.596
20
-208.192
11
111.786
21
-207.906
0
LINE
8
BLACK
6
CONTINUOUS
10
111.786
20
-207.906
11
111.882
21
-207.715
0
LINE
8
BLACK
6
CONTINUOUS
10
111.882
20
-207.715
11
111.977
21
-207.43
0
LINE
8
BLACK
6
CONTINUOUS
10
111.977
20
-207.43
11
112.072
21
-206.953
0
LINE
8
BLACK
6
CONTINUOUS
10
112.072
20
-206.953
11
112.072
21
-206.572
0
LINE
8
BLACK
6
CONTINUOUS
10
112.072
20
-206.572
11
111.977
21
-206.096
0
LINE
8
BLACK
6
CONTINUOUS
10
111.977
20
-206.096
11
111.882
21
-205.811
0
LINE
8
BLACK
6
CONTINUOUS
10
111.882
20
-205.811
11
111.786
21
-205.62
0
LINE
8
BLACK
6
CONTINUOUS
10
111.786
20
-205.62
11
111.596
21
-205.334
0
LINE
8
BLACK
6
CONTINUOUS
10
111.596
20
-205.334
11
111.501
21
-205.239
0
LINE
8
BLACK
6
CONTINUOUS
10
115.12
20
-208.287
11
115.024
21
-208.192
0
LINE
8
BLACK
6
CONTINUOUS
10
115.024
20
-208.192
11
114.834
21
-207.906
0
LINE
8
BLACK
6
CONTINUOUS
10
114.834
20
-207.906
11
114.739
21
-207.715
0
LINE
8
BLACK
6
CONTINUOUS
10
114.739
20
-207.715
11
114.643
21
-207.43
0
LINE
8
BLACK
6
CONTINUOUS
10
114.643
20
-207.43
11
114.548
21
-206.953
0
LINE
8
BLACK
6
CONTINUOUS
10
114.548
20
-206.953
11
114.548
21
-206.572
0
LINE
8
BLACK
6
CONTINUOUS
10
114.548
20
-206.572
11
114.643
21
-206.096
0
LINE
8
BLACK
6
CONTINUOUS
10
114.643
20
-206.096
11
114.739
21
-205.811
0
LINE
8
BLACK
6
CONTINUOUS
10
114.739
20
-205.811
11
114.834
21
-205.62
0
LINE
8
BLACK
6
CONTINUOUS
10
114.834
20
-205.62
11
115.024
21
-205.334
0
LINE
8
BLACK
6
CONTINUOUS
10
115.024
20
-205.334
11
115.12
21
-205.239
0
LINE
8
BLACK
6
CONTINUOUS
10
115.882
20
-206.192
11
115.882
21
-207.525
0
LINE
8
BLACK
6
CONTINUOUS
10
115.882
20
-206.382
11
115.977
21
-206.287
0
LINE
8
BLACK
6
CONTINUOUS
10
115.977
20
-206.287
11
116.167
21
-206.192
0
LINE
8
BLACK
6
CONTINUOUS
10
116.167
20
-206.192
11
116.453
21
-206.192
0
LINE
8
BLACK
6
CONTINUOUS
10
116.453
20
-206.192
11
116.643
21
-206.287
0
LINE
8
BLACK
6
CONTINUOUS
10
116.643
20
-206.287
11
116.739
21
-206.477
0
LINE
8
BLACK
6
CONTINUOUS
10
116.739
20
-206.477
11
116.739
21
-207.525
0
LINE
8
BLACK
6
CONTINUOUS
10
117.977
20
-207.525
11
117.786
21
-207.43
0
LINE
8
BLACK
6
CONTINUOUS
10
117.786
20
-207.43
11
117.691
21
-207.334
0
LINE
8
BLACK
6
CONTINUOUS
10
117.691
20
-207.334
11
117.596
21
-207.144
0
LINE
8
BLACK
6
CONTINUOUS
10
117.596
20
-207.144
11
117.596
21
-206.572
0
LINE
8
BLACK
6
CONTINUOUS
10
117.596
20
-206.572
11
117.691
21
-206.382
0
LINE
8
BLACK
6
CONTINUOUS
10
117.691
20
-206.382
11
117.786
21
-206.287
0
LINE
8
BLACK
6
CONTINUOUS
10
117.786
20
-206.287
11
117.977
21
-206.192
0
LINE
8
BLACK
6
CONTINUOUS
10
117.977
20
-206.192
11
118.263
21
-206.192
0
LINE
8
BLACK
6
CONTINUOUS
10
118.263
20
-206.192
11
118.453
21
-206.287
0
LINE
8
BLACK
6
CONTINUOUS
10
118.453
20
-206.287
11
118.548
21
-206.382
0
LINE
8
BLACK
6
CONTINUOUS
10
118.548
20
-206.382
11
118.643
21
-206.572
0
LINE
8
BLACK
6
CONTINUOUS
10
118.643
20
-206.572
11
118.643
21
-207.144
0
LINE
8
BLACK
6
CONTINUOUS
10
118.643
20
-207.144
11
118.548
21
-207.334
0
LINE
8
BLACK
6
CONTINUOUS
10
118.548
20
-207.334
11
118.453
21
-207.43
0
LINE
8
BLACK
6
CONTINUOUS
10
118.453
20
-207.43
11
118.263
21
-207.525
0
LINE
8
BLACK
6
CONTINUOUS
10
118.263
20
-207.525
11
117.977
21
-207.525
0
LINE
8
BLACK
6
CONTINUOUS
10
119.215
20
-206.192
11
119.977
21
-206.192
0
LINE
8
BLACK
6
CONTINUOUS
10
119.501
20
-205.525
11
119.501
21
-207.239
0
LINE
8
BLACK
6
CONTINUOUS
10
119.501
20
-207.239
11
119.596
21
-207.43
0
LINE
8
BLACK
6
CONTINUOUS
10
119.596
20
-207.43
11
119.786
21
-207.525
0
LINE
8
BLACK
6
CONTINUOUS
10
119.786
20
-207.525
11
119.977
21
-207.525
0
LINE
8
BLACK
6
CONTINUOUS
10
122.167
20
-206.192
11
122.167
21
-208.192
0
LINE
8
BLACK
6
CONTINUOUS
10
122.167
20
-206.287
11
122.358
21
-206.192
0
LINE
8
BLACK
6
CONTINUOUS
10
122.358
20
-206.192
11
122.739
21
-206.192
0
LINE
8
BLACK
6
CONTINUOUS
10
122.739
20
-206.192
11
122.929
21
-206.287
0
LINE
8
BLACK
6
CONTINUOUS
10
122.929
20
-206.287
11
123.024
21
-206.382
0
LINE
8
BLACK
6
CONTINUOUS
10
123.024
20
-206.382
11
123.12
21
-206.572
0
LINE
8
BLACK
6
CONTINUOUS
10
123.12
20
-206.572
11
123.12
21
-207.144
0
LINE
8
BLACK
6
CONTINUOUS
10
123.12
20
-207.144
11
123.024
21
-207.334
0
LINE
8
BLACK
6
CONTINUOUS
10
123.024
20
-207.334
11
122.929
21
-207.43
0
LINE
8
BLACK
6
CONTINUOUS
10
122.929
20
-207.43
11
122.739
21
-207.525
0
LINE
8
BLACK
6
CONTINUOUS
10
122.739
20
-207.525
11
122.358
21
-207.525
0
LINE
8
BLACK
6
CONTINUOUS
10
122.358
20
-207.525
11
122.167
21
-207.43
0
LINE
8
BLACK
6
CONTINUOUS
10
124.263
20
-207.525
11
124.072
21
-207.43
0
LINE
8
BLACK
6
CONTINUOUS
10
124.072
20
-207.43
11
123.977
21
-207.239
0
LINE
8
BLACK
6
CONTINUOUS
10
123.977
20
-207.239
11
123.977
21
-205.525
0
LINE
8
BLACK
6
CONTINUOUS
10
125.882
20
-207.525
11
125.882
21
-206.477
0
LINE
8
BLACK
6
CONTINUOUS
10
125.882
20
-206.477
11
125.786
21
-206.287
0
LINE
8
BLACK
6
CONTINUOUS
10
125.786
20
-206.287
11
125.596
21
-206.192
0
LINE
8
BLACK
6
CONTINUOUS
10
125.596
20
-206.192
11
125.215
21
-206.192
0
LINE
8
BLACK
6
CONTINUOUS
10
125.215
20
-206.192
11
125.024
21
-206.287
0
LINE
8
BLACK
6
CONTINUOUS
10
125.882
20
-207.43
11
125.691
21
-207.525
0
LINE
8
BLACK
6
CONTINUOUS
10
125.691
20
-207.525
11
125.215
21
-207.525
0
LINE
8
BLACK
6
CONTINUOUS
10
125.215
20
-207.525
11
125.024
21
-207.43
0
LINE
8
BLACK
6
CONTINUOUS
10
125.024
20
-207.43
11
124.929
21
-207.239
0
LINE
8
BLACK
6
CONTINUOUS
10
124.929
20
-207.239
11
124.929
21
-207.049
0
LINE
8
BLACK
6
CONTINUOUS
10
124.929
20
-207.049
11
125.024
21
-206.858
0
LINE
8
BLACK
6
CONTINUOUS
10
125.024
20
-206.858
11
125.215
21
-206.763
0
LINE
8
BLACK
6
CONTINUOUS
10
125.215
20
-206.763
11
125.691
21
-206.763
0
LINE
8
BLACK
6
CONTINUOUS
10
125.691
20
-206.763
11
125.882
21
-206.668
0
LINE
8
BLACK
6
CONTINUOUS
10
126.548
20
-206.192
11
127.31
21
-206.192
0
LINE
8
BLACK
6
CONTINUOUS
10
126.834
20
-205.525
11
126.834
21
-207.239
0
LINE
8
BLACK
6
CONTINUOUS
10
126.834
20
-207.239
11
126.929
21
-207.43
0
LINE
8
BLACK
6
CONTINUOUS
10
126.929
20
-207.43
11
127.12
21
-207.525
0
LINE
8
BLACK
6
CONTINUOUS
10
127.12
20
-207.525
11
127.31
21
-207.525
0
LINE
8
BLACK
6
CONTINUOUS
10
128.739
20
-207.43
11
128.548
21
-207.525
0
LINE
8
BLACK
6
CONTINUOUS
10
128.548
20
-207.525
11
128.167
21
-207.525
0
LINE
8
BLACK
6
CONTINUOUS
10
128.167
20
-207.525
11
127.977
21
-207.43
0
LINE
8
BLACK
6
CONTINUOUS
10
127.977
20
-207.43
11
127.882
21
-207.239
0
LINE
8
BLACK
6
CONTINUOUS
10
127.882
20
-207.239
11
127.882
21
-206.477
0
LINE
8
BLACK
6
CONTINUOUS
10
127.882
20
-206.477
11
127.977
21
-206.287
0
LINE
8
BLACK
6
CONTINUOUS
10
127.977
20
-206.287
11
128.167
21
-206.192
0
LINE
8
BLACK
6
CONTINUOUS
10
128.167
20
-206.192
11
128.548
21
-206.192
0
LINE
8
BLACK
6
CONTINUOUS
10
128.548
20
-206.192
11
128.739
21
-206.287
0
LINE
8
BLACK
6
CONTINUOUS
10
128.739
20
-206.287
11
128.834
21
-206.477
0
LINE
8
BLACK
6
CONTINUOUS
10
128.834
20
-206.477
11
128.834
21
-206.668
0
LINE
8
BLACK
6
CONTINUOUS
10
128.834
20
-206.668
11
127.882
21
-206.858
0
LINE
8
BLACK
6
CONTINUOUS
10
130.548
20
-207.525
11
130.548
21
-205.525
0
LINE
8
BLACK
6
CONTINUOUS
10
130.548
20
-207.43
11
130.358
21
-207.525
0
LINE
8
BLACK
6
CONTINUOUS
10
130.358
20
-207.525
11
129.977
21
-207.525
0
LINE
8
BLACK
6
CONTINUOUS
10
129.977
20
-207.525
11
129.786
21
-207.43
0
LINE
8
BLACK
6
CONTINUOUS
10
129.786
20
-207.43
11
129.691
21
-207.334
0
LINE
8
BLACK
6
CONTINUOUS
10
129.691
20
-207.334
11
129.596
21
-207.144
0
LINE
8
BLACK
6
CONTINUOUS
10
129.596
20
-207.144
11
129.596
21
-206.572
0
LINE
8
BLACK
6
CONTINUOUS
10
129.596
20
-206.572
11
129.691
21
-206.382
0
LINE
8
BLACK
6
CONTINUOUS
10
129.691
20
-206.382
11
129.786
21
-206.287
0
LINE
8
BLACK
6
CONTINUOUS
10
129.786
20
-206.287
11
129.977
21
-206.192
0
LINE
8
BLACK
6
CONTINUOUS
10
129.977
20
-206.192
11
130.358
21
-206.192
0
LINE
8
BLACK
6
CONTINUOUS
10
130.358
20
-206.192
11
130.548
21
-206.287
0
LINE
8
BLACK
6
CONTINUOUS
10
131.31
20
-208.287
11
131.405
21
-208.192
0
LINE
8
BLACK
6
CONTINUOUS
10
131.405
20
-208.192
11
131.596
21
-207.906
0
LINE
8
BLACK
6
CONTINUOUS
10
131.596
20
-207.906
11
131.691
21
-207.715
0
LINE
8
BLACK
6
CONTINUOUS
10
131.691
20
-207.715
11
131.786
21
-207.43
0
LINE
8
BLACK
6
CONTINUOUS
10
131.786
20
-207.43
11
131.882
21
-206.953
0
LINE
8
BLACK
6
CONTINUOUS
10
131.882
20
-206.953
11
131.882
21
-206.572
0
LINE
8
BLACK
6
CONTINUOUS
10
131.882
20
-206.572
11
131.786
21
-206.096
0
LINE
8
BLACK
6
CONTINUOUS
10
131.786
20
-206.096
11
131.691
21
-205.811
0
LINE
8
BLACK
6
CONTINUOUS
10
131.691
20
-205.811
11
131.596
21
-205.62
0
LINE
8
BLACK
6
CONTINUOUS
10
131.596
20
-205.62
11
131.405
21
-205.334
0
LINE
8
BLACK
6
CONTINUOUS
10
131.405
20
-205.334
11
131.31
21
-205.239
0
LINE
8
BLACK
6
CONTINUOUS
10
62.75
20
-208.61
11
62.75
21
-210.61
0
LINE
8
BLACK
6
CONTINUOUS
10
61.75
20
-209.61
11
63.75
21
-209.61
0
LINE
8
BLACK
6
CONTINUOUS
10
66.1673
20
-208.525
11
67.4054
21
-208.525
0
LINE
8
BLACK
6
CONTINUOUS
10
67.4054
20
-208.525
11
66.7387
21
-209.287
0
LINE
8
BLACK
6
CONTINUOUS
10
66.7387
20
-209.287
11
67.0244
21
-209.287
0
LINE
8
BLACK
6
CONTINUOUS
10
67.0244
20
-209.287
11
67.2149
21
-209.382
0
LINE
8
BLACK
6
CONTINUOUS
10
67.2149
20
-209.382
11
67.3101
21
-209.477
0
LINE
8
BLACK
6
CONTINUOUS
10
67.3101
20
-209.477
11
67.4054
21
-209.668
0
LINE
8
BLACK
6
CONTINUOUS
10
67.4054
20
-209.668
11
67.4054
21
-210.144
0
LINE
8
BLACK
6
CONTINUOUS
10
67.4054
20
-210.144
11
67.3101
21
-210.334
0
LINE
8
BLACK
6
CONTINUOUS
10
67.3101
20
-210.334
11
67.2149
21
-210.43
0
LINE
8
BLACK
6
CONTINUOUS
10
67.2149
20
-210.43
11
67.0244
21
-210.525
0
LINE
8
BLACK
6
CONTINUOUS
10
67.0244
20
-210.525
11
66.453
21
-210.525
0
LINE
8
BLACK
6
CONTINUOUS
10
66.453
20
-210.525
11
66.2625
21
-210.43
0
LINE
8
BLACK
6
CONTINUOUS
10
66.2625
20
-210.43
11
66.1673
21
-210.334
0
LINE
8
BLACK
6
CONTINUOUS
10
68.2625
20
-210.334
11
68.3578
21
-210.43
0
LINE
8
BLACK
6
CONTINUOUS
10
68.3578
20
-210.43
11
68.2625
21
-210.525
0
LINE
8
BLACK
6
CONTINUOUS
10
68.2625
20
-210.525
11
68.1673
21
-210.43
0
LINE
8
BLACK
6
CONTINUOUS
10
68.1673
20
-210.43
11
68.2625
21
-210.334
0
LINE
8
BLACK
6
CONTINUOUS
10
68.2625
20
-210.334
11
68.2625
21
-210.525
0
LINE
8
BLACK
6
CONTINUOUS
10
69.1197
20
-208.715
11
69.2149
21
-208.62
0
LINE
8
BLACK
6
CONTINUOUS
10
69.2149
20
-208.62
11
69.4054
21
-208.525
0
LINE
8
BLACK
6
CONTINUOUS
10
69.4054
20
-208.525
11
69.8816
21
-208.525
0
LINE
8
BLACK
6
CONTINUOUS
10
69.8816
20
-208.525
11
70.0721
21
-208.62
0
LINE
8
BLACK
6
CONTINUOUS
10
70.0721
20
-208.62
11
70.1673
21
-208.715
0
LINE
8
BLACK
6
CONTINUOUS
10
70.1673
20
-208.715
11
70.2625
21
-208.906
0
LINE
8
BLACK
6
CONTINUOUS
10
70.2625
20
-208.906
11
70.2625
21
-209.096
0
LINE
8
BLACK
6
CONTINUOUS
10
70.2625
20
-209.096
11
70.1673
21
-209.382
0
LINE
8
BLACK
6
CONTINUOUS
10
70.1673
20
-209.382
11
69.0244
21
-210.525
0
LINE
8
BLACK
6
CONTINUOUS
10
69.0244
20
-210.525
11
70.2625
21
-210.525
0
LINE
8
BLACK
6
CONTINUOUS
10
72.0721
20
-208.525
11
71.1197
21
-208.525
0
LINE
8
BLACK
6
CONTINUOUS
10
71.1197
20
-208.525
11
71.0244
21
-209.477
0
LINE
8
BLACK
6
CONTINUOUS
10
71.0244
20
-209.477
11
71.1197
21
-209.382
0
LINE
8
BLACK
6
CONTINUOUS
10
71.1197
20
-209.382
11
71.3101
21
-209.287
0
LINE
8
BLACK
6
CONTINUOUS
10
71.3101
20
-209.287
11
71.7863
21
-209.287
0
LINE
8
BLACK
6
CONTINUOUS
10
71.7863
20
-209.287
11
71.9768
21
-209.382
0
LINE
8
BLACK
6
CONTINUOUS
10
71.9768
20
-209.382
11
72.0721
21
-209.477
0
LINE
8
BLACK
6
CONTINUOUS
10
72.0721
20
-209.477
11
72.1673
21
-209.668
0
LINE
8
BLACK
6
CONTINUOUS
10
72.1673
20
-209.668
11
72.1673
21
-210.144
0
LINE
8
BLACK
6
CONTINUOUS
10
72.1673
20
-210.144
11
72.0721
21
-210.334
0
LINE
8
BLACK
6
CONTINUOUS
10
72.0721
20
-210.334
11
71.9768
21
-210.43
0
LINE
8
BLACK
6
CONTINUOUS
10
71.9768
20
-210.43
11
71.7863
21
-210.525
0
LINE
8
BLACK
6
CONTINUOUS
10
71.7863
20
-210.525
11
71.3101
21
-210.525
0
LINE
8
BLACK
6
CONTINUOUS
10
71.3101
20
-210.525
11
71.1197
21
-210.43
0
LINE
8
BLACK
6
CONTINUOUS
10
71.1197
20
-210.43
11
71.0244
21
-210.334
0
LINE
8
BLACK
6
CONTINUOUS
10
73.4054
20
-208.525
11
73.5959
21
-208.525
0
LINE
8
BLACK
6
CONTINUOUS
10
73.5959
20
-208.525
11
73.7863
21
-208.62
0
LINE
8
BLACK
6
CONTINUOUS
10
73.7863
20
-208.62
11
73.8816
21
-208.715
0
LINE
8
BLACK
6
CONTINUOUS
10
73.8816
20
-208.715
11
73.9768
21
-208.906
0
LINE
8
BLACK
6
CONTINUOUS
10
73.9768
20
-208.906
11
74.0721
21
-209.287
0
LINE
8
BLACK
6
CONTINUOUS
10
74.0721
20
-209.287
11
74.0721
21
-209.763
0
LINE
8
BLACK
6
CONTINUOUS
10
74.0721
20
-209.763
11
73.9768
21
-210.144
0
LINE
8
BLACK
6
CONTINUOUS
10
73.9768
20
-210.144
11
73.8816
21
-210.334
0
LINE
8
BLACK
6
CONTINUOUS
10
73.8816
20
-210.334
11
73.7863
21
-210.43
0
LINE
8
BLACK
6
CONTINUOUS
10
73.7863
20
-210.43
11
73.5959
21
-210.525
0
LINE
8
BLACK
6
CONTINUOUS
10
73.5959
20
-210.525
11
73.4054
21
-210.525
0
LINE
8
BLACK
6
CONTINUOUS
10
73.4054
20
-210.525
11
73.2149
21
-210.43
0
LINE
8
BLACK
6
CONTINUOUS
10
73.2149
20
-210.43
11
73.1197
21
-210.334
0
LINE
8
BLACK
6
CONTINUOUS
10
73.1197
20
-210.334
11
73.0244
21
-210.144
0
LINE
8
BLACK
6
CONTINUOUS
10
73.0244
20
-210.144
11
72.9292
21
-209.763
0
LINE
8
BLACK
6
CONTINUOUS
10
72.9292
20
-209.763
11
72.9292
21
-209.287
0
LINE
8
BLACK
6
CONTINUOUS
10
72.9292
20
-209.287
11
73.0244
21
-208.906
0
LINE
8
BLACK
6
CONTINUOUS
10
73.0244
20
-208.906
11
73.1197
21
-208.715
0
LINE
8
BLACK
6
CONTINUOUS
10
73.1197
20
-208.715
11
73.2149
21
-208.62
0
LINE
8
BLACK
6
CONTINUOUS
10
73.2149
20
-208.62
11
73.4054
21
-208.525
0
LINE
8
BLACK
6
CONTINUOUS
10
74.9292
20
-210.525
11
74.9292
21
-209.192
0
LINE
8
BLACK
6
CONTINUOUS
10
74.9292
20
-209.382
11
75.0244
21
-209.287
0
LINE
8
BLACK
6
CONTINUOUS
10
75.0244
20
-209.287
11
75.2149
21
-209.192
0
LINE
8
BLACK
6
CONTINUOUS
10
75.2149
20
-209.192
11
75.5006
21
-209.192
0
LINE
8
BLACK
6
CONTINUOUS
10
75.5006
20
-209.192
11
75.6911
21
-209.287
0
LINE
8
BLACK
6
CONTINUOUS
10
75.6911
20
-209.287
11
75.7863
21
-209.477
0
LINE
8
BLACK
6
CONTINUOUS
10
75.7863
20
-209.477
11
75.7863
21
-210.525
0
LINE
8
BLACK
6
CONTINUOUS
10
75.7863
20
-209.477
11
75.8816
21
-209.287
0
LINE
8
BLACK
6
CONTINUOUS
10
75.8816
20
-209.287
11
76.0721
21
-209.192
0
LINE
8
BLACK
6
CONTINUOUS
10
76.0721
20
-209.192
11
76.3578
21
-209.192
0
LINE
8
BLACK
6
CONTINUOUS
10
76.3578
20
-209.192
11
76.5482
21
-209.287
0
LINE
8
BLACK
6
CONTINUOUS
10
76.5482
20
-209.287
11
76.6435
21
-209.477
0
LINE
8
BLACK
6
CONTINUOUS
10
76.6435
20
-209.477
11
76.6435
21
-210.525
0
LINE
8
BLACK
6
CONTINUOUS
10
77.5959
20
-210.525
11
77.5959
21
-209.192
0
LINE
8
BLACK
6
CONTINUOUS
10
77.5959
20
-209.382
11
77.6911
21
-209.287
0
LINE
8
BLACK
6
CONTINUOUS
10
77.6911
20
-209.287
11
77.8816
21
-209.192
0
LINE
8
BLACK
6
CONTINUOUS
10
77.8816
20
-209.192
11
78.1673
21
-209.192
0
LINE
8
BLACK
6
CONTINUOUS
10
78.1673
20
-209.192
11
78.3578
21
-209.287
0
LINE
8
BLACK
6
CONTINUOUS
10
78.3578
20
-209.287
11
78.453
21
-209.477
0
LINE
8
BLACK
6
CONTINUOUS
10
78.453
20
-209.477
11
78.453
21
-210.525
0
LINE
8
BLACK
6
CONTINUOUS
10
78.453
20
-209.477
11
78.5482
21
-209.287
0
LINE
8
BLACK
6
CONTINUOUS
10
78.5482
20
-209.287
11
78.7387
21
-209.192
0
LINE
8
BLACK
6
CONTINUOUS
10
78.7387
20
-209.192
11
79.0244
21
-209.192
0
LINE
8
BLACK
6
CONTINUOUS
10
79.0244
20
-209.192
11
79.2149
21
-209.287
0
LINE
8
BLACK
6
CONTINUOUS
10
79.2149
20
-209.287
11
79.3101
21
-209.477
0
LINE
8
BLACK
6
CONTINUOUS
10
79.3101
20
-209.477
11
79.3101
21
-210.525
0
LINE
8
BLACK
6
CONTINUOUS
10
83.2149
20
-208.43
11
81.5006
21
-211.001
0
LINE
8
BLACK
6
CONTINUOUS
10
85.7863
20
-208.525
11
85.9768
21
-208.525
0
LINE
8
BLACK
6
CONTINUOUS
10
85.9768
20
-208.525
11
86.1673
21
-208.62
0
LINE
8
BLACK
6
CONTINUOUS
10
86.1673
20
-208.62
11
86.2625
21
-208.715
0
LINE
8
BLACK
6
CONTINUOUS
10
86.2625
20
-208.715
11
86.3578
21
-208.906
0
LINE
8
BLACK
6
CONTINUOUS
10
86.3578
20
-208.906
11
86.453
21
-209.287
0
LINE
8
BLACK
6
CONTINUOUS
10
86.453
20
-209.287
11
86.453
21
-209.763
0
LINE
8
BLACK
6
CONTINUOUS
10
86.453
20
-209.763
11
86.3578
21
-210.144
0
LINE
8
BLACK
6
CONTINUOUS
10
86.3578
20
-210.144
11
86.2625
21
-210.334
0
LINE
8
BLACK
6
CONTINUOUS
10
86.2625
20
-210.334
11
86.1673
21
-210.43
0
LINE
8
BLACK
6
CONTINUOUS
10
86.1673
20
-210.43
11
85.9768
21
-210.525
0
LINE
8
BLACK
6
CONTINUOUS
10
85.9768
20
-210.525
11
85.7863
21
-210.525
0
LINE
8
BLACK
6
CONTINUOUS
10
85.7863
20
-210.525
11
85.5959
21
-210.43
0
LINE
8
BLACK
6
CONTINUOUS
10
85.5959
20
-210.43
11
85.5006
21
-210.334
0
LINE
8
BLACK
6
CONTINUOUS
10
85.5006
20
-210.334
11
85.4054
21
-210.144
0
LINE
8
BLACK
6
CONTINUOUS
10
85.4054
20
-210.144
11
85.3102
21
-209.763
0
LINE
8
BLACK
6
CONTINUOUS
10
85.3102
20
-209.763
11
85.3102
21
-209.287
0
LINE
8
BLACK
6
CONTINUOUS
10
85.3102
20
-209.287
11
85.4054
21
-208.906
0
LINE
8
BLACK
6
CONTINUOUS
10
85.4054
20
-208.906
11
85.5006
21
-208.715
0
LINE
8
BLACK
6
CONTINUOUS
10
85.5006
20
-208.715
11
85.5959
21
-208.62
0
LINE
8
BLACK
6
CONTINUOUS
10
85.5959
20
-208.62
11
85.7863
21
-208.525
0
LINE
8
BLACK
6
CONTINUOUS
10
87.3102
20
-210.334
11
87.4054
21
-210.43
0
LINE
8
BLACK
6
CONTINUOUS
10
87.4054
20
-210.43
11
87.3102
21
-210.525
0
LINE
8
BLACK
6
CONTINUOUS
10
87.3102
20
-210.525
11
87.2149
21
-210.43
0
LINE
8
BLACK
6
CONTINUOUS
10
87.2149
20
-210.43
11
87.3102
21
-210.334
0
LINE
8
BLACK
6
CONTINUOUS
10
87.3102
20
-210.334
11
87.3102
21
-210.525
0
LINE
8
BLACK
6
CONTINUOUS
10
89.3102
20
-210.525
11
88.1673
21
-210.525
0
LINE
8
BLACK
6
CONTINUOUS
10
88.7387
20
-210.525
11
88.7387
21
-208.525
0
LINE
8
BLACK
6
CONTINUOUS
10
88.7387
20
-208.525
11
88.5482
21
-208.811
0
LINE
8
BLACK
6
CONTINUOUS
10
88.5482
20
-208.811
11
88.3578
21
-209.001
0
LINE
8
BLACK
6
CONTINUOUS
10
88.3578
20
-209.001
11
88.1673
21
-209.096
0
LINE
8
BLACK
6
CONTINUOUS
10
90.0721
20
-208.715
11
90.1673
21
-208.62
0
LINE
8
BLACK
6
CONTINUOUS
10
90.1673
20
-208.62
11
90.3578
21
-208.525
0
LINE
8
BLACK
6
CONTINUOUS
10
90.3578
20
-208.525
11
90.834
21
-208.525
0
LINE
8
BLACK
6
CONTINUOUS
10
90.834
20
-208.525
11
91.0244
21
-208.62
0
LINE
8
BLACK
6
CONTINUOUS
10
91.0244
20
-208.62
11
91.1197
21
-208.715
0
LINE
8
BLACK
6
CONTINUOUS
10
91.1197
20
-208.715
11
91.2149
21
-208.906
0
LINE
8
BLACK
6
CONTINUOUS
10
91.2149
20
-208.906
11
91.2149
21
-209.096
0
LINE
8
BLACK
6
CONTINUOUS
10
91.2149
20
-209.096
11
91.1197
21
-209.382
0
LINE
8
BLACK
6
CONTINUOUS
10
91.1197
20
-209.382
11
89.9768
21
-210.525
0
LINE
8
BLACK
6
CONTINUOUS
10
89.9768
20
-210.525
11
91.2149
21
-210.525
0
LINE
8
BLACK
6
CONTINUOUS
10
92.3578
20
-209.382
11
92.1673
21
-209.287
0
LINE
8
BLACK
6
CONTINUOUS
10
92.1673
20
-209.287
11
92.0721
21
-209.192
0
LINE
8
BLACK
6
CONTINUOUS
10
92.0721
20
-209.192
11
91.9768
21
-209.001
0
LINE
8
BLACK
6
CONTINUOUS
10
91.9768
20
-209.001
11
91.9768
21
-208.906
0
LINE
8
BLACK
6
CONTINUOUS
10
91.9768
20
-208.906
11
92.0721
21
-208.715
0
LINE
8
BLACK
6
CONTINUOUS
10
92.0721
20
-208.715
11
92.1673
21
-208.62
0
LINE
8
BLACK
6
CONTINUOUS
10
92.1673
20
-208.62
11
92.3578
21
-208.525
0
LINE
8
BLACK
6
CONTINUOUS
10
92.3578
20
-208.525
11
92.7387
21
-208.525
0
LINE
8
BLACK
6
CONTINUOUS
10
92.7387
20
-208.525
11
92.9292
21
-208.62
0
LINE
8
BLACK
6
CONTINUOUS
10
92.9292
20
-208.62
11
93.0244
21
-208.715
0
LINE
8
BLACK
6
CONTINUOUS
10
93.0244
20
-208.715
11
93.1197
21
-208.906
0
LINE
8
BLACK
6
CONTINUOUS
10
93.1197
20
-208.906
11
93.1197
21
-209.001
0
LINE
8
BLACK
6
CONTINUOUS
10
93.1197
20
-209.001
11
93.0244
21
-209.192
0
LINE
8
BLACK
6
CONTINUOUS
10
93.0244
20
-209.192
11
92.9292
21
-209.287
0
LINE
8
BLACK
6
CONTINUOUS
10
92.9292
20
-209.287
11
92.7387
21
-209.382
0
LINE
8
BLACK
6
CONTINUOUS
10
92.7387
20
-209.382
11
92.3578
21
-209.382
0
LINE
8
BLACK
6
CONTINUOUS
10
92.3578
20
-209.382
11
92.1673
21
-209.477
0
LINE
8
BLACK
6
CONTINUOUS
10
92.1673
20
-209.477
11
92.0721
21
-209.572
0
LINE
8
BLACK
6
CONTINUOUS
10
92.0721
20
-209.572
11
91.9768
21
-209.763
0
LINE
8
BLACK
6
CONTINUOUS
10
91.9768
20
-209.763
11
91.9768
21
-210.144
0
LINE
8
BLACK
6
CONTINUOUS
10
91.9768
20
-210.144
11
92.0721
21
-210.334
0
LINE
8
BLACK
6
CONTINUOUS
10
92.0721
20
-210.334
11
92.1673
21
-210.43
0
LINE
8
BLACK
6
CONTINUOUS
10
92.1673
20
-210.43
11
92.3578
21
-210.525
0
LINE
8
BLACK
6
CONTINUOUS
10
92.3578
20
-210.525
11
92.7387
21
-210.525
0
LINE
8
BLACK
6
CONTINUOUS
10
92.7387
20
-210.525
11
92.9292
21
-210.43
0
LINE
8
BLACK
6
CONTINUOUS
10
92.9292
20
-210.43
11
93.0244
21
-210.334
0
LINE
8
BLACK
6
CONTINUOUS
10
93.0244
20
-210.334
11
93.1197
21
-210.144
0
LINE
8
BLACK
6
CONTINUOUS
10
93.1197
20
-210.144
11
93.1197
21
-209.763
0
LINE
8
BLACK
6
CONTINUOUS
10
93.1197
20
-209.763
11
93.0244
21
-209.572
0
LINE
8
BLACK
6
CONTINUOUS
10
93.0244
20
-209.572
11
92.9292
21
-209.477
0
LINE
8
BLACK
6
CONTINUOUS
10
92.9292
20
-209.477
11
92.7387
21
-209.382
0
LINE
8
BLACK
6
CONTINUOUS
10
94.3578
20
-208.525
11
94.5482
21
-208.525
0
LINE
8
BLACK
6
CONTINUOUS
10
94.5482
20
-208.525
11
94.7387
21
-208.62
0
LINE
8
BLACK
6
CONTINUOUS
10
94.7387
20
-208.62
11
94.834
21
-208.715
0
LINE
8
BLACK
6
CONTINUOUS
10
94.834
20
-208.715
11
94.9292
21
-208.906
0
LINE
8
BLACK
6
CONTINUOUS
10
94.9292
20
-208.906
11
95.0244
21
-209.287
0
LINE
8
BLACK
6
CONTINUOUS
10
95.0244
20
-209.287
11
95.0244
21
-209.763
0
LINE
8
BLACK
6
CONTINUOUS
10
95.0244
20
-209.763
11
94.9292
21
-210.144
0
LINE
8
BLACK
6
CONTINUOUS
10
94.9292
20
-210.144
11
94.834
21
-210.334
0
LINE
8
BLACK
6
CONTINUOUS
10
94.834
20
-210.334
11
94.7387
21
-210.43
0
LINE
8
BLACK
6
CONTINUOUS
10
94.7387
20
-210.43
11
94.5482
21
-210.525
0
LINE
8
BLACK
6
CONTINUOUS
10
94.5482
20
-210.525
11
94.3578
21
-210.525
0
LINE
8
BLACK
6
CONTINUOUS
10
94.3578
20
-210.525
11
94.1673
21
-210.43
0
LINE
8
BLACK
6
CONTINUOUS
10
94.1673
20
-210.43
11
94.0721
21
-210.334
0
LINE
8
BLACK
6
CONTINUOUS
10
94.0721
20
-210.334
11
93.9768
21
-210.144
0
LINE
8
BLACK
6
CONTINUOUS
10
93.9768
20
-210.144
11
93.8816
21
-209.763
0
LINE
8
BLACK
6
CONTINUOUS
10
93.8816
20
-209.763
11
93.8816
21
-209.287
0
LINE
8
BLACK
6
CONTINUOUS
10
93.8816
20
-209.287
11
93.9768
21
-208.906
0
LINE
8
BLACK
6
CONTINUOUS
10
93.9768
20
-208.906
11
94.0721
21
-208.715
0
LINE
8
BLACK
6
CONTINUOUS
10
94.0721
20
-208.715
11
94.1673
21
-208.62
0
LINE
8
BLACK
6
CONTINUOUS
10
94.1673
20
-208.62
11
94.3578
21
-208.525
0
LINE
8
BLACK
6
CONTINUOUS
10
95.7863
20
-208.525
11
95.7863
21
-208.906
0
LINE
8
BLACK
6
CONTINUOUS
10
96.5482
20
-208.525
11
96.5482
21
-208.906
0
LINE
8
BLACK
6
CONTINUOUS
10
99.5006
20
-211.287
11
99.4054
21
-211.192
0
LINE
8
BLACK
6
CONTINUOUS
10
99.4054
20
-211.192
11
99.2149
21
-210.906
0
LINE
8
BLACK
6
CONTINUOUS
10
99.2149
20
-210.906
11
99.1197
21
-210.715
0
LINE
8
BLACK
6
CONTINUOUS
10
99.1197
20
-210.715
11
99.0244
21
-210.43
0
LINE
8
BLACK
6
CONTINUOUS
10
99.0244
20
-210.43
11
98.9292
21
-209.953
0
LINE
8
BLACK
6
CONTINUOUS
10
98.9292
20
-209.953
11
98.9292
21
-209.572
0
LINE
8
BLACK
6
CONTINUOUS
10
98.9292
20
-209.572
11
99.0244
21
-209.096
0
LINE
8
BLACK
6
CONTINUOUS
10
99.0244
20
-209.096
11
99.1197
21
-208.811
0
LINE
8
BLACK
6
CONTINUOUS
10
99.1197
20
-208.811
11
99.2149
21
-208.62
0
LINE
8
BLACK
6
CONTINUOUS
10
99.2149
20
-208.62
11
99.4054
21
-208.334
0
LINE
8
BLACK
6
CONTINUOUS
10
99.4054
20
-208.334
11
99.5006
21
-208.239
0
LINE
8
BLACK
6
CONTINUOUS
10
100.167
20
-208.715
11
100.263
21
-208.62
0
LINE
8
BLACK
6
CONTINUOUS
10
100.263
20
-208.62
11
100.453
21
-208.525
0
LINE
8
BLACK
6
CONTINUOUS
10
100.453
20
-208.525
11
100.929
21
-208.525
0
LINE
8
BLACK
6
CONTINUOUS
10
100.929
20
-208.525
11
101.12
21
-208.62
0
LINE
8
BLACK
6
CONTINUOUS
10
101.12
20
-208.62
11
101.215
21
-208.715
0
LINE
8
BLACK
6
CONTINUOUS
10
101.215
20
-208.715
11
101.31
21
-208.906
0
LINE
8
BLACK
6
CONTINUOUS
10
101.31
20
-208.906
11
101.31
21
-209.096
0
LINE
8
BLACK
6
CONTINUOUS
10
101.31
20
-209.096
11
101.215
21
-209.382
0
LINE
8
BLACK
6
CONTINUOUS
10
101.215
20
-209.382
11
100.072
21
-210.525
0
LINE
8
BLACK
6
CONTINUOUS
10
100.072
20
-210.525
11
101.31
21
-210.525
0
LINE
8
BLACK
6
CONTINUOUS
10
103.691
20
-210.525
11
103.691
21
-208.525
0
LINE
8
BLACK
6
CONTINUOUS
10
104.548
20
-210.525
11
104.548
21
-209.477
0
LINE
8
BLACK
6
CONTINUOUS
10
104.548
20
-209.477
11
104.453
21
-209.287
0
LINE
8
BLACK
6
CONTINUOUS
10
104.453
20
-209.287
11
104.263
21
-209.192
0
LINE
8
BLACK
6
CONTINUOUS
10
104.263
20
-209.192
11
103.977
21
-209.192
0
LINE
8
BLACK
6
CONTINUOUS
10
103.977
20
-209.192
11
103.786
21
-209.287
0
LINE
8
BLACK
6
CONTINUOUS
10
103.786
20
-209.287
11
103.691
21
-209.382
0
LINE
8
BLACK
6
CONTINUOUS
10
105.786
20
-210.525
11
105.596
21
-210.43
0
LINE
8
BLACK
6
CONTINUOUS
10
105.596
20
-210.43
11
105.501
21
-210.334
0
LINE
8
BLACK
6
CONTINUOUS
10
105.501
20
-210.334
11
105.405
21
-210.144
0
LINE
8
BLACK
6
CONTINUOUS
10
105.405
20
-210.144
11
105.405
21
-209.572
0
LINE
8
BLACK
6
CONTINUOUS
10
105.405
20
-209.572
11
105.501
21
-209.382
0
LINE
8
BLACK
6
CONTINUOUS
10
105.501
20
-209.382
11
105.596
21
-209.287
0
LINE
8
BLACK
6
CONTINUOUS
10
105.596
20
-209.287
11
105.786
21
-209.192
0
LINE
8
BLACK
6
CONTINUOUS
10
105.786
20
-209.192
11
106.072
21
-209.192
0
LINE
8
BLACK
6
CONTINUOUS
10
106.072
20
-209.192
11
106.263
21
-209.287
0
LINE
8
BLACK
6
CONTINUOUS
10
106.263
20
-209.287
11
106.358
21
-209.382
0
LINE
8
BLACK
6
CONTINUOUS
10
106.358
20
-209.382
11
106.453
21
-209.572
0
LINE
8
BLACK
6
CONTINUOUS
10
106.453
20
-209.572
11
106.453
21
-210.144
0
LINE
8
BLACK
6
CONTINUOUS
10
106.453
20
-210.144
11
106.358
21
-210.334
0
LINE
8
BLACK
6
CONTINUOUS
10
106.358
20
-210.334
11
106.263
21
-210.43
0
LINE
8
BLACK
6
CONTINUOUS
10
106.263
20
-210.43
11
106.072
21
-210.525
0
LINE
8
BLACK
6
CONTINUOUS
10
106.072
20
-210.525
11
105.786
21
-210.525
0
LINE
8
BLACK
6
CONTINUOUS
10
107.596
20
-210.525
11
107.405
21
-210.43
0
LINE
8
BLACK
6
CONTINUOUS
10
107.405
20
-210.43
11
107.31
21
-210.239
0
LINE
8
BLACK
6
CONTINUOUS
10
107.31
20
-210.239
11
107.31
21
-208.525
0
LINE
8
BLACK
6
CONTINUOUS
10
109.12
20
-210.43
11
108.929
21
-210.525
0
LINE
8
BLACK
6
CONTINUOUS
10
108.929
20
-210.525
11
108.548
21
-210.525
0
LINE
8
BLACK
6
CONTINUOUS
10
108.548
20
-210.525
11
108.358
21
-210.43
0
LINE
8
BLACK
6
CONTINUOUS
10
108.358
20
-210.43
11
108.263
21
-210.239
0
LINE
8
BLACK
6
CONTINUOUS
10
108.263
20
-210.239
11
108.263
21
-209.477
0
LINE
8
BLACK
6
CONTINUOUS
10
108.263
20
-209.477
11
108.358
21
-209.287
0
LINE
8
BLACK
6
CONTINUOUS
10
108.358
20
-209.287
11
108.548
21
-209.192
0
LINE
8
BLACK
6
CONTINUOUS
10
108.548
20
-209.192
11
108.929
21
-209.192
0
LINE
8
BLACK
6
CONTINUOUS
10
108.929
20
-209.192
11
109.12
21
-209.287
0
LINE
8
BLACK
6
CONTINUOUS
10
109.12
20
-209.287
11
109.215
21
-209.477
0
LINE
8
BLACK
6
CONTINUOUS
10
109.215
20
-209.477
11
109.215
21
-209.668
0
LINE
8
BLACK
6
CONTINUOUS
10
109.215
20
-209.668
11
108.263
21
-209.858
0
LINE
8
BLACK
6
CONTINUOUS
10
109.977
20
-210.43
11
110.167
21
-210.525
0
LINE
8
BLACK
6
CONTINUOUS
10
110.167
20
-210.525
11
110.548
21
-210.525
0
LINE
8
BLACK
6
CONTINUOUS
10
110.548
20
-210.525
11
110.739
21
-210.43
0
LINE
8
BLACK
6
CONTINUOUS
10
110.739
20
-210.43
11
110.834
21
-210.239
0
LINE
8
BLACK
6
CONTINUOUS
10
110.834
20
-210.239
11
110.834
21
-210.144
0
LINE
8
BLACK
6
CONTINUOUS
10
110.834
20
-210.144
11
110.739
21
-209.953
0
LINE
8
BLACK
6
CONTINUOUS
10
110.739
20
-209.953
11
110.548
21
-209.858
0
LINE
8
BLACK
6
CONTINUOUS
10
110.548
20
-209.858
11
110.263
21
-209.858
0
LINE
8
BLACK
6
CONTINUOUS
10
110.263
20
-209.858
11
110.072
21
-209.763
0
LINE
8
BLACK
6
CONTINUOUS
10
110.072
20
-209.763
11
109.977
21
-209.572
0
LINE
8
BLACK
6
CONTINUOUS
10
109.977
20
-209.572
11
109.977
21
-209.477
0
LINE
8
BLACK
6
CONTINUOUS
10
109.977
20
-209.477
11
110.072
21
-209.287
0
LINE
8
BLACK
6
CONTINUOUS
10
110.072
20
-209.287
11
110.263
21
-209.192
0
LINE
8
BLACK
6
CONTINUOUS
10
110.263
20
-209.192
11
110.548
21
-209.192
0
LINE
8
BLACK
6
CONTINUOUS
10
110.548
20
-209.192
11
110.739
21
-209.287
0
LINE
8
BLACK
6
CONTINUOUS
10
111.501
20
-211.287
11
111.596
21
-211.192
0
LINE
8
BLACK
6
CONTINUOUS
10
111.596
20
-211.192
11
111.786
21
-210.906
0
LINE
8
BLACK
6
CONTINUOUS
10
111.786
20
-210.906
11
111.882
21
-210.715
0
LINE
8
BLACK
6
CONTINUOUS
10
111.882
20
-210.715
11
111.977
21
-210.43
0
LINE
8
BLACK
6
CONTINUOUS
10
111.977
20
-210.43
11
112.072
21
-209.953
0
LINE
8
BLACK
6
CONTINUOUS
10
112.072
20
-209.953
11
112.072
21
-209.572
0
LINE
8
BLACK
6
CONTINUOUS
10
112.072
20
-209.572
11
111.977
21
-209.096
0
LINE
8
BLACK
6
CONTINUOUS
10
111.977
20
-209.096
11
111.882
21
-208.811
0
LINE
8
BLACK
6
CONTINUOUS
10
111.882
20
-208.811
11
111.786
21
-208.62
0
LINE
8
BLACK
6
CONTINUOUS
10
111.786
20
-208.62
11
111.596
21
-208.334
0
LINE
8
BLACK
6
CONTINUOUS
10
111.596
20
-208.334
11
111.501
21
-208.239
0
LINE
8
BLACK
6
CONTINUOUS
10
115.12
20
-211.287
11
115.024
21
-211.192
0
LINE
8
BLACK
6
CONTINUOUS
10
115.024
20
-211.192
11
114.834
21
-210.906
0
LINE
8
BLACK
6
CONTINUOUS
10
114.834
20
-210.906
11
114.739
21
-210.715
0
LINE
8
BLACK
6
CONTINUOUS
10
114.739
20
-210.715
11
114.643
21
-210.43
0
LINE
8
BLACK
6
CONTINUOUS
10
114.643
20
-210.43
11
114.548
21
-209.953
0
LINE
8
BLACK
6
CONTINUOUS
10
114.548
20
-209.953
11
114.548
21
-209.572
0
LINE
8
BLACK
6
CONTINUOUS
10
114.548
20
-209.572
11
114.643
21
-209.096
0
LINE
8
BLACK
6
CONTINUOUS
10
114.643
20
-209.096
11
114.739
21
-208.811
0
LINE
8
BLACK
6
CONTINUOUS
10
114.739
20
-208.811
11
114.834
21
-208.62
0
LINE
8
BLACK
6
CONTINUOUS
10
114.834
20
-208.62
11
115.024
21
-208.334
0
LINE
8
BLACK
6
CONTINUOUS
10
115.024
20
-208.334
11
115.12
21
-208.239
0
LINE
8
BLACK
6
CONTINUOUS
10
115.882
20
-209.192
11
115.882
21
-210.525
0
LINE
8
BLACK
6
CONTINUOUS
10
115.882
20
-209.382
11
115.977
21
-209.287
0
LINE
8
BLACK
6
CONTINUOUS
10
115.977
20
-209.287
11
116.167
21
-209.192
0
LINE
8
BLACK
6
CONTINUOUS
10
116.167
20
-209.192
11
116.453
21
-209.192
0
LINE
8
BLACK
6
CONTINUOUS
10
116.453
20
-209.192
11
116.643
21
-209.287
0
LINE
8
BLACK
6
CONTINUOUS
10
116.643
20
-209.287
11
116.739
21
-209.477
0
LINE
8
BLACK
6
CONTINUOUS
10
116.739
20
-209.477
11
116.739
21
-210.525
0
LINE
8
BLACK
6
CONTINUOUS
10
117.977
20
-210.525
11
117.786
21
-210.43
0
LINE
8
BLACK
6
CONTINUOUS
10
117.786
20
-210.43
11
117.691
21
-210.334
0
LINE
8
BLACK
6
CONTINUOUS
10
117.691
20
-210.334
11
117.596
21
-210.144
0
LINE
8
BLACK
6
CONTINUOUS
10
117.596
20
-210.144
11
117.596
21
-209.572
0
LINE
8
BLACK
6
CONTINUOUS
10
117.596
20
-209.572
11
117.691
21
-209.382
0
LINE
8
BLACK
6
CONTINUOUS
10
117.691
20
-209.382
11
117.786
21
-209.287
0
LINE
8
BLACK
6
CONTINUOUS
10
117.786
20
-209.287
11
117.977
21
-209.192
0
LINE
8
BLACK
6
CONTINUOUS
10
117.977
20
-209.192
11
118.263
21
-209.192
0
LINE
8
BLACK
6
CONTINUOUS
10
118.263
20
-209.192
11
118.453
21
-209.287
0
LINE
8
BLACK
6
CONTINUOUS
10
118.453
20
-209.287
11
118.548
21
-209.382
0
LINE
8
BLACK
6
CONTINUOUS
10
118.548
20
-209.382
11
118.643
21
-209.572
0
LINE
8
BLACK
6
CONTINUOUS
10
118.643
20
-209.572
11
118.643
21
-210.144
0
LINE
8
BLACK
6
CONTINUOUS
10
118.643
20
-210.144
11
118.548
21
-210.334
0
LINE
8
BLACK
6
CONTINUOUS
10
118.548
20
-210.334
11
118.453
21
-210.43
0
LINE
8
BLACK
6
CONTINUOUS
10
118.453
20
-210.43
11
118.263
21
-210.525
0
LINE
8
BLACK
6
CONTINUOUS
10
118.263
20
-210.525
11
117.977
21
-210.525
0
LINE
8
BLACK
6
CONTINUOUS
10
119.215
20
-209.192
11
119.977
21
-209.192
0
LINE
8
BLACK
6
CONTINUOUS
10
119.501
20
-208.525
11
119.501
21
-210.239
0
LINE
8
BLACK
6
CONTINUOUS
10
119.501
20
-210.239
11
119.596
21
-210.43
0
LINE
8
BLACK
6
CONTINUOUS
10
119.596
20
-210.43
11
119.786
21
-210.525
0
LINE
8
BLACK
6
CONTINUOUS
10
119.786
20
-210.525
11
119.977
21
-210.525
0
LINE
8
BLACK
6
CONTINUOUS
10
122.167
20
-209.192
11
122.167
21
-211.192
0
LINE
8
BLACK
6
CONTINUOUS
10
122.167
20
-209.287
11
122.358
21
-209.192
0
LINE
8
BLACK
6
CONTINUOUS
10
122.358
20
-209.192
11
122.739
21
-209.192
0
LINE
8
BLACK
6
CONTINUOUS
10
122.739
20
-209.192
11
122.929
21
-209.287
0
LINE
8
BLACK
6
CONTINUOUS
10
122.929
20
-209.287
11
123.024
21
-209.382
0
LINE
8
BLACK
6
CONTINUOUS
10
123.024
20
-209.382
11
123.12
21
-209.572
0
LINE
8
BLACK
6
CONTINUOUS
10
123.12
20
-209.572
11
123.12
21
-210.144
0
LINE
8
BLACK
6
CONTINUOUS
10
123.12
20
-210.144
11
123.024
21
-210.334
0
LINE
8
BLACK
6
CONTINUOUS
10
123.024
20
-210.334
11
122.929
21
-210.43
0
LINE
8
BLACK
6
CONTINUOUS
10
122.929
20
-210.43
11
122.739
21
-210.525
0
LINE
8
BLACK
6
CONTINUOUS
10
122.739
20
-210.525
11
122.358
21
-210.525
0
LINE
8
BLACK
6
CONTINUOUS
10
122.358
20
-210.525
11
122.167
21
-210.43
0
LINE
8
BLACK
6
CONTINUOUS
10
124.263
20
-210.525
11
124.072
21
-210.43
0
LINE
8
BLACK
6
CONTINUOUS
10
124.072
20
-210.43
11
123.977
21
-210.239
0
LINE
8
BLACK
6
CONTINUOUS
10
123.977
20
-210.239
11
123.977
21
-208.525
0
LINE
8
BLACK
6
CONTINUOUS
10
125.882
20
-210.525
11
125.882
21
-209.477
0
LINE
8
BLACK
6
CONTINUOUS
10
125.882
20
-209.477
11
125.786
21
-209.287
0
LINE
8
BLACK
6
CONTINUOUS
10
125.786
20
-209.287
11
125.596
21
-209.192
0
LINE
8
BLACK
6
CONTINUOUS
10
125.596
20
-209.192
11
125.215
21
-209.192
0
LINE
8
BLACK
6
CONTINUOUS
10
125.215
20
-209.192
11
125.024
21
-209.287
0
LINE
8
BLACK
6
CONTINUOUS
10
125.882
20
-210.43
11
125.691
21
-210.525
0
LINE
8
BLACK
6
CONTINUOUS
10
125.691
20
-210.525
11
125.215
21
-210.525
0
LINE
8
BLACK
6
CONTINUOUS
10
125.215
20
-210.525
11
125.024
21
-210.43
0
LINE
8
BLACK
6
CONTINUOUS
10
125.024
20
-210.43
11
124.929
21
-210.239
0
LINE
8
BLACK
6
CONTINUOUS
10
124.929
20
-210.239
11
124.929
21
-210.049
0
LINE
8
BLACK
6
CONTINUOUS
10
124.929
20
-210.049
11
125.024
21
-209.858
0
LINE
8
BLACK
6
CONTINUOUS
10
125.024
20
-209.858
11
125.215
21
-209.763
0
LINE
8
BLACK
6
CONTINUOUS
10
125.215
20
-209.763
11
125.691
21
-209.763
0
LINE
8
BLACK
6
CONTINUOUS
10
125.691
20
-209.763
11
125.882
21
-209.668
0
LINE
8
BLACK
6
CONTINUOUS
10
126.548
20
-209.192
11
127.31
21
-209.192
0
LINE
8
BLACK
6
CONTINUOUS
10
126.834
20
-208.525
11
126.834
21
-210.239
0
LINE
8
BLACK
6
CONTINUOUS
10
126.834
20
-210.239
11
126.929
21
-210.43
0
LINE
8
BLACK
6
CONTINUOUS
10
126.929
20
-210.43
11
127.12
21
-210.525
0
LINE
8
BLACK
6
CONTINUOUS
10
127.12
20
-210.525
11
127.31
21
-210.525
0
LINE
8
BLACK
6
CONTINUOUS
10
128.739
20
-210.43
11
128.548
21
-210.525
0
LINE
8
BLACK
6
CONTINUOUS
10
128.548
20
-210.525
11
128.167
21
-210.525
0
LINE
8
BLACK
6
CONTINUOUS
10
128.167
20
-210.525
11
127.977
21
-210.43
0
LINE
8
BLACK
6
CONTINUOUS
10
127.977
20
-210.43
11
127.882
21
-210.239
0
LINE
8
BLACK
6
CONTINUOUS
10
127.882
20
-210.239
11
127.882
21
-209.477
0
LINE
8
BLACK
6
CONTINUOUS
10
127.882
20
-209.477
11
127.977
21
-209.287
0
LINE
8
BLACK
6
CONTINUOUS
10
127.977
20
-209.287
11
128.167
21
-209.192
0
LINE
8
BLACK
6
CONTINUOUS
10
128.167
20
-209.192
11
128.548
21
-209.192
0
LINE
8
BLACK
6
CONTINUOUS
10
128.548
20
-209.192
11
128.739
21
-209.287
0
LINE
8
BLACK
6
CONTINUOUS
10
128.739
20
-209.287
11
128.834
21
-209.477
0
LINE
8
BLACK
6
CONTINUOUS
10
128.834
20
-209.477
11
128.834
21
-209.668
0
LINE
8
BLACK
6
CONTINUOUS
10
128.834
20
-209.668
11
127.882
21
-209.858
0
LINE
8
BLACK
6
CONTINUOUS
10
130.548
20
-210.525
11
130.548
21
-208.525
0
LINE
8
BLACK
6
CONTINUOUS
10
130.548
20
-210.43
11
130.358
21
-210.525
0
LINE
8
BLACK
6
CONTINUOUS
10
130.358
20
-210.525
11
129.977
21
-210.525
0
LINE
8
BLACK
6
CONTINUOUS
10
129.977
20
-210.525
11
129.786
21
-210.43
0
LINE
8
BLACK
6
CONTINUOUS
10
129.786
20
-210.43
11
129.691
21
-210.334
0
LINE
8
BLACK
6
CONTINUOUS
10
129.691
20
-210.334
11
129.596
21
-210.144
0
LINE
8
BLACK
6
CONTINUOUS
10
129.596
20
-210.144
11
129.596
21
-209.572
0
LINE
8
BLACK
6
CONTINUOUS
10
129.596
20
-209.572
11
129.691
21
-209.382
0
LINE
8
BLACK
6
CONTINUOUS
10
129.691
20
-209.382
11
129.786
21
-209.287
0
LINE
8
BLACK
6
CONTINUOUS
10
129.786
20
-209.287
11
129.977
21
-209.192
0
LINE
8
BLACK
6
CONTINUOUS
10
129.977
20
-209.192
11
130.358
21
-209.192
0
LINE
8
BLACK
6
CONTINUOUS
10
130.358
20
-209.192
11
130.548
21
-209.287
0
LINE
8
BLACK
6
CONTINUOUS
10
131.31
20
-211.287
11
131.405
21
-211.192
0
LINE
8
BLACK
6
CONTINUOUS
10
131.405
20
-211.192
11
131.596
21
-210.906
0
LINE
8
BLACK
6
CONTINUOUS
10
131.596
20
-210.906
11
131.691
21
-210.715
0
LINE
8
BLACK
6
CONTINUOUS
10
131.691
20
-210.715
11
131.786
21
-210.43
0
LINE
8
BLACK
6
CONTINUOUS
10
131.786
20
-210.43
11
131.882
21
-209.953
0
LINE
8
BLACK
6
CONTINUOUS
10
131.882
20
-209.953
11
131.882
21
-209.572
0
LINE
8
BLACK
6
CONTINUOUS
10
131.882
20
-209.572
11
131.786
21
-209.096
0
LINE
8
BLACK
6
CONTINUOUS
10
131.786
20
-209.096
11
131.691
21
-208.811
0
LINE
8
BLACK
6
CONTINUOUS
10
131.691
20
-208.811
11
131.596
21
-208.62
0
LINE
8
BLACK
6
CONTINUOUS
10
131.596
20
-208.62
11
131.405
21
-208.334
0
LINE
8
BLACK
6
CONTINUOUS
10
131.405
20
-208.334
11
131.31
21
-208.239
  0
ENDSEC
  0
EOF
