G04 #@! TF.GenerationSoftware,KiCad,Pcbnew,7.0.5*
G04 #@! TF.CreationDate,2023-08-08T11:46:24-04:00*
G04 #@! TF.ProjectId,selftest_bd,73656c66-7465-4737-945f-62642e6b6963,1.0*
G04 #@! TF.SameCoordinates,Original*
G04 #@! TF.FileFunction,Soldermask,Top*
G04 #@! TF.FilePolarity,Negative*
%FSLAX46Y46*%
G04 Gerber Fmt 4.6, Leading zero omitted, Abs format (unit mm)*
G04 Created by KiCad (PCBNEW 7.0.5) date 2023-08-08 11:46:24*
%MOMM*%
%LPD*%
G01*
G04 APERTURE LIST*
%ADD10C,1.500000*%
%ADD11R,1.800000X1.800000*%
%ADD12C,1.800000*%
%ADD13O,2.300000X1.600000*%
%ADD14R,1.600000X1.600000*%
%ADD15O,1.600000X1.600000*%
%ADD16C,3.250000*%
%ADD17R,1.408000X1.408000*%
%ADD18C,1.408000*%
%ADD19C,2.400000*%
%ADD20C,4.200000*%
%ADD21C,1.600000*%
%ADD22R,2.400000X1.600000*%
%ADD23O,2.400000X1.600000*%
%ADD24R,1.200000X1.200000*%
%ADD25C,1.200000*%
%ADD26O,2.400000X2.400000*%
%ADD27C,3.000000*%
%ADD28R,1.050000X1.500000*%
%ADD29O,1.050000X1.500000*%
%ADD30R,1.428000X1.428000*%
%ADD31C,1.428000*%
%ADD32C,3.346000*%
%ADD33R,1.700000X1.700000*%
%ADD34O,1.700000X1.700000*%
%ADD35O,1.800000X1.800000*%
%ADD36O,1.500000X1.500000*%
%ADD37R,3.500000X1.700000*%
%ADD38R,1.700000X3.500000*%
G04 APERTURE END LIST*
D10*
X103064800Y-147767000D03*
X257750500Y-187165000D03*
X196270000Y-79100000D03*
D11*
X207175000Y-159359600D03*
D12*
X209715000Y-159359600D03*
D10*
X140500000Y-181950000D03*
X120421400Y-174269400D03*
D13*
X298740000Y-157350000D03*
X298740000Y-159890000D03*
X298740000Y-162430000D03*
X298740000Y-164970000D03*
X298740000Y-167510000D03*
X306360000Y-167510000D03*
X306360000Y-164970000D03*
X306360000Y-162430000D03*
X306360000Y-159890000D03*
X306360000Y-157350000D03*
D10*
X251950500Y-184565000D03*
D13*
X238700000Y-114750000D03*
X238700000Y-117290000D03*
X238700000Y-119830000D03*
X238700000Y-122370000D03*
X238700000Y-124910000D03*
X246320000Y-124910000D03*
X246320000Y-122370000D03*
X246320000Y-119830000D03*
X246320000Y-117290000D03*
X246320000Y-114750000D03*
D14*
X298690000Y-130700000D03*
D15*
X306310000Y-130700000D03*
D16*
X150291800Y-190213400D03*
X161721800Y-190213400D03*
D17*
X151561800Y-183863400D03*
D18*
X152831800Y-181323400D03*
X154101800Y-183863400D03*
X155371800Y-181323400D03*
X156641800Y-183863400D03*
X157911800Y-181323400D03*
X159181800Y-183863400D03*
X160451800Y-181323400D03*
D19*
X147981800Y-187463400D03*
X148091800Y-193263400D03*
X163921800Y-193263400D03*
X164031800Y-187463400D03*
D10*
X320217800Y-52595335D03*
X317677800Y-52595335D03*
X315137800Y-52595335D03*
X312597800Y-52595335D03*
X310057800Y-52595335D03*
X307517800Y-52595335D03*
X304977800Y-52595335D03*
X302437800Y-52595335D03*
X299897800Y-52595335D03*
X297357800Y-52595335D03*
X294817800Y-52595335D03*
X292277800Y-52595335D03*
X289737800Y-52595335D03*
X287197800Y-52595335D03*
X284657800Y-52595335D03*
X282117800Y-52595335D03*
X279577800Y-52595335D03*
X277037800Y-52595335D03*
X274497800Y-52595335D03*
X271957800Y-52595335D03*
X269417800Y-52595335D03*
X266877800Y-52595335D03*
X264337800Y-52595335D03*
X261797800Y-52595335D03*
X259257800Y-52595335D03*
X256717800Y-52595335D03*
X254177800Y-52595335D03*
X251637800Y-52595335D03*
X249097800Y-52595335D03*
X246557800Y-52595335D03*
X244017800Y-52595335D03*
X241477800Y-52595335D03*
X320217800Y-55135335D03*
X317677800Y-55135335D03*
X315137800Y-55135335D03*
X312597800Y-55135335D03*
X310057800Y-55135335D03*
X307517800Y-55135335D03*
X304977800Y-55135335D03*
X302437800Y-55135335D03*
X299897800Y-55135335D03*
X297357800Y-55135335D03*
X294817800Y-55135335D03*
X292277800Y-55135335D03*
X289737800Y-55135335D03*
X287197800Y-55135335D03*
X284657800Y-55135335D03*
X282117800Y-55135335D03*
X279577800Y-55135335D03*
X277037800Y-55135335D03*
X274497800Y-55135335D03*
X271957800Y-55135335D03*
X269417800Y-55135335D03*
X266877800Y-55135335D03*
X264337800Y-55135335D03*
X261797800Y-55135335D03*
X259257800Y-55135335D03*
X256717800Y-55135335D03*
X254177800Y-55135335D03*
X251637800Y-55135335D03*
X249097800Y-55135335D03*
X246557800Y-55135335D03*
X244017800Y-55135335D03*
X241477800Y-55135335D03*
X320217800Y-57675335D03*
X317677800Y-57675335D03*
X315137800Y-57675335D03*
X312597800Y-57675335D03*
X310057800Y-57675335D03*
X307517800Y-57675335D03*
X304977800Y-57675335D03*
X302437800Y-57675335D03*
X299897800Y-57675335D03*
X297357800Y-57675335D03*
X294817800Y-57675335D03*
X292277800Y-57675335D03*
X289737800Y-57675335D03*
X287197800Y-57675335D03*
X284657800Y-57675335D03*
X282117800Y-57675335D03*
X279577800Y-57675335D03*
X277037800Y-57675335D03*
X274497800Y-57675335D03*
X271957800Y-57675335D03*
X269417800Y-57675335D03*
X266877800Y-57675335D03*
X264337800Y-57675335D03*
X261797800Y-57675335D03*
X259257800Y-57675335D03*
X256717800Y-57675335D03*
X254177800Y-57675335D03*
X251637800Y-57675335D03*
X249097800Y-57675335D03*
X246557800Y-57675335D03*
X244017800Y-57675335D03*
X241477800Y-57675335D03*
D20*
X325297800Y-50055335D03*
X236397800Y-50055335D03*
D10*
X174580000Y-78910000D03*
X117856000Y-100650000D03*
X223110000Y-60520000D03*
D21*
X89940000Y-183550000D03*
D15*
X100100000Y-183550000D03*
D21*
X217500000Y-125790000D03*
D15*
X217500000Y-135950000D03*
D21*
X217920000Y-96800000D03*
D15*
X228080000Y-96800000D03*
D13*
X238160500Y-182075000D03*
X238160500Y-184615000D03*
X238160500Y-187155000D03*
X238160500Y-189695000D03*
X238160500Y-192235000D03*
X245780500Y-192235000D03*
X245780500Y-189695000D03*
X245780500Y-187155000D03*
X245780500Y-184615000D03*
X245780500Y-182075000D03*
D10*
X246870000Y-82960000D03*
X186182000Y-52595335D03*
X183642000Y-52595335D03*
X181102000Y-52595335D03*
X178562000Y-52595335D03*
X176022000Y-52595335D03*
X173482000Y-52595335D03*
X170942000Y-52595335D03*
X168402000Y-52595335D03*
X165862000Y-52595335D03*
X163322000Y-52595335D03*
X160782000Y-52595335D03*
X158242000Y-52595335D03*
X155702000Y-52595335D03*
X153162000Y-52595335D03*
X150622000Y-52595335D03*
X148082000Y-52595335D03*
X145542000Y-52595335D03*
X143002000Y-52595335D03*
X140462000Y-52595335D03*
X137922000Y-52595335D03*
X135382000Y-52595335D03*
X132842000Y-52595335D03*
X130302000Y-52595335D03*
X127762000Y-52595335D03*
X125222000Y-52595335D03*
X122682000Y-52595335D03*
X120142000Y-52595335D03*
X117602000Y-52595335D03*
X115062000Y-52595335D03*
X112522000Y-52595335D03*
X109982000Y-52595335D03*
X107442000Y-52595335D03*
X186182000Y-55135335D03*
X183642000Y-55135335D03*
X181102000Y-55135335D03*
X178562000Y-55135335D03*
X176022000Y-55135335D03*
X173482000Y-55135335D03*
X170942000Y-55135335D03*
X168402000Y-55135335D03*
X165862000Y-55135335D03*
X163322000Y-55135335D03*
X160782000Y-55135335D03*
X158242000Y-55135335D03*
X155702000Y-55135335D03*
X153162000Y-55135335D03*
X150622000Y-55135335D03*
X148082000Y-55135335D03*
X145542000Y-55135335D03*
X143002000Y-55135335D03*
X140462000Y-55135335D03*
X137922000Y-55135335D03*
X135382000Y-55135335D03*
X132842000Y-55135335D03*
X130302000Y-55135335D03*
X127762000Y-55135335D03*
X125222000Y-55135335D03*
X122682000Y-55135335D03*
X120142000Y-55135335D03*
X117602000Y-55135335D03*
X115062000Y-55135335D03*
X112522000Y-55135335D03*
X109982000Y-55135335D03*
X107442000Y-55135335D03*
X186182000Y-57675335D03*
X183642000Y-57675335D03*
X181102000Y-57675335D03*
X178562000Y-57675335D03*
X176022000Y-57675335D03*
X173482000Y-57675335D03*
X170942000Y-57675335D03*
X168402000Y-57675335D03*
X165862000Y-57675335D03*
X163322000Y-57675335D03*
X160782000Y-57675335D03*
X158242000Y-57675335D03*
X155702000Y-57675335D03*
X153162000Y-57675335D03*
X150622000Y-57675335D03*
X148082000Y-57675335D03*
X145542000Y-57675335D03*
X143002000Y-57675335D03*
X140462000Y-57675335D03*
X137922000Y-57675335D03*
X135382000Y-57675335D03*
X132842000Y-57675335D03*
X130302000Y-57675335D03*
X127762000Y-57675335D03*
X125222000Y-57675335D03*
X122682000Y-57675335D03*
X120142000Y-57675335D03*
X117602000Y-57675335D03*
X115062000Y-57675335D03*
X112522000Y-57675335D03*
X109982000Y-57675335D03*
X107442000Y-57675335D03*
D20*
X191262000Y-50055335D03*
X102362000Y-50055335D03*
D10*
X103064800Y-154066200D03*
D13*
X298750000Y-136200000D03*
X298750000Y-138740000D03*
X298750000Y-141280000D03*
X298750000Y-143820000D03*
X298750000Y-146360000D03*
X306370000Y-146360000D03*
X306370000Y-143820000D03*
X306370000Y-141280000D03*
X306370000Y-138740000D03*
X306370000Y-136200000D03*
D22*
X183800000Y-107930000D03*
D23*
X183800000Y-110470000D03*
X183800000Y-113010000D03*
X183800000Y-115550000D03*
X183800000Y-118090000D03*
X183800000Y-120630000D03*
X183800000Y-123170000D03*
X183800000Y-125710000D03*
X191420000Y-125710000D03*
X191420000Y-123170000D03*
X191420000Y-120630000D03*
X191420000Y-118090000D03*
X191420000Y-115550000D03*
X191420000Y-113010000D03*
X191420000Y-110470000D03*
X191420000Y-107930000D03*
D24*
X78797401Y-101900000D03*
D25*
X80297401Y-101900000D03*
D22*
X183800000Y-133610000D03*
D23*
X183800000Y-136150000D03*
X183800000Y-138690000D03*
X183800000Y-141230000D03*
X183800000Y-143770000D03*
X183800000Y-146310000D03*
X183800000Y-148850000D03*
X183800000Y-151390000D03*
X191420000Y-151390000D03*
X191420000Y-148850000D03*
X191420000Y-146310000D03*
X191420000Y-143770000D03*
X191420000Y-141230000D03*
X191420000Y-138690000D03*
X191420000Y-136150000D03*
X191420000Y-133610000D03*
D21*
X105181400Y-170271400D03*
X110181400Y-170271400D03*
D10*
X103064800Y-143449000D03*
D13*
X319380000Y-157220000D03*
X319380000Y-159760000D03*
X319380000Y-162300000D03*
X319380000Y-164840000D03*
X319380000Y-167380000D03*
X327000000Y-167380000D03*
X327000000Y-164840000D03*
X327000000Y-162300000D03*
X327000000Y-159760000D03*
X327000000Y-157220000D03*
D21*
X77393800Y-76733400D03*
D15*
X77393800Y-86893400D03*
D19*
X89865200Y-82626200D03*
D26*
X89865200Y-57226200D03*
D10*
X192900000Y-63730000D03*
D13*
X278700000Y-114750000D03*
X278700000Y-117290000D03*
X278700000Y-119830000D03*
X278700000Y-122370000D03*
X278700000Y-124910000D03*
X286320000Y-124910000D03*
X286320000Y-122370000D03*
X286320000Y-119830000D03*
X286320000Y-117290000D03*
X286320000Y-114750000D03*
X318630000Y-136360000D03*
X318630000Y-138900000D03*
X318630000Y-141440000D03*
X318630000Y-143980000D03*
X318630000Y-146520000D03*
X326250000Y-146520000D03*
X326250000Y-143980000D03*
X326250000Y-141440000D03*
X326250000Y-138900000D03*
X326250000Y-136360000D03*
D10*
X106000000Y-185950000D03*
D13*
X298700000Y-114750000D03*
X298700000Y-117290000D03*
X298700000Y-119830000D03*
X298700000Y-122370000D03*
X298700000Y-124910000D03*
X306320000Y-124910000D03*
X306320000Y-122370000D03*
X306320000Y-119830000D03*
X306320000Y-117290000D03*
X306320000Y-114750000D03*
X318700000Y-114750000D03*
X318700000Y-117290000D03*
X318700000Y-119830000D03*
X318700000Y-122370000D03*
X318700000Y-124910000D03*
X326320000Y-124910000D03*
X326320000Y-122370000D03*
X326320000Y-119830000D03*
X326320000Y-117290000D03*
X326320000Y-114750000D03*
D10*
X170000000Y-181950000D03*
D13*
X258500000Y-114750000D03*
X258500000Y-117290000D03*
X258500000Y-119830000D03*
X258500000Y-122370000D03*
X258500000Y-124910000D03*
X266120000Y-124910000D03*
X266120000Y-122370000D03*
X266120000Y-119830000D03*
X266120000Y-117290000D03*
X266120000Y-114750000D03*
X278700000Y-133750000D03*
X278700000Y-136290000D03*
X278700000Y-138830000D03*
X278700000Y-141370000D03*
X278700000Y-143910000D03*
X286320000Y-143910000D03*
X286320000Y-141370000D03*
X286320000Y-138830000D03*
X286320000Y-136290000D03*
X286320000Y-133750000D03*
D10*
X175470000Y-181950000D03*
D21*
X216380000Y-61100000D03*
D15*
X206220000Y-61100000D03*
D27*
X188600000Y-179750000D03*
D28*
X138870000Y-99340000D03*
D29*
X137600000Y-99340000D03*
X136330000Y-99340000D03*
D10*
X250100000Y-119650000D03*
D21*
X215780000Y-89050000D03*
D15*
X205620000Y-89050000D03*
D27*
X194843400Y-164033200D03*
D21*
X209651600Y-153543000D03*
D15*
X219811600Y-153543000D03*
D28*
X221870000Y-65940000D03*
D29*
X220600000Y-65940000D03*
X219330000Y-65940000D03*
D14*
X298340000Y-152050000D03*
D15*
X305960000Y-152050000D03*
D30*
X115760000Y-187740000D03*
D31*
X118260000Y-187740000D03*
X120260000Y-187740000D03*
X122760000Y-187740000D03*
D32*
X112690000Y-190740000D03*
X125830000Y-190740000D03*
D33*
X78740000Y-112030000D03*
D34*
X81280000Y-112030000D03*
X83820000Y-112030000D03*
X86360000Y-112030000D03*
X88900000Y-112030000D03*
X91440000Y-112030000D03*
X93980000Y-112030000D03*
X96520000Y-112030000D03*
D10*
X250100000Y-125350000D03*
X232650500Y-190165000D03*
D13*
X238700000Y-133750000D03*
X238700000Y-136290000D03*
X238700000Y-138830000D03*
X238700000Y-141370000D03*
X238700000Y-143910000D03*
X246320000Y-143910000D03*
X246320000Y-141370000D03*
X246320000Y-138830000D03*
X246320000Y-136290000D03*
X246320000Y-133750000D03*
D10*
X232250500Y-184765000D03*
X95500000Y-101950000D03*
D13*
X238700000Y-153750000D03*
X238700000Y-156290000D03*
X238700000Y-158830000D03*
X238700000Y-161370000D03*
X238700000Y-163910000D03*
X246320000Y-163910000D03*
X246320000Y-161370000D03*
X246320000Y-158830000D03*
X246320000Y-156290000D03*
X246320000Y-153750000D03*
D10*
X128016000Y-100650000D03*
D24*
X187100000Y-160150000D03*
D25*
X188600000Y-160150000D03*
D10*
X122936000Y-100650000D03*
D13*
X340000000Y-114750000D03*
X340000000Y-117290000D03*
X340000000Y-119830000D03*
X340000000Y-122370000D03*
X340000000Y-124910000D03*
X347620000Y-124910000D03*
X347620000Y-122370000D03*
X347620000Y-119830000D03*
X347620000Y-117290000D03*
X347620000Y-114750000D03*
D10*
X136050000Y-181950000D03*
D21*
X200990000Y-96870000D03*
D15*
X211150000Y-96870000D03*
D10*
X251850500Y-189765000D03*
D21*
X348280000Y-135400000D03*
D15*
X338120000Y-135400000D03*
D27*
X185013600Y-88696800D03*
D10*
X115951000Y-174269400D03*
X99500000Y-101950000D03*
D13*
X258700000Y-133750000D03*
X258700000Y-136290000D03*
X258700000Y-138830000D03*
X258700000Y-141370000D03*
X258700000Y-143910000D03*
X266320000Y-143910000D03*
X266320000Y-141370000D03*
X266320000Y-138830000D03*
X266320000Y-136290000D03*
X266320000Y-133750000D03*
D10*
X106000000Y-181750000D03*
D21*
X148340000Y-102300000D03*
D15*
X158500000Y-102300000D03*
D21*
X82245200Y-76733400D03*
D15*
X82245200Y-86893400D03*
D10*
X250100000Y-114850000D03*
X102539800Y-119623800D03*
X102539800Y-129733000D03*
D13*
X258700000Y-153750000D03*
X258700000Y-156290000D03*
X258700000Y-158830000D03*
X258700000Y-161370000D03*
X258700000Y-163910000D03*
X266320000Y-163910000D03*
X266320000Y-161370000D03*
X266320000Y-158830000D03*
X266320000Y-156290000D03*
X266320000Y-153750000D03*
D10*
X192900000Y-69070000D03*
D27*
X142722600Y-159232600D03*
D10*
X330962000Y-149987000D03*
D14*
X298440000Y-109750000D03*
D15*
X306060000Y-109750000D03*
D10*
X257650000Y-79140000D03*
D21*
X348330000Y-140050000D03*
D15*
X338170000Y-140050000D03*
D10*
X225700000Y-187150000D03*
D35*
X125470000Y-155160000D03*
D36*
X125170000Y-152130000D03*
X120320000Y-152130000D03*
D35*
X120020000Y-155160000D03*
D34*
X131635000Y-155290000D03*
D37*
X132535000Y-155290000D03*
D34*
X131635000Y-152750000D03*
D37*
X132535000Y-152750000D03*
D33*
X131635000Y-150210000D03*
D37*
X132535000Y-150210000D03*
D34*
X131635000Y-147670000D03*
D37*
X132535000Y-147670000D03*
D34*
X131635000Y-145130000D03*
D37*
X132535000Y-145130000D03*
D34*
X131635000Y-142590000D03*
D37*
X132535000Y-142590000D03*
D34*
X131635000Y-140050000D03*
D37*
X132535000Y-140050000D03*
D33*
X131635000Y-137510000D03*
D37*
X132535000Y-137510000D03*
D34*
X131635000Y-134970000D03*
D37*
X132535000Y-134970000D03*
D34*
X131635000Y-132430000D03*
D37*
X132535000Y-132430000D03*
D34*
X131635000Y-129890000D03*
D37*
X132535000Y-129890000D03*
D34*
X131635000Y-127350000D03*
D37*
X132535000Y-127350000D03*
D33*
X131635000Y-124810000D03*
D37*
X132535000Y-124810000D03*
D34*
X131635000Y-122270000D03*
D37*
X132535000Y-122270000D03*
D34*
X131635000Y-119730000D03*
D37*
X132535000Y-119730000D03*
D34*
X131635000Y-117190000D03*
D37*
X132535000Y-117190000D03*
D34*
X131635000Y-114650000D03*
D37*
X132535000Y-114650000D03*
D33*
X131635000Y-112110000D03*
D37*
X132535000Y-112110000D03*
D34*
X131635000Y-109570000D03*
D37*
X132535000Y-109570000D03*
D34*
X131635000Y-107030000D03*
D37*
X132535000Y-107030000D03*
D34*
X113855000Y-107030000D03*
D37*
X112955000Y-107030000D03*
D34*
X113855000Y-109570000D03*
D37*
X112955000Y-109570000D03*
D33*
X113855000Y-112110000D03*
D37*
X112955000Y-112110000D03*
D34*
X113855000Y-114650000D03*
D37*
X112955000Y-114650000D03*
D34*
X113855000Y-117190000D03*
D37*
X112955000Y-117190000D03*
D34*
X113855000Y-119730000D03*
D37*
X112955000Y-119730000D03*
D34*
X113855000Y-122270000D03*
D37*
X112955000Y-122270000D03*
D33*
X113855000Y-124810000D03*
D37*
X112955000Y-124810000D03*
D34*
X113855000Y-127350000D03*
D37*
X112955000Y-127350000D03*
D34*
X113855000Y-129890000D03*
D37*
X112955000Y-129890000D03*
D34*
X113855000Y-132430000D03*
D37*
X112955000Y-132430000D03*
D34*
X113855000Y-134970000D03*
D37*
X112955000Y-134970000D03*
D33*
X113855000Y-137510000D03*
D37*
X112955000Y-137510000D03*
D34*
X113855000Y-140050000D03*
D37*
X112955000Y-140050000D03*
D34*
X113855000Y-142590000D03*
D37*
X112955000Y-142590000D03*
D34*
X113855000Y-145130000D03*
D37*
X112955000Y-145130000D03*
D34*
X113855000Y-147670000D03*
D37*
X112955000Y-147670000D03*
D33*
X113855000Y-150210000D03*
D37*
X112955000Y-150210000D03*
D34*
X113855000Y-152750000D03*
D37*
X112955000Y-152750000D03*
D34*
X113855000Y-155290000D03*
D37*
X112955000Y-155290000D03*
D34*
X125285000Y-107260000D03*
D38*
X125285000Y-106360000D03*
D33*
X122745000Y-107260000D03*
D38*
X122745000Y-106360000D03*
D34*
X120205000Y-107260000D03*
D38*
X120205000Y-106360000D03*
D13*
X278700000Y-153750000D03*
X278700000Y-156290000D03*
X278700000Y-158830000D03*
X278700000Y-161370000D03*
X278700000Y-163910000D03*
X286320000Y-163910000D03*
X286320000Y-161370000D03*
X286320000Y-158830000D03*
X286320000Y-156290000D03*
X286320000Y-153750000D03*
D19*
X224500000Y-118950000D03*
D26*
X224500000Y-144350000D03*
D11*
X164744400Y-159359600D03*
D12*
X167284400Y-159359600D03*
D21*
X162991800Y-153543000D03*
D15*
X152831800Y-153543000D03*
D10*
X143900000Y-123700000D03*
D21*
X90020000Y-189550000D03*
D15*
X100180000Y-189550000D03*
D33*
X78740000Y-169230000D03*
D34*
X81280000Y-169230000D03*
X83820000Y-169230000D03*
X86360000Y-169230000D03*
X88900000Y-169230000D03*
X91440000Y-169230000D03*
X93980000Y-169230000D03*
X96520000Y-169230000D03*
M02*
