M48
; DRILL file {KiCad 7.0.5} date Tue Aug  8 11:47:50 2023
; FORMAT={-:-/ absolute / metric / decimal}
; #@! TF.CreationDate,2023-08-08T11:47:50-04:00
; #@! TF.GenerationSoftware,Kicad,Pcbnew,7.0.5
; #@! TF.FileFunction,Plated,1,4,PTH
FMAT,2
METRIC
; #@! TA.AperFunction,Plated,PTH,ViaDrill
T1C0.400
; #@! TA.AperFunction,Plated,PTH,ComponentDrill
T2C0.600
; #@! TA.AperFunction,Plated,PTH,ComponentDrill
T3C0.700
; #@! TA.AperFunction,Plated,PTH,ComponentDrill
T4C0.750
; #@! TA.AperFunction,Plated,PTH,ComponentDrill
T5C0.800
; #@! TA.AperFunction,Plated,PTH,ComponentDrill
T6C0.900
; #@! TA.AperFunction,Plated,PTH,ComponentDrill
T7C0.920
; #@! TA.AperFunction,Plated,PTH,ComponentDrill
T8C1.000
; #@! TA.AperFunction,Plated,PTH,ComponentDrill
T9C1.020
; #@! TA.AperFunction,Plated,PTH,ComponentDrill
T10C1.200
; #@! TA.AperFunction,Plated,PTH,ComponentDrill
T11C1.500
; #@! TA.AperFunction,Plated,PTH,ComponentDrill
T12C1.600
; #@! TA.AperFunction,Plated,PTH,ComponentDrill
T13C2.330
; #@! TA.AperFunction,Plated,PTH,ComponentDrill
T14C2.800
%
G90
G05
T1
X123.5Y-96.45
X149.84Y-92.45
X151.85Y-87.57
X156.0Y-95.45
X161.8Y-89.5
X162.75Y-115.2
X168.47Y-99.19
X183.25Y-91.4
X195.85Y-70.5
X237.85Y-173.5
X245.4Y-96.25
X247.45Y-98.65
X252.578Y-174.244
X257.657Y-174.27
X289.8Y-107.15
X292.862Y-148.158
X293.75Y-127.75
X306.4Y-107.45
X323.85Y-110.3
X327.0Y-107.25
X329.4Y-110.35
T2
X78.797Y-101.9
X80.297Y-101.9
X187.1Y-160.15
X188.6Y-160.15
T3
X95.5Y-101.95
X99.5Y-101.95
X102.54Y-119.624
X102.54Y-129.733
X103.065Y-143.449
X103.065Y-147.767
X103.065Y-154.066
X106.0Y-181.75
X106.0Y-185.95
X115.951Y-174.269
X117.856Y-100.65
X120.421Y-174.269
X122.936Y-100.65
X128.016Y-100.65
X136.05Y-181.95
X140.5Y-181.95
X143.9Y-123.7
X170.0Y-181.95
X174.58Y-78.91
X175.47Y-181.95
X192.9Y-63.73
X192.9Y-69.07
X196.27Y-79.1
X223.11Y-60.52
X225.7Y-187.15
X232.25Y-184.765
X232.65Y-190.165
X246.87Y-82.96
X250.1Y-114.85
X250.1Y-119.65
X250.1Y-125.35
X251.85Y-189.765
X251.95Y-184.565
X257.65Y-79.14
X257.75Y-187.165
X330.962Y-149.987
T4
X136.33Y-99.34
X137.6Y-99.34
X138.87Y-99.34
X219.33Y-65.94
X220.6Y-65.94
X221.87Y-65.94
T5
X77.394Y-76.733
X77.394Y-86.893
X82.245Y-76.733
X82.245Y-86.893
X89.94Y-183.55
X90.02Y-189.55
X100.1Y-183.55
X100.18Y-189.55
X105.181Y-170.271
X110.181Y-170.271
X148.34Y-102.3
X152.832Y-153.543
X158.5Y-102.3
X162.992Y-153.543
X183.8Y-107.93
X183.8Y-110.47
X183.8Y-113.01
X183.8Y-115.55
X183.8Y-118.09
X183.8Y-120.63
X183.8Y-123.17
X183.8Y-125.71
X183.8Y-133.61
X183.8Y-136.15
X183.8Y-138.69
X183.8Y-141.23
X183.8Y-143.77
X183.8Y-146.31
X183.8Y-148.85
X183.8Y-151.39
X191.42Y-107.93
X191.42Y-110.47
X191.42Y-113.01
X191.42Y-115.55
X191.42Y-118.09
X191.42Y-120.63
X191.42Y-123.17
X191.42Y-125.71
X191.42Y-133.61
X191.42Y-136.15
X191.42Y-138.69
X191.42Y-141.23
X191.42Y-143.77
X191.42Y-146.31
X191.42Y-148.85
X191.42Y-151.39
X200.99Y-96.87
X205.62Y-89.05
X206.22Y-61.1
X209.652Y-153.543
X211.15Y-96.87
X215.78Y-89.05
X216.38Y-61.1
X217.5Y-125.79
X217.5Y-135.95
X217.92Y-96.8
X219.812Y-153.543
X228.08Y-96.8
X298.34Y-152.05
X298.44Y-109.75
X298.69Y-130.7
X305.96Y-152.05
X306.06Y-109.75
X306.31Y-130.7
X338.12Y-135.4
X338.17Y-140.05
X348.28Y-135.4
X348.33Y-140.05
T6
X78.1Y-173.55
X78.1Y-176.15
X78.5Y-105.55
X78.5Y-108.15
X81.3Y-173.65
X81.3Y-176.25
X81.7Y-105.55
X81.7Y-108.15
X84.4Y-173.65
X84.4Y-176.25
X84.9Y-105.55
X84.9Y-108.15
X87.5Y-173.65
X87.5Y-176.25
X88.1Y-105.55
X88.1Y-108.15
X90.8Y-173.65
X90.8Y-176.25
X91.3Y-105.55
X91.3Y-108.15
X94.0Y-173.65
X94.0Y-176.25
X94.5Y-105.65
X94.5Y-108.25
X96.33Y-67.34
X96.43Y-70.91
X96.43Y-74.16
X97.3Y-173.65
X97.3Y-176.25
X97.6Y-105.65
X97.6Y-108.25
X98.93Y-67.34
X99.03Y-70.91
X99.03Y-74.16
X99.46Y-86.16
X99.513Y-89.764
X99.53Y-82.88
X102.06Y-86.16
X102.113Y-89.764
X102.13Y-82.88
X106.0Y-122.14
X106.12Y-106.94
X106.12Y-109.54
X106.12Y-114.64
X106.12Y-117.14
X106.12Y-119.64
X106.12Y-127.24
X106.12Y-129.84
X106.12Y-132.44
X106.12Y-134.94
X106.12Y-139.94
X106.2Y-137.45
X106.42Y-147.64
X107.2Y-61.04
X107.2Y-63.64
X107.3Y-66.459
X107.3Y-69.059
X107.3Y-71.793
X107.3Y-74.393
X107.6Y-82.95
X107.6Y-86.25
X107.7Y-89.75
X108.6Y-122.14
X108.72Y-106.94
X108.72Y-109.54
X108.72Y-114.64
X108.72Y-117.14
X108.72Y-119.64
X108.72Y-127.24
X108.72Y-129.84
X108.72Y-132.44
X108.72Y-134.94
X108.72Y-139.94
X108.8Y-137.45
X109.02Y-147.64
X110.1Y-66.459
X110.1Y-69.059
X110.1Y-71.793
X110.1Y-74.393
X110.109Y-61.04
X110.109Y-63.64
X110.2Y-82.95
X110.2Y-86.25
X110.3Y-89.75
X112.6Y-71.793
X112.6Y-74.393
X112.649Y-61.04
X112.649Y-63.64
X112.649Y-66.459
X112.649Y-69.059
X114.956Y-79.451
X114.956Y-82.626
X114.981Y-89.078
X115.007Y-85.852
X115.057Y-92.126
X115.189Y-61.04
X115.189Y-63.64
X115.189Y-66.459
X115.189Y-69.059
X115.189Y-71.793
X115.189Y-74.393
X115.47Y-179.81
X115.47Y-182.41
X117.556Y-79.451
X117.556Y-82.626
X117.581Y-89.078
X117.607Y-85.852
X117.657Y-92.126
X117.729Y-61.04
X117.729Y-63.64
X117.729Y-66.459
X117.729Y-69.059
X117.729Y-71.793
X117.729Y-74.393
X120.269Y-61.04
X120.269Y-63.64
X120.269Y-66.459
X120.269Y-69.059
X120.269Y-71.793
X120.269Y-74.393
X122.809Y-61.04
X122.809Y-63.64
X122.809Y-66.459
X122.809Y-69.059
X122.809Y-71.793
X122.809Y-74.393
X122.9Y-179.97
X122.9Y-182.57
X125.349Y-61.04
X125.349Y-63.64
X125.349Y-66.459
X125.349Y-69.059
X125.349Y-71.793
X125.349Y-74.393
X127.889Y-61.04
X127.889Y-63.64
X127.889Y-66.459
X127.889Y-69.059
X127.889Y-71.793
X127.889Y-74.393
X130.429Y-61.04
X130.429Y-63.64
X130.429Y-66.459
X130.429Y-69.059
X130.429Y-71.793
X130.429Y-74.393
X132.969Y-66.459
X132.969Y-69.059
X132.969Y-71.793
X132.969Y-74.393
X133.1Y-61.04
X133.1Y-63.64
X135.509Y-61.04
X135.509Y-63.64
X135.509Y-66.459
X135.509Y-69.059
X135.509Y-71.793
X135.509Y-74.393
X137.2Y-116.8
X137.22Y-106.94
X137.22Y-109.54
X137.22Y-113.45
X137.22Y-119.54
X137.22Y-122.24
X137.22Y-127.34
X137.22Y-129.84
X137.22Y-132.34
X137.22Y-134.94
X137.22Y-140.04
X137.22Y-142.54
X137.22Y-145.14
X137.22Y-147.64
X137.22Y-152.17
X137.22Y-155.24
X138.049Y-66.459
X138.049Y-69.059
X138.1Y-61.072
X138.1Y-63.672
X139.8Y-116.8
X139.82Y-106.94
X139.82Y-109.54
X139.82Y-113.45
X139.82Y-119.54
X139.82Y-122.24
X139.82Y-127.34
X139.82Y-129.84
X139.82Y-132.34
X139.82Y-134.94
X139.82Y-140.04
X139.82Y-142.54
X139.82Y-145.14
X139.82Y-147.64
X139.82Y-152.17
X139.82Y-155.24
X141.351Y-61.04
X141.351Y-63.64
X141.351Y-66.459
X141.351Y-69.059
X141.351Y-71.793
X141.351Y-74.393
X144.399Y-61.04
X144.399Y-63.64
X144.399Y-66.459
X144.399Y-69.059
X144.399Y-71.793
X144.399Y-74.393
X147.955Y-66.459
X147.955Y-69.059
X147.955Y-71.793
X147.955Y-74.393
X148.209Y-61.04
X148.209Y-63.64
X150.749Y-61.04
X150.749Y-63.64
X150.749Y-66.459
X150.749Y-69.059
X151.562Y-183.863
X152.26Y-82.86
X152.26Y-85.46
X152.832Y-181.323
X153.289Y-61.04
X153.289Y-63.64
X153.289Y-66.459
X153.289Y-69.059
X154.102Y-183.863
X155.372Y-181.323
X156.083Y-61.04
X156.083Y-63.64
X156.083Y-66.411
X156.083Y-69.011
X156.4Y-98.45
X156.642Y-183.863
X157.912Y-181.323
X158.369Y-61.04
X158.369Y-63.64
X158.369Y-66.459
X158.369Y-69.059
X158.369Y-71.793
X158.369Y-74.393
X158.54Y-82.86
X158.54Y-85.46
X159.0Y-98.45
X159.182Y-183.863
X160.452Y-181.323
X160.909Y-61.04
X160.909Y-63.64
X160.909Y-66.459
X160.909Y-69.059
X160.909Y-71.793
X160.909Y-74.393
X161.55Y-82.86
X161.55Y-85.46
X163.449Y-61.04
X163.449Y-63.64
X163.449Y-66.459
X163.449Y-69.059
X163.449Y-71.793
X163.449Y-74.393
X164.71Y-82.86
X164.71Y-85.46
X164.744Y-159.36
X165.989Y-61.04
X165.989Y-63.64
X165.989Y-66.459
X165.989Y-69.059
X165.989Y-71.793
X165.989Y-74.393
X167.284Y-159.36
X168.047Y-82.86
X168.047Y-85.46
X168.529Y-61.04
X168.529Y-63.64
X168.529Y-66.459
X168.529Y-69.059
X168.529Y-71.793
X168.529Y-74.393
X169.67Y-107.84
X169.67Y-110.66
X169.67Y-113.72
X171.069Y-61.04
X171.069Y-63.64
X171.069Y-66.459
X171.069Y-69.059
X171.069Y-71.793
X171.069Y-74.393
X171.19Y-82.86
X171.19Y-85.46
X172.27Y-107.84
X172.27Y-110.66
X172.27Y-113.72
X173.609Y-61.04
X173.609Y-63.64
X173.609Y-66.459
X173.609Y-69.059
X173.609Y-71.793
X173.609Y-74.393
X174.3Y-82.86
X174.3Y-85.46
X174.61Y-116.36
X174.61Y-118.93
X174.61Y-121.71
X174.61Y-124.63
X175.6Y-133.61
X175.6Y-136.21
X175.6Y-138.71
X175.6Y-141.21
X175.6Y-143.81
X175.6Y-146.31
X175.6Y-148.81
X176.149Y-61.04
X176.149Y-63.64
X176.149Y-66.459
X176.149Y-69.059
X176.149Y-71.793
X176.149Y-74.393
X177.21Y-116.36
X177.21Y-118.93
X177.21Y-121.71
X177.21Y-124.63
X177.41Y-82.86
X177.41Y-85.46
X178.2Y-133.61
X178.2Y-136.21
X178.2Y-138.71
X178.2Y-141.21
X178.2Y-143.81
X178.2Y-146.31
X178.2Y-148.81
X178.689Y-61.04
X178.689Y-63.64
X178.689Y-66.459
X178.689Y-69.059
X178.689Y-71.793
X178.689Y-74.393
X180.53Y-82.86
X180.53Y-85.46
X181.229Y-61.04
X181.229Y-63.64
X181.229Y-66.459
X181.229Y-69.059
X181.229Y-71.793
X181.229Y-74.393
X183.434Y-82.855
X183.769Y-61.04
X183.769Y-63.64
X183.769Y-66.459
X183.769Y-69.059
X183.769Y-71.793
X183.769Y-74.393
X183.81Y-94.6
X186.034Y-82.855
X186.309Y-61.04
X186.309Y-63.64
X186.309Y-66.459
X186.309Y-69.059
X186.309Y-71.793
X186.309Y-74.393
X186.41Y-94.6
X191.745Y-103.302
X194.345Y-103.302
X196.4Y-133.61
X196.4Y-136.21
X196.4Y-138.71
X196.4Y-141.31
X196.4Y-143.71
X196.4Y-146.31
X196.4Y-148.91
X196.43Y-107.92
X196.43Y-110.42
X196.43Y-113.02
X196.43Y-115.52
X196.43Y-118.12
X196.43Y-120.62
X196.43Y-123.22
X199.0Y-133.61
X199.0Y-136.21
X199.0Y-138.71
X199.0Y-141.31
X199.0Y-143.71
X199.0Y-146.31
X199.0Y-148.91
X199.03Y-107.92
X199.03Y-110.42
X199.03Y-113.02
X199.03Y-115.52
X199.03Y-118.12
X199.03Y-120.62
X199.03Y-123.22
X204.85Y-84.6
X207.175Y-159.36
X207.45Y-84.6
X209.715Y-159.36
X220.95Y-103.226
X223.55Y-103.226
X225.0Y-81.75
X227.47Y-60.49
X227.53Y-70.54
X227.58Y-63.88
X227.6Y-81.75
X229.35Y-155.4
X229.35Y-158.9
X230.07Y-60.49
X230.13Y-70.54
X230.18Y-63.88
X230.42Y-135.941
X230.42Y-142.001
X231.2Y-119.75
X231.95Y-155.4
X231.95Y-158.9
X232.0Y-164.45
X232.89Y-63.92
X232.92Y-70.54
X232.97Y-73.84
X232.99Y-67.18
X233.02Y-135.941
X233.02Y-142.001
X233.8Y-119.75
X234.6Y-164.45
X235.49Y-63.92
X235.52Y-70.54
X235.57Y-73.84
X235.59Y-67.18
X241.427Y-71.65
X241.427Y-74.25
X241.44Y-61.35
X241.44Y-63.95
X241.452Y-66.45
X241.452Y-69.05
X243.97Y-61.35
X243.97Y-63.95
X243.991Y-66.45
X243.991Y-69.05
X246.4Y-66.45
X246.4Y-69.05
X246.484Y-61.35
X246.484Y-63.95
X249.026Y-61.35
X249.026Y-63.95
X249.1Y-66.45
X249.1Y-69.05
X249.55Y-169.189
X250.3Y-133.55
X250.3Y-136.15
X250.35Y-138.95
X250.35Y-141.55
X250.5Y-151.95
X250.5Y-154.55
X250.5Y-157.15
X250.5Y-159.75
X250.861Y-162.475
X250.861Y-165.075
X251.567Y-61.35
X251.567Y-63.95
X251.587Y-71.65
X251.587Y-74.25
X251.608Y-66.45
X251.608Y-69.05
X252.15Y-169.189
X253.7Y-151.85
X253.7Y-154.45
X253.7Y-157.15
X253.7Y-159.75
X253.7Y-162.45
X253.7Y-165.05
X254.1Y-114.25
X254.1Y-116.85
X254.109Y-61.35
X254.109Y-63.95
X254.127Y-71.65
X254.127Y-74.25
X254.147Y-66.45
X254.147Y-69.05
X254.2Y-119.65
X254.2Y-122.25
X254.5Y-137.65
X254.5Y-140.25
X254.6Y-132.65
X254.6Y-135.25
X254.6Y-142.45
X254.6Y-145.05
X256.69Y-61.35
X256.69Y-63.95
X256.7Y-66.45
X256.7Y-69.05
X256.7Y-71.65
X256.7Y-74.25
X256.8Y-85.35
X256.8Y-88.55
X256.8Y-92.05
X256.8Y-95.65
X259.191Y-61.35
X259.191Y-63.95
X259.225Y-66.45
X259.225Y-69.05
X259.23Y-71.65
X259.23Y-74.25
X259.4Y-85.35
X259.4Y-88.55
X259.4Y-92.05
X259.4Y-95.65
X261.733Y-61.35
X261.733Y-63.95
X261.764Y-66.45
X261.764Y-69.05
X261.8Y-71.65
X261.8Y-74.25
X263.3Y-169.25
X264.2Y-88.85
X264.2Y-92.45
X264.274Y-61.35
X264.274Y-63.95
X264.302Y-66.45
X264.302Y-69.05
X264.4Y-71.65
X264.4Y-74.25
X264.4Y-85.35
X265.9Y-169.25
X266.8Y-88.85
X266.8Y-92.45
X266.816Y-61.35
X266.816Y-63.95
X266.827Y-71.65
X266.827Y-74.25
X266.841Y-66.45
X266.841Y-69.05
X267.0Y-85.35
X269.357Y-61.35
X269.357Y-63.95
X269.367Y-71.65
X269.367Y-74.25
X269.38Y-66.45
X269.38Y-69.05
X269.9Y-113.15
X269.9Y-115.75
X269.9Y-119.75
X269.9Y-122.35
X270.1Y-142.95
X270.1Y-145.55
X270.25Y-137.75
X270.25Y-140.35
X270.35Y-132.55
X270.35Y-135.15
X271.0Y-85.35
X271.0Y-88.85
X271.0Y-92.45
X271.0Y-157.3
X271.0Y-159.9
X271.0Y-165.35
X271.0Y-167.95
X271.899Y-61.35
X271.899Y-63.95
X271.907Y-66.45
X271.907Y-69.05
X271.907Y-71.65
X271.907Y-74.25
X273.6Y-85.35
X273.6Y-88.85
X273.6Y-92.45
X273.64Y-136.28
X273.64Y-138.88
X273.9Y-114.25
X273.9Y-116.85
X274.0Y-119.15
X274.0Y-121.75
X274.1Y-123.95
X274.1Y-126.55
X274.44Y-61.35
X274.44Y-63.95
X274.458Y-66.45
X274.458Y-69.05
X274.5Y-71.65
X274.5Y-74.25
X274.5Y-161.45
X274.5Y-164.05
X274.8Y-150.65
X274.8Y-153.25
X274.8Y-155.55
X274.8Y-158.15
X276.981Y-61.35
X276.981Y-63.95
X276.987Y-71.65
X276.987Y-74.25
X276.997Y-66.45
X276.997Y-69.05
X277.6Y-92.35
X277.7Y-85.25
X277.7Y-88.75
X279.523Y-61.35
X279.523Y-63.95
X279.527Y-71.65
X279.527Y-74.25
X279.536Y-66.45
X279.536Y-69.05
X280.2Y-92.35
X280.3Y-85.25
X280.3Y-88.75
X282.064Y-61.35
X282.064Y-63.95
X282.075Y-66.45
X282.075Y-69.05
X282.194Y-71.65
X282.194Y-74.25
X283.1Y-167.95
X283.1Y-170.55
X283.7Y-148.85
X284.4Y-85.25
X284.5Y-88.85
X284.5Y-92.35
X284.606Y-61.35
X284.606Y-63.95
X284.61Y-95.98
X284.614Y-66.45
X284.614Y-69.05
X284.68Y-99.06
X284.734Y-71.65
X284.734Y-74.25
X286.3Y-148.85
X287.0Y-85.25
X287.1Y-88.85
X287.1Y-92.35
X287.147Y-61.35
X287.147Y-63.95
X287.153Y-66.45
X287.153Y-69.05
X287.2Y-71.65
X287.2Y-74.25
X287.21Y-95.98
X287.28Y-99.06
X289.687Y-61.35
X289.687Y-63.95
X289.687Y-71.65
X289.687Y-74.25
X289.691Y-66.45
X289.691Y-69.05
X290.0Y-156.35
X290.0Y-158.95
X290.3Y-114.75
X290.3Y-117.35
X290.4Y-119.8
X290.4Y-122.4
X292.227Y-61.35
X292.227Y-63.95
X292.23Y-66.45
X292.23Y-69.05
X292.3Y-71.65
X292.3Y-74.25
X292.7Y-81.75
X292.7Y-85.25
X292.8Y-92.25
X292.8Y-95.65
X293.5Y-157.05
X293.5Y-159.65
X294.14Y-162.55
X294.14Y-165.15
X294.19Y-167.95
X294.19Y-170.55
X294.45Y-136.5
X294.45Y-139.1
X294.767Y-61.35
X294.767Y-63.95
X294.769Y-66.45
X294.769Y-69.05
X294.9Y-71.65
X294.9Y-74.25
X294.94Y-116.99
X294.94Y-119.59
X295.0Y-122.11
X295.0Y-124.71
X295.3Y-81.75
X295.3Y-85.25
X295.4Y-92.25
X295.4Y-95.65
X297.307Y-61.35
X297.307Y-63.95
X297.308Y-66.45
X297.308Y-69.05
X297.4Y-71.65
X297.4Y-74.25
X299.0Y-88.85
X299.847Y-61.35
X299.847Y-63.95
X299.847Y-66.45
X299.847Y-69.05
X299.9Y-71.65
X299.9Y-74.25
X301.6Y-88.85
X302.3Y-66.45
X302.3Y-69.05
X302.3Y-71.65
X302.3Y-74.25
X302.3Y-98.45
X302.4Y-61.35
X302.4Y-63.95
X304.88Y-61.35
X304.88Y-63.95
X304.9Y-66.45
X304.9Y-69.05
X304.9Y-98.45
X305.0Y-71.65
X305.0Y-74.25
X305.9Y-85.35
X306.0Y-88.95
X306.0Y-92.45
X307.4Y-71.65
X307.4Y-74.25
X307.488Y-61.35
X307.488Y-63.95
X307.5Y-66.45
X307.5Y-69.05
X308.5Y-85.35
X308.6Y-88.95
X308.6Y-92.45
X309.49Y-152.35
X310.0Y-61.35
X310.0Y-63.95
X310.007Y-66.45
X310.007Y-69.05
X310.1Y-71.65
X310.1Y-74.25
X310.54Y-157.75
X310.54Y-160.35
X310.6Y-164.05
X310.6Y-166.65
X311.15Y-130.8
X311.34Y-119.77
X311.34Y-122.37
X311.379Y-114.8
X311.379Y-117.4
X311.65Y-136.5
X311.65Y-139.1
X311.75Y-142.45
X311.75Y-145.05
X312.09Y-152.35
X312.5Y-71.65
X312.5Y-74.25
X312.6Y-61.35
X312.6Y-63.95
X312.6Y-66.45
X312.6Y-69.05
X312.95Y-109.7
X313.2Y-85.25
X313.2Y-88.85
X313.2Y-92.35
X313.75Y-130.8
X314.5Y-114.85
X314.5Y-117.45
X314.85Y-144.85
X314.85Y-147.45
X314.9Y-121.95
X314.9Y-124.55
X314.93Y-136.35
X314.93Y-138.95
X315.0Y-164.2
X315.0Y-166.8
X315.05Y-157.65
X315.05Y-160.25
X315.2Y-61.35
X315.2Y-63.95
X315.2Y-66.45
X315.2Y-69.05
X315.2Y-71.65
X315.2Y-74.25
X315.55Y-109.7
X315.8Y-85.25
X315.8Y-88.85
X315.8Y-92.35
X317.7Y-61.35
X317.7Y-63.95
X317.8Y-66.45
X317.8Y-69.05
X317.8Y-71.65
X317.8Y-74.25
X320.01Y-151.892
X320.2Y-61.35
X320.2Y-63.95
X320.3Y-66.45
X320.3Y-69.05
X320.4Y-71.65
X320.4Y-74.25
X320.5Y-85.15
X320.6Y-88.75
X320.7Y-92.25
X322.61Y-151.892
X323.1Y-85.15
X323.2Y-88.75
X323.3Y-92.25
X328.8Y-88.75
X328.9Y-85.15
X328.9Y-92.25
X330.25Y-121.8
X330.25Y-124.4
X331.03Y-143.46
X331.03Y-146.06
X331.2Y-129.75
X331.2Y-132.35
X331.3Y-136.05
X331.3Y-138.65
X331.4Y-88.75
X331.5Y-85.15
X331.5Y-92.25
X332.2Y-162.55
X332.2Y-165.15
X335.7Y-115.06
X335.7Y-117.66
X335.75Y-120.06
X335.75Y-122.66
X339.78Y-66.87
X339.78Y-71.95
X339.78Y-74.49
X339.78Y-79.57
X339.78Y-84.65
X339.78Y-87.19
X339.78Y-89.73
X339.78Y-92.27
X339.84Y-69.41
X339.84Y-77.03
X339.84Y-82.11
X342.38Y-66.87
X342.38Y-71.95
X342.38Y-74.49
X342.38Y-79.57
X342.38Y-84.65
X342.38Y-87.19
X342.38Y-89.73
X342.38Y-92.27
X342.44Y-69.41
X342.44Y-77.03
X342.44Y-82.11
X350.0Y-66.87
X350.0Y-71.95
X350.0Y-74.49
X350.06Y-69.41
X350.06Y-77.03
X350.06Y-79.57
X351.55Y-114.96
X351.55Y-117.56
X351.601Y-122.81
X351.601Y-125.41
X352.6Y-66.87
X352.6Y-71.95
X352.6Y-74.49
X352.66Y-69.41
X352.66Y-77.03
X352.66Y-79.57
T7
X115.76Y-187.74
X118.26Y-187.74
X120.26Y-187.74
X122.76Y-187.74
T8
X78.74Y-112.03
X78.74Y-169.23
X81.28Y-112.03
X81.28Y-169.23
X83.82Y-112.03
X83.82Y-169.23
X86.36Y-112.03
X86.36Y-169.23
X88.9Y-112.03
X88.9Y-169.23
X91.44Y-112.03
X91.44Y-169.23
X93.98Y-112.03
X93.98Y-169.23
X96.52Y-112.03
X96.52Y-169.23
X107.442Y-52.595
X107.442Y-55.135
X107.442Y-57.675
X109.982Y-52.595
X109.982Y-55.135
X109.982Y-57.675
X112.522Y-52.595
X112.522Y-55.135
X112.522Y-57.675
X115.062Y-52.595
X115.062Y-55.135
X115.062Y-57.675
X117.602Y-52.595
X117.602Y-55.135
X117.602Y-57.675
X120.142Y-52.595
X120.142Y-55.135
X120.142Y-57.675
X122.682Y-52.595
X122.682Y-55.135
X122.682Y-57.675
X125.222Y-52.595
X125.222Y-55.135
X125.222Y-57.675
X127.762Y-52.595
X127.762Y-55.135
X127.762Y-57.675
X130.302Y-52.595
X130.302Y-55.135
X130.302Y-57.675
X132.842Y-52.595
X132.842Y-55.135
X132.842Y-57.675
X135.382Y-52.595
X135.382Y-55.135
X135.382Y-57.675
X137.922Y-52.595
X137.922Y-55.135
X137.922Y-57.675
X140.462Y-52.595
X140.462Y-55.135
X140.462Y-57.675
X143.002Y-52.595
X143.002Y-55.135
X143.002Y-57.675
X145.542Y-52.595
X145.542Y-55.135
X145.542Y-57.675
X148.082Y-52.595
X148.082Y-55.135
X148.082Y-57.675
X150.622Y-52.595
X150.622Y-55.135
X150.622Y-57.675
X153.162Y-52.595
X153.162Y-55.135
X153.162Y-57.675
X155.702Y-52.595
X155.702Y-55.135
X155.702Y-57.675
X158.242Y-52.595
X158.242Y-55.135
X158.242Y-57.675
X160.782Y-52.595
X160.782Y-55.135
X160.782Y-57.675
X163.322Y-52.595
X163.322Y-55.135
X163.322Y-57.675
X165.862Y-52.595
X165.862Y-55.135
X165.862Y-57.675
X168.402Y-52.595
X168.402Y-55.135
X168.402Y-57.675
X170.942Y-52.595
X170.942Y-55.135
X170.942Y-57.675
X173.482Y-52.595
X173.482Y-55.135
X173.482Y-57.675
X176.022Y-52.595
X176.022Y-55.135
X176.022Y-57.675
X178.562Y-52.595
X178.562Y-55.135
X178.562Y-57.675
X181.102Y-52.595
X181.102Y-55.135
X181.102Y-57.675
X183.642Y-52.595
X183.642Y-55.135
X183.642Y-57.675
X186.182Y-52.595
X186.182Y-55.135
X186.182Y-57.675
X238.16Y-182.075
X238.16Y-184.615
X238.16Y-187.155
X238.16Y-189.695
X238.16Y-192.235
X238.7Y-114.75
X238.7Y-117.29
X238.7Y-119.83
X238.7Y-122.37
X238.7Y-124.91
X238.7Y-133.75
X238.7Y-136.29
X238.7Y-138.83
X238.7Y-141.37
X238.7Y-143.91
X238.7Y-153.75
X238.7Y-156.29
X238.7Y-158.83
X238.7Y-161.37
X238.7Y-163.91
X241.478Y-52.595
X241.478Y-55.135
X241.478Y-57.675
X244.018Y-52.595
X244.018Y-55.135
X244.018Y-57.675
X245.78Y-182.075
X245.78Y-184.615
X245.78Y-187.155
X245.78Y-189.695
X245.78Y-192.235
X246.32Y-114.75
X246.32Y-117.29
X246.32Y-119.83
X246.32Y-122.37
X246.32Y-124.91
X246.32Y-133.75
X246.32Y-136.29
X246.32Y-138.83
X246.32Y-141.37
X246.32Y-143.91
X246.32Y-153.75
X246.32Y-156.29
X246.32Y-158.83
X246.32Y-161.37
X246.32Y-163.91
X246.558Y-52.595
X246.558Y-55.135
X246.558Y-57.675
X249.098Y-52.595
X249.098Y-55.135
X249.098Y-57.675
X251.638Y-52.595
X251.638Y-55.135
X251.638Y-57.675
X254.178Y-52.595
X254.178Y-55.135
X254.178Y-57.675
X256.718Y-52.595
X256.718Y-55.135
X256.718Y-57.675
X258.5Y-114.75
X258.5Y-117.29
X258.5Y-119.83
X258.5Y-122.37
X258.5Y-124.91
X258.7Y-133.75
X258.7Y-136.29
X258.7Y-138.83
X258.7Y-141.37
X258.7Y-143.91
X258.7Y-153.75
X258.7Y-156.29
X258.7Y-158.83
X258.7Y-161.37
X258.7Y-163.91
X259.258Y-52.595
X259.258Y-55.135
X259.258Y-57.675
X261.798Y-52.595
X261.798Y-55.135
X261.798Y-57.675
X264.338Y-52.595
X264.338Y-55.135
X264.338Y-57.675
X266.12Y-114.75
X266.12Y-117.29
X266.12Y-119.83
X266.12Y-122.37
X266.12Y-124.91
X266.32Y-133.75
X266.32Y-136.29
X266.32Y-138.83
X266.32Y-141.37
X266.32Y-143.91
X266.32Y-153.75
X266.32Y-156.29
X266.32Y-158.83
X266.32Y-161.37
X266.32Y-163.91
X266.878Y-52.595
X266.878Y-55.135
X266.878Y-57.675
X269.418Y-52.595
X269.418Y-55.135
X269.418Y-57.675
X271.958Y-52.595
X271.958Y-55.135
X271.958Y-57.675
X274.498Y-52.595
X274.498Y-55.135
X274.498Y-57.675
X277.038Y-52.595
X277.038Y-55.135
X277.038Y-57.675
X278.7Y-114.75
X278.7Y-117.29
X278.7Y-119.83
X278.7Y-122.37
X278.7Y-124.91
X278.7Y-133.75
X278.7Y-136.29
X278.7Y-138.83
X278.7Y-141.37
X278.7Y-143.91
X278.7Y-153.75
X278.7Y-156.29
X278.7Y-158.83
X278.7Y-161.37
X278.7Y-163.91
X279.578Y-52.595
X279.578Y-55.135
X279.578Y-57.675
X282.118Y-52.595
X282.118Y-55.135
X282.118Y-57.675
X284.658Y-52.595
X284.658Y-55.135
X284.658Y-57.675
X286.32Y-114.75
X286.32Y-117.29
X286.32Y-119.83
X286.32Y-122.37
X286.32Y-124.91
X286.32Y-133.75
X286.32Y-136.29
X286.32Y-138.83
X286.32Y-141.37
X286.32Y-143.91
X286.32Y-153.75
X286.32Y-156.29
X286.32Y-158.83
X286.32Y-161.37
X286.32Y-163.91
X287.198Y-52.595
X287.198Y-55.135
X287.198Y-57.675
X289.738Y-52.595
X289.738Y-55.135
X289.738Y-57.675
X292.278Y-52.595
X292.278Y-55.135
X292.278Y-57.675
X294.818Y-52.595
X294.818Y-55.135
X294.818Y-57.675
X297.358Y-52.595
X297.358Y-55.135
X297.358Y-57.675
X298.7Y-114.75
X298.7Y-117.29
X298.7Y-119.83
X298.7Y-122.37
X298.7Y-124.91
X298.74Y-157.35
X298.74Y-159.89
X298.74Y-162.43
X298.74Y-164.97
X298.74Y-167.51
X298.75Y-136.2
X298.75Y-138.74
X298.75Y-141.28
X298.75Y-143.82
X298.75Y-146.36
X299.898Y-52.595
X299.898Y-55.135
X299.898Y-57.675
X302.438Y-52.595
X302.438Y-55.135
X302.438Y-57.675
X304.978Y-52.595
X304.978Y-55.135
X304.978Y-57.675
X306.32Y-114.75
X306.32Y-117.29
X306.32Y-119.83
X306.32Y-122.37
X306.32Y-124.91
X306.36Y-157.35
X306.36Y-159.89
X306.36Y-162.43
X306.36Y-164.97
X306.36Y-167.51
X306.37Y-136.2
X306.37Y-138.74
X306.37Y-141.28
X306.37Y-143.82
X306.37Y-146.36
X307.518Y-52.595
X307.518Y-55.135
X307.518Y-57.675
X310.058Y-52.595
X310.058Y-55.135
X310.058Y-57.675
X312.598Y-52.595
X312.598Y-55.135
X312.598Y-57.675
X315.138Y-52.595
X315.138Y-55.135
X315.138Y-57.675
X317.678Y-52.595
X317.678Y-55.135
X317.678Y-57.675
X318.63Y-136.36
X318.63Y-138.9
X318.63Y-141.44
X318.63Y-143.98
X318.63Y-146.52
X318.7Y-114.75
X318.7Y-117.29
X318.7Y-119.83
X318.7Y-122.37
X318.7Y-124.91
X319.38Y-157.22
X319.38Y-159.76
X319.38Y-162.3
X319.38Y-164.84
X319.38Y-167.38
X320.218Y-52.595
X320.218Y-55.135
X320.218Y-57.675
X326.25Y-136.36
X326.25Y-138.9
X326.25Y-141.44
X326.25Y-143.98
X326.25Y-146.52
X326.32Y-114.75
X326.32Y-117.29
X326.32Y-119.83
X326.32Y-122.37
X326.32Y-124.91
X327.0Y-157.22
X327.0Y-159.76
X327.0Y-162.3
X327.0Y-164.84
X327.0Y-167.38
X340.0Y-114.75
X340.0Y-117.29
X340.0Y-119.83
X340.0Y-122.37
X340.0Y-124.91
X347.62Y-114.75
X347.62Y-117.29
X347.62Y-119.83
X347.62Y-122.37
X347.62Y-124.91
T9
X113.855Y-107.03
X113.855Y-109.57
X113.855Y-112.11
X113.855Y-114.65
X113.855Y-117.19
X113.855Y-119.73
X113.855Y-122.27
X113.855Y-124.81
X113.855Y-127.35
X113.855Y-129.89
X113.855Y-132.43
X113.855Y-134.97
X113.855Y-137.51
X113.855Y-140.05
X113.855Y-142.59
X113.855Y-145.13
X113.855Y-147.67
X113.855Y-150.21
X113.855Y-152.75
X113.855Y-155.29
X120.205Y-107.26
X122.745Y-107.26
X125.285Y-107.26
X131.635Y-107.03
X131.635Y-109.57
X131.635Y-112.11
X131.635Y-114.65
X131.635Y-117.19
X131.635Y-119.73
X131.635Y-122.27
X131.635Y-124.81
X131.635Y-127.35
X131.635Y-129.89
X131.635Y-132.43
X131.635Y-134.97
X131.635Y-137.51
X131.635Y-140.05
X131.635Y-142.59
X131.635Y-145.13
X131.635Y-147.67
X131.635Y-150.21
X131.635Y-152.75
X131.635Y-155.29
T10
X89.865Y-57.226
X89.865Y-82.626
X224.5Y-118.95
X224.5Y-144.35
T11
X142.723Y-159.233
X185.014Y-88.697
X188.6Y-179.75
X194.843Y-164.033
T12
X147.982Y-187.463
X148.092Y-193.263
X163.922Y-193.263
X164.032Y-187.463
T13
X112.69Y-190.74
X125.83Y-190.74
T14
X102.362Y-50.055
X191.262Y-50.055
X236.398Y-50.055
X325.298Y-50.055
T0
M30
