%TF.GenerationSoftware,KiCad,Pcbnew,7.0.5*%
%TF.CreationDate,2024-10-12T11:19:11-04:00*%
%TF.ProjectId,selftest_bd,73656c66-7465-4737-945f-62642e6b6963,2.1*%
%TF.SameCoordinates,Original*%
%TF.FileFunction,Legend,Bot*%
%TF.FilePolarity,Positive*%
%FSLAX46Y46*%
G04 Gerber Fmt 4.6, Leading zero omitted, Abs format (unit mm)*
G04 Created by KiCad (PCBNEW 7.0.5) date 2024-10-12 11:19:11*
%MOMM*%
%LPD*%
G01*
G04 APERTURE LIST*
%ADD10C,0.350000*%
G04 APERTURE END LIST*
D10*
X331089000Y-118745000D03*
X325755000Y-151892000D03*
X328422000Y-128092200D03*
X327202800Y-76200000D03*
X260731000Y-98425000D03*
X134874000Y-107022300D03*
X133807200Y-120243600D03*
X131648200Y-101307300D03*
X123774200Y-98755200D03*
X285292800Y-77825600D03*
X285089600Y-74320400D03*
X274091400Y-104216200D03*
X270916400Y-107416600D03*
X277051100Y-91243332D03*
X287629600Y-94945200D03*
X277850600Y-93204700D03*
X278650100Y-91605700D03*
X266877800Y-96697800D03*
X133915450Y-97935750D03*
X138404600Y-97053400D03*
X329234800Y-73050400D03*
X237388400Y-97586800D03*
X135128000Y-97028000D03*
X228320600Y-119075200D03*
X120040400Y-104368600D03*
X128143000Y-94361000D03*
X108813600Y-170408600D03*
X127152400Y-91186000D03*
X178511200Y-124358400D03*
X153663833Y-101272300D03*
X326771000Y-149352000D03*
X328168000Y-125603000D03*
X269570200Y-74147200D03*
X269570200Y-71547200D03*
X155676600Y-61078665D03*
X155676600Y-63678665D03*
X127789600Y-73978665D03*
X127789600Y-71378665D03*
X307670200Y-74147200D03*
X307670200Y-71547200D03*
X302590200Y-68813200D03*
X302590200Y-66213200D03*
X186689600Y-91978665D03*
X189289600Y-91978665D03*
X279531800Y-146020000D03*
X91753500Y-186994335D03*
X318516000Y-145892200D03*
X315916000Y-145892200D03*
X130389600Y-73978665D03*
X130389600Y-71378665D03*
X312750200Y-63394065D03*
X312750200Y-60794065D03*
X150595187Y-61078665D03*
X150595187Y-63678665D03*
X112389600Y-68778665D03*
X112389600Y-66178665D03*
X297510200Y-74147200D03*
X297510200Y-71547200D03*
X323469000Y-73660000D03*
X266547600Y-121096800D03*
X263947600Y-121096800D03*
X226893200Y-185851800D03*
X229433200Y-185851800D03*
X138252200Y-114990400D03*
X138252200Y-112390400D03*
X249067800Y-85606065D03*
X251667800Y-85606065D03*
X173945200Y-141156200D03*
X173945200Y-143756200D03*
X133658200Y-135828400D03*
X133658200Y-138428400D03*
X185602400Y-107797600D03*
X183002400Y-107797600D03*
X311471200Y-85214065D03*
X311471200Y-82614065D03*
X112474022Y-61078665D03*
X112474022Y-63678665D03*
X125181077Y-61078665D03*
X125181077Y-63678665D03*
X266217400Y-189204600D03*
X255143000Y-167767000D03*
X246710200Y-68813200D03*
X246710200Y-66213200D03*
X249250200Y-68813200D03*
X249250200Y-66213200D03*
X155681005Y-66178665D03*
X155681005Y-68778665D03*
X279811000Y-126238000D03*
X277211000Y-126238000D03*
X275412200Y-63394065D03*
X275412200Y-60794065D03*
X93569600Y-63608665D03*
X96169600Y-63608665D03*
X257382800Y-123545600D03*
X254782800Y-123545600D03*
X246661200Y-74147200D03*
X246661200Y-71547200D03*
X334950600Y-109504000D03*
X334950600Y-106904000D03*
X189778400Y-122651600D03*
X189778400Y-120111600D03*
X189778400Y-117571600D03*
X189778400Y-115031600D03*
X189778400Y-112491600D03*
X182158400Y-112491600D03*
X182158400Y-115031600D03*
X182158400Y-117571600D03*
X182158400Y-120111600D03*
X182158400Y-122651600D03*
X251718600Y-91879865D03*
X249118600Y-91879865D03*
X312750200Y-68813200D03*
X312750200Y-66213200D03*
X244161200Y-68813200D03*
X244161200Y-66213200D03*
X181789600Y-84978665D03*
X179189600Y-84978665D03*
X97553500Y-189594335D03*
X122679600Y-63678665D03*
X122679600Y-61078665D03*
X197572200Y-116351800D03*
X197572200Y-118951800D03*
X189845200Y-161656200D03*
X189845200Y-159116200D03*
X189845200Y-156576200D03*
X189845200Y-154036200D03*
X189845200Y-151496200D03*
X182225200Y-151496200D03*
X182225200Y-154036200D03*
X182225200Y-156576200D03*
X182225200Y-159116200D03*
X182225200Y-161656200D03*
X282587210Y-117893210D03*
X285187210Y-117893210D03*
X153269600Y-98788665D03*
X150669600Y-98788665D03*
X310210200Y-63394065D03*
X310210200Y-60794065D03*
X264490200Y-68813200D03*
X264490200Y-66213200D03*
X118167600Y-111040600D03*
X118167600Y-108440600D03*
X347597800Y-155675000D03*
X347597800Y-158275000D03*
X132805310Y-61078665D03*
X132805310Y-63678665D03*
X237788600Y-116011800D03*
X235188600Y-116011800D03*
X266547600Y-118526800D03*
X263947600Y-118526800D03*
X118491000Y-137317000D03*
X118491000Y-134717000D03*
X175996600Y-66178665D03*
X175996600Y-68778665D03*
X145512365Y-61078665D03*
X145512365Y-63678665D03*
X316287210Y-107793210D03*
X313687210Y-107793210D03*
X161389600Y-95378665D03*
X158789600Y-95378665D03*
X237788600Y-118511800D03*
X235188600Y-118511800D03*
X183689600Y-61078665D03*
X183689600Y-63678665D03*
X282587210Y-130693210D03*
X285187210Y-130693210D03*
X129855200Y-145706200D03*
X122235200Y-145706200D03*
X287959800Y-180390800D03*
X276529800Y-180390800D03*
X286689800Y-186740800D03*
X285419800Y-189280800D03*
X284149800Y-186740800D03*
X282879800Y-189280800D03*
X281609800Y-186740800D03*
X280339800Y-189280800D03*
X279069800Y-186740800D03*
X277799800Y-189280800D03*
X290269800Y-183140800D03*
X290159800Y-177340800D03*
X274329800Y-177340800D03*
X274219800Y-183140800D03*
X148053776Y-61078665D03*
X148053776Y-63678665D03*
X320370200Y-63394065D03*
X320370200Y-60794065D03*
X181789600Y-92078665D03*
X179189600Y-92078665D03*
X186182000Y-52595335D03*
X183642000Y-52595335D03*
X181102000Y-52595335D03*
X178562000Y-52595335D03*
X176022000Y-52595335D03*
X173482000Y-52595335D03*
X170942000Y-52595335D03*
X168402000Y-52595335D03*
X165862000Y-52595335D03*
X163322000Y-52595335D03*
X160782000Y-52595335D03*
X158242000Y-52595335D03*
X155702000Y-52595335D03*
X153162000Y-52595335D03*
X150622000Y-52595335D03*
X148082000Y-52595335D03*
X145542000Y-52595335D03*
X143002000Y-52595335D03*
X140462000Y-52595335D03*
X137922000Y-52595335D03*
X135382000Y-52595335D03*
X132842000Y-52595335D03*
X130302000Y-52595335D03*
X127762000Y-52595335D03*
X125222000Y-52595335D03*
X122682000Y-52595335D03*
X120142000Y-52595335D03*
X117602000Y-52595335D03*
X115062000Y-52595335D03*
X112522000Y-52595335D03*
X109982000Y-52595335D03*
X107442000Y-52595335D03*
X186182000Y-55135335D03*
X183642000Y-55135335D03*
X181102000Y-55135335D03*
X178562000Y-55135335D03*
X176022000Y-55135335D03*
X173482000Y-55135335D03*
X170942000Y-55135335D03*
X168402000Y-55135335D03*
X165862000Y-55135335D03*
X163322000Y-55135335D03*
X160782000Y-55135335D03*
X158242000Y-55135335D03*
X155702000Y-55135335D03*
X153162000Y-55135335D03*
X150622000Y-55135335D03*
X148082000Y-55135335D03*
X145542000Y-55135335D03*
X143002000Y-55135335D03*
X140462000Y-55135335D03*
X137922000Y-55135335D03*
X135382000Y-55135335D03*
X132842000Y-55135335D03*
X130302000Y-55135335D03*
X127762000Y-55135335D03*
X125222000Y-55135335D03*
X122682000Y-55135335D03*
X120142000Y-55135335D03*
X117602000Y-55135335D03*
X115062000Y-55135335D03*
X112522000Y-55135335D03*
X109982000Y-55135335D03*
X107442000Y-55135335D03*
X186182000Y-57675335D03*
X183642000Y-57675335D03*
X181102000Y-57675335D03*
X178562000Y-57675335D03*
X176022000Y-57675335D03*
X173482000Y-57675335D03*
X170942000Y-57675335D03*
X168402000Y-57675335D03*
X165862000Y-57675335D03*
X163322000Y-57675335D03*
X160782000Y-57675335D03*
X158242000Y-57675335D03*
X155702000Y-57675335D03*
X153162000Y-57675335D03*
X150622000Y-57675335D03*
X148082000Y-57675335D03*
X145542000Y-57675335D03*
X143002000Y-57675335D03*
X140462000Y-57675335D03*
X137922000Y-57675335D03*
X135382000Y-57675335D03*
X132842000Y-57675335D03*
X130302000Y-57675335D03*
X127762000Y-57675335D03*
X125222000Y-57675335D03*
X122682000Y-57675335D03*
X120142000Y-57675335D03*
X117602000Y-57675335D03*
X115062000Y-57675335D03*
X112522000Y-57675335D03*
X109982000Y-57675335D03*
X107442000Y-57675335D03*
X191262000Y-50055335D03*
X102362000Y-50055335D03*
X173945200Y-133956200D03*
X173945200Y-131356200D03*
X153199600Y-95708665D03*
X150599600Y-95708665D03*
X117556844Y-61078665D03*
X117556844Y-63678665D03*
X269570200Y-63394065D03*
X269570200Y-60794065D03*
X171889600Y-85078665D03*
X174489600Y-85078665D03*
X195525600Y-134405400D03*
X198125600Y-134405400D03*
X168289600Y-66178665D03*
X168289600Y-68778665D03*
X300050200Y-74147200D03*
X300050200Y-71547200D03*
X261950200Y-74147200D03*
X261950200Y-71547200D03*
X308641200Y-77724000D03*
X127722488Y-61078665D03*
X127722488Y-63678665D03*
X352339600Y-75615800D03*
X354939600Y-75615800D03*
X352399600Y-70535800D03*
X354999600Y-70535800D03*
X122689600Y-68778665D03*
X122689600Y-66178665D03*
X233573800Y-89517665D03*
X236173800Y-89517665D03*
X294221400Y-101256600D03*
X89099600Y-60248665D03*
X81427800Y-184658000D03*
X84027800Y-184658000D03*
X317830200Y-74147200D03*
X317830200Y-71547200D03*
X272161000Y-63426265D03*
X272161000Y-60826265D03*
X115595200Y-166706200D03*
X112995200Y-166706200D03*
X165836600Y-66178665D03*
X165836600Y-68778665D03*
X294970200Y-74147200D03*
X294970200Y-71547200D03*
X118110000Y-154960800D03*
X118110000Y-157560800D03*
X315290200Y-74147200D03*
X315290200Y-71547200D03*
X142986530Y-66178665D03*
X142986530Y-68778665D03*
X109980895Y-66178665D03*
X109980895Y-68778665D03*
X267030200Y-68813200D03*
X267030200Y-66213200D03*
X157281400Y-112064800D03*
X154681400Y-112064800D03*
X259410200Y-74147200D03*
X259410200Y-71547200D03*
X165836600Y-61078665D03*
X165836600Y-63678665D03*
X137896600Y-66178665D03*
X137896600Y-68778665D03*
X325501000Y-171196000D03*
X315341000Y-171196000D03*
X352339600Y-73075800D03*
X354939600Y-73075800D03*
X107429600Y-63678665D03*
X107429600Y-61078665D03*
X316287210Y-105193210D03*
X313687210Y-105193210D03*
X285267000Y-135703000D03*
X282667000Y-135703000D03*
X211045200Y-150616200D03*
X211045200Y-140456200D03*
X251790200Y-74147200D03*
X251790200Y-71547200D03*
X81487800Y-177038000D03*
X84087800Y-177038000D03*
X143689600Y-88478665D03*
X146289600Y-88478665D03*
X98879600Y-63648665D03*
X101479600Y-63648665D03*
X130292055Y-66178665D03*
X130292055Y-68778665D03*
X107416600Y-71378665D03*
X107416600Y-73978665D03*
X233837000Y-99872800D03*
X231237000Y-99872800D03*
X341350600Y-109504000D03*
X341350600Y-106904000D03*
X230391200Y-67094065D03*
X232991200Y-67094065D03*
X269570200Y-68813200D03*
X269570200Y-66213200D03*
X264490200Y-63394065D03*
X264490200Y-60794065D03*
X341097800Y-158275000D03*
X341097800Y-155675000D03*
X81402400Y-162382200D03*
X84002400Y-162382200D03*
X258466200Y-152481600D03*
X255866200Y-152481600D03*
X241361200Y-68813200D03*
X241361200Y-66213200D03*
X158689600Y-84978665D03*
X161289600Y-84978665D03*
X302590200Y-63394065D03*
X302590200Y-60794065D03*
X84886800Y-84480400D03*
X95046800Y-84480400D03*
X111343500Y-192084335D03*
X111343500Y-189544335D03*
X111343500Y-187004335D03*
X111343500Y-184464335D03*
X111343500Y-181924335D03*
X103723500Y-181924335D03*
X103723500Y-184464335D03*
X103723500Y-187004335D03*
X103723500Y-189544335D03*
X103723500Y-192084335D03*
X241661200Y-86004065D03*
X244261200Y-86004065D03*
X259410200Y-63394065D03*
X259410200Y-60794065D03*
X117221000Y-83439000D03*
X320217800Y-52595335D03*
X317677800Y-52595335D03*
X315137800Y-52595335D03*
X312597800Y-52595335D03*
X310057800Y-52595335D03*
X307517800Y-52595335D03*
X304977800Y-52595335D03*
X302437800Y-52595335D03*
X299897800Y-52595335D03*
X297357800Y-52595335D03*
X294817800Y-52595335D03*
X292277800Y-52595335D03*
X289737800Y-52595335D03*
X287197800Y-52595335D03*
X284657800Y-52595335D03*
X282117800Y-52595335D03*
X279577800Y-52595335D03*
X277037800Y-52595335D03*
X274497800Y-52595335D03*
X271957800Y-52595335D03*
X269417800Y-52595335D03*
X266877800Y-52595335D03*
X264337800Y-52595335D03*
X261797800Y-52595335D03*
X259257800Y-52595335D03*
X256717800Y-52595335D03*
X254177800Y-52595335D03*
X251637800Y-52595335D03*
X249097800Y-52595335D03*
X246557800Y-52595335D03*
X244017800Y-52595335D03*
X241477800Y-52595335D03*
X320217800Y-55135335D03*
X317677800Y-55135335D03*
X315137800Y-55135335D03*
X312597800Y-55135335D03*
X310057800Y-55135335D03*
X307517800Y-55135335D03*
X304977800Y-55135335D03*
X302437800Y-55135335D03*
X299897800Y-55135335D03*
X297357800Y-55135335D03*
X294817800Y-55135335D03*
X292277800Y-55135335D03*
X289737800Y-55135335D03*
X287197800Y-55135335D03*
X284657800Y-55135335D03*
X282117800Y-55135335D03*
X279577800Y-55135335D03*
X277037800Y-55135335D03*
X274497800Y-55135335D03*
X271957800Y-55135335D03*
X269417800Y-55135335D03*
X266877800Y-55135335D03*
X264337800Y-55135335D03*
X261797800Y-55135335D03*
X259257800Y-55135335D03*
X256717800Y-55135335D03*
X254177800Y-55135335D03*
X251637800Y-55135335D03*
X249097800Y-55135335D03*
X246557800Y-55135335D03*
X244017800Y-55135335D03*
X241477800Y-55135335D03*
X320217800Y-57675335D03*
X317677800Y-57675335D03*
X315137800Y-57675335D03*
X312597800Y-57675335D03*
X310057800Y-57675335D03*
X307517800Y-57675335D03*
X304977800Y-57675335D03*
X302437800Y-57675335D03*
X299897800Y-57675335D03*
X297357800Y-57675335D03*
X294817800Y-57675335D03*
X292277800Y-57675335D03*
X289737800Y-57675335D03*
X287197800Y-57675335D03*
X284657800Y-57675335D03*
X282117800Y-57675335D03*
X279577800Y-57675335D03*
X277037800Y-57675335D03*
X274497800Y-57675335D03*
X271957800Y-57675335D03*
X269417800Y-57675335D03*
X266877800Y-57675335D03*
X264337800Y-57675335D03*
X261797800Y-57675335D03*
X259257800Y-57675335D03*
X256717800Y-57675335D03*
X254177800Y-57675335D03*
X251637800Y-57675335D03*
X249097800Y-57675335D03*
X246557800Y-57675335D03*
X244017800Y-57675335D03*
X241477800Y-57675335D03*
X325297800Y-50055335D03*
X236397800Y-50055335D03*
X279531800Y-152319200D03*
X149845200Y-122626200D03*
X149845200Y-120086200D03*
X149845200Y-117546200D03*
X149845200Y-115006200D03*
X149845200Y-112466200D03*
X142225200Y-112466200D03*
X142225200Y-115006200D03*
X142225200Y-117546200D03*
X142225200Y-120086200D03*
X142225200Y-122626200D03*
X140429543Y-61078665D03*
X140429543Y-63678665D03*
X186489600Y-84878665D03*
X189089600Y-84878665D03*
X150603215Y-66178665D03*
X150603215Y-68778665D03*
X227380800Y-81788000D03*
X228650800Y-80518000D03*
X229920800Y-81788000D03*
X310113200Y-89128600D03*
X307513200Y-89128600D03*
X133985000Y-161222000D03*
X133985000Y-163822000D03*
X154609800Y-118287800D03*
X154609800Y-120887800D03*
X178589600Y-66178665D03*
X178589600Y-68778665D03*
X267030200Y-74147200D03*
X267030200Y-71547200D03*
X177571400Y-115346000D03*
X177571400Y-112746000D03*
X249017000Y-79205265D03*
X251617000Y-79205265D03*
X251642400Y-88831865D03*
X249042400Y-88831865D03*
X181189600Y-66178665D03*
X181189600Y-68778665D03*
X250418600Y-128701800D03*
X250418600Y-126161800D03*
X250418600Y-123621800D03*
X250418600Y-121081800D03*
X250418600Y-118541800D03*
X250418600Y-116001800D03*
X250418600Y-113461800D03*
X250418600Y-110921800D03*
X242798600Y-110921800D03*
X242798600Y-113461800D03*
X242798600Y-116001800D03*
X242798600Y-118541800D03*
X242798600Y-121081800D03*
X242798600Y-123621800D03*
X242798600Y-126161800D03*
X242798600Y-128701800D03*
X118110000Y-152531600D03*
X118110000Y-149931600D03*
X318516000Y-133192200D03*
X315916000Y-133192200D03*
X170869600Y-61078665D03*
X170869600Y-63678665D03*
X278735000Y-105029000D03*
X281335000Y-105029000D03*
X250266200Y-157581600D03*
X250266200Y-155041600D03*
X250266200Y-152501600D03*
X250266200Y-149961600D03*
X250266200Y-147421600D03*
X250266200Y-144881600D03*
X250266200Y-142341600D03*
X250266200Y-139801600D03*
X242646200Y-139801600D03*
X242646200Y-142341600D03*
X242646200Y-144881600D03*
X242646200Y-147421600D03*
X242646200Y-149961600D03*
X242646200Y-152501600D03*
X242646200Y-155041600D03*
X242646200Y-157581600D03*
X294941000Y-163449000D03*
X289941000Y-163449000D03*
X261950200Y-68813200D03*
X261950200Y-66213200D03*
X178245200Y-140256200D03*
X178245200Y-142856200D03*
X237666200Y-152481600D03*
X235066200Y-152481600D03*
X143589600Y-92078665D03*
X146189600Y-92078665D03*
X318516000Y-143392200D03*
X315916000Y-143392200D03*
X282016200Y-68813200D03*
X282016200Y-66213200D03*
X283718000Y-142367000D03*
X161389600Y-91978665D03*
X158789600Y-91978665D03*
X114045200Y-161556200D03*
X114045200Y-158956200D03*
X158445200Y-130856200D03*
X158445200Y-133456200D03*
X183789600Y-66178665D03*
X183789600Y-68778665D03*
X153089600Y-92078665D03*
X150489600Y-92078665D03*
X157306800Y-114985800D03*
X154706800Y-114985800D03*
X318516000Y-128092200D03*
X315916000Y-128092200D03*
X176089600Y-73978665D03*
X176089600Y-71378665D03*
X109915200Y-119186200D03*
X109915200Y-116646200D03*
X109915200Y-114106200D03*
X109915200Y-111566200D03*
X109915200Y-109026200D03*
X102295200Y-109026200D03*
X102295200Y-111566200D03*
X102295200Y-114106200D03*
X102295200Y-116646200D03*
X102295200Y-119186200D03*
X145525425Y-66178665D03*
X145525425Y-68778665D03*
X317830200Y-63394065D03*
X317830200Y-60794065D03*
X163297690Y-66178665D03*
X163297690Y-68778665D03*
X265684000Y-138811000D03*
X265684000Y-128651000D03*
X237788600Y-113411800D03*
X235188600Y-113411800D03*
X241361200Y-74147200D03*
X241361200Y-71547200D03*
X144733800Y-128016000D03*
X142133800Y-128016000D03*
X193624200Y-116327400D03*
X193624200Y-118927400D03*
X87609200Y-80619600D03*
X85009200Y-80619600D03*
X318516000Y-138292200D03*
X315916000Y-138292200D03*
X241661200Y-82704065D03*
X244261200Y-82704065D03*
X212369400Y-85572600D03*
X212369400Y-60172600D03*
X132816600Y-71378665D03*
X132816600Y-73978665D03*
X175989600Y-61078665D03*
X175989600Y-63678665D03*
X310210200Y-74147200D03*
X310210200Y-71547200D03*
X237666200Y-157581600D03*
X235066200Y-157581600D03*
X164841400Y-170434000D03*
X167441400Y-170434000D03*
X331697800Y-158175000D03*
X331697800Y-155575000D03*
X275412200Y-74147200D03*
X275412200Y-71547200D03*
X194745200Y-156656200D03*
X197345200Y-156656200D03*
X249017000Y-82380265D03*
X251617000Y-82380265D03*
X261950200Y-63394065D03*
X261950200Y-60794065D03*
X258466200Y-147381600D03*
X255866200Y-147381600D03*
X258466200Y-142381600D03*
X255866200Y-142381600D03*
X177800000Y-150084000D03*
X177800000Y-152684000D03*
X153136600Y-61078665D03*
X153136600Y-63678665D03*
X130189600Y-92178665D03*
X132789600Y-92178665D03*
X236121200Y-85914065D03*
X233521200Y-85914065D03*
X237666200Y-149881600D03*
X235066200Y-149881600D03*
X347750600Y-109604000D03*
X347750600Y-107004000D03*
X249250200Y-63394065D03*
X249250200Y-60794065D03*
X326961200Y-63484065D03*
X149845200Y-161656200D03*
X149845200Y-159116200D03*
X149845200Y-156576200D03*
X149845200Y-154036200D03*
X149845200Y-151496200D03*
X142225200Y-151496200D03*
X142225200Y-154036200D03*
X142225200Y-156576200D03*
X142225200Y-159116200D03*
X142225200Y-161656200D03*
X284810200Y-68813200D03*
X284810200Y-66213200D03*
X292430200Y-68813200D03*
X292430200Y-66213200D03*
X122789600Y-85078665D03*
X125389600Y-85078665D03*
X101559600Y-73568665D03*
X98959600Y-73568665D03*
X134035800Y-111028000D03*
X134035800Y-108428000D03*
X109915200Y-140046200D03*
X109915200Y-137506200D03*
X109915200Y-134966200D03*
X109915200Y-132426200D03*
X109915200Y-129886200D03*
X102295200Y-129886200D03*
X102295200Y-132426200D03*
X102295200Y-134966200D03*
X102295200Y-137506200D03*
X102295200Y-140046200D03*
X295611200Y-85214065D03*
X295611200Y-82614065D03*
X244170200Y-63394065D03*
X244170200Y-60794065D03*
X218722200Y-120701800D03*
X216122200Y-120701800D03*
X181005000Y-170027600D03*
X178405000Y-170027600D03*
X122689600Y-73978665D03*
X122689600Y-71378665D03*
X163389600Y-71378665D03*
X163389600Y-73978665D03*
X338150600Y-109504000D03*
X338150600Y-106904000D03*
X186189600Y-61078665D03*
X186189600Y-63678665D03*
X316287210Y-117793210D03*
X313687210Y-117793210D03*
X150723600Y-71378665D03*
X150723600Y-73978665D03*
X336753200Y-168605200D03*
X183789600Y-71378665D03*
X183789600Y-73978665D03*
X230491200Y-70664065D03*
X233091200Y-70664065D03*
X169845200Y-122651600D03*
X169845200Y-120111600D03*
X169845200Y-117571600D03*
X169845200Y-115031600D03*
X169845200Y-112491600D03*
X162225200Y-112491600D03*
X162225200Y-115031600D03*
X162225200Y-117571600D03*
X162225200Y-120111600D03*
X162225200Y-122651600D03*
X318516000Y-140792200D03*
X315916000Y-140792200D03*
X109845200Y-161656200D03*
X109845200Y-159116200D03*
X109845200Y-156576200D03*
X109845200Y-154036200D03*
X109845200Y-151496200D03*
X102225200Y-151496200D03*
X102225200Y-154036200D03*
X102225200Y-156576200D03*
X102225200Y-159116200D03*
X102225200Y-161656200D03*
X138145200Y-156606200D03*
X138145200Y-154006200D03*
X287782000Y-172440600D03*
X164989600Y-88578665D03*
X167589600Y-88578665D03*
X305130200Y-74147200D03*
X305130200Y-71547200D03*
X278460200Y-68813200D03*
X278460200Y-66213200D03*
X170045200Y-161656200D03*
X170045200Y-159116200D03*
X170045200Y-156576200D03*
X170045200Y-154036200D03*
X170045200Y-151496200D03*
X162425200Y-151496200D03*
X162425200Y-154036200D03*
X162425200Y-156576200D03*
X162425200Y-159116200D03*
X162425200Y-161656200D03*
X140447635Y-66178665D03*
X140447635Y-68778665D03*
X81427800Y-174498000D03*
X84027800Y-174498000D03*
X149845200Y-142656200D03*
X149845200Y-140116200D03*
X149845200Y-137576200D03*
X149845200Y-135036200D03*
X149845200Y-132496200D03*
X142225200Y-132496200D03*
X142225200Y-135036200D03*
X142225200Y-137576200D03*
X142225200Y-140116200D03*
X142225200Y-142656200D03*
X258466200Y-144881600D03*
X255866200Y-144881600D03*
X181189600Y-61078665D03*
X181189600Y-63678665D03*
X292430200Y-74147200D03*
X292430200Y-71547200D03*
X282651200Y-172440600D03*
X96059600Y-60218665D03*
X93459600Y-60218665D03*
X205008000Y-96799400D03*
X202408000Y-96799400D03*
X95631000Y-95123000D03*
X85471000Y-95123000D03*
X93519600Y-70268665D03*
X96119600Y-70268665D03*
X199415400Y-185343800D03*
X158645200Y-156656200D03*
X158645200Y-154056200D03*
X153189600Y-71378665D03*
X153189600Y-73978665D03*
X174045200Y-136156200D03*
X174045200Y-138756200D03*
X115089600Y-68778665D03*
X115089600Y-66178665D03*
X178589600Y-61078665D03*
X178589600Y-63678665D03*
X148183600Y-71378665D03*
X148183600Y-73978665D03*
X352339600Y-67995800D03*
X354939600Y-67995800D03*
X259410200Y-68813200D03*
X259410200Y-66213200D03*
X316267000Y-115053000D03*
X313667000Y-115053000D03*
X81402400Y-170002200D03*
X84002400Y-170002200D03*
X255108400Y-176145065D03*
X255108400Y-173545065D03*
X168389600Y-61078665D03*
X168389600Y-63678665D03*
X305130200Y-63394065D03*
X305130200Y-60794065D03*
X287350200Y-63394065D03*
X287350200Y-60794065D03*
X178536600Y-163347400D03*
X101579600Y-66908665D03*
X98979600Y-66908665D03*
X158195200Y-143856200D03*
X158195200Y-141256200D03*
X197389600Y-88478665D03*
X194789600Y-88478665D03*
X117576600Y-71378665D03*
X117576600Y-73978665D03*
X350139000Y-155621200D03*
X350139000Y-158221200D03*
X133985000Y-158522000D03*
X133985000Y-155922000D03*
X287883600Y-84408800D03*
X287883600Y-81808800D03*
X119055200Y-124056200D03*
X116455200Y-124056200D03*
X290144200Y-68764865D03*
X290144200Y-66164865D03*
X241261200Y-63394065D03*
X241261200Y-60794065D03*
X258466200Y-154981600D03*
X255866200Y-154981600D03*
X125219600Y-73978665D03*
X125219600Y-71378665D03*
X246710200Y-63394065D03*
X246710200Y-60794065D03*
X147514000Y-107391200D03*
X150114000Y-107391200D03*
X158216600Y-61078665D03*
X158216600Y-63678665D03*
X77343000Y-84912200D03*
X77343000Y-74752200D03*
X178511200Y-132643400D03*
X178511200Y-130043400D03*
X318516000Y-150421990D03*
X315916000Y-150421990D03*
X298771200Y-85214065D03*
X298771200Y-82614065D03*
X148064320Y-66178665D03*
X148064320Y-68778665D03*
X120136475Y-66178665D03*
X120136475Y-68778665D03*
X282467000Y-120393210D03*
X285067000Y-120393210D03*
X256870200Y-68813200D03*
X256870200Y-66213200D03*
X247678400Y-175985065D03*
X247678400Y-173385065D03*
X272008600Y-68813200D03*
X272008600Y-66213200D03*
X229870000Y-166446200D03*
X232994200Y-178028600D03*
X222834200Y-178028600D03*
X218622400Y-129641600D03*
X216022400Y-129641600D03*
X315290200Y-63394065D03*
X315290200Y-60794065D03*
X307670200Y-68813200D03*
X307670200Y-66213200D03*
X130205200Y-124356200D03*
X122585200Y-124356200D03*
X237666200Y-154981600D03*
X235066200Y-154981600D03*
X173389600Y-73978665D03*
X173389600Y-71378665D03*
X266547600Y-112826800D03*
X263947600Y-112826800D03*
X173489600Y-66178665D03*
X173489600Y-68778665D03*
X120098255Y-61078665D03*
X120098255Y-63678665D03*
X173105600Y-170434000D03*
X170505600Y-170434000D03*
X113545200Y-109606200D03*
X113545200Y-112206200D03*
X237666200Y-147481600D03*
X235066200Y-147481600D03*
X160758795Y-66178665D03*
X160758795Y-68778665D03*
X125136600Y-101574600D03*
X127736600Y-101574600D03*
X247968400Y-181315065D03*
X250468400Y-181315065D03*
X252468400Y-181315065D03*
X254968400Y-181315065D03*
X244898400Y-184315065D03*
X258038400Y-184315065D03*
X257382800Y-126605600D03*
X254782800Y-126605600D03*
X132830950Y-66178665D03*
X132830950Y-68778665D03*
X331965600Y-113515600D03*
X334505600Y-113515600D03*
X337045600Y-113515600D03*
X339585600Y-113515600D03*
X342125600Y-113515600D03*
X344665600Y-113515600D03*
X347205600Y-113515600D03*
X349745600Y-113515600D03*
X98909600Y-70268665D03*
X101509600Y-70268665D03*
X143689600Y-84978665D03*
X146289600Y-84978665D03*
X344550600Y-109504000D03*
X344550600Y-106904000D03*
X284810200Y-63394065D03*
X284810200Y-60794065D03*
X254330200Y-68813200D03*
X254330200Y-66213200D03*
X197489600Y-91978665D03*
X194889600Y-91978665D03*
X314591200Y-85214065D03*
X314591200Y-82614065D03*
X254330200Y-63394065D03*
X254330200Y-60794065D03*
X155676600Y-71378665D03*
X155676600Y-73978665D03*
X130389600Y-85078665D03*
X132989600Y-85078665D03*
X116853500Y-183994335D03*
X350850600Y-109604000D03*
X350850600Y-107004000D03*
X154905200Y-140126200D03*
X154905200Y-137526200D03*
X333980000Y-69215000D03*
X336580000Y-69215000D03*
X81427800Y-187198000D03*
X84027800Y-187198000D03*
X189845200Y-142656200D03*
X189845200Y-140116200D03*
X189845200Y-137576200D03*
X189845200Y-135036200D03*
X189845200Y-132496200D03*
X182225200Y-132496200D03*
X182225200Y-135036200D03*
X182225200Y-137576200D03*
X182225200Y-140116200D03*
X182225200Y-142656200D03*
X258466200Y-149981600D03*
X255866200Y-149981600D03*
X237788600Y-123611800D03*
X235188600Y-123611800D03*
X282587210Y-138193210D03*
X285187210Y-138193210D03*
X139589600Y-92178665D03*
X136989600Y-92178665D03*
X318516000Y-130592200D03*
X315916000Y-130592200D03*
X292601200Y-85214065D03*
X292601200Y-82614065D03*
X186389600Y-71378665D03*
X186389600Y-73978665D03*
X163296600Y-61078665D03*
X163296600Y-63678665D03*
X164799800Y-107543600D03*
X162199800Y-107543600D03*
X171989600Y-88678665D03*
X174589600Y-88678665D03*
X317830200Y-68813200D03*
X317830200Y-66213200D03*
X117395200Y-145606200D03*
X114795200Y-145606200D03*
X318516000Y-153492200D03*
X315916000Y-153492200D03*
X117253500Y-189394335D03*
X137896600Y-71378665D03*
X137896600Y-73978665D03*
X165889600Y-71378665D03*
X165889600Y-73978665D03*
X297510200Y-63394065D03*
X297510200Y-60794065D03*
X258466200Y-157581600D03*
X255866200Y-157581600D03*
X135356600Y-71378665D03*
X135356600Y-73978665D03*
X237788600Y-121111800D03*
X235188600Y-121111800D03*
X338582000Y-95885000D03*
X282587210Y-115393210D03*
X285187210Y-115393210D03*
X256870200Y-74147200D03*
X256870200Y-71547200D03*
X209372200Y-122635600D03*
X209372200Y-120095600D03*
X209372200Y-117555600D03*
X209372200Y-115015600D03*
X209372200Y-112475600D03*
X201752200Y-112475600D03*
X201752200Y-115015600D03*
X201752200Y-117555600D03*
X201752200Y-120095600D03*
X201752200Y-122635600D03*
X334897800Y-158275000D03*
X334897800Y-155675000D03*
X142976600Y-71378665D03*
X142976600Y-73978665D03*
X304381400Y-101256600D03*
X299301400Y-101256600D03*
X337997800Y-158275000D03*
X337997800Y-155675000D03*
X129768600Y-119100600D03*
X129768600Y-116560600D03*
X129768600Y-114020600D03*
X129768600Y-111480600D03*
X129768600Y-108940600D03*
X122148600Y-108940600D03*
X122148600Y-111480600D03*
X122148600Y-114020600D03*
X122148600Y-116560600D03*
X122148600Y-119100600D03*
X125389600Y-95378665D03*
X122789600Y-95378665D03*
X267161200Y-63394065D03*
X267161200Y-60794065D03*
X266217400Y-184708800D03*
X84963000Y-76327000D03*
X95123000Y-76327000D03*
X81342400Y-167462200D03*
X83942400Y-167462200D03*
X168289600Y-98178665D03*
X170889600Y-98178665D03*
X97653500Y-184394335D03*
X249250200Y-74147200D03*
X249250200Y-71547200D03*
X80136200Y-148896600D03*
X90296200Y-148896600D03*
X152989600Y-84978665D03*
X150389600Y-84978665D03*
X257382800Y-129425600D03*
X254782800Y-129425600D03*
X300050200Y-68813200D03*
X300050200Y-66213200D03*
X177901600Y-157891000D03*
X177901600Y-155291000D03*
X287350200Y-68813200D03*
X287350200Y-66213200D03*
X328209144Y-84201000D03*
X330709144Y-84201000D03*
X237666200Y-142281600D03*
X235066200Y-142281600D03*
X171989600Y-92178665D03*
X174589600Y-92178665D03*
X81427800Y-182118000D03*
X84027800Y-182118000D03*
X145516600Y-71378665D03*
X145516600Y-73978665D03*
X290144200Y-63394065D03*
X290144200Y-60794065D03*
X158689600Y-81478665D03*
X161289600Y-81478665D03*
X302107864Y-85214065D03*
X302107864Y-82614065D03*
X168289600Y-71378665D03*
X168289600Y-73978665D03*
X344397800Y-158275000D03*
X344397800Y-155675000D03*
X352399600Y-78155800D03*
X354999600Y-78155800D03*
X174345200Y-154156200D03*
X174345200Y-156756200D03*
X193497200Y-114025200D03*
X193497200Y-111425200D03*
X173701000Y-120411600D03*
X173701000Y-117811600D03*
X237666200Y-144881600D03*
X235066200Y-144881600D03*
X282587210Y-133193000D03*
X285187210Y-133193000D03*
X319074800Y-88450865D03*
X244161200Y-74147200D03*
X244161200Y-71547200D03*
X133658200Y-140728400D03*
X133658200Y-143328400D03*
X241761200Y-89504065D03*
X244361200Y-89504065D03*
X98295200Y-152006200D03*
X98295200Y-154606200D03*
X294970200Y-68813200D03*
X294970200Y-66213200D03*
X216122200Y-117201800D03*
X218722200Y-117201800D03*
X248159400Y-167844465D03*
X344119200Y-99110800D03*
X169845200Y-142656200D03*
X169845200Y-140116200D03*
X169845200Y-137576200D03*
X169845200Y-135036200D03*
X169845200Y-132496200D03*
X162225200Y-132496200D03*
X162225200Y-135036200D03*
X162225200Y-137576200D03*
X162225200Y-140116200D03*
X162225200Y-142656200D03*
X130263899Y-61078665D03*
X130263899Y-63678665D03*
X302590200Y-74147200D03*
X302590200Y-71547200D03*
X341122000Y-168656000D03*
X195525600Y-140465400D03*
X198125600Y-140465400D03*
X160889600Y-73978665D03*
X160889600Y-71378665D03*
X224256600Y-74980800D03*
X224256600Y-64820800D03*
X282587210Y-112893210D03*
X285187210Y-112893210D03*
X251790200Y-63394065D03*
X251790200Y-60794065D03*
X320370200Y-74147200D03*
X320370200Y-71547200D03*
X300050200Y-63394065D03*
X300050200Y-60794065D03*
X120116600Y-71378665D03*
X120116600Y-73978665D03*
X87609200Y-89382600D03*
X85009200Y-89382600D03*
X292430200Y-63394065D03*
X292430200Y-60794065D03*
X277495000Y-138938000D03*
X277495000Y-128778000D03*
X125214265Y-66178665D03*
X125214265Y-68778665D03*
X208955000Y-162814000D03*
X211455000Y-162814000D03*
X305251200Y-85214065D03*
X305251200Y-82614065D03*
X113495200Y-116156200D03*
X113495200Y-118756200D03*
X279006800Y-117876800D03*
X237788600Y-128711800D03*
X235188600Y-128711800D03*
X282016200Y-74147200D03*
X282016200Y-71547200D03*
X138277600Y-119888000D03*
X138277600Y-122488000D03*
X140489600Y-73978665D03*
X140489600Y-71378665D03*
X251790200Y-68813200D03*
X251790200Y-66213200D03*
X310210200Y-68813200D03*
X310210200Y-66213200D03*
X264490200Y-74147200D03*
X264490200Y-71547200D03*
X139589600Y-88578665D03*
X136989600Y-88578665D03*
X278892000Y-122047000D03*
X197211700Y-111026800D03*
X197211700Y-113626800D03*
X177571400Y-117729000D03*
X177571400Y-120329000D03*
X181189600Y-71378665D03*
X181189600Y-73978665D03*
X352399600Y-80695800D03*
X354999600Y-80695800D03*
X129758200Y-161656200D03*
X129758200Y-159116200D03*
X129758200Y-156576200D03*
X129758200Y-154036200D03*
X129758200Y-151496200D03*
X122138200Y-151496200D03*
X122138200Y-154036200D03*
X122138200Y-156576200D03*
X122138200Y-159116200D03*
X122138200Y-161656200D03*
X326961200Y-68824065D03*
X97515200Y-132946200D03*
X97515200Y-130346200D03*
X301040800Y-171475400D03*
X118084600Y-160147000D03*
X118084600Y-162747000D03*
X316287210Y-120493210D03*
X313687210Y-120493210D03*
X135369845Y-66178665D03*
X135369845Y-68778665D03*
X320370200Y-68813200D03*
X320370200Y-66213200D03*
X307670200Y-63394065D03*
X307670200Y-60794065D03*
X154445200Y-149856200D03*
X154445200Y-152456200D03*
X278460200Y-74147200D03*
X278460200Y-71547200D03*
X129870200Y-167208200D03*
X122250200Y-167208200D03*
X186289600Y-66178665D03*
X186289600Y-68778665D03*
X158219900Y-66178665D03*
X158219900Y-68778665D03*
X137998200Y-169295600D03*
X137998200Y-166695600D03*
X97612200Y-137698000D03*
X97612200Y-135098000D03*
X318516000Y-125592200D03*
X315916000Y-125592200D03*
X81342400Y-159842200D03*
X83942400Y-159842200D03*
X117221000Y-88519000D03*
X170989600Y-71378665D03*
X170989600Y-73978665D03*
X113615200Y-137456200D03*
X113615200Y-140056200D03*
X278460200Y-63394065D03*
X278460200Y-60794065D03*
X316287210Y-111703000D03*
X313687210Y-111703000D03*
X285487210Y-145893210D03*
X282887210Y-145893210D03*
X297510200Y-68813200D03*
X297510200Y-66213200D03*
X133958200Y-132528400D03*
X133958200Y-129928400D03*
X275412200Y-68813200D03*
X275412200Y-66213200D03*
X153089600Y-88578665D03*
X150489600Y-88578665D03*
X80086200Y-144246600D03*
X90246200Y-144246600D03*
X120777000Y-187071000D03*
X109959600Y-63678665D03*
X109959600Y-61078665D03*
X278735000Y-107629000D03*
X281335000Y-107629000D03*
X96345200Y-111256200D03*
X96345200Y-113856200D03*
X81342400Y-164922200D03*
X83942400Y-164922200D03*
X181789600Y-88578665D03*
X179189600Y-88578665D03*
X173477766Y-61078665D03*
X173477766Y-63678665D03*
X115015433Y-61078665D03*
X115015433Y-63678665D03*
X154645200Y-162156200D03*
X154645200Y-159556200D03*
X113695200Y-131556200D03*
X113695200Y-128956200D03*
X130189600Y-88578665D03*
X132789600Y-88578665D03*
X254330200Y-74147200D03*
X254330200Y-71547200D03*
X97345200Y-146656200D03*
X97345200Y-144056200D03*
X236191200Y-82634065D03*
X233591200Y-82634065D03*
X230491200Y-73914065D03*
X233091200Y-73914065D03*
X308361200Y-85214065D03*
X308361200Y-82614065D03*
X153142110Y-66178665D03*
X153142110Y-68778665D03*
X122789600Y-88278665D03*
X125389600Y-88278665D03*
X137888132Y-61078665D03*
X137888132Y-63678665D03*
X266547600Y-115746800D03*
X263947600Y-115746800D03*
X237788600Y-126211800D03*
X235188600Y-126211800D03*
X301937000Y-153413000D03*
X301637000Y-150383000D03*
X296787000Y-150383000D03*
X296487000Y-153413000D03*
X308102000Y-153543000D03*
X308102000Y-151003000D03*
X308102000Y-148463000D03*
X308102000Y-145923000D03*
X308102000Y-143383000D03*
X308102000Y-140843000D03*
X308102000Y-138303000D03*
X308102000Y-135763000D03*
X308102000Y-133223000D03*
X308102000Y-130683000D03*
X308102000Y-128143000D03*
X308102000Y-125603000D03*
X308102000Y-123063000D03*
X308102000Y-120523000D03*
X308102000Y-117983000D03*
X308102000Y-115443000D03*
X308102000Y-112903000D03*
X308102000Y-110363000D03*
X308102000Y-107823000D03*
X308102000Y-105283000D03*
X290322000Y-105283000D03*
X290322000Y-107823000D03*
X290322000Y-110363000D03*
X290322000Y-112903000D03*
X290322000Y-115443000D03*
X290322000Y-117983000D03*
X290322000Y-120523000D03*
X290322000Y-123063000D03*
X290322000Y-125603000D03*
X290322000Y-128143000D03*
X290322000Y-130683000D03*
X290322000Y-133223000D03*
X290322000Y-135763000D03*
X290322000Y-138303000D03*
X290322000Y-140843000D03*
X290322000Y-143383000D03*
X290322000Y-145923000D03*
X290322000Y-148463000D03*
X290322000Y-151003000D03*
X290322000Y-153543000D03*
X301752000Y-105513000D03*
X299212000Y-105513000D03*
X296672000Y-105513000D03*
X107823000Y-96266000D03*
X109093000Y-94996000D03*
X110363000Y-96266000D03*
X186589600Y-88478665D03*
X189189600Y-88478665D03*
X294970200Y-63394065D03*
X294970200Y-60794065D03*
X113645200Y-151856200D03*
X113645200Y-154456200D03*
X125389600Y-91778665D03*
X122789600Y-91778665D03*
X216072200Y-111651800D03*
X213472200Y-111651800D03*
X315290200Y-68813200D03*
X315290200Y-66213200D03*
X134010400Y-116539800D03*
X134010400Y-113939800D03*
X256870200Y-63394065D03*
X256870200Y-60794065D03*
X139589600Y-85078665D03*
X136989600Y-85078665D03*
X129758200Y-140046200D03*
X129758200Y-137506200D03*
X129758200Y-134966200D03*
X129758200Y-132426200D03*
X129758200Y-129886200D03*
X122138200Y-129886200D03*
X122138200Y-132426200D03*
X122138200Y-134966200D03*
X122138200Y-137506200D03*
X122138200Y-140046200D03*
X133985000Y-153222000D03*
X133985000Y-150622000D03*
X204045200Y-157456200D03*
X204045200Y-132056200D03*
X160756600Y-61078665D03*
X160756600Y-63678665D03*
X142970954Y-61078665D03*
X142970954Y-63678665D03*
X197572200Y-124151800D03*
X197572200Y-121551800D03*
X154545200Y-154656200D03*
X154545200Y-157256200D03*
X135346721Y-61078665D03*
X135346721Y-63678665D03*
X173641000Y-115291600D03*
X173641000Y-112691600D03*
X282270200Y-63394065D03*
X282270200Y-60794065D03*
X197489600Y-84878665D03*
X194889600Y-84878665D03*
X127753160Y-66178665D03*
X127753160Y-68778665D03*
X117597580Y-66178665D03*
X117597580Y-68778665D03*
X309875000Y-185953400D03*
X312415000Y-185953400D03*
X316636400Y-179171600D03*
X306476400Y-179171600D03*
X107442000Y-66178665D03*
X107442000Y-68778665D03*
X331750600Y-109504000D03*
X331750600Y-106904000D03*
X81427800Y-179578000D03*
X84027800Y-179578000D03*
X178489600Y-71378665D03*
X178489600Y-73978665D03*
X170889600Y-66178665D03*
X170889600Y-68778665D03*
X158295200Y-138656200D03*
X158295200Y-136056200D03*
X158289600Y-73978665D03*
X158289600Y-71378665D03*
X312750200Y-74147200D03*
X312750200Y-71547200D03*
X325501000Y-166497000D03*
X315341000Y-166497000D03*
X331762000Y-151615600D03*
X334302000Y-151615600D03*
X336842000Y-151615600D03*
X339382000Y-151615600D03*
X341922000Y-151615600D03*
X344462000Y-151615600D03*
X347002000Y-151615600D03*
X349542000Y-151615600D03*
X285187210Y-128093210D03*
X282587210Y-128093210D03*
X305130200Y-68813200D03*
X305130200Y-66213200D03*
M02*
