%TF.GenerationSoftware,KiCad,Pcbnew,7.0.5*%
%TF.CreationDate,2024-10-12T11:19:12-04:00*%
%TF.ProjectId,selftest_bd,73656c66-7465-4737-945f-62642e6b6963,2.1*%
%TF.SameCoordinates,Original*%
%TF.FileFunction,Legend,Bot*%
%TF.FilePolarity,Positive*%
%FSLAX46Y46*%
G04 Gerber Fmt 4.6, Leading zero omitted, Abs format (unit mm)*
G04 Created by KiCad (PCBNEW 7.0.5) date 2024-10-12 11:19:12*
%MOMM*%
%LPD*%
G01*
G04 APERTURE LIST*
%ADD10C,0.350000*%
G04 APERTURE END LIST*
D10*
X267259000Y-71315000D03*
X261925000Y-104462000D03*
X264592000Y-80662200D03*
X263372800Y-28770000D03*
X196901000Y-50995000D03*
X71044000Y-59592300D03*
X69977200Y-72813600D03*
X67818200Y-53877300D03*
X59944200Y-51325200D03*
X221462800Y-30395600D03*
X221259600Y-26890400D03*
X210261400Y-56786200D03*
X207086400Y-59986600D03*
X213221100Y-43813332D03*
X223799600Y-47515200D03*
X214020600Y-45774700D03*
X214820100Y-44175700D03*
X203047800Y-49267800D03*
X70085450Y-50505750D03*
X74574600Y-49623400D03*
X265404800Y-25620400D03*
X173558400Y-50156800D03*
X71298000Y-49598000D03*
X164490600Y-71645200D03*
X56210400Y-56938600D03*
X64313000Y-46931000D03*
X44983600Y-122978600D03*
X63322400Y-43756000D03*
X114681200Y-76928400D03*
X89833833Y-53842300D03*
X262941000Y-101922000D03*
X264338000Y-78173000D03*
X205740200Y-26717200D03*
X205740200Y-24117200D03*
X91846600Y-13648665D03*
X91846600Y-16248665D03*
X63959600Y-26548665D03*
X63959600Y-23948665D03*
X243840200Y-26717200D03*
X243840200Y-24117200D03*
X238760200Y-21383200D03*
X238760200Y-18783200D03*
X122859600Y-44548665D03*
X125459600Y-44548665D03*
X215701800Y-98590000D03*
X27923500Y-139564335D03*
X254686000Y-98462200D03*
X252086000Y-98462200D03*
X66559600Y-26548665D03*
X66559600Y-23948665D03*
X248920200Y-15964065D03*
X248920200Y-13364065D03*
X86765187Y-13648665D03*
X86765187Y-16248665D03*
X48559600Y-21348665D03*
X48559600Y-18748665D03*
X233680200Y-26717200D03*
X233680200Y-24117200D03*
X259639000Y-26230000D03*
X202717600Y-73666800D03*
X200117600Y-73666800D03*
X163063200Y-138421800D03*
X165603200Y-138421800D03*
X74422200Y-67560400D03*
X74422200Y-64960400D03*
X185237800Y-38176065D03*
X187837800Y-38176065D03*
X110115200Y-93726200D03*
X110115200Y-96326200D03*
X69828200Y-88398400D03*
X69828200Y-90998400D03*
X121772400Y-60367600D03*
X119172400Y-60367600D03*
X247641200Y-37784065D03*
X247641200Y-35184065D03*
X48644022Y-13648665D03*
X48644022Y-16248665D03*
X61351077Y-13648665D03*
X61351077Y-16248665D03*
X202387400Y-141774600D03*
X191313000Y-120337000D03*
X182880200Y-21383200D03*
X182880200Y-18783200D03*
X185420200Y-21383200D03*
X185420200Y-18783200D03*
X91851005Y-18748665D03*
X91851005Y-21348665D03*
X215981000Y-78808000D03*
X213381000Y-78808000D03*
X211582200Y-15964065D03*
X211582200Y-13364065D03*
X29739600Y-16178665D03*
X32339600Y-16178665D03*
X193552800Y-76115600D03*
X190952800Y-76115600D03*
X182831200Y-26717200D03*
X182831200Y-24117200D03*
X271120600Y-62074000D03*
X271120600Y-59474000D03*
X125948400Y-75221600D03*
X125948400Y-72681600D03*
X125948400Y-70141600D03*
X125948400Y-67601600D03*
X125948400Y-65061600D03*
X118328400Y-65061600D03*
X118328400Y-67601600D03*
X118328400Y-70141600D03*
X118328400Y-72681600D03*
X118328400Y-75221600D03*
X187888600Y-44449865D03*
X185288600Y-44449865D03*
X248920200Y-21383200D03*
X248920200Y-18783200D03*
X180331200Y-21383200D03*
X180331200Y-18783200D03*
X117959600Y-37548665D03*
X115359600Y-37548665D03*
X33723500Y-142164335D03*
X58849600Y-16248665D03*
X58849600Y-13648665D03*
X133742200Y-68921800D03*
X133742200Y-71521800D03*
X126015200Y-114226200D03*
X126015200Y-111686200D03*
X126015200Y-109146200D03*
X126015200Y-106606200D03*
X126015200Y-104066200D03*
X118395200Y-104066200D03*
X118395200Y-106606200D03*
X118395200Y-109146200D03*
X118395200Y-111686200D03*
X118395200Y-114226200D03*
X218757210Y-70463210D03*
X221357210Y-70463210D03*
X89439600Y-51358665D03*
X86839600Y-51358665D03*
X246380200Y-15964065D03*
X246380200Y-13364065D03*
X200660200Y-21383200D03*
X200660200Y-18783200D03*
X54337600Y-63610600D03*
X54337600Y-61010600D03*
X283767800Y-108245000D03*
X283767800Y-110845000D03*
X68975310Y-13648665D03*
X68975310Y-16248665D03*
X173958600Y-68581800D03*
X171358600Y-68581800D03*
X202717600Y-71096800D03*
X200117600Y-71096800D03*
X54661000Y-89887000D03*
X54661000Y-87287000D03*
X112166600Y-18748665D03*
X112166600Y-21348665D03*
X81682365Y-13648665D03*
X81682365Y-16248665D03*
X252457210Y-60363210D03*
X249857210Y-60363210D03*
X97559600Y-47948665D03*
X94959600Y-47948665D03*
X173958600Y-71081800D03*
X171358600Y-71081800D03*
X119859600Y-13648665D03*
X119859600Y-16248665D03*
X218757210Y-83263210D03*
X221357210Y-83263210D03*
X66025200Y-98276200D03*
X58405200Y-98276200D03*
X224129800Y-132960800D03*
X212699800Y-132960800D03*
X222859800Y-139310800D03*
X221589800Y-141850800D03*
X220319800Y-139310800D03*
X219049800Y-141850800D03*
X217779800Y-139310800D03*
X216509800Y-141850800D03*
X215239800Y-139310800D03*
X213969800Y-141850800D03*
X226439800Y-135710800D03*
X226329800Y-129910800D03*
X210499800Y-129910800D03*
X210389800Y-135710800D03*
X84223776Y-13648665D03*
X84223776Y-16248665D03*
X256540200Y-15964065D03*
X256540200Y-13364065D03*
X117959600Y-44648665D03*
X115359600Y-44648665D03*
X122352000Y-5165335D03*
X119812000Y-5165335D03*
X117272000Y-5165335D03*
X114732000Y-5165335D03*
X112192000Y-5165335D03*
X109652000Y-5165335D03*
X107112000Y-5165335D03*
X104572000Y-5165335D03*
X102032000Y-5165335D03*
X99492000Y-5165335D03*
X96952000Y-5165335D03*
X94412000Y-5165335D03*
X91872000Y-5165335D03*
X89332000Y-5165335D03*
X86792000Y-5165335D03*
X84252000Y-5165335D03*
X81712000Y-5165335D03*
X79172000Y-5165335D03*
X76632000Y-5165335D03*
X74092000Y-5165335D03*
X71552000Y-5165335D03*
X69012000Y-5165335D03*
X66472000Y-5165335D03*
X63932000Y-5165335D03*
X61392000Y-5165335D03*
X58852000Y-5165335D03*
X56312000Y-5165335D03*
X53772000Y-5165335D03*
X51232000Y-5165335D03*
X48692000Y-5165335D03*
X46152000Y-5165335D03*
X43612000Y-5165335D03*
X122352000Y-7705335D03*
X119812000Y-7705335D03*
X117272000Y-7705335D03*
X114732000Y-7705335D03*
X112192000Y-7705335D03*
X109652000Y-7705335D03*
X107112000Y-7705335D03*
X104572000Y-7705335D03*
X102032000Y-7705335D03*
X99492000Y-7705335D03*
X96952000Y-7705335D03*
X94412000Y-7705335D03*
X91872000Y-7705335D03*
X89332000Y-7705335D03*
X86792000Y-7705335D03*
X84252000Y-7705335D03*
X81712000Y-7705335D03*
X79172000Y-7705335D03*
X76632000Y-7705335D03*
X74092000Y-7705335D03*
X71552000Y-7705335D03*
X69012000Y-7705335D03*
X66472000Y-7705335D03*
X63932000Y-7705335D03*
X61392000Y-7705335D03*
X58852000Y-7705335D03*
X56312000Y-7705335D03*
X53772000Y-7705335D03*
X51232000Y-7705335D03*
X48692000Y-7705335D03*
X46152000Y-7705335D03*
X43612000Y-7705335D03*
X122352000Y-10245335D03*
X119812000Y-10245335D03*
X117272000Y-10245335D03*
X114732000Y-10245335D03*
X112192000Y-10245335D03*
X109652000Y-10245335D03*
X107112000Y-10245335D03*
X104572000Y-10245335D03*
X102032000Y-10245335D03*
X99492000Y-10245335D03*
X96952000Y-10245335D03*
X94412000Y-10245335D03*
X91872000Y-10245335D03*
X89332000Y-10245335D03*
X86792000Y-10245335D03*
X84252000Y-10245335D03*
X81712000Y-10245335D03*
X79172000Y-10245335D03*
X76632000Y-10245335D03*
X74092000Y-10245335D03*
X71552000Y-10245335D03*
X69012000Y-10245335D03*
X66472000Y-10245335D03*
X63932000Y-10245335D03*
X61392000Y-10245335D03*
X58852000Y-10245335D03*
X56312000Y-10245335D03*
X53772000Y-10245335D03*
X51232000Y-10245335D03*
X48692000Y-10245335D03*
X46152000Y-10245335D03*
X43612000Y-10245335D03*
X127432000Y-2625335D03*
X38532000Y-2625335D03*
X110115200Y-86526200D03*
X110115200Y-83926200D03*
X89369600Y-48278665D03*
X86769600Y-48278665D03*
X53726844Y-13648665D03*
X53726844Y-16248665D03*
X205740200Y-15964065D03*
X205740200Y-13364065D03*
X108059600Y-37648665D03*
X110659600Y-37648665D03*
X131695600Y-86975400D03*
X134295600Y-86975400D03*
X104459600Y-18748665D03*
X104459600Y-21348665D03*
X236220200Y-26717200D03*
X236220200Y-24117200D03*
X198120200Y-26717200D03*
X198120200Y-24117200D03*
X244811200Y-30294000D03*
X63892488Y-13648665D03*
X63892488Y-16248665D03*
X288509600Y-28185800D03*
X291109600Y-28185800D03*
X288569600Y-23105800D03*
X291169600Y-23105800D03*
X58859600Y-21348665D03*
X58859600Y-18748665D03*
X169743800Y-42087665D03*
X172343800Y-42087665D03*
X230391400Y-53826600D03*
X25269600Y-12818665D03*
X17597800Y-137228000D03*
X20197800Y-137228000D03*
X254000200Y-26717200D03*
X254000200Y-24117200D03*
X208331000Y-15996265D03*
X208331000Y-13396265D03*
X51765200Y-119276200D03*
X49165200Y-119276200D03*
X102006600Y-18748665D03*
X102006600Y-21348665D03*
X231140200Y-26717200D03*
X231140200Y-24117200D03*
X54280000Y-107530800D03*
X54280000Y-110130800D03*
X251460200Y-26717200D03*
X251460200Y-24117200D03*
X79156530Y-18748665D03*
X79156530Y-21348665D03*
X46150895Y-18748665D03*
X46150895Y-21348665D03*
X203200200Y-21383200D03*
X203200200Y-18783200D03*
X93451400Y-64634800D03*
X90851400Y-64634800D03*
X195580200Y-26717200D03*
X195580200Y-24117200D03*
X102006600Y-13648665D03*
X102006600Y-16248665D03*
X74066600Y-18748665D03*
X74066600Y-21348665D03*
X261671000Y-123766000D03*
X251511000Y-123766000D03*
X288509600Y-25645800D03*
X291109600Y-25645800D03*
X43599600Y-16248665D03*
X43599600Y-13648665D03*
X252457210Y-57763210D03*
X249857210Y-57763210D03*
X221437000Y-88273000D03*
X218837000Y-88273000D03*
X147215200Y-103186200D03*
X147215200Y-93026200D03*
X187960200Y-26717200D03*
X187960200Y-24117200D03*
X17657800Y-129608000D03*
X20257800Y-129608000D03*
X79859600Y-41048665D03*
X82459600Y-41048665D03*
X35049600Y-16218665D03*
X37649600Y-16218665D03*
X66462055Y-18748665D03*
X66462055Y-21348665D03*
X43586600Y-23948665D03*
X43586600Y-26548665D03*
X170007000Y-52442800D03*
X167407000Y-52442800D03*
X277520600Y-62074000D03*
X277520600Y-59474000D03*
X166561200Y-19664065D03*
X169161200Y-19664065D03*
X205740200Y-21383200D03*
X205740200Y-18783200D03*
X200660200Y-15964065D03*
X200660200Y-13364065D03*
X277267800Y-110845000D03*
X277267800Y-108245000D03*
X17572400Y-114952200D03*
X20172400Y-114952200D03*
X194636200Y-105051600D03*
X192036200Y-105051600D03*
X177531200Y-21383200D03*
X177531200Y-18783200D03*
X94859600Y-37548665D03*
X97459600Y-37548665D03*
X238760200Y-15964065D03*
X238760200Y-13364065D03*
X21056800Y-37050400D03*
X31216800Y-37050400D03*
X47513500Y-144654335D03*
X47513500Y-142114335D03*
X47513500Y-139574335D03*
X47513500Y-137034335D03*
X47513500Y-134494335D03*
X39893500Y-134494335D03*
X39893500Y-137034335D03*
X39893500Y-139574335D03*
X39893500Y-142114335D03*
X39893500Y-144654335D03*
X177831200Y-38574065D03*
X180431200Y-38574065D03*
X195580200Y-15964065D03*
X195580200Y-13364065D03*
X53391000Y-36009000D03*
X256387800Y-5165335D03*
X253847800Y-5165335D03*
X251307800Y-5165335D03*
X248767800Y-5165335D03*
X246227800Y-5165335D03*
X243687800Y-5165335D03*
X241147800Y-5165335D03*
X238607800Y-5165335D03*
X236067800Y-5165335D03*
X233527800Y-5165335D03*
X230987800Y-5165335D03*
X228447800Y-5165335D03*
X225907800Y-5165335D03*
X223367800Y-5165335D03*
X220827800Y-5165335D03*
X218287800Y-5165335D03*
X215747800Y-5165335D03*
X213207800Y-5165335D03*
X210667800Y-5165335D03*
X208127800Y-5165335D03*
X205587800Y-5165335D03*
X203047800Y-5165335D03*
X200507800Y-5165335D03*
X197967800Y-5165335D03*
X195427800Y-5165335D03*
X192887800Y-5165335D03*
X190347800Y-5165335D03*
X187807800Y-5165335D03*
X185267800Y-5165335D03*
X182727800Y-5165335D03*
X180187800Y-5165335D03*
X177647800Y-5165335D03*
X256387800Y-7705335D03*
X253847800Y-7705335D03*
X251307800Y-7705335D03*
X248767800Y-7705335D03*
X246227800Y-7705335D03*
X243687800Y-7705335D03*
X241147800Y-7705335D03*
X238607800Y-7705335D03*
X236067800Y-7705335D03*
X233527800Y-7705335D03*
X230987800Y-7705335D03*
X228447800Y-7705335D03*
X225907800Y-7705335D03*
X223367800Y-7705335D03*
X220827800Y-7705335D03*
X218287800Y-7705335D03*
X215747800Y-7705335D03*
X213207800Y-7705335D03*
X210667800Y-7705335D03*
X208127800Y-7705335D03*
X205587800Y-7705335D03*
X203047800Y-7705335D03*
X200507800Y-7705335D03*
X197967800Y-7705335D03*
X195427800Y-7705335D03*
X192887800Y-7705335D03*
X190347800Y-7705335D03*
X187807800Y-7705335D03*
X185267800Y-7705335D03*
X182727800Y-7705335D03*
X180187800Y-7705335D03*
X177647800Y-7705335D03*
X256387800Y-10245335D03*
X253847800Y-10245335D03*
X251307800Y-10245335D03*
X248767800Y-10245335D03*
X246227800Y-10245335D03*
X243687800Y-10245335D03*
X241147800Y-10245335D03*
X238607800Y-10245335D03*
X236067800Y-10245335D03*
X233527800Y-10245335D03*
X230987800Y-10245335D03*
X228447800Y-10245335D03*
X225907800Y-10245335D03*
X223367800Y-10245335D03*
X220827800Y-10245335D03*
X218287800Y-10245335D03*
X215747800Y-10245335D03*
X213207800Y-10245335D03*
X210667800Y-10245335D03*
X208127800Y-10245335D03*
X205587800Y-10245335D03*
X203047800Y-10245335D03*
X200507800Y-10245335D03*
X197967800Y-10245335D03*
X195427800Y-10245335D03*
X192887800Y-10245335D03*
X190347800Y-10245335D03*
X187807800Y-10245335D03*
X185267800Y-10245335D03*
X182727800Y-10245335D03*
X180187800Y-10245335D03*
X177647800Y-10245335D03*
X261467800Y-2625335D03*
X172567800Y-2625335D03*
X215701800Y-104889200D03*
X86015200Y-75196200D03*
X86015200Y-72656200D03*
X86015200Y-70116200D03*
X86015200Y-67576200D03*
X86015200Y-65036200D03*
X78395200Y-65036200D03*
X78395200Y-67576200D03*
X78395200Y-70116200D03*
X78395200Y-72656200D03*
X78395200Y-75196200D03*
X76599543Y-13648665D03*
X76599543Y-16248665D03*
X122659600Y-37448665D03*
X125259600Y-37448665D03*
X86773215Y-18748665D03*
X86773215Y-21348665D03*
X163550800Y-34358000D03*
X164820800Y-33088000D03*
X166090800Y-34358000D03*
X246283200Y-41698600D03*
X243683200Y-41698600D03*
X70155000Y-113792000D03*
X70155000Y-116392000D03*
X90779800Y-70857800D03*
X90779800Y-73457800D03*
X114759600Y-18748665D03*
X114759600Y-21348665D03*
X203200200Y-26717200D03*
X203200200Y-24117200D03*
X113741400Y-67916000D03*
X113741400Y-65316000D03*
X185187000Y-31775265D03*
X187787000Y-31775265D03*
X187812400Y-41401865D03*
X185212400Y-41401865D03*
X117359600Y-18748665D03*
X117359600Y-21348665D03*
X186588600Y-81271800D03*
X186588600Y-78731800D03*
X186588600Y-76191800D03*
X186588600Y-73651800D03*
X186588600Y-71111800D03*
X186588600Y-68571800D03*
X186588600Y-66031800D03*
X186588600Y-63491800D03*
X178968600Y-63491800D03*
X178968600Y-66031800D03*
X178968600Y-68571800D03*
X178968600Y-71111800D03*
X178968600Y-73651800D03*
X178968600Y-76191800D03*
X178968600Y-78731800D03*
X178968600Y-81271800D03*
X54280000Y-105101600D03*
X54280000Y-102501600D03*
X254686000Y-85762200D03*
X252086000Y-85762200D03*
X107039600Y-13648665D03*
X107039600Y-16248665D03*
X214905000Y-57599000D03*
X217505000Y-57599000D03*
X186436200Y-110151600D03*
X186436200Y-107611600D03*
X186436200Y-105071600D03*
X186436200Y-102531600D03*
X186436200Y-99991600D03*
X186436200Y-97451600D03*
X186436200Y-94911600D03*
X186436200Y-92371600D03*
X178816200Y-92371600D03*
X178816200Y-94911600D03*
X178816200Y-97451600D03*
X178816200Y-99991600D03*
X178816200Y-102531600D03*
X178816200Y-105071600D03*
X178816200Y-107611600D03*
X178816200Y-110151600D03*
X231111000Y-116019000D03*
X226111000Y-116019000D03*
X198120200Y-21383200D03*
X198120200Y-18783200D03*
X114415200Y-92826200D03*
X114415200Y-95426200D03*
X173836200Y-105051600D03*
X171236200Y-105051600D03*
X79759600Y-44648665D03*
X82359600Y-44648665D03*
X254686000Y-95962200D03*
X252086000Y-95962200D03*
X218186200Y-21383200D03*
X218186200Y-18783200D03*
X219888000Y-94937000D03*
X97559600Y-44548665D03*
X94959600Y-44548665D03*
X50215200Y-114126200D03*
X50215200Y-111526200D03*
X94615200Y-83426200D03*
X94615200Y-86026200D03*
X119959600Y-18748665D03*
X119959600Y-21348665D03*
X89259600Y-44648665D03*
X86659600Y-44648665D03*
X93476800Y-67555800D03*
X90876800Y-67555800D03*
X254686000Y-80662200D03*
X252086000Y-80662200D03*
X112259600Y-26548665D03*
X112259600Y-23948665D03*
X46085200Y-71756200D03*
X46085200Y-69216200D03*
X46085200Y-66676200D03*
X46085200Y-64136200D03*
X46085200Y-61596200D03*
X38465200Y-61596200D03*
X38465200Y-64136200D03*
X38465200Y-66676200D03*
X38465200Y-69216200D03*
X38465200Y-71756200D03*
X81695425Y-18748665D03*
X81695425Y-21348665D03*
X254000200Y-15964065D03*
X254000200Y-13364065D03*
X99467690Y-18748665D03*
X99467690Y-21348665D03*
X201854000Y-91381000D03*
X201854000Y-81221000D03*
X173958600Y-65981800D03*
X171358600Y-65981800D03*
X177531200Y-26717200D03*
X177531200Y-24117200D03*
X80903800Y-80586000D03*
X78303800Y-80586000D03*
X129794200Y-68897400D03*
X129794200Y-71497400D03*
X23779200Y-33189600D03*
X21179200Y-33189600D03*
X254686000Y-90862200D03*
X252086000Y-90862200D03*
X177831200Y-35274065D03*
X180431200Y-35274065D03*
X148539400Y-38142600D03*
X148539400Y-12742600D03*
X68986600Y-23948665D03*
X68986600Y-26548665D03*
X112159600Y-13648665D03*
X112159600Y-16248665D03*
X246380200Y-26717200D03*
X246380200Y-24117200D03*
X173836200Y-110151600D03*
X171236200Y-110151600D03*
X101011400Y-123004000D03*
X103611400Y-123004000D03*
X267867800Y-110745000D03*
X267867800Y-108145000D03*
X211582200Y-26717200D03*
X211582200Y-24117200D03*
X130915200Y-109226200D03*
X133515200Y-109226200D03*
X185187000Y-34950265D03*
X187787000Y-34950265D03*
X198120200Y-15964065D03*
X198120200Y-13364065D03*
X194636200Y-99951600D03*
X192036200Y-99951600D03*
X194636200Y-94951600D03*
X192036200Y-94951600D03*
X113970000Y-102654000D03*
X113970000Y-105254000D03*
X89306600Y-13648665D03*
X89306600Y-16248665D03*
X66359600Y-44748665D03*
X68959600Y-44748665D03*
X172291200Y-38484065D03*
X169691200Y-38484065D03*
X173836200Y-102451600D03*
X171236200Y-102451600D03*
X283920600Y-62174000D03*
X283920600Y-59574000D03*
X185420200Y-15964065D03*
X185420200Y-13364065D03*
X263131200Y-16054065D03*
X86015200Y-114226200D03*
X86015200Y-111686200D03*
X86015200Y-109146200D03*
X86015200Y-106606200D03*
X86015200Y-104066200D03*
X78395200Y-104066200D03*
X78395200Y-106606200D03*
X78395200Y-109146200D03*
X78395200Y-111686200D03*
X78395200Y-114226200D03*
X220980200Y-21383200D03*
X220980200Y-18783200D03*
X228600200Y-21383200D03*
X228600200Y-18783200D03*
X58959600Y-37648665D03*
X61559600Y-37648665D03*
X37729600Y-26138665D03*
X35129600Y-26138665D03*
X70205800Y-63598000D03*
X70205800Y-60998000D03*
X46085200Y-92616200D03*
X46085200Y-90076200D03*
X46085200Y-87536200D03*
X46085200Y-84996200D03*
X46085200Y-82456200D03*
X38465200Y-82456200D03*
X38465200Y-84996200D03*
X38465200Y-87536200D03*
X38465200Y-90076200D03*
X38465200Y-92616200D03*
X231781200Y-37784065D03*
X231781200Y-35184065D03*
X180340200Y-15964065D03*
X180340200Y-13364065D03*
X154892200Y-73271800D03*
X152292200Y-73271800D03*
X117175000Y-122597600D03*
X114575000Y-122597600D03*
X58859600Y-26548665D03*
X58859600Y-23948665D03*
X99559600Y-23948665D03*
X99559600Y-26548665D03*
X274320600Y-62074000D03*
X274320600Y-59474000D03*
X122359600Y-13648665D03*
X122359600Y-16248665D03*
X252457210Y-70363210D03*
X249857210Y-70363210D03*
X86893600Y-23948665D03*
X86893600Y-26548665D03*
X272923200Y-121175200D03*
X119959600Y-23948665D03*
X119959600Y-26548665D03*
X166661200Y-23234065D03*
X169261200Y-23234065D03*
X106015200Y-75221600D03*
X106015200Y-72681600D03*
X106015200Y-70141600D03*
X106015200Y-67601600D03*
X106015200Y-65061600D03*
X98395200Y-65061600D03*
X98395200Y-67601600D03*
X98395200Y-70141600D03*
X98395200Y-72681600D03*
X98395200Y-75221600D03*
X254686000Y-93362200D03*
X252086000Y-93362200D03*
X46015200Y-114226200D03*
X46015200Y-111686200D03*
X46015200Y-109146200D03*
X46015200Y-106606200D03*
X46015200Y-104066200D03*
X38395200Y-104066200D03*
X38395200Y-106606200D03*
X38395200Y-109146200D03*
X38395200Y-111686200D03*
X38395200Y-114226200D03*
X74315200Y-109176200D03*
X74315200Y-106576200D03*
X223952000Y-125010600D03*
X101159600Y-41148665D03*
X103759600Y-41148665D03*
X241300200Y-26717200D03*
X241300200Y-24117200D03*
X214630200Y-21383200D03*
X214630200Y-18783200D03*
X106215200Y-114226200D03*
X106215200Y-111686200D03*
X106215200Y-109146200D03*
X106215200Y-106606200D03*
X106215200Y-104066200D03*
X98595200Y-104066200D03*
X98595200Y-106606200D03*
X98595200Y-109146200D03*
X98595200Y-111686200D03*
X98595200Y-114226200D03*
X76617635Y-18748665D03*
X76617635Y-21348665D03*
X17597800Y-127068000D03*
X20197800Y-127068000D03*
X86015200Y-95226200D03*
X86015200Y-92686200D03*
X86015200Y-90146200D03*
X86015200Y-87606200D03*
X86015200Y-85066200D03*
X78395200Y-85066200D03*
X78395200Y-87606200D03*
X78395200Y-90146200D03*
X78395200Y-92686200D03*
X78395200Y-95226200D03*
X194636200Y-97451600D03*
X192036200Y-97451600D03*
X117359600Y-13648665D03*
X117359600Y-16248665D03*
X228600200Y-26717200D03*
X228600200Y-24117200D03*
X218821200Y-125010600D03*
X32229600Y-12788665D03*
X29629600Y-12788665D03*
X141178000Y-49369400D03*
X138578000Y-49369400D03*
X31801000Y-47693000D03*
X21641000Y-47693000D03*
X29689600Y-22838665D03*
X32289600Y-22838665D03*
X135585400Y-137913800D03*
X94815200Y-109226200D03*
X94815200Y-106626200D03*
X89359600Y-23948665D03*
X89359600Y-26548665D03*
X110215200Y-88726200D03*
X110215200Y-91326200D03*
X51259600Y-21348665D03*
X51259600Y-18748665D03*
X114759600Y-13648665D03*
X114759600Y-16248665D03*
X84353600Y-23948665D03*
X84353600Y-26548665D03*
X288509600Y-20565800D03*
X291109600Y-20565800D03*
X195580200Y-21383200D03*
X195580200Y-18783200D03*
X252437000Y-67623000D03*
X249837000Y-67623000D03*
X17572400Y-122572200D03*
X20172400Y-122572200D03*
X191278400Y-128715065D03*
X191278400Y-126115065D03*
X104559600Y-13648665D03*
X104559600Y-16248665D03*
X241300200Y-15964065D03*
X241300200Y-13364065D03*
X223520200Y-15964065D03*
X223520200Y-13364065D03*
X114706600Y-115917400D03*
X37749600Y-19478665D03*
X35149600Y-19478665D03*
X94365200Y-96426200D03*
X94365200Y-93826200D03*
X133559600Y-41048665D03*
X130959600Y-41048665D03*
X53746600Y-23948665D03*
X53746600Y-26548665D03*
X286309000Y-108191200D03*
X286309000Y-110791200D03*
X70155000Y-111092000D03*
X70155000Y-108492000D03*
X224053600Y-36978800D03*
X224053600Y-34378800D03*
X55225200Y-76626200D03*
X52625200Y-76626200D03*
X226314200Y-21334865D03*
X226314200Y-18734865D03*
X177431200Y-15964065D03*
X177431200Y-13364065D03*
X194636200Y-107551600D03*
X192036200Y-107551600D03*
X61389600Y-26548665D03*
X61389600Y-23948665D03*
X182880200Y-15964065D03*
X182880200Y-13364065D03*
X83684000Y-59961200D03*
X86284000Y-59961200D03*
X94386600Y-13648665D03*
X94386600Y-16248665D03*
X13513000Y-37482200D03*
X13513000Y-27322200D03*
X114681200Y-85213400D03*
X114681200Y-82613400D03*
X254686000Y-102991990D03*
X252086000Y-102991990D03*
X234941200Y-37784065D03*
X234941200Y-35184065D03*
X84234320Y-18748665D03*
X84234320Y-21348665D03*
X56306475Y-18748665D03*
X56306475Y-21348665D03*
X218637000Y-72963210D03*
X221237000Y-72963210D03*
X193040200Y-21383200D03*
X193040200Y-18783200D03*
X183848400Y-128555065D03*
X183848400Y-125955065D03*
X208178600Y-21383200D03*
X208178600Y-18783200D03*
X166040000Y-119016200D03*
X169164200Y-130598600D03*
X159004200Y-130598600D03*
X154792400Y-82211600D03*
X152192400Y-82211600D03*
X251460200Y-15964065D03*
X251460200Y-13364065D03*
X243840200Y-21383200D03*
X243840200Y-18783200D03*
X66375200Y-76926200D03*
X58755200Y-76926200D03*
X173836200Y-107551600D03*
X171236200Y-107551600D03*
X109559600Y-26548665D03*
X109559600Y-23948665D03*
X202717600Y-65396800D03*
X200117600Y-65396800D03*
X109659600Y-18748665D03*
X109659600Y-21348665D03*
X56268255Y-13648665D03*
X56268255Y-16248665D03*
X109275600Y-123004000D03*
X106675600Y-123004000D03*
X49715200Y-62176200D03*
X49715200Y-64776200D03*
X173836200Y-100051600D03*
X171236200Y-100051600D03*
X96928795Y-18748665D03*
X96928795Y-21348665D03*
X61306600Y-54144600D03*
X63906600Y-54144600D03*
X184138400Y-133885065D03*
X186638400Y-133885065D03*
X188638400Y-133885065D03*
X191138400Y-133885065D03*
X181068400Y-136885065D03*
X194208400Y-136885065D03*
X193552800Y-79175600D03*
X190952800Y-79175600D03*
X69000950Y-18748665D03*
X69000950Y-21348665D03*
X268135600Y-66085600D03*
X270675600Y-66085600D03*
X273215600Y-66085600D03*
X275755600Y-66085600D03*
X278295600Y-66085600D03*
X280835600Y-66085600D03*
X283375600Y-66085600D03*
X285915600Y-66085600D03*
X35079600Y-22838665D03*
X37679600Y-22838665D03*
X79859600Y-37548665D03*
X82459600Y-37548665D03*
X280720600Y-62074000D03*
X280720600Y-59474000D03*
X220980200Y-15964065D03*
X220980200Y-13364065D03*
X190500200Y-21383200D03*
X190500200Y-18783200D03*
X133659600Y-44548665D03*
X131059600Y-44548665D03*
X250761200Y-37784065D03*
X250761200Y-35184065D03*
X190500200Y-15964065D03*
X190500200Y-13364065D03*
X91846600Y-23948665D03*
X91846600Y-26548665D03*
X66559600Y-37648665D03*
X69159600Y-37648665D03*
X53023500Y-136564335D03*
X287020600Y-62174000D03*
X287020600Y-59574000D03*
X91075200Y-92696200D03*
X91075200Y-90096200D03*
X270150000Y-21785000D03*
X272750000Y-21785000D03*
X17597800Y-139768000D03*
X20197800Y-139768000D03*
X126015200Y-95226200D03*
X126015200Y-92686200D03*
X126015200Y-90146200D03*
X126015200Y-87606200D03*
X126015200Y-85066200D03*
X118395200Y-85066200D03*
X118395200Y-87606200D03*
X118395200Y-90146200D03*
X118395200Y-92686200D03*
X118395200Y-95226200D03*
X194636200Y-102551600D03*
X192036200Y-102551600D03*
X173958600Y-76181800D03*
X171358600Y-76181800D03*
X218757210Y-90763210D03*
X221357210Y-90763210D03*
X75759600Y-44748665D03*
X73159600Y-44748665D03*
X254686000Y-83162200D03*
X252086000Y-83162200D03*
X228771200Y-37784065D03*
X228771200Y-35184065D03*
X122559600Y-23948665D03*
X122559600Y-26548665D03*
X99466600Y-13648665D03*
X99466600Y-16248665D03*
X100969800Y-60113600D03*
X98369800Y-60113600D03*
X108159600Y-41248665D03*
X110759600Y-41248665D03*
X254000200Y-21383200D03*
X254000200Y-18783200D03*
X53565200Y-98176200D03*
X50965200Y-98176200D03*
X254686000Y-106062200D03*
X252086000Y-106062200D03*
X53423500Y-141964335D03*
X74066600Y-23948665D03*
X74066600Y-26548665D03*
X102059600Y-23948665D03*
X102059600Y-26548665D03*
X233680200Y-15964065D03*
X233680200Y-13364065D03*
X194636200Y-110151600D03*
X192036200Y-110151600D03*
X71526600Y-23948665D03*
X71526600Y-26548665D03*
X173958600Y-73681800D03*
X171358600Y-73681800D03*
X274752000Y-48455000D03*
X218757210Y-67963210D03*
X221357210Y-67963210D03*
X193040200Y-26717200D03*
X193040200Y-24117200D03*
X145542200Y-75205600D03*
X145542200Y-72665600D03*
X145542200Y-70125600D03*
X145542200Y-67585600D03*
X145542200Y-65045600D03*
X137922200Y-65045600D03*
X137922200Y-67585600D03*
X137922200Y-70125600D03*
X137922200Y-72665600D03*
X137922200Y-75205600D03*
X271067800Y-110845000D03*
X271067800Y-108245000D03*
X79146600Y-23948665D03*
X79146600Y-26548665D03*
X240551400Y-53826600D03*
X235471400Y-53826600D03*
X274167800Y-110845000D03*
X274167800Y-108245000D03*
X65938600Y-71670600D03*
X65938600Y-69130600D03*
X65938600Y-66590600D03*
X65938600Y-64050600D03*
X65938600Y-61510600D03*
X58318600Y-61510600D03*
X58318600Y-64050600D03*
X58318600Y-66590600D03*
X58318600Y-69130600D03*
X58318600Y-71670600D03*
X61559600Y-47948665D03*
X58959600Y-47948665D03*
X203331200Y-15964065D03*
X203331200Y-13364065D03*
X202387400Y-137278800D03*
X21133000Y-28897000D03*
X31293000Y-28897000D03*
X17512400Y-120032200D03*
X20112400Y-120032200D03*
X104459600Y-50748665D03*
X107059600Y-50748665D03*
X33823500Y-136964335D03*
X185420200Y-26717200D03*
X185420200Y-24117200D03*
X16306200Y-101466600D03*
X26466200Y-101466600D03*
X89159600Y-37548665D03*
X86559600Y-37548665D03*
X193552800Y-81995600D03*
X190952800Y-81995600D03*
X236220200Y-21383200D03*
X236220200Y-18783200D03*
X114071600Y-110461000D03*
X114071600Y-107861000D03*
X223520200Y-21383200D03*
X223520200Y-18783200D03*
X264379144Y-36771000D03*
X266879144Y-36771000D03*
X173836200Y-94851600D03*
X171236200Y-94851600D03*
X108159600Y-44748665D03*
X110759600Y-44748665D03*
X17597800Y-134688000D03*
X20197800Y-134688000D03*
X81686600Y-23948665D03*
X81686600Y-26548665D03*
X226314200Y-15964065D03*
X226314200Y-13364065D03*
X94859600Y-34048665D03*
X97459600Y-34048665D03*
X238277864Y-37784065D03*
X238277864Y-35184065D03*
X104459600Y-23948665D03*
X104459600Y-26548665D03*
X280567800Y-110845000D03*
X280567800Y-108245000D03*
X288569600Y-30725800D03*
X291169600Y-30725800D03*
X110515200Y-106726200D03*
X110515200Y-109326200D03*
X129667200Y-66595200D03*
X129667200Y-63995200D03*
X109871000Y-72981600D03*
X109871000Y-70381600D03*
X173836200Y-97451600D03*
X171236200Y-97451600D03*
X218757210Y-85763000D03*
X221357210Y-85763000D03*
X255244800Y-41020865D03*
X180331200Y-26717200D03*
X180331200Y-24117200D03*
X69828200Y-93298400D03*
X69828200Y-95898400D03*
X177931200Y-42074065D03*
X180531200Y-42074065D03*
X34465200Y-104576200D03*
X34465200Y-107176200D03*
X231140200Y-21383200D03*
X231140200Y-18783200D03*
X152292200Y-69771800D03*
X154892200Y-69771800D03*
X184329400Y-120414465D03*
X280289200Y-51680800D03*
X106015200Y-95226200D03*
X106015200Y-92686200D03*
X106015200Y-90146200D03*
X106015200Y-87606200D03*
X106015200Y-85066200D03*
X98395200Y-85066200D03*
X98395200Y-87606200D03*
X98395200Y-90146200D03*
X98395200Y-92686200D03*
X98395200Y-95226200D03*
X66433899Y-13648665D03*
X66433899Y-16248665D03*
X238760200Y-26717200D03*
X238760200Y-24117200D03*
X277292000Y-121226000D03*
X131695600Y-93035400D03*
X134295600Y-93035400D03*
X97059600Y-26548665D03*
X97059600Y-23948665D03*
X160426600Y-27550800D03*
X160426600Y-17390800D03*
X218757210Y-65463210D03*
X221357210Y-65463210D03*
X187960200Y-15964065D03*
X187960200Y-13364065D03*
X256540200Y-26717200D03*
X256540200Y-24117200D03*
X236220200Y-15964065D03*
X236220200Y-13364065D03*
X56286600Y-23948665D03*
X56286600Y-26548665D03*
X23779200Y-41952600D03*
X21179200Y-41952600D03*
X228600200Y-15964065D03*
X228600200Y-13364065D03*
X213665000Y-91508000D03*
X213665000Y-81348000D03*
X61384265Y-18748665D03*
X61384265Y-21348665D03*
X145125000Y-115384000D03*
X147625000Y-115384000D03*
X241421200Y-37784065D03*
X241421200Y-35184065D03*
X49665200Y-68726200D03*
X49665200Y-71326200D03*
X215176800Y-70446800D03*
X173958600Y-81281800D03*
X171358600Y-81281800D03*
X218186200Y-26717200D03*
X218186200Y-24117200D03*
X74447600Y-72458000D03*
X74447600Y-75058000D03*
X76659600Y-26548665D03*
X76659600Y-23948665D03*
X187960200Y-21383200D03*
X187960200Y-18783200D03*
X246380200Y-21383200D03*
X246380200Y-18783200D03*
X200660200Y-26717200D03*
X200660200Y-24117200D03*
X75759600Y-41148665D03*
X73159600Y-41148665D03*
X215062000Y-74617000D03*
X133381700Y-63596800D03*
X133381700Y-66196800D03*
X113741400Y-70299000D03*
X113741400Y-72899000D03*
X117359600Y-23948665D03*
X117359600Y-26548665D03*
X288569600Y-33265800D03*
X291169600Y-33265800D03*
X65928200Y-114226200D03*
X65928200Y-111686200D03*
X65928200Y-109146200D03*
X65928200Y-106606200D03*
X65928200Y-104066200D03*
X58308200Y-104066200D03*
X58308200Y-106606200D03*
X58308200Y-109146200D03*
X58308200Y-111686200D03*
X58308200Y-114226200D03*
X263131200Y-21394065D03*
X33685200Y-85516200D03*
X33685200Y-82916200D03*
X237210800Y-124045400D03*
X54254600Y-112717000D03*
X54254600Y-115317000D03*
X252457210Y-73063210D03*
X249857210Y-73063210D03*
X71539845Y-18748665D03*
X71539845Y-21348665D03*
X256540200Y-21383200D03*
X256540200Y-18783200D03*
X243840200Y-15964065D03*
X243840200Y-13364065D03*
X90615200Y-102426200D03*
X90615200Y-105026200D03*
X214630200Y-26717200D03*
X214630200Y-24117200D03*
X66040200Y-119778200D03*
X58420200Y-119778200D03*
X122459600Y-18748665D03*
X122459600Y-21348665D03*
X94389900Y-18748665D03*
X94389900Y-21348665D03*
X74168200Y-121865600D03*
X74168200Y-119265600D03*
X33782200Y-90268000D03*
X33782200Y-87668000D03*
X254686000Y-78162200D03*
X252086000Y-78162200D03*
X17512400Y-112412200D03*
X20112400Y-112412200D03*
X53391000Y-41089000D03*
X107159600Y-23948665D03*
X107159600Y-26548665D03*
X49785200Y-90026200D03*
X49785200Y-92626200D03*
X214630200Y-15964065D03*
X214630200Y-13364065D03*
X252457210Y-64273000D03*
X249857210Y-64273000D03*
X221657210Y-98463210D03*
X219057210Y-98463210D03*
X233680200Y-21383200D03*
X233680200Y-18783200D03*
X70128200Y-85098400D03*
X70128200Y-82498400D03*
X211582200Y-21383200D03*
X211582200Y-18783200D03*
X89259600Y-41148665D03*
X86659600Y-41148665D03*
X16256200Y-96816600D03*
X26416200Y-96816600D03*
X56947000Y-139641000D03*
X46129600Y-16248665D03*
X46129600Y-13648665D03*
X214905000Y-60199000D03*
X217505000Y-60199000D03*
X32515200Y-63826200D03*
X32515200Y-66426200D03*
X17512400Y-117492200D03*
X20112400Y-117492200D03*
X117959600Y-41148665D03*
X115359600Y-41148665D03*
X109647766Y-13648665D03*
X109647766Y-16248665D03*
X51185433Y-13648665D03*
X51185433Y-16248665D03*
X90815200Y-114726200D03*
X90815200Y-112126200D03*
X49865200Y-84126200D03*
X49865200Y-81526200D03*
X66359600Y-41148665D03*
X68959600Y-41148665D03*
X190500200Y-26717200D03*
X190500200Y-24117200D03*
X33515200Y-99226200D03*
X33515200Y-96626200D03*
X172361200Y-35204065D03*
X169761200Y-35204065D03*
X166661200Y-26484065D03*
X169261200Y-26484065D03*
X244531200Y-37784065D03*
X244531200Y-35184065D03*
X89312110Y-18748665D03*
X89312110Y-21348665D03*
X58959600Y-40848665D03*
X61559600Y-40848665D03*
X74058132Y-13648665D03*
X74058132Y-16248665D03*
X202717600Y-68316800D03*
X200117600Y-68316800D03*
X173958600Y-78781800D03*
X171358600Y-78781800D03*
X238107000Y-105983000D03*
X237807000Y-102953000D03*
X232957000Y-102953000D03*
X232657000Y-105983000D03*
X244272000Y-106113000D03*
X244272000Y-103573000D03*
X244272000Y-101033000D03*
X244272000Y-98493000D03*
X244272000Y-95953000D03*
X244272000Y-93413000D03*
X244272000Y-90873000D03*
X244272000Y-88333000D03*
X244272000Y-85793000D03*
X244272000Y-83253000D03*
X244272000Y-80713000D03*
X244272000Y-78173000D03*
X244272000Y-75633000D03*
X244272000Y-73093000D03*
X244272000Y-70553000D03*
X244272000Y-68013000D03*
X244272000Y-65473000D03*
X244272000Y-62933000D03*
X244272000Y-60393000D03*
X244272000Y-57853000D03*
X226492000Y-57853000D03*
X226492000Y-60393000D03*
X226492000Y-62933000D03*
X226492000Y-65473000D03*
X226492000Y-68013000D03*
X226492000Y-70553000D03*
X226492000Y-73093000D03*
X226492000Y-75633000D03*
X226492000Y-78173000D03*
X226492000Y-80713000D03*
X226492000Y-83253000D03*
X226492000Y-85793000D03*
X226492000Y-88333000D03*
X226492000Y-90873000D03*
X226492000Y-93413000D03*
X226492000Y-95953000D03*
X226492000Y-98493000D03*
X226492000Y-101033000D03*
X226492000Y-103573000D03*
X226492000Y-106113000D03*
X237922000Y-58083000D03*
X235382000Y-58083000D03*
X232842000Y-58083000D03*
X43993000Y-48836000D03*
X45263000Y-47566000D03*
X46533000Y-48836000D03*
X122759600Y-41048665D03*
X125359600Y-41048665D03*
X231140200Y-15964065D03*
X231140200Y-13364065D03*
X49815200Y-104426200D03*
X49815200Y-107026200D03*
X61559600Y-44348665D03*
X58959600Y-44348665D03*
X152242200Y-64221800D03*
X149642200Y-64221800D03*
X251460200Y-21383200D03*
X251460200Y-18783200D03*
X70180400Y-69109800D03*
X70180400Y-66509800D03*
X193040200Y-15964065D03*
X193040200Y-13364065D03*
X75759600Y-37648665D03*
X73159600Y-37648665D03*
X65928200Y-92616200D03*
X65928200Y-90076200D03*
X65928200Y-87536200D03*
X65928200Y-84996200D03*
X65928200Y-82456200D03*
X58308200Y-82456200D03*
X58308200Y-84996200D03*
X58308200Y-87536200D03*
X58308200Y-90076200D03*
X58308200Y-92616200D03*
X70155000Y-105792000D03*
X70155000Y-103192000D03*
X140215200Y-110026200D03*
X140215200Y-84626200D03*
X96926600Y-13648665D03*
X96926600Y-16248665D03*
X79140954Y-13648665D03*
X79140954Y-16248665D03*
X133742200Y-76721800D03*
X133742200Y-74121800D03*
X90715200Y-107226200D03*
X90715200Y-109826200D03*
X71516721Y-13648665D03*
X71516721Y-16248665D03*
X109811000Y-67861600D03*
X109811000Y-65261600D03*
X218440200Y-15964065D03*
X218440200Y-13364065D03*
X133659600Y-37448665D03*
X131059600Y-37448665D03*
X63923160Y-18748665D03*
X63923160Y-21348665D03*
X53767580Y-18748665D03*
X53767580Y-21348665D03*
X246045000Y-138523400D03*
X248585000Y-138523400D03*
X252806400Y-131741600D03*
X242646400Y-131741600D03*
X43612000Y-18748665D03*
X43612000Y-21348665D03*
X267920600Y-62074000D03*
X267920600Y-59474000D03*
X17597800Y-132148000D03*
X20197800Y-132148000D03*
X114659600Y-23948665D03*
X114659600Y-26548665D03*
X107059600Y-18748665D03*
X107059600Y-21348665D03*
X94465200Y-91226200D03*
X94465200Y-88626200D03*
X94459600Y-26548665D03*
X94459600Y-23948665D03*
X248920200Y-26717200D03*
X248920200Y-24117200D03*
X261671000Y-119067000D03*
X251511000Y-119067000D03*
X267932000Y-104185600D03*
X270472000Y-104185600D03*
X273012000Y-104185600D03*
X275552000Y-104185600D03*
X278092000Y-104185600D03*
X280632000Y-104185600D03*
X283172000Y-104185600D03*
X285712000Y-104185600D03*
X221357210Y-80663210D03*
X218757210Y-80663210D03*
X241300200Y-21383200D03*
X241300200Y-18783200D03*
M02*
