M48
METRIC,TZ
T1C0.400
T2C0.600
T3C0.700
T4C0.750
T5C0.800
T6C0.900
T7C0.920
T8C1.000
T9C1.020
T10C1.200
T11C1.500
T12C1.600
T13C2.330
T14C2.800
%
G90
G05
T1
X59670Y-49020
X86010Y-45020
X88020Y-40140
X92170Y-48020
X97970Y-42070
X98920Y-67770
X104640Y-51760
X119420Y-43970
X132020Y-23070
X174020Y-126070
X181570Y-48820
X183620Y-51220
X188748Y-126814
X193827Y-126840
X225970Y-59720
X229032Y-100728
X229920Y-80320
X242570Y-60020
X260020Y-62870
X263170Y-59820
X265570Y-62920
T2
X14967Y-54470
X16467Y-54470
X123270Y-112720
X124770Y-112720
T3
X31670Y-54520
X35670Y-54520
X38710Y-72194
X38710Y-82303
X39235Y-96019
X39235Y-100337
X39235Y-106636
X42170Y-134320
X42170Y-138520
X52121Y-126839
X54026Y-53220
X56591Y-126839
X59106Y-53220
X64186Y-53220
X72220Y-134520
X76670Y-134520
X80070Y-76270
X106170Y-134520
X110750Y-31480
X111640Y-134520
X129070Y-16300
X129070Y-21640
X132440Y-31670
X159280Y-13090
X161870Y-139720
X168421Y-137335
X168821Y-142735
X183040Y-35530
X186270Y-67420
X186270Y-72220
X186270Y-77920
X188021Y-142335
X188121Y-137135
X193820Y-31710
X193921Y-139735
X267132Y-102557
T4
X72500Y-51910
X73770Y-51910
X75040Y-51910
X155500Y-18510
X156770Y-18510
X158040Y-18510
T5
X13564Y-29303
X13564Y-39463
X18415Y-29303
X18415Y-39463
X26110Y-136120
X26190Y-142120
X36270Y-136120
X36350Y-142120
X41351Y-122841
X46351Y-122841
X84510Y-54870
X89002Y-106113
X94670Y-54870
X99162Y-106113
X119970Y-60500
X119970Y-63040
X119970Y-65580
X119970Y-68120
X119970Y-70660
X119970Y-73200
X119970Y-75740
X119970Y-78280
X119970Y-86180
X119970Y-88720
X119970Y-91260
X119970Y-93800
X119970Y-96340
X119970Y-98880
X119970Y-101420
X119970Y-103960
X127590Y-60500
X127590Y-63040
X127590Y-65580
X127590Y-68120
X127590Y-70660
X127590Y-73200
X127590Y-75740
X127590Y-78280
X127590Y-86180
X127590Y-88720
X127590Y-91260
X127590Y-93800
X127590Y-96340
X127590Y-98880
X127590Y-101420
X127590Y-103960
X137160Y-49440
X141790Y-41620
X142390Y-13670
X145822Y-106113
X147320Y-49440
X151950Y-41620
X152550Y-13670
X153670Y-78360
X153670Y-88520
X154090Y-49370
X155982Y-106113
X164250Y-49370
X234510Y-104620
X234610Y-62320
X234860Y-83270
X242130Y-104620
X242230Y-62320
X242480Y-83270
X274290Y-87970
X274340Y-92620
X284450Y-87970
X284500Y-92620
T6
X14270Y-126120
X14270Y-128720
X14670Y-58120
X14670Y-60720
X17470Y-126220
X17470Y-128820
X17870Y-58120
X17870Y-60720
X20570Y-126220
X20570Y-128820
X21070Y-58120
X21070Y-60720
X23670Y-126220
X23670Y-128820
X24270Y-58120
X24270Y-60720
X26970Y-126220
X26970Y-128820
X27470Y-58120
X27470Y-60720
X30170Y-126220
X30170Y-128820
X30670Y-58220
X30670Y-60820
X32500Y-19910
X32600Y-23480
X32600Y-26730
X33470Y-126220
X33470Y-128820
X33770Y-58220
X33770Y-60820
X35100Y-19910
X35200Y-23480
X35200Y-26730
X35630Y-38730
X35683Y-42334
X35700Y-35450
X38230Y-38730
X38283Y-42334
X38300Y-35450
X42170Y-74710
X42290Y-59510
X42290Y-62110
X42290Y-67210
X42290Y-69710
X42290Y-72210
X42290Y-79810
X42290Y-82410
X42290Y-85010
X42290Y-87510
X42290Y-92510
X42370Y-90020
X42590Y-100210
X43370Y-13610
X43370Y-16210
X43470Y-19029
X43470Y-21629
X43470Y-24363
X43470Y-26963
X43770Y-35520
X43770Y-38820
X43870Y-42320
X44770Y-74710
X44890Y-59510
X44890Y-62110
X44890Y-67210
X44890Y-69710
X44890Y-72210
X44890Y-79810
X44890Y-82410
X44890Y-85010
X44890Y-87510
X44890Y-92510
X44970Y-90020
X45190Y-100210
X46270Y-19029
X46270Y-21629
X46270Y-24363
X46270Y-26963
X46279Y-13610
X46279Y-16210
X46370Y-35520
X46370Y-38820
X46470Y-42320
X48770Y-24363
X48770Y-26963
X48819Y-13610
X48819Y-16210
X48819Y-19029
X48819Y-21629
X51126Y-32021
X51126Y-35196
X51151Y-41648
X51177Y-38422
X51227Y-44696
X51359Y-13610
X51359Y-16210
X51359Y-19029
X51359Y-21629
X51359Y-24363
X51359Y-26963
X51640Y-132380
X51640Y-134980
X53726Y-32021
X53726Y-35196
X53751Y-41648
X53777Y-38422
X53827Y-44696
X53899Y-13610
X53899Y-16210
X53899Y-19029
X53899Y-21629
X53899Y-24363
X53899Y-26963
X56439Y-13610
X56439Y-16210
X56439Y-19029
X56439Y-21629
X56439Y-24363
X56439Y-26963
X58979Y-13610
X58979Y-16210
X58979Y-19029
X58979Y-21629
X58979Y-24363
X58979Y-26963
X59070Y-132540
X59070Y-135140
X61519Y-13610
X61519Y-16210
X61519Y-19029
X61519Y-21629
X61519Y-24363
X61519Y-26963
X64059Y-13610
X64059Y-16210
X64059Y-19029
X64059Y-21629
X64059Y-24363
X64059Y-26963
X66599Y-13610
X66599Y-16210
X66599Y-19029
X66599Y-21629
X66599Y-24363
X66599Y-26963
X69139Y-19029
X69139Y-21629
X69139Y-24363
X69139Y-26963
X69270Y-13610
X69270Y-16210
X71679Y-13610
X71679Y-16210
X71679Y-19029
X71679Y-21629
X71679Y-24363
X71679Y-26963
X73370Y-69370
X73390Y-59510
X73390Y-62110
X73390Y-66020
X73390Y-72110
X73390Y-74810
X73390Y-79910
X73390Y-82410
X73390Y-84910
X73390Y-87510
X73390Y-92610
X73390Y-95110
X73390Y-97710
X73390Y-100210
X73390Y-104740
X73390Y-107810
X74219Y-19029
X74219Y-21629
X74270Y-13642
X74270Y-16242
X75970Y-69370
X75990Y-59510
X75990Y-62110
X75990Y-66020
X75990Y-72110
X75990Y-74810
X75990Y-79910
X75990Y-82410
X75990Y-84910
X75990Y-87510
X75990Y-92610
X75990Y-95110
X75990Y-97710
X75990Y-100210
X75990Y-104740
X75990Y-107810
X77521Y-13610
X77521Y-16210
X77521Y-19029
X77521Y-21629
X77521Y-24363
X77521Y-26963
X80569Y-13610
X80569Y-16210
X80569Y-19029
X80569Y-21629
X80569Y-24363
X80569Y-26963
X84125Y-19029
X84125Y-21629
X84125Y-24363
X84125Y-26963
X84379Y-13610
X84379Y-16210
X86919Y-13610
X86919Y-16210
X86919Y-19029
X86919Y-21629
X87732Y-136433
X88430Y-35430
X88430Y-38030
X89002Y-133893
X89459Y-13610
X89459Y-16210
X89459Y-19029
X89459Y-21629
X90272Y-136433
X91542Y-133893
X92253Y-13610
X92253Y-16210
X92253Y-18981
X92253Y-21581
X92570Y-51020
X92812Y-136433
X94082Y-133893
X94539Y-13610
X94539Y-16210
X94539Y-19029
X94539Y-21629
X94539Y-24363
X94539Y-26963
X94710Y-35430
X94710Y-38030
X95170Y-51020
X95352Y-136433
X96622Y-133893
X97079Y-13610
X97079Y-16210
X97079Y-19029
X97079Y-21629
X97079Y-24363
X97079Y-26963
X97720Y-35430
X97720Y-38030
X99619Y-13610
X99619Y-16210
X99619Y-19029
X99619Y-21629
X99619Y-24363
X99619Y-26963
X100880Y-35430
X100880Y-38030
X100914Y-111930
X102159Y-13610
X102159Y-16210
X102159Y-19029
X102159Y-21629
X102159Y-24363
X102159Y-26963
X103454Y-111930
X104217Y-35430
X104217Y-38030
X104699Y-13610
X104699Y-16210
X104699Y-19029
X104699Y-21629
X104699Y-24363
X104699Y-26963
X105840Y-60410
X105840Y-63230
X105840Y-66290
X107239Y-13610
X107239Y-16210
X107239Y-19029
X107239Y-21629
X107239Y-24363
X107239Y-26963
X107360Y-35430
X107360Y-38030
X108440Y-60410
X108440Y-63230
X108440Y-66290
X109779Y-13610
X109779Y-16210
X109779Y-19029
X109779Y-21629
X109779Y-24363
X109779Y-26963
X110470Y-35430
X110470Y-38030
X110780Y-68930
X110780Y-71500
X110780Y-74280
X110780Y-77200
X111770Y-86180
X111770Y-88780
X111770Y-91280
X111770Y-93780
X111770Y-96380
X111770Y-98880
X111770Y-101380
X112319Y-13610
X112319Y-16210
X112319Y-19029
X112319Y-21629
X112319Y-24363
X112319Y-26963
X113380Y-68930
X113380Y-71500
X113380Y-74280
X113380Y-77200
X113580Y-35430
X113580Y-38030
X114370Y-86180
X114370Y-88780
X114370Y-91280
X114370Y-93780
X114370Y-96380
X114370Y-98880
X114370Y-101380
X114859Y-13610
X114859Y-16210
X114859Y-19029
X114859Y-21629
X114859Y-24363
X114859Y-26963
X116700Y-35430
X116700Y-38030
X117399Y-13610
X117399Y-16210
X117399Y-19029
X117399Y-21629
X117399Y-24363
X117399Y-26963
X119604Y-35425
X119939Y-13610
X119939Y-16210
X119939Y-19029
X119939Y-21629
X119939Y-24363
X119939Y-26963
X119980Y-47170
X122204Y-35425
X122479Y-13610
X122479Y-16210
X122479Y-19029
X122479Y-21629
X122479Y-24363
X122479Y-26963
X122580Y-47170
X127915Y-55872
X130515Y-55872
X132570Y-86180
X132570Y-88780
X132570Y-91280
X132570Y-93880
X132570Y-96280
X132570Y-98880
X132570Y-101480
X132600Y-60490
X132600Y-62990
X132600Y-65590
X132600Y-68090
X132600Y-70690
X132600Y-73190
X132600Y-75790
X135170Y-86180
X135170Y-88780
X135170Y-91280
X135170Y-93880
X135170Y-96280
X135170Y-98880
X135170Y-101480
X135200Y-60490
X135200Y-62990
X135200Y-65590
X135200Y-68090
X135200Y-70690
X135200Y-73190
X135200Y-75790
X141020Y-37170
X143345Y-111930
X143620Y-37170
X145885Y-111930
X157120Y-55796
X159720Y-55796
X161170Y-34320
X163640Y-13060
X163700Y-23110
X163750Y-16450
X163770Y-34320
X165520Y-107970
X165520Y-111470
X166240Y-13060
X166300Y-23110
X166350Y-16450
X166590Y-88511
X166590Y-94571
X167370Y-72320
X168120Y-107970
X168120Y-111470
X168170Y-117020
X169060Y-16490
X169090Y-23110
X169140Y-26410
X169160Y-19750
X169190Y-88511
X169190Y-94571
X169970Y-72320
X170770Y-117020
X171660Y-16490
X171690Y-23110
X171740Y-26410
X171760Y-19750
X177597Y-24220
X177597Y-26820
X177610Y-13920
X177610Y-16520
X177622Y-19020
X177622Y-21620
X180140Y-13920
X180140Y-16520
X180161Y-19020
X180161Y-21620
X182570Y-19020
X182570Y-21620
X182654Y-13920
X182654Y-16520
X185196Y-13920
X185196Y-16520
X185270Y-19020
X185270Y-21620
X185720Y-121759
X186470Y-86120
X186470Y-88720
X186520Y-91520
X186520Y-94120
X186670Y-104520
X186670Y-107120
X186670Y-109720
X186670Y-112320
X187031Y-115045
X187031Y-117645
X187737Y-13920
X187737Y-16520
X187757Y-24220
X187757Y-26820
X187778Y-19020
X187778Y-21620
X188320Y-121759
X189870Y-104420
X189870Y-107020
X189870Y-109720
X189870Y-112320
X189870Y-115020
X189870Y-117620
X190270Y-66820
X190270Y-69420
X190279Y-13920
X190279Y-16520
X190297Y-24220
X190297Y-26820
X190317Y-19020
X190317Y-21620
X190370Y-72220
X190370Y-74820
X190670Y-90220
X190670Y-92820
X190770Y-85220
X190770Y-87820
X190770Y-95020
X190770Y-97620
X192860Y-13920
X192860Y-16520
X192870Y-19020
X192870Y-21620
X192870Y-24220
X192870Y-26820
X192970Y-37920
X192970Y-41120
X192970Y-44620
X192970Y-48220
X195361Y-13920
X195361Y-16520
X195395Y-19020
X195395Y-21620
X195400Y-24220
X195400Y-26820
X195570Y-37920
X195570Y-41120
X195570Y-44620
X195570Y-48220
X197903Y-13920
X197903Y-16520
X197934Y-19020
X197934Y-21620
X197970Y-24220
X197970Y-26820
X199470Y-121820
X200370Y-41420
X200370Y-45020
X200444Y-13920
X200444Y-16520
X200472Y-19020
X200472Y-21620
X200570Y-24220
X200570Y-26820
X200570Y-37920
X202070Y-121820
X202970Y-41420
X202970Y-45020
X202986Y-13920
X202986Y-16520
X202997Y-24220
X202997Y-26820
X203011Y-19020
X203011Y-21620
X203170Y-37920
X205527Y-13920
X205527Y-16520
X205537Y-24220
X205537Y-26820
X205550Y-19020
X205550Y-21620
X206070Y-65720
X206070Y-68320
X206070Y-72320
X206070Y-74920
X206270Y-95520
X206270Y-98120
X206420Y-90320
X206420Y-92920
X206520Y-85120
X206520Y-87720
X207170Y-37920
X207170Y-41420
X207170Y-45020
X207170Y-109870
X207170Y-112470
X207170Y-117920
X207170Y-120520
X208069Y-13920
X208069Y-16520
X208077Y-19020
X208077Y-21620
X208077Y-24220
X208077Y-26820
X209770Y-37920
X209770Y-41420
X209770Y-45020
X209810Y-88850
X209810Y-91450
X210070Y-66820
X210070Y-69420
X210170Y-71720
X210170Y-74320
X210270Y-76520
X210270Y-79120
X210610Y-13920
X210610Y-16520
X210628Y-19020
X210628Y-21620
X210670Y-24220
X210670Y-26820
X210670Y-114020
X210670Y-116620
X210970Y-103220
X210970Y-105820
X210970Y-108120
X210970Y-110720
X213151Y-13920
X213151Y-16520
X213157Y-24220
X213157Y-26820
X213167Y-19020
X213167Y-21620
X213770Y-44920
X213870Y-37820
X213870Y-41320
X215693Y-13920
X215693Y-16520
X215697Y-24220
X215697Y-26820
X215706Y-19020
X215706Y-21620
X216370Y-44920
X216470Y-37820
X216470Y-41320
X218234Y-13920
X218234Y-16520
X218245Y-19020
X218245Y-21620
X218364Y-24220
X218364Y-26820
X219270Y-120520
X219270Y-123120
X219870Y-101420
X220570Y-37820
X220670Y-41420
X220670Y-44920
X220776Y-13920
X220776Y-16520
X220780Y-48550
X220784Y-19020
X220784Y-21620
X220850Y-51630
X220904Y-24220
X220904Y-26820
X222470Y-101420
X223170Y-37820
X223270Y-41420
X223270Y-44920
X223317Y-13920
X223317Y-16520
X223323Y-19020
X223323Y-21620
X223370Y-24220
X223370Y-26820
X223380Y-48550
X223450Y-51630
X225857Y-13920
X225857Y-16520
X225857Y-24220
X225857Y-26820
X225861Y-19020
X225861Y-21620
X226170Y-108920
X226170Y-111520
X226470Y-67320
X226470Y-69920
X226570Y-72370
X226570Y-74970
X228397Y-13920
X228397Y-16520
X228400Y-19020
X228400Y-21620
X228470Y-24220
X228470Y-26820
X228870Y-34320
X228870Y-37820
X228970Y-44820
X228970Y-48220
X229670Y-109620
X229670Y-112220
X230310Y-115120
X230310Y-117720
X230360Y-120520
X230360Y-123120
X230620Y-89070
X230620Y-91670
X230937Y-13920
X230937Y-16520
X230939Y-19020
X230939Y-21620
X231070Y-24220
X231070Y-26820
X231110Y-69560
X231110Y-72160
X231170Y-74680
X231170Y-77280
X231470Y-34320
X231470Y-37820
X231570Y-44820
X231570Y-48220
X233477Y-13920
X233477Y-16520
X233478Y-19020
X233478Y-21620
X233570Y-24220
X233570Y-26820
X235170Y-41420
X236017Y-13920
X236017Y-16520
X236017Y-19020
X236017Y-21620
X236070Y-24220
X236070Y-26820
X237770Y-41420
X238470Y-19020
X238470Y-21620
X238470Y-24220
X238470Y-26820
X238470Y-51020
X238570Y-13920
X238570Y-16520
X241050Y-13920
X241050Y-16520
X241070Y-19020
X241070Y-21620
X241070Y-51020
X241170Y-24220
X241170Y-26820
X242070Y-37920
X242170Y-41520
X242170Y-45020
X243570Y-24220
X243570Y-26820
X243658Y-13920
X243658Y-16520
X243670Y-19020
X243670Y-21620
X244670Y-37920
X244770Y-41520
X244770Y-45020
X245660Y-104920
X246170Y-13920
X246170Y-16520
X246177Y-19020
X246177Y-21620
X246270Y-24220
X246270Y-26820
X246710Y-110320
X246710Y-112920
X246770Y-116620
X246770Y-119220
X247320Y-83370
X247510Y-72340
X247510Y-74940
X247549Y-67370
X247549Y-69970
X247820Y-89070
X247820Y-91670
X247920Y-95020
X247920Y-97620
X248260Y-104920
X248670Y-24220
X248670Y-26820
X248770Y-13920
X248770Y-16520
X248770Y-19020
X248770Y-21620
X249120Y-62270
X249370Y-37820
X249370Y-41420
X249370Y-44920
X249920Y-83370
X250670Y-67420
X250670Y-70020
X251020Y-97420
X251020Y-100020
X251070Y-74520
X251070Y-77120
X251100Y-88920
X251100Y-91520
X251170Y-116770
X251170Y-119370
X251220Y-110220
X251220Y-112820
X251370Y-13920
X251370Y-16520
X251370Y-19020
X251370Y-21620
X251370Y-24220
X251370Y-26820
X251720Y-62270
X251970Y-37820
X251970Y-41420
X251970Y-44920
X253870Y-13920
X253870Y-16520
X253970Y-19020
X253970Y-21620
X253970Y-24220
X253970Y-26820
X256180Y-104462
X256370Y-13920
X256370Y-16520
X256470Y-19020
X256470Y-21620
X256570Y-24220
X256570Y-26820
X256670Y-37720
X256770Y-41320
X256870Y-44820
X258780Y-104462
X259270Y-37720
X259370Y-41320
X259470Y-44820
X264970Y-41320
X265070Y-37720
X265070Y-44820
X266420Y-74370
X266420Y-76970
X267200Y-96030
X267200Y-98630
X267370Y-82320
X267370Y-84920
X267470Y-88620
X267470Y-91220
X267570Y-41320
X267670Y-37720
X267670Y-44820
X268370Y-115120
X268370Y-117720
X271870Y-67630
X271870Y-70230
X271920Y-72630
X271920Y-75230
X275950Y-19440
X275950Y-24520
X275950Y-27060
X275950Y-32140
X275950Y-37220
X275950Y-39760
X275950Y-42300
X275950Y-44840
X276010Y-21980
X276010Y-29600
X276010Y-34680
X278550Y-19440
X278550Y-24520
X278550Y-27060
X278550Y-32140
X278550Y-37220
X278550Y-39760
X278550Y-42300
X278550Y-44840
X278610Y-21980
X278610Y-29600
X278610Y-34680
X286170Y-19440
X286170Y-24520
X286170Y-27060
X286230Y-21980
X286230Y-29600
X286230Y-32140
X287720Y-67530
X287720Y-70130
X287771Y-75380
X287771Y-77980
X288770Y-19440
X288770Y-24520
X288770Y-27060
X288830Y-21980
X288830Y-29600
X288830Y-32140
T7
X51930Y-140310
X54430Y-140310
X56430Y-140310
X58930Y-140310
T8
X14910Y-64600
X14910Y-121800
X17450Y-64600
X17450Y-121800
X19990Y-64600
X19990Y-121800
X22530Y-64600
X22530Y-121800
X25070Y-64600
X25070Y-121800
X27610Y-64600
X27610Y-121800
X30150Y-64600
X30150Y-121800
X32690Y-64600
X32690Y-121800
X43612Y-5165
X43612Y-7705
X43612Y-10245
X46152Y-5165
X46152Y-7705
X46152Y-10245
X48692Y-5165
X48692Y-7705
X48692Y-10245
X51232Y-5165
X51232Y-7705
X51232Y-10245
X53772Y-5165
X53772Y-7705
X53772Y-10245
X56312Y-5165
X56312Y-7705
X56312Y-10245
X58852Y-5165
X58852Y-7705
X58852Y-10245
X61392Y-5165
X61392Y-7705
X61392Y-10245
X63932Y-5165
X63932Y-7705
X63932Y-10245
X66472Y-5165
X66472Y-7705
X66472Y-10245
X69012Y-5165
X69012Y-7705
X69012Y-10245
X71552Y-5165
X71552Y-7705
X71552Y-10245
X74092Y-5165
X74092Y-7705
X74092Y-10245
X76632Y-5165
X76632Y-7705
X76632Y-10245
X79172Y-5165
X79172Y-7705
X79172Y-10245
X81712Y-5165
X81712Y-7705
X81712Y-10245
X84252Y-5165
X84252Y-7705
X84252Y-10245
X86792Y-5165
X86792Y-7705
X86792Y-10245
X89332Y-5165
X89332Y-7705
X89332Y-10245
X91872Y-5165
X91872Y-7705
X91872Y-10245
X94412Y-5165
X94412Y-7705
X94412Y-10245
X96952Y-5165
X96952Y-7705
X96952Y-10245
X99492Y-5165
X99492Y-7705
X99492Y-10245
X102032Y-5165
X102032Y-7705
X102032Y-10245
X104572Y-5165
X104572Y-7705
X104572Y-10245
X107112Y-5165
X107112Y-7705
X107112Y-10245
X109652Y-5165
X109652Y-7705
X109652Y-10245
X112192Y-5165
X112192Y-7705
X112192Y-10245
X114732Y-5165
X114732Y-7705
X114732Y-10245
X117272Y-5165
X117272Y-7705
X117272Y-10245
X119812Y-5165
X119812Y-7705
X119812Y-10245
X122352Y-5165
X122352Y-7705
X122352Y-10245
X174331Y-134645
X174331Y-137185
X174331Y-139725
X174331Y-142265
X174331Y-144805
X174870Y-67320
X174870Y-69860
X174870Y-72400
X174870Y-74940
X174870Y-77480
X174870Y-86320
X174870Y-88860
X174870Y-91400
X174870Y-93940
X174870Y-96480
X174870Y-106320
X174870Y-108860
X174870Y-111400
X174870Y-113940
X174870Y-116480
X177648Y-5165
X177648Y-7705
X177648Y-10245
X180188Y-5165
X180188Y-7705
X180188Y-10245
X181951Y-134645
X181951Y-137185
X181951Y-139725
X181951Y-142265
X181951Y-144805
X182490Y-67320
X182490Y-69860
X182490Y-72400
X182490Y-74940
X182490Y-77480
X182490Y-86320
X182490Y-88860
X182490Y-91400
X182490Y-93940
X182490Y-96480
X182490Y-106320
X182490Y-108860
X182490Y-111400
X182490Y-113940
X182490Y-116480
X182728Y-5165
X182728Y-7705
X182728Y-10245
X185268Y-5165
X185268Y-7705
X185268Y-10245
X187808Y-5165
X187808Y-7705
X187808Y-10245
X190348Y-5165
X190348Y-7705
X190348Y-10245
X192888Y-5165
X192888Y-7705
X192888Y-10245
X194670Y-67320
X194670Y-69860
X194670Y-72400
X194670Y-74940
X194670Y-77480
X194870Y-86320
X194870Y-88860
X194870Y-91400
X194870Y-93940
X194870Y-96480
X194870Y-106320
X194870Y-108860
X194870Y-111400
X194870Y-113940
X194870Y-116480
X195428Y-5165
X195428Y-7705
X195428Y-10245
X197968Y-5165
X197968Y-7705
X197968Y-10245
X200508Y-5165
X200508Y-7705
X200508Y-10245
X202290Y-67320
X202290Y-69860
X202290Y-72400
X202290Y-74940
X202290Y-77480
X202490Y-86320
X202490Y-88860
X202490Y-91400
X202490Y-93940
X202490Y-96480
X202490Y-106320
X202490Y-108860
X202490Y-111400
X202490Y-113940
X202490Y-116480
X203048Y-5165
X203048Y-7705
X203048Y-10245
X205588Y-5165
X205588Y-7705
X205588Y-10245
X208128Y-5165
X208128Y-7705
X208128Y-10245
X210668Y-5165
X210668Y-7705
X210668Y-10245
X213208Y-5165
X213208Y-7705
X213208Y-10245
X214870Y-67320
X214870Y-69860
X214870Y-72400
X214870Y-74940
X214870Y-77480
X214870Y-86320
X214870Y-88860
X214870Y-91400
X214870Y-93940
X214870Y-96480
X214870Y-106320
X214870Y-108860
X214870Y-111400
X214870Y-113940
X214870Y-116480
X215748Y-5165
X215748Y-7705
X215748Y-10245
X218288Y-5165
X218288Y-7705
X218288Y-10245
X220828Y-5165
X220828Y-7705
X220828Y-10245
X222490Y-67320
X222490Y-69860
X222490Y-72400
X222490Y-74940
X222490Y-77480
X222490Y-86320
X222490Y-88860
X222490Y-91400
X222490Y-93940
X222490Y-96480
X222490Y-106320
X222490Y-108860
X222490Y-111400
X222490Y-113940
X222490Y-116480
X223368Y-5165
X223368Y-7705
X223368Y-10245
X225908Y-5165
X225908Y-7705
X225908Y-10245
X228448Y-5165
X228448Y-7705
X228448Y-10245
X230988Y-5165
X230988Y-7705
X230988Y-10245
X233528Y-5165
X233528Y-7705
X233528Y-10245
X234870Y-67320
X234870Y-69860
X234870Y-72400
X234870Y-74940
X234870Y-77480
X234910Y-109920
X234910Y-112460
X234910Y-115000
X234910Y-117540
X234910Y-120080
X234920Y-88770
X234920Y-91310
X234920Y-93850
X234920Y-96390
X234920Y-98930
X236068Y-5165
X236068Y-7705
X236068Y-10245
X238608Y-5165
X238608Y-7705
X238608Y-10245
X241148Y-5165
X241148Y-7705
X241148Y-10245
X242490Y-67320
X242490Y-69860
X242490Y-72400
X242490Y-74940
X242490Y-77480
X242530Y-109920
X242530Y-112460
X242530Y-115000
X242530Y-117540
X242530Y-120080
X242540Y-88770
X242540Y-91310
X242540Y-93850
X242540Y-96390
X242540Y-98930
X243688Y-5165
X243688Y-7705
X243688Y-10245
X246228Y-5165
X246228Y-7705
X246228Y-10245
X248768Y-5165
X248768Y-7705
X248768Y-10245
X251308Y-5165
X251308Y-7705
X251308Y-10245
X253848Y-5165
X253848Y-7705
X253848Y-10245
X254800Y-88930
X254800Y-91470
X254800Y-94010
X254800Y-96550
X254800Y-99090
X254870Y-67320
X254870Y-69860
X254870Y-72400
X254870Y-74940
X254870Y-77480
X255550Y-109790
X255550Y-112330
X255550Y-114870
X255550Y-117410
X255550Y-119950
X256388Y-5165
X256388Y-7705
X256388Y-10245
X262420Y-88930
X262420Y-91470
X262420Y-94010
X262420Y-96550
X262420Y-99090
X262490Y-67320
X262490Y-69860
X262490Y-72400
X262490Y-74940
X262490Y-77480
X263170Y-109790
X263170Y-112330
X263170Y-114870
X263170Y-117410
X263170Y-119950
X276170Y-67320
X276170Y-69860
X276170Y-72400
X276170Y-74940
X276170Y-77480
X283790Y-67320
X283790Y-69860
X283790Y-72400
X283790Y-74940
X283790Y-77480
T9
X50025Y-59600
X50025Y-62140
X50025Y-64680
X50025Y-67220
X50025Y-69760
X50025Y-72300
X50025Y-74840
X50025Y-77380
X50025Y-79920
X50025Y-82460
X50025Y-85000
X50025Y-87540
X50025Y-90080
X50025Y-92620
X50025Y-95160
X50025Y-97700
X50025Y-100240
X50025Y-102780
X50025Y-105320
X50025Y-107860
X56375Y-59830
X58915Y-59830
X61455Y-59830
X67805Y-59600
X67805Y-62140
X67805Y-64680
X67805Y-67220
X67805Y-69760
X67805Y-72300
X67805Y-74840
X67805Y-77380
X67805Y-79920
X67805Y-82460
X67805Y-85000
X67805Y-87540
X67805Y-90080
X67805Y-92620
X67805Y-95160
X67805Y-97700
X67805Y-100240
X67805Y-102780
X67805Y-105320
X67805Y-107860
T10
X26035Y-9796
X26035Y-35196
X160670Y-71520
X160670Y-96920
T11
X78893Y-111803
X121184Y-41267
X124770Y-132320
X131013Y-116603
T12
X84152Y-140033
X84262Y-145833
X100092Y-145833
X100202Y-140033
T13
X48860Y-143310
X62000Y-143310
T14
X38532Y-2625
X127432Y-2625
X172568Y-2625
X261468Y-2625
T0
M30
