M48
METRIC,TZ
T1C0.400
T2C0.700
T3C0.800
T4C0.900
T5C0.920
T6C1.000
T7C1.020
T8C1.200
T9C1.500
T10C1.600
T11C2.330
T12C2.800
%
G90
G05
T1
X44984Y-122979
X56210Y-56939
X59944Y-51325
X63322Y-43756
X64313Y-46931
X67818Y-53877
X69977Y-72814
X70085Y-50506
X71044Y-59592
X71298Y-49598
X74575Y-49623
X89834Y-53842
X114681Y-76928
X164491Y-71645
X173558Y-50157
X196901Y-50995
X203048Y-49268
X207086Y-59987
X210261Y-56786
X213221Y-43813
X214021Y-45775
X214820Y-44176
X221260Y-26890
X221463Y-30396
X223800Y-47515
X261925Y-104462
X262941Y-101922
X263373Y-28770
X264338Y-78173
X264592Y-80662
X265405Y-25620
X267259Y-71315
T2
X25270Y-12819
X27923Y-139564
X33724Y-142164
X33823Y-136964
X53024Y-136564
X53391Y-36009
X53391Y-41089
X53424Y-141964
X56947Y-139641
X114707Y-115917
X184329Y-120414
X191313Y-120337
X202387Y-137279
X202387Y-141775
X215062Y-74617
X215177Y-70447
X215702Y-98590
X215702Y-104889
X218821Y-125011
X219888Y-94937
X223952Y-125011
X230391Y-53827
X235471Y-53827
X240551Y-53827
X244811Y-30294
X259639Y-26230
X263131Y-16054
X263131Y-21394
X272923Y-121175
X274752Y-48455
X277292Y-121226
X280289Y-51681
T3
X13513Y-27322
X13513Y-37482
X16256Y-96817
X16306Y-101467
X21057Y-37050
X21133Y-28897
X21641Y-47693
X26416Y-96817
X26466Y-101467
X31217Y-37050
X31293Y-28897
X31801Y-47693
X43079Y-50055
X45619Y-50055
X48159Y-50055
X58405Y-98276
X58420Y-119778
X58755Y-76926
X66025Y-98276
X66040Y-119778
X66375Y-76926
X145125Y-115384
X147215Y-93026
X147215Y-103186
X147625Y-115384
X157988Y-35709
X159004Y-130599
X160427Y-17391
X160427Y-27551
X160528Y-35709
X163068Y-35709
X169164Y-130599
X178816Y-92372
X178816Y-94912
X178816Y-97452
X178816Y-99992
X178816Y-102532
X178816Y-105072
X178816Y-107612
X178816Y-110152
X178969Y-63492
X178969Y-66032
X178969Y-68572
X178969Y-71112
X178969Y-73652
X178969Y-76192
X178969Y-78732
X178969Y-81272
X186436Y-92372
X186436Y-94912
X186436Y-97452
X186436Y-99992
X186436Y-102532
X186436Y-105072
X186436Y-107612
X186436Y-110152
X186589Y-63492
X186589Y-66032
X186589Y-68572
X186589Y-71112
X186589Y-73652
X186589Y-76192
X186589Y-78732
X186589Y-81272
X201854Y-81221
X201854Y-91381
X213665Y-81348
X213665Y-91508
X226111Y-116019
X231111Y-116019
X242646Y-131742
X251511Y-119067
X251511Y-123766
X252806Y-131742
X261671Y-119067
X261671Y-123766
X264379Y-36771
X266879Y-36771
T4
X19549Y-112768
X19549Y-117848
X19549Y-120388
X19609Y-115308
X19609Y-122928
X19634Y-127424
X19634Y-132504
X19634Y-135044
X19634Y-137584
X19634Y-140124
X19694Y-129964
X21179Y-33190
X21179Y-41953
X22149Y-112768
X22149Y-117848
X22149Y-120388
X22209Y-115308
X22209Y-122928
X22234Y-127424
X22234Y-132504
X22234Y-135044
X22234Y-137584
X22234Y-140124
X22294Y-129964
X23779Y-33190
X23779Y-41953
X29630Y-12789
X29690Y-22839
X29740Y-16179
X32230Y-12789
X32290Y-22839
X32340Y-16179
X32515Y-63826
X32515Y-66426
X33515Y-96626
X33515Y-99226
X33685Y-82916
X33685Y-85516
X33782Y-87668
X33782Y-90268
X34465Y-104576
X34465Y-107176
X35050Y-16219
X35080Y-22839
X35130Y-26139
X35150Y-19479
X37650Y-16219
X37680Y-22839
X37730Y-26139
X37750Y-19479
X43587Y-23949
X43587Y-26549
X43600Y-13649
X43600Y-16249
X43612Y-18749
X43612Y-21349
X46130Y-13649
X46130Y-16249
X46151Y-18749
X46151Y-21349
X48560Y-18749
X48560Y-21349
X48644Y-13649
X48644Y-16249
X49165Y-119276
X49665Y-68726
X49665Y-71326
X49715Y-62176
X49715Y-64776
X49785Y-90026
X49785Y-92626
X49815Y-104426
X49815Y-107026
X49865Y-81526
X49865Y-84126
X50215Y-111526
X50215Y-114126
X50965Y-98176
X51185Y-13649
X51185Y-16249
X51260Y-18749
X51260Y-21349
X51765Y-119276
X52625Y-76626
X53565Y-98176
X53727Y-13649
X53727Y-16249
X53747Y-23949
X53747Y-26549
X53768Y-18749
X53768Y-21349
X54255Y-112717
X54255Y-115317
X54280Y-102502
X54280Y-105102
X54280Y-107531
X54280Y-110131
X54338Y-61011
X54338Y-63611
X54661Y-87287
X54661Y-89887
X55225Y-76626
X56268Y-13649
X56268Y-16249
X56287Y-23949
X56287Y-26549
X56306Y-18749
X56306Y-21349
X58850Y-13649
X58850Y-16249
X58860Y-18749
X58860Y-21349
X58860Y-23949
X58860Y-26549
X58960Y-37649
X58960Y-40849
X58960Y-44349
X58960Y-47949
X61307Y-54145
X61351Y-13649
X61351Y-16249
X61384Y-18749
X61384Y-21349
X61390Y-23949
X61390Y-26549
X61560Y-37649
X61560Y-40849
X61560Y-44349
X61560Y-47949
X63892Y-13649
X63892Y-16249
X63907Y-54145
X63923Y-18749
X63923Y-21349
X63960Y-23949
X63960Y-26549
X66360Y-41149
X66360Y-44749
X66434Y-13649
X66434Y-16249
X66462Y-18749
X66462Y-21349
X66560Y-23949
X66560Y-26549
X66560Y-37649
X68960Y-41149
X68960Y-44749
X68975Y-13649
X68975Y-16249
X68987Y-23949
X68987Y-26549
X69001Y-18749
X69001Y-21349
X69160Y-37649
X69828Y-88398
X69828Y-90998
X69828Y-93298
X69828Y-95898
X70128Y-82498
X70128Y-85098
X70155Y-103192
X70155Y-105792
X70155Y-108492
X70155Y-111092
X70155Y-113792
X70155Y-116392
X70180Y-66510
X70180Y-69110
X70206Y-60998
X70206Y-63598
X71517Y-13649
X71517Y-16249
X71527Y-23949
X71527Y-26549
X71540Y-18749
X71540Y-21349
X73160Y-37649
X73160Y-41149
X73160Y-44749
X74058Y-13649
X74058Y-16249
X74067Y-18749
X74067Y-21349
X74067Y-23949
X74067Y-26549
X74168Y-119266
X74168Y-121866
X74315Y-106576
X74315Y-109176
X74422Y-64960
X74422Y-67560
X74448Y-72458
X74448Y-75058
X75760Y-37649
X75760Y-41149
X75760Y-44749
X76600Y-13649
X76600Y-16249
X76618Y-18749
X76618Y-21349
X76660Y-23949
X76660Y-26549
X78304Y-80586
X79141Y-13649
X79141Y-16249
X79147Y-23949
X79147Y-26549
X79157Y-18749
X79157Y-21349
X79760Y-44649
X79860Y-37549
X79860Y-41049
X80904Y-80586
X81682Y-13649
X81682Y-16249
X81687Y-23949
X81687Y-26549
X81695Y-18749
X81695Y-21349
X82360Y-44649
X82460Y-37549
X82460Y-41049
X83684Y-59961
X84224Y-13649
X84224Y-16249
X84234Y-18749
X84234Y-21349
X84354Y-23949
X84354Y-26549
X86284Y-59961
X86560Y-37549
X86660Y-41149
X86660Y-44649
X86765Y-13649
X86765Y-16249
X86770Y-48279
X86773Y-18749
X86773Y-21349
X86840Y-51359
X86894Y-23949
X86894Y-26549
X89160Y-37549
X89260Y-41149
X89260Y-44649
X89307Y-13649
X89307Y-16249
X89312Y-18749
X89312Y-21349
X89360Y-23949
X89360Y-26549
X89370Y-48279
X89440Y-51359
X90615Y-102426
X90615Y-105026
X90715Y-107226
X90715Y-109826
X90780Y-70858
X90780Y-73458
X90815Y-112126
X90815Y-114726
X90851Y-64635
X90877Y-67556
X91075Y-90096
X91075Y-92696
X91847Y-13649
X91847Y-16249
X91847Y-23949
X91847Y-26549
X91851Y-18749
X91851Y-21349
X93451Y-64635
X93477Y-67556
X94365Y-93826
X94365Y-96426
X94387Y-13649
X94387Y-16249
X94390Y-18749
X94390Y-21349
X94460Y-23949
X94460Y-26549
X94465Y-88626
X94465Y-91226
X94615Y-83426
X94615Y-86026
X94815Y-106626
X94815Y-109226
X94860Y-34049
X94860Y-37549
X94960Y-44549
X94960Y-47949
X96927Y-13649
X96927Y-16249
X96929Y-18749
X96929Y-21349
X97060Y-23949
X97060Y-26549
X97460Y-34049
X97460Y-37549
X97560Y-44549
X97560Y-47949
X98370Y-60114
X99467Y-13649
X99467Y-16249
X99468Y-18749
X99468Y-21349
X99560Y-23949
X99560Y-26549
X100970Y-60114
X101011Y-123004
X101160Y-41149
X102007Y-13649
X102007Y-16249
X102007Y-18749
X102007Y-21349
X102060Y-23949
X102060Y-26549
X103611Y-123004
X103760Y-41149
X104460Y-18749
X104460Y-21349
X104460Y-23949
X104460Y-26549
X104460Y-50749
X104560Y-13649
X104560Y-16249
X106676Y-123004
X107040Y-13649
X107040Y-16249
X107060Y-18749
X107060Y-21349
X107060Y-50749
X107160Y-23949
X107160Y-26549
X108060Y-37649
X108160Y-41249
X108160Y-44749
X109276Y-123004
X109560Y-23949
X109560Y-26549
X109648Y-13649
X109648Y-16249
X109660Y-18749
X109660Y-21349
X109811Y-65262
X109811Y-67862
X109871Y-70382
X109871Y-72982
X110115Y-83926
X110115Y-86526
X110115Y-93726
X110115Y-96326
X110215Y-88726
X110215Y-91326
X110515Y-106726
X110515Y-109326
X110660Y-37649
X110760Y-41249
X110760Y-44749
X112160Y-13649
X112160Y-16249
X112167Y-18749
X112167Y-21349
X112260Y-23949
X112260Y-26549
X113741Y-65316
X113741Y-67916
X113741Y-70299
X113741Y-72899
X113970Y-102654
X113970Y-105254
X114072Y-107861
X114072Y-110461
X114415Y-92826
X114415Y-95426
X114575Y-122598
X114660Y-23949
X114660Y-26549
X114681Y-82613
X114681Y-85213
X114760Y-13649
X114760Y-16249
X114760Y-18749
X114760Y-21349
X115360Y-37549
X115360Y-41149
X115360Y-44649
X117175Y-122598
X117360Y-13649
X117360Y-16249
X117360Y-18749
X117360Y-21349
X117360Y-23949
X117360Y-26549
X117960Y-37549
X117960Y-41149
X117960Y-44649
X119172Y-60368
X119860Y-13649
X119860Y-16249
X119960Y-18749
X119960Y-21349
X119960Y-23949
X119960Y-26549
X121772Y-60368
X122360Y-13649
X122360Y-16249
X122460Y-18749
X122460Y-21349
X122560Y-23949
X122560Y-26549
X122660Y-37449
X122760Y-41049
X122860Y-44549
X125260Y-37449
X125360Y-41049
X125460Y-44549
X129667Y-63995
X129667Y-66595
X129794Y-68897
X129794Y-71497
X130915Y-109226
X130960Y-41049
X131060Y-37449
X131060Y-44549
X131696Y-86975
X131696Y-93035
X133382Y-63597
X133382Y-66197
X133515Y-109226
X133560Y-41049
X133660Y-37449
X133660Y-44549
X133742Y-68922
X133742Y-71522
X133742Y-74122
X133742Y-76722
X134296Y-86975
X134296Y-93035
X138578Y-49369
X141178Y-49369
X149642Y-64222
X152192Y-82212
X152242Y-64222
X152292Y-69772
X152292Y-73272
X154792Y-82212
X154892Y-69772
X154892Y-73272
X163063Y-138422
X165603Y-138422
X166561Y-19664
X166661Y-23234
X166661Y-26484
X167407Y-52443
X169161Y-19664
X169261Y-23234
X169261Y-26484
X169691Y-38484
X169744Y-42088
X169761Y-35204
X170007Y-52443
X171236Y-94852
X171236Y-97452
X171236Y-100052
X171236Y-102452
X171236Y-105052
X171236Y-107552
X171236Y-110152
X171359Y-65982
X171359Y-68582
X171359Y-71082
X171359Y-73682
X171359Y-76182
X171359Y-78782
X171359Y-81282
X172291Y-38484
X172344Y-42088
X172361Y-35204
X173836Y-94852
X173836Y-97452
X173836Y-100052
X173836Y-102452
X173836Y-105052
X173836Y-107552
X173836Y-110152
X173959Y-65982
X173959Y-68582
X173959Y-71082
X173959Y-73682
X173959Y-76182
X173959Y-78782
X173959Y-81282
X177431Y-13364
X177431Y-15964
X177531Y-18783
X177531Y-21383
X177531Y-24117
X177531Y-26717
X177831Y-35274
X177831Y-38574
X177931Y-42074
X180331Y-18783
X180331Y-21383
X180331Y-24117
X180331Y-26717
X180340Y-13364
X180340Y-15964
X180431Y-35274
X180431Y-38574
X180531Y-42074
X182831Y-24117
X182831Y-26717
X182880Y-13364
X182880Y-15964
X182880Y-18783
X182880Y-21383
X183848Y-125955
X183848Y-128555
X185187Y-31775
X185187Y-34950
X185212Y-41402
X185238Y-38176
X185289Y-44450
X185420Y-13364
X185420Y-15964
X185420Y-18783
X185420Y-21383
X185420Y-24117
X185420Y-26717
X187787Y-31775
X187787Y-34950
X187812Y-41402
X187838Y-38176
X187889Y-44450
X187960Y-13364
X187960Y-15964
X187960Y-18783
X187960Y-21383
X187960Y-24117
X187960Y-26717
X190500Y-13364
X190500Y-15964
X190500Y-18783
X190500Y-21383
X190500Y-24117
X190500Y-26717
X190953Y-76116
X190953Y-79176
X190953Y-81996
X191278Y-126115
X191278Y-128715
X192036Y-94952
X192036Y-97452
X192036Y-99952
X192036Y-102552
X192036Y-105052
X192036Y-107552
X192036Y-110152
X193040Y-13364
X193040Y-15964
X193040Y-18783
X193040Y-21383
X193040Y-24117
X193040Y-26717
X193553Y-76116
X193553Y-79176
X193553Y-81996
X194636Y-94952
X194636Y-97452
X194636Y-99952
X194636Y-102552
X194636Y-105052
X194636Y-107552
X194636Y-110152
X195580Y-13364
X195580Y-15964
X195580Y-18783
X195580Y-21383
X195580Y-24117
X195580Y-26717
X198120Y-13364
X198120Y-15964
X198120Y-18783
X198120Y-21383
X198120Y-24117
X198120Y-26717
X200118Y-65397
X200118Y-68317
X200118Y-71097
X200118Y-73667
X200660Y-13364
X200660Y-15964
X200660Y-18783
X200660Y-21383
X200660Y-24117
X200660Y-26717
X202718Y-65397
X202718Y-68317
X202718Y-71097
X202718Y-73667
X203200Y-18783
X203200Y-21383
X203200Y-24117
X203200Y-26717
X203331Y-13364
X203331Y-15964
X205740Y-13364
X205740Y-15964
X205740Y-18783
X205740Y-21383
X205740Y-24117
X205740Y-26717
X208179Y-18783
X208179Y-21383
X208331Y-13396
X208331Y-15996
X211582Y-13364
X211582Y-15964
X211582Y-18783
X211582Y-21383
X211582Y-24117
X211582Y-26717
X213381Y-78808
X213970Y-141851
X214630Y-13364
X214630Y-15964
X214630Y-18783
X214630Y-21383
X214630Y-24117
X214630Y-26717
X214905Y-57599
X214905Y-60199
X215240Y-139311
X215981Y-78808
X216510Y-141851
X217505Y-57599
X217505Y-60199
X217780Y-139311
X218186Y-18783
X218186Y-21383
X218186Y-24117
X218186Y-26717
X218440Y-13364
X218440Y-15964
X218637Y-72963
X218757Y-65463
X218757Y-67963
X218757Y-70463
X218757Y-80663
X218757Y-83263
X218757Y-85763
X218757Y-90763
X218837Y-88273
X219050Y-141851
X219057Y-98463
X220320Y-139311
X220980Y-13364
X220980Y-15964
X220980Y-18783
X220980Y-21383
X221237Y-72963
X221357Y-65463
X221357Y-67963
X221357Y-70463
X221357Y-80663
X221357Y-83263
X221357Y-85763
X221357Y-90763
X221437Y-88273
X221590Y-141851
X221657Y-98463
X222860Y-139311
X223520Y-13364
X223520Y-15964
X223520Y-18783
X223520Y-21383
X224054Y-34379
X224054Y-36979
X226314Y-13364
X226314Y-15964
X226314Y-18735
X226314Y-21335
X228600Y-13364
X228600Y-15964
X228600Y-18783
X228600Y-21383
X228600Y-24117
X228600Y-26717
X228771Y-35184
X228771Y-37784
X231140Y-13364
X231140Y-15964
X231140Y-18783
X231140Y-21383
X231140Y-24117
X231140Y-26717
X231781Y-35184
X231781Y-37784
X233680Y-13364
X233680Y-15964
X233680Y-18783
X233680Y-21383
X233680Y-24117
X233680Y-26717
X234941Y-35184
X234941Y-37784
X236220Y-13364
X236220Y-15964
X236220Y-18783
X236220Y-21383
X236220Y-24117
X236220Y-26717
X238278Y-35184
X238278Y-37784
X238760Y-13364
X238760Y-15964
X238760Y-18783
X238760Y-21383
X238760Y-24117
X238760Y-26717
X241300Y-13364
X241300Y-15964
X241300Y-18783
X241300Y-21383
X241300Y-24117
X241300Y-26717
X241421Y-35184
X241421Y-37784
X243683Y-41699
X243840Y-13364
X243840Y-15964
X243840Y-18783
X243840Y-21383
X243840Y-24117
X243840Y-26717
X244531Y-35184
X244531Y-37784
X246045Y-138523
X246283Y-41699
X246380Y-13364
X246380Y-15964
X246380Y-18783
X246380Y-21383
X246380Y-24117
X246380Y-26717
X247641Y-35184
X247641Y-37784
X248585Y-138523
X248920Y-13364
X248920Y-15964
X248920Y-18783
X248920Y-21383
X248920Y-24117
X248920Y-26717
X249837Y-67623
X249857Y-57763
X249857Y-60363
X249857Y-64273
X249857Y-70363
X249857Y-73063
X250761Y-35184
X250761Y-37784
X251460Y-13364
X251460Y-15964
X251460Y-18783
X251460Y-21383
X251460Y-24117
X251460Y-26717
X252086Y-78162
X252086Y-80662
X252086Y-83162
X252086Y-85762
X252086Y-90862
X252086Y-93362
X252086Y-95962
X252086Y-98462
X252086Y-102992
X252086Y-106062
X252437Y-67623
X252457Y-57763
X252457Y-60363
X252457Y-64273
X252457Y-70363
X252457Y-73063
X254000Y-13364
X254000Y-15964
X254000Y-18783
X254000Y-21383
X254000Y-24117
X254000Y-26717
X254686Y-78162
X254686Y-80662
X254686Y-83162
X254686Y-85762
X254686Y-90862
X254686Y-93362
X254686Y-95962
X254686Y-98462
X254686Y-102992
X254686Y-106062
X256540Y-13364
X256540Y-15964
X256540Y-18783
X256540Y-21383
X256540Y-24117
X256540Y-26717
X267868Y-108145
X267868Y-110745
X267921Y-59474
X267921Y-62074
X270150Y-21785
X271068Y-108245
X271068Y-110845
X271121Y-59474
X271121Y-62074
X272750Y-21785
X274168Y-108245
X274168Y-110845
X274321Y-59474
X274321Y-62074
X277268Y-108245
X277268Y-110845
X277521Y-59474
X277521Y-62074
X280568Y-108245
X280568Y-110845
X280721Y-59474
X280721Y-62074
X283768Y-108245
X283768Y-110845
X283921Y-59574
X283921Y-62174
X286309Y-108191
X286309Y-110791
X287021Y-59574
X287021Y-62174
X288510Y-20566
X288510Y-25646
X288510Y-28186
X288570Y-23106
X288570Y-30726
X288570Y-33266
X291110Y-20566
X291110Y-25646
X291110Y-28186
X291170Y-23106
X291170Y-30726
X291170Y-33266
T5
X184138Y-133885
X186638Y-133885
X188638Y-133885
X191138Y-133885
T6
X38395Y-104066
X38395Y-106606
X38395Y-109146
X38395Y-111686
X38395Y-114226
X38465Y-61596
X38465Y-64136
X38465Y-66676
X38465Y-69216
X38465Y-71756
X38465Y-82456
X38465Y-84996
X38465Y-87536
X38465Y-90076
X38465Y-92616
X39893Y-134494
X39893Y-137034
X39893Y-139574
X39893Y-142114
X39893Y-144654
X43612Y-5165
X43612Y-7705
X43612Y-10245
X46015Y-104066
X46015Y-106606
X46015Y-109146
X46015Y-111686
X46015Y-114226
X46085Y-61596
X46085Y-64136
X46085Y-66676
X46085Y-69216
X46085Y-71756
X46085Y-82456
X46085Y-84996
X46085Y-87536
X46085Y-90076
X46085Y-92616
X46152Y-5165
X46152Y-7705
X46152Y-10245
X47514Y-134494
X47514Y-137034
X47514Y-139574
X47514Y-142114
X47514Y-144654
X48692Y-5165
X48692Y-7705
X48692Y-10245
X51232Y-5165
X51232Y-7705
X51232Y-10245
X53772Y-5165
X53772Y-7705
X53772Y-10245
X56312Y-5165
X56312Y-7705
X56312Y-10245
X58308Y-82456
X58308Y-84996
X58308Y-87536
X58308Y-90076
X58308Y-92616
X58308Y-104066
X58308Y-106606
X58308Y-109146
X58308Y-111686
X58308Y-114226
X58319Y-61511
X58319Y-64051
X58319Y-66591
X58319Y-69131
X58319Y-71671
X58852Y-5165
X58852Y-7705
X58852Y-10245
X61392Y-5165
X61392Y-7705
X61392Y-10245
X63932Y-5165
X63932Y-7705
X63932Y-10245
X65928Y-82456
X65928Y-84996
X65928Y-87536
X65928Y-90076
X65928Y-92616
X65928Y-104066
X65928Y-106606
X65928Y-109146
X65928Y-111686
X65928Y-114226
X65939Y-61511
X65939Y-64051
X65939Y-66591
X65939Y-69131
X65939Y-71671
X66472Y-5165
X66472Y-7705
X66472Y-10245
X69012Y-5165
X69012Y-7705
X69012Y-10245
X71552Y-5165
X71552Y-7705
X71552Y-10245
X74092Y-5165
X74092Y-7705
X74092Y-10245
X76632Y-5165
X76632Y-7705
X76632Y-10245
X78395Y-65036
X78395Y-67576
X78395Y-70116
X78395Y-72656
X78395Y-75196
X78395Y-85066
X78395Y-87606
X78395Y-90146
X78395Y-92686
X78395Y-95226
X78395Y-104066
X78395Y-106606
X78395Y-109146
X78395Y-111686
X78395Y-114226
X79172Y-5165
X79172Y-7705
X79172Y-10245
X81712Y-5165
X81712Y-7705
X81712Y-10245
X84252Y-5165
X84252Y-7705
X84252Y-10245
X86015Y-65036
X86015Y-67576
X86015Y-70116
X86015Y-72656
X86015Y-75196
X86015Y-85066
X86015Y-87606
X86015Y-90146
X86015Y-92686
X86015Y-95226
X86015Y-104066
X86015Y-106606
X86015Y-109146
X86015Y-111686
X86015Y-114226
X86792Y-5165
X86792Y-7705
X86792Y-10245
X89332Y-5165
X89332Y-7705
X89332Y-10245
X91872Y-5165
X91872Y-7705
X91872Y-10245
X94412Y-5165
X94412Y-7705
X94412Y-10245
X96952Y-5165
X96952Y-7705
X96952Y-10245
X98395Y-65062
X98395Y-67602
X98395Y-70142
X98395Y-72682
X98395Y-75222
X98395Y-85066
X98395Y-87606
X98395Y-90146
X98395Y-92686
X98395Y-95226
X98595Y-104066
X98595Y-106606
X98595Y-109146
X98595Y-111686
X98595Y-114226
X99492Y-5165
X99492Y-7705
X99492Y-10245
X102032Y-5165
X102032Y-7705
X102032Y-10245
X104572Y-5165
X104572Y-7705
X104572Y-10245
X106015Y-65062
X106015Y-67602
X106015Y-70142
X106015Y-72682
X106015Y-75222
X106015Y-85066
X106015Y-87606
X106015Y-90146
X106015Y-92686
X106015Y-95226
X106215Y-104066
X106215Y-106606
X106215Y-109146
X106215Y-111686
X106215Y-114226
X107112Y-5165
X107112Y-7705
X107112Y-10245
X109652Y-5165
X109652Y-7705
X109652Y-10245
X112192Y-5165
X112192Y-7705
X112192Y-10245
X114732Y-5165
X114732Y-7705
X114732Y-10245
X117272Y-5165
X117272Y-7705
X117272Y-10245
X118328Y-65062
X118328Y-67602
X118328Y-70142
X118328Y-72682
X118328Y-75222
X118395Y-85066
X118395Y-87606
X118395Y-90146
X118395Y-92686
X118395Y-95226
X118395Y-104066
X118395Y-106606
X118395Y-109146
X118395Y-111686
X118395Y-114226
X119812Y-5165
X119812Y-7705
X119812Y-10245
X122352Y-5165
X122352Y-7705
X122352Y-10245
X125948Y-65062
X125948Y-67602
X125948Y-70142
X125948Y-72682
X125948Y-75222
X126015Y-85066
X126015Y-87606
X126015Y-90146
X126015Y-92686
X126015Y-95226
X126015Y-104066
X126015Y-106606
X126015Y-109146
X126015Y-111686
X126015Y-114226
X137922Y-65046
X137922Y-67586
X137922Y-70126
X137922Y-72666
X137922Y-75206
X145542Y-65046
X145542Y-67586
X145542Y-70126
X145542Y-72666
X145542Y-75206
X177648Y-5165
X177648Y-7705
X177648Y-10245
X180188Y-5165
X180188Y-7705
X180188Y-10245
X182728Y-5165
X182728Y-7705
X182728Y-10245
X185268Y-5165
X185268Y-7705
X185268Y-10245
X187808Y-5165
X187808Y-7705
X187808Y-10245
X190348Y-5165
X190348Y-7705
X190348Y-10245
X192888Y-5165
X192888Y-7705
X192888Y-10245
X195428Y-5165
X195428Y-7705
X195428Y-10245
X197968Y-5165
X197968Y-7705
X197968Y-10245
X200508Y-5165
X200508Y-7705
X200508Y-10245
X203048Y-5165
X203048Y-7705
X203048Y-10245
X205588Y-5165
X205588Y-7705
X205588Y-10245
X208128Y-5165
X208128Y-7705
X208128Y-10245
X210668Y-5165
X210668Y-7705
X210668Y-10245
X213208Y-5165
X213208Y-7705
X213208Y-10245
X215748Y-5165
X215748Y-7705
X215748Y-10245
X218288Y-5165
X218288Y-7705
X218288Y-10245
X220828Y-5165
X220828Y-7705
X220828Y-10245
X223368Y-5165
X223368Y-7705
X223368Y-10245
X225908Y-5165
X225908Y-7705
X225908Y-10245
X228448Y-5165
X228448Y-7705
X228448Y-10245
X230988Y-5165
X230988Y-7705
X230988Y-10245
X233528Y-5165
X233528Y-7705
X233528Y-10245
X236068Y-5165
X236068Y-7705
X236068Y-10245
X238608Y-5165
X238608Y-7705
X238608Y-10245
X241148Y-5165
X241148Y-7705
X241148Y-10245
X243688Y-5165
X243688Y-7705
X243688Y-10245
X246228Y-5165
X246228Y-7705
X246228Y-10245
X248768Y-5165
X248768Y-7705
X248768Y-10245
X251308Y-5165
X251308Y-7705
X251308Y-10245
X253848Y-5165
X253848Y-7705
X253848Y-10245
X256388Y-5165
X256388Y-7705
X256388Y-10245
X267932Y-104186
X268136Y-66086
X270472Y-104186
X270676Y-66086
X273012Y-104186
X273216Y-66086
X275552Y-104186
X275756Y-66086
X278092Y-104186
X278296Y-66086
X280632Y-104186
X280836Y-66086
X283172Y-104186
X283376Y-66086
X285712Y-104186
X285916Y-66086
T7
X226492Y-57853
X226492Y-60393
X226492Y-62933
X226492Y-65473
X226492Y-68013
X226492Y-70553
X226492Y-73093
X226492Y-75633
X226492Y-78173
X226492Y-80713
X226492Y-83253
X226492Y-85793
X226492Y-88333
X226492Y-90873
X226492Y-93413
X226492Y-95953
X226492Y-98493
X226492Y-101033
X226492Y-103573
X226492Y-106113
X232842Y-58083
X235382Y-58083
X237922Y-58083
X244272Y-57853
X244272Y-60393
X244272Y-62933
X244272Y-65473
X244272Y-68013
X244272Y-70553
X244272Y-73093
X244272Y-75633
X244272Y-78173
X244272Y-80713
X244272Y-83253
X244272Y-85793
X244272Y-88333
X244272Y-90873
X244272Y-93413
X244272Y-95953
X244272Y-98493
X244272Y-101033
X244272Y-103573
X244272Y-106113
T8
X140215Y-84626
X140215Y-110026
X148539Y-12743
X148539Y-38143
T9
X135585Y-137914
X166040Y-119016
X237211Y-124045
X255245Y-41021
T10
X210390Y-135711
X210500Y-129911
X226330Y-129911
X226440Y-135711
T11
X181068Y-136885
X194208Y-136885
T12
X38532Y-2625
X127432Y-2625
X172568Y-2625
X261468Y-2625
T0
M30
