%TF.GenerationSoftware,KiCad,Pcbnew,7.0.5*%
%TF.CreationDate,2023-08-08T11:47:51-04:00*%
%TF.ProjectId,selftest_bd,73656c66-7465-4737-945f-62642e6b6963,1.0*%
%TF.SameCoordinates,Original*%
%TF.FileFunction,Legend,Bot*%
%TF.FilePolarity,Positive*%
%FSLAX46Y46*%
G04 Gerber Fmt 4.6, Leading zero omitted, Abs format (unit mm)*
G04 Created by KiCad (PCBNEW 7.0.5) date 2023-08-08 11:47:51*
%MOMM*%
%LPD*%
G01*
G04 APERTURE LIST*
%ADD10C,0.350000*%
G04 APERTURE END LIST*
D10*
X260020000Y-62870000D03*
X104640000Y-51760000D03*
X97970000Y-42070000D03*
X98920000Y-67770000D03*
X86010000Y-45020000D03*
X132020000Y-23070000D03*
X229920000Y-80320000D03*
X119420000Y-43970000D03*
X193826893Y-126840107D03*
X174020000Y-126070000D03*
X188747600Y-126814000D03*
X88020000Y-40140000D03*
X59670000Y-49020000D03*
X229032000Y-100728200D03*
X242570000Y-60020000D03*
X225970000Y-59720000D03*
X263170000Y-59820000D03*
X265570000Y-62920000D03*
X183620000Y-51220000D03*
X181570000Y-48820000D03*
X92170000Y-48020000D03*
X71679000Y-26963135D03*
X71679000Y-24363135D03*
X225857000Y-13920000D03*
X225857000Y-16520000D03*
X197970000Y-26820000D03*
X197970000Y-24220000D03*
X109779000Y-26963135D03*
X109779000Y-24363135D03*
X104699000Y-21629135D03*
X104699000Y-19029135D03*
X256870000Y-44820000D03*
X259470000Y-44820000D03*
X39234800Y-100337000D03*
X193920500Y-139735000D03*
X75990210Y-100210210D03*
X73390210Y-100210210D03*
X200570000Y-26820000D03*
X200570000Y-24220000D03*
X114859000Y-16210000D03*
X114859000Y-13610000D03*
X220775587Y-13920000D03*
X220775587Y-16520000D03*
X182570000Y-21620000D03*
X182570000Y-19020000D03*
X99619000Y-26963135D03*
X99619000Y-24363135D03*
X132440000Y-31670000D03*
X110780000Y-68930000D03*
X113380000Y-68930000D03*
X143345000Y-111929600D03*
X145885000Y-111929600D03*
X247920000Y-95020000D03*
X247920000Y-97620000D03*
X51176600Y-38422000D03*
X53776600Y-38422000D03*
X190770000Y-87820000D03*
X190770000Y-85220000D03*
X210970000Y-110720000D03*
X210970000Y-108120000D03*
X229670000Y-112220000D03*
X229670000Y-109620000D03*
X113580000Y-38030000D03*
X113580000Y-35430000D03*
X182654422Y-13920000D03*
X182654422Y-16520000D03*
X195361477Y-13920000D03*
X195361477Y-16520000D03*
X76670000Y-134520000D03*
X56591400Y-126839400D03*
X48819000Y-21629135D03*
X48819000Y-19029135D03*
X51359000Y-21629135D03*
X51359000Y-19029135D03*
X225861405Y-19020000D03*
X225861405Y-21620000D03*
X44890210Y-79810210D03*
X42290210Y-79810210D03*
X77521000Y-16210000D03*
X77521000Y-13610000D03*
X163750000Y-16450000D03*
X166350000Y-16450000D03*
X105840000Y-66290000D03*
X108440000Y-66290000D03*
X48770000Y-26963135D03*
X48770000Y-24363135D03*
X17870000Y-60720000D03*
X17870000Y-58120000D03*
X234910000Y-109920000D03*
X234910000Y-112460000D03*
X234910000Y-115000000D03*
X234910000Y-117540000D03*
X234910000Y-120080000D03*
X242530000Y-120080000D03*
X242530000Y-117540000D03*
X242530000Y-115000000D03*
X242530000Y-112460000D03*
X242530000Y-109920000D03*
X53827400Y-44695800D03*
X51227400Y-44695800D03*
X114859000Y-21629135D03*
X114859000Y-19029135D03*
X46270000Y-21629135D03*
X46270000Y-19029135D03*
X251970000Y-37820000D03*
X249370000Y-37820000D03*
X188120500Y-137135000D03*
X192860000Y-16520000D03*
X192860000Y-13920000D03*
X186670000Y-112320000D03*
X186670000Y-109720000D03*
X174870000Y-67320000D03*
X174870000Y-69860000D03*
X174870000Y-72400000D03*
X174870000Y-74940000D03*
X174870000Y-77480000D03*
X182490000Y-77480000D03*
X182490000Y-74940000D03*
X182490000Y-72400000D03*
X182490000Y-69860000D03*
X182490000Y-67320000D03*
X42290210Y-72210210D03*
X44890210Y-72210210D03*
X223450000Y-51630000D03*
X220850000Y-51630000D03*
X112319000Y-16210000D03*
X112319000Y-13610000D03*
X66599000Y-21629135D03*
X66599000Y-19029135D03*
X287771000Y-75380000D03*
X287771000Y-77980000D03*
X30170000Y-126220000D03*
X30170000Y-128820000D03*
X202985710Y-13920000D03*
X202985710Y-16520000D03*
X132600000Y-73190000D03*
X135200000Y-73190000D03*
X110780000Y-71500000D03*
X113380000Y-71500000D03*
X226170000Y-108920000D03*
X226170000Y-111520000D03*
X246177000Y-19020000D03*
X246177000Y-21620000D03*
X215692765Y-13920000D03*
X215692765Y-16520000D03*
X75990210Y-62110210D03*
X73390210Y-62110210D03*
X231570000Y-48220000D03*
X228970000Y-48220000D03*
X132600000Y-70690000D03*
X135200000Y-70690000D03*
X253870000Y-13920000D03*
X253870000Y-16520000D03*
X42290210Y-85010210D03*
X44890210Y-85010210D03*
X234860000Y-83270000D03*
X242480000Y-83270000D03*
X86461800Y-142783400D03*
X97891800Y-142783400D03*
X87731800Y-136433400D03*
X89001800Y-133893400D03*
X90271800Y-136433400D03*
X91541800Y-133893400D03*
X92811800Y-136433400D03*
X94081800Y-133893400D03*
X95351800Y-136433400D03*
X96621800Y-133893400D03*
X84151800Y-140033400D03*
X84261800Y-145833400D03*
X100091800Y-145833400D03*
X100201800Y-140033400D03*
X218234176Y-13920000D03*
X218234176Y-16520000D03*
X122479000Y-16210000D03*
X122479000Y-13610000D03*
X251970000Y-44920000D03*
X249370000Y-44920000D03*
X256387800Y-5165335D03*
X253847800Y-5165335D03*
X251307800Y-5165335D03*
X248767800Y-5165335D03*
X246227800Y-5165335D03*
X243687800Y-5165335D03*
X241147800Y-5165335D03*
X238607800Y-5165335D03*
X236067800Y-5165335D03*
X233527800Y-5165335D03*
X230987800Y-5165335D03*
X228447800Y-5165335D03*
X225907800Y-5165335D03*
X223367800Y-5165335D03*
X220827800Y-5165335D03*
X218287800Y-5165335D03*
X215747800Y-5165335D03*
X213207800Y-5165335D03*
X210667800Y-5165335D03*
X208127800Y-5165335D03*
X205587800Y-5165335D03*
X203047800Y-5165335D03*
X200507800Y-5165335D03*
X197967800Y-5165335D03*
X195427800Y-5165335D03*
X192887800Y-5165335D03*
X190347800Y-5165335D03*
X187807800Y-5165335D03*
X185267800Y-5165335D03*
X182727800Y-5165335D03*
X180187800Y-5165335D03*
X177647800Y-5165335D03*
X256387800Y-7705335D03*
X253847800Y-7705335D03*
X251307800Y-7705335D03*
X248767800Y-7705335D03*
X246227800Y-7705335D03*
X243687800Y-7705335D03*
X241147800Y-7705335D03*
X238607800Y-7705335D03*
X236067800Y-7705335D03*
X233527800Y-7705335D03*
X230987800Y-7705335D03*
X228447800Y-7705335D03*
X225907800Y-7705335D03*
X223367800Y-7705335D03*
X220827800Y-7705335D03*
X218287800Y-7705335D03*
X215747800Y-7705335D03*
X213207800Y-7705335D03*
X210667800Y-7705335D03*
X208127800Y-7705335D03*
X205587800Y-7705335D03*
X203047800Y-7705335D03*
X200507800Y-7705335D03*
X197967800Y-7705335D03*
X195427800Y-7705335D03*
X192887800Y-7705335D03*
X190347800Y-7705335D03*
X187807800Y-7705335D03*
X185267800Y-7705335D03*
X182727800Y-7705335D03*
X180187800Y-7705335D03*
X177647800Y-7705335D03*
X256387800Y-10245335D03*
X253847800Y-10245335D03*
X251307800Y-10245335D03*
X248767800Y-10245335D03*
X246227800Y-10245335D03*
X243687800Y-10245335D03*
X241147800Y-10245335D03*
X238607800Y-10245335D03*
X236067800Y-10245335D03*
X233527800Y-10245335D03*
X230987800Y-10245335D03*
X228447800Y-10245335D03*
X225907800Y-10245335D03*
X223367800Y-10245335D03*
X220827800Y-10245335D03*
X218287800Y-10245335D03*
X215747800Y-10245335D03*
X213207800Y-10245335D03*
X210667800Y-10245335D03*
X208127800Y-10245335D03*
X205587800Y-10245335D03*
X203047800Y-10245335D03*
X200507800Y-10245335D03*
X197967800Y-10245335D03*
X195427800Y-10245335D03*
X192887800Y-10245335D03*
X190347800Y-10245335D03*
X187807800Y-10245335D03*
X185267800Y-10245335D03*
X182727800Y-10245335D03*
X180187800Y-10245335D03*
X177647800Y-10245335D03*
X261467800Y-2625335D03*
X172567800Y-2625335D03*
X190770000Y-95020000D03*
X190770000Y-97620000D03*
X223380000Y-48550000D03*
X220780000Y-48550000D03*
X187737244Y-13920000D03*
X187737244Y-16520000D03*
X71679000Y-16210000D03*
X71679000Y-13610000D03*
X242070000Y-37920000D03*
X244670000Y-37920000D03*
X169189600Y-94570800D03*
X166589600Y-94570800D03*
X238470000Y-19020000D03*
X238470000Y-21620000D03*
X102159000Y-26963135D03*
X102159000Y-24363135D03*
X64059000Y-26963135D03*
X64059000Y-24363135D03*
X110750000Y-31480000D03*
X197902888Y-13920000D03*
X197902888Y-16520000D03*
X286170000Y-27060000D03*
X288770000Y-27060000D03*
X286230000Y-21980000D03*
X288830000Y-21980000D03*
X192870000Y-21620000D03*
X192870000Y-19020000D03*
X35682600Y-42333600D03*
X38282600Y-42333600D03*
X54026000Y-53220000D03*
X159280000Y-13090000D03*
X275950000Y-42300000D03*
X278550000Y-42300000D03*
X119939000Y-26963135D03*
X119939000Y-24363135D03*
X74269800Y-16242200D03*
X74269800Y-13642200D03*
X249120000Y-62270000D03*
X251720000Y-62270000D03*
X236017000Y-19020000D03*
X236017000Y-21620000D03*
X97079000Y-26963135D03*
X97079000Y-24363135D03*
X207170000Y-109870000D03*
X207170000Y-112470000D03*
X117399000Y-26963135D03*
X117399000Y-24363135D03*
X213166930Y-19020000D03*
X213166930Y-21620000D03*
X180161295Y-19020000D03*
X180161295Y-21620000D03*
X69139000Y-21629135D03*
X69139000Y-19029135D03*
X188320400Y-121759400D03*
X185720400Y-121759400D03*
X61519000Y-26963135D03*
X61519000Y-24363135D03*
X236017000Y-13920000D03*
X236017000Y-16520000D03*
X208077000Y-19020000D03*
X208077000Y-21620000D03*
X26110000Y-136120000D03*
X36270000Y-136120000D03*
X286170000Y-24520000D03*
X288770000Y-24520000D03*
X177610000Y-16520000D03*
X177610000Y-13920000D03*
X75990210Y-59510210D03*
X73390210Y-59510210D03*
X44970000Y-90020000D03*
X42370000Y-90020000D03*
X153670000Y-78360000D03*
X153670000Y-88520000D03*
X53899000Y-26963135D03*
X53899000Y-24363135D03*
X276010000Y-34680000D03*
X278610000Y-34680000D03*
X213870000Y-41320000D03*
X216470000Y-41320000D03*
X169060000Y-16490000D03*
X171660000Y-16490000D03*
X200472455Y-19020000D03*
X200472455Y-21620000D03*
X177597000Y-24220000D03*
X177597000Y-26820000D03*
X119980000Y-47170000D03*
X122580000Y-47170000D03*
X24270000Y-60720000D03*
X24270000Y-58120000D03*
X32500000Y-19910000D03*
X35100000Y-19910000D03*
X71679000Y-21629135D03*
X71679000Y-19029135D03*
X66599000Y-16210000D03*
X66599000Y-13610000D03*
X23670000Y-128820000D03*
X23670000Y-126220000D03*
X276010000Y-21980000D03*
X278610000Y-21980000D03*
X111770000Y-91280000D03*
X114370000Y-91280000D03*
X43470000Y-21629135D03*
X43470000Y-19029135D03*
X228870000Y-37820000D03*
X231470000Y-37820000D03*
X104699000Y-16210000D03*
X104699000Y-13610000D03*
X154090000Y-49370000D03*
X164250000Y-49370000D03*
X174330500Y-134645000D03*
X174330500Y-137185000D03*
X174330500Y-139725000D03*
X174330500Y-142265000D03*
X174330500Y-144805000D03*
X181950500Y-144805000D03*
X181950500Y-142265000D03*
X181950500Y-139725000D03*
X181950500Y-137185000D03*
X181950500Y-134645000D03*
X43770000Y-38820000D03*
X46370000Y-38820000D03*
X61519000Y-16210000D03*
X61519000Y-13610000D03*
X183040000Y-35530000D03*
X122352000Y-5165335D03*
X119812000Y-5165335D03*
X117272000Y-5165335D03*
X114732000Y-5165335D03*
X112192000Y-5165335D03*
X109652000Y-5165335D03*
X107112000Y-5165335D03*
X104572000Y-5165335D03*
X102032000Y-5165335D03*
X99492000Y-5165335D03*
X96952000Y-5165335D03*
X94412000Y-5165335D03*
X91872000Y-5165335D03*
X89332000Y-5165335D03*
X86792000Y-5165335D03*
X84252000Y-5165335D03*
X81712000Y-5165335D03*
X79172000Y-5165335D03*
X76632000Y-5165335D03*
X74092000Y-5165335D03*
X71552000Y-5165335D03*
X69012000Y-5165335D03*
X66472000Y-5165335D03*
X63932000Y-5165335D03*
X61392000Y-5165335D03*
X58852000Y-5165335D03*
X56312000Y-5165335D03*
X53772000Y-5165335D03*
X51232000Y-5165335D03*
X48692000Y-5165335D03*
X46152000Y-5165335D03*
X43612000Y-5165335D03*
X122352000Y-7705335D03*
X119812000Y-7705335D03*
X117272000Y-7705335D03*
X114732000Y-7705335D03*
X112192000Y-7705335D03*
X109652000Y-7705335D03*
X107112000Y-7705335D03*
X104572000Y-7705335D03*
X102032000Y-7705335D03*
X99492000Y-7705335D03*
X96952000Y-7705335D03*
X94412000Y-7705335D03*
X91872000Y-7705335D03*
X89332000Y-7705335D03*
X86792000Y-7705335D03*
X84252000Y-7705335D03*
X81712000Y-7705335D03*
X79172000Y-7705335D03*
X76632000Y-7705335D03*
X74092000Y-7705335D03*
X71552000Y-7705335D03*
X69012000Y-7705335D03*
X66472000Y-7705335D03*
X63932000Y-7705335D03*
X61392000Y-7705335D03*
X58852000Y-7705335D03*
X56312000Y-7705335D03*
X53772000Y-7705335D03*
X51232000Y-7705335D03*
X48692000Y-7705335D03*
X46152000Y-7705335D03*
X43612000Y-7705335D03*
X122352000Y-10245335D03*
X119812000Y-10245335D03*
X117272000Y-10245335D03*
X114732000Y-10245335D03*
X112192000Y-10245335D03*
X109652000Y-10245335D03*
X107112000Y-10245335D03*
X104572000Y-10245335D03*
X102032000Y-10245335D03*
X99492000Y-10245335D03*
X96952000Y-10245335D03*
X94412000Y-10245335D03*
X91872000Y-10245335D03*
X89332000Y-10245335D03*
X86792000Y-10245335D03*
X84252000Y-10245335D03*
X81712000Y-10245335D03*
X79172000Y-10245335D03*
X76632000Y-10245335D03*
X74092000Y-10245335D03*
X71552000Y-10245335D03*
X69012000Y-10245335D03*
X66472000Y-10245335D03*
X63932000Y-10245335D03*
X61392000Y-10245335D03*
X58852000Y-10245335D03*
X56312000Y-10245335D03*
X53772000Y-10245335D03*
X51232000Y-10245335D03*
X48692000Y-10245335D03*
X46152000Y-10245335D03*
X43612000Y-10245335D03*
X127432000Y-2625335D03*
X38532000Y-2625335D03*
X39234800Y-106636200D03*
X234920000Y-88770000D03*
X234920000Y-91310000D03*
X234920000Y-93850000D03*
X234920000Y-96390000D03*
X234920000Y-98930000D03*
X242540000Y-98930000D03*
X242540000Y-96390000D03*
X242540000Y-93850000D03*
X242540000Y-91310000D03*
X242540000Y-88770000D03*
X210609943Y-13920000D03*
X210609943Y-16520000D03*
X256670000Y-37720000D03*
X259270000Y-37720000D03*
X220783615Y-19020000D03*
X220783615Y-21620000D03*
X95170000Y-51020000D03*
X92570000Y-51020000D03*
X189870000Y-107020000D03*
X189870000Y-104420000D03*
X230620000Y-89070000D03*
X230620000Y-91670000D03*
X248770000Y-19020000D03*
X248770000Y-21620000D03*
X69139000Y-26963135D03*
X69139000Y-24363135D03*
X246770000Y-119220000D03*
X246770000Y-116620000D03*
X51125800Y-32021200D03*
X53725800Y-32021200D03*
X53751200Y-41647800D03*
X51151200Y-41647800D03*
X251370000Y-19020000D03*
X251370000Y-21620000D03*
X119970000Y-60500000D03*
X119970000Y-63040000D03*
X119970000Y-65580000D03*
X119970000Y-68120000D03*
X119970000Y-70660000D03*
X119970000Y-73200000D03*
X119970000Y-75740000D03*
X119970000Y-78280000D03*
X127590000Y-78280000D03*
X127590000Y-75740000D03*
X127590000Y-73200000D03*
X127590000Y-70660000D03*
X127590000Y-68120000D03*
X127590000Y-65580000D03*
X127590000Y-63040000D03*
X127590000Y-60500000D03*
X207170000Y-117920000D03*
X207170000Y-120520000D03*
X75990210Y-87510210D03*
X73390210Y-87510210D03*
X241050000Y-13920000D03*
X241050000Y-16520000D03*
X42290210Y-59510210D03*
X44890210Y-59510210D03*
X14967401Y-54470000D03*
X16467401Y-54470000D03*
X119970000Y-86180000D03*
X119970000Y-88720000D03*
X119970000Y-91260000D03*
X119970000Y-93800000D03*
X119970000Y-96340000D03*
X119970000Y-98880000D03*
X119970000Y-101420000D03*
X119970000Y-103960000D03*
X127590000Y-103960000D03*
X127590000Y-101420000D03*
X127590000Y-98880000D03*
X127590000Y-96340000D03*
X127590000Y-93800000D03*
X127590000Y-91260000D03*
X127590000Y-88720000D03*
X127590000Y-86180000D03*
X41351400Y-122841400D03*
X46351400Y-122841400D03*
X64059000Y-21629135D03*
X64059000Y-19029135D03*
X186470000Y-88720000D03*
X186470000Y-86120000D03*
X132570000Y-91280000D03*
X135170000Y-91280000D03*
X213770000Y-44920000D03*
X216370000Y-44920000D03*
X75990210Y-97710210D03*
X73390210Y-97710210D03*
X84125000Y-21629135D03*
X84125000Y-19029135D03*
X39234800Y-96019000D03*
X231570000Y-44820000D03*
X228970000Y-44820000D03*
X250670000Y-67420000D03*
X250670000Y-70020000D03*
X206270000Y-98120000D03*
X206270000Y-95520000D03*
X253970000Y-19020000D03*
X253970000Y-21620000D03*
X223270000Y-44920000D03*
X220670000Y-44920000D03*
X247510000Y-74940000D03*
X247510000Y-72340000D03*
X75990210Y-82410210D03*
X73390210Y-82410210D03*
X246270000Y-26820000D03*
X246270000Y-24220000D03*
X255550000Y-109790000D03*
X255550000Y-112330000D03*
X255550000Y-114870000D03*
X255550000Y-117410000D03*
X255550000Y-119950000D03*
X263170000Y-119950000D03*
X263170000Y-117410000D03*
X263170000Y-114870000D03*
X263170000Y-112330000D03*
X263170000Y-109790000D03*
X215705825Y-19020000D03*
X215705825Y-21620000D03*
X119939000Y-16210000D03*
X119939000Y-13610000D03*
X233478090Y-19020000D03*
X233478090Y-21620000D03*
X13563800Y-29303400D03*
X13563800Y-39463400D03*
X132600000Y-75790000D03*
X135200000Y-75790000D03*
X43470000Y-26963135D03*
X43470000Y-24363135D03*
X222470000Y-101420000D03*
X219870000Y-101420000D03*
X230310000Y-115120000D03*
X230310000Y-117720000D03*
X143620000Y-37170000D03*
X141020000Y-37170000D03*
X75990210Y-92610210D03*
X73390210Y-92610210D03*
X43770000Y-35520000D03*
X46370000Y-35520000D03*
X26035200Y-35196200D03*
X26035200Y-9796200D03*
X202997000Y-24220000D03*
X202997000Y-26820000D03*
X246170000Y-13920000D03*
X246170000Y-16520000D03*
X112319000Y-26963135D03*
X112319000Y-24363135D03*
X132570000Y-86180000D03*
X135170000Y-86180000D03*
X190270000Y-69420000D03*
X190270000Y-66820000D03*
X14270000Y-128720000D03*
X14270000Y-126120000D03*
X77521000Y-26963135D03*
X77521000Y-24363135D03*
X169970000Y-72320000D03*
X167370000Y-72320000D03*
X51125800Y-35196200D03*
X53725800Y-35196200D03*
X64059000Y-16210000D03*
X64059000Y-13610000D03*
X111770000Y-96380000D03*
X114370000Y-96380000D03*
X111770000Y-101380000D03*
X114370000Y-101380000D03*
X223317000Y-13920000D03*
X223317000Y-16520000D03*
X200370000Y-45020000D03*
X202970000Y-45020000D03*
X38230000Y-38730000D03*
X35630000Y-38730000D03*
X132570000Y-93880000D03*
X135170000Y-93880000D03*
X30670000Y-60820000D03*
X30670000Y-58220000D03*
X51359000Y-16210000D03*
X51359000Y-13610000D03*
X129070000Y-16300000D03*
X214870000Y-67320000D03*
X214870000Y-69860000D03*
X214870000Y-72400000D03*
X214870000Y-74940000D03*
X214870000Y-77480000D03*
X222490000Y-77480000D03*
X222490000Y-74940000D03*
X222490000Y-72400000D03*
X222490000Y-69860000D03*
X222490000Y-67320000D03*
X86919000Y-21629135D03*
X86919000Y-19029135D03*
X94539000Y-21629135D03*
X94539000Y-19029135D03*
X192970000Y-37920000D03*
X195570000Y-37920000D03*
X171740000Y-26410000D03*
X169140000Y-26410000D03*
X271920000Y-75230000D03*
X271920000Y-72630000D03*
X254800000Y-88930000D03*
X254800000Y-91470000D03*
X254800000Y-94010000D03*
X254800000Y-96550000D03*
X254800000Y-99090000D03*
X262420000Y-99090000D03*
X262420000Y-96550000D03*
X262420000Y-94010000D03*
X262420000Y-91470000D03*
X262420000Y-88930000D03*
X97720000Y-38030000D03*
X97720000Y-35430000D03*
X46279000Y-16210000D03*
X46279000Y-13610000D03*
X165520000Y-107970000D03*
X168120000Y-107970000D03*
X157120000Y-55795600D03*
X159720000Y-55795600D03*
X192870000Y-26820000D03*
X192870000Y-24220000D03*
X233570000Y-24220000D03*
X233570000Y-26820000D03*
X21070000Y-60720000D03*
X21070000Y-58120000D03*
X256370000Y-13920000D03*
X256370000Y-16520000D03*
X75990210Y-72110210D03*
X73390210Y-72110210D03*
X220904000Y-24220000D03*
X220904000Y-26820000D03*
X42170000Y-138520000D03*
X253970000Y-24220000D03*
X253970000Y-26820000D03*
X32600000Y-23480000D03*
X35200000Y-23480000D03*
X234870000Y-67320000D03*
X234870000Y-69860000D03*
X234870000Y-72400000D03*
X234870000Y-74940000D03*
X234870000Y-77480000D03*
X242490000Y-77480000D03*
X242490000Y-74940000D03*
X242490000Y-72400000D03*
X242490000Y-69860000D03*
X242490000Y-67320000D03*
X75990210Y-95110210D03*
X73390210Y-95110210D03*
X254870000Y-67320000D03*
X254870000Y-69860000D03*
X254870000Y-72400000D03*
X254870000Y-74940000D03*
X254870000Y-77480000D03*
X262490000Y-77480000D03*
X262490000Y-74940000D03*
X262490000Y-72400000D03*
X262490000Y-69860000D03*
X262490000Y-67320000D03*
X226570000Y-72370000D03*
X226570000Y-74970000D03*
X106170000Y-134520000D03*
X235170000Y-41420000D03*
X237770000Y-41420000D03*
X107239000Y-26963135D03*
X107239000Y-24363135D03*
X80569000Y-21629135D03*
X80569000Y-19029135D03*
X194670000Y-67320000D03*
X194670000Y-69860000D03*
X194670000Y-72400000D03*
X194670000Y-74940000D03*
X194670000Y-77480000D03*
X202290000Y-77480000D03*
X202290000Y-74940000D03*
X202290000Y-72400000D03*
X202290000Y-69860000D03*
X202290000Y-67320000D03*
X210628035Y-19020000D03*
X210628035Y-21620000D03*
X275950000Y-32140000D03*
X278550000Y-32140000D03*
X214870000Y-86320000D03*
X214870000Y-88860000D03*
X214870000Y-91400000D03*
X214870000Y-93940000D03*
X214870000Y-96480000D03*
X222490000Y-96480000D03*
X222490000Y-93940000D03*
X222490000Y-91400000D03*
X222490000Y-88860000D03*
X222490000Y-86320000D03*
X111770000Y-98880000D03*
X114370000Y-98880000D03*
X251370000Y-13920000D03*
X251370000Y-16520000D03*
X94539000Y-26963135D03*
X94539000Y-24363135D03*
X111640000Y-134520000D03*
X166240000Y-13060000D03*
X163640000Y-13060000D03*
X258780000Y-104462000D03*
X256180000Y-104462000D03*
X152550000Y-13670000D03*
X142390000Y-13670000D03*
X163700000Y-23110000D03*
X166300000Y-23110000D03*
X124770000Y-132320000D03*
X206070000Y-72320000D03*
X206070000Y-74920000D03*
X223370000Y-24220000D03*
X223370000Y-26820000D03*
X190670000Y-92820000D03*
X190670000Y-90220000D03*
X185270000Y-21620000D03*
X185270000Y-19020000D03*
X248770000Y-13920000D03*
X248770000Y-16520000D03*
X218364000Y-24220000D03*
X218364000Y-26820000D03*
X286170000Y-19440000D03*
X288770000Y-19440000D03*
X61519000Y-21629135D03*
X61519000Y-19029135D03*
X75040000Y-51910000D03*
X73770000Y-51910000D03*
X72500000Y-51910000D03*
X75970000Y-69370000D03*
X73370000Y-69370000D03*
X276010000Y-29600000D03*
X278610000Y-29600000D03*
X59070000Y-135140000D03*
X59070000Y-132540000D03*
X238570000Y-13920000D03*
X238570000Y-16520000D03*
X107239000Y-16210000D03*
X107239000Y-13610000D03*
X89459000Y-16210000D03*
X89459000Y-13610000D03*
X186270000Y-72220000D03*
X171760000Y-19750000D03*
X169160000Y-19750000D03*
X206520000Y-85120000D03*
X206520000Y-87720000D03*
X267570000Y-41320000D03*
X264970000Y-41320000D03*
X187757000Y-24220000D03*
X187757000Y-26820000D03*
X33470000Y-126220000D03*
X33470000Y-128820000D03*
X189870000Y-109720000D03*
X189870000Y-112320000D03*
X88430000Y-38030000D03*
X88430000Y-35430000D03*
X245660000Y-104920000D03*
X248260000Y-104920000D03*
X92253000Y-21580800D03*
X92253000Y-18980800D03*
X43370000Y-16210000D03*
X43370000Y-13610000D03*
X111770000Y-88780000D03*
X114370000Y-88780000D03*
X195400000Y-26820000D03*
X195400000Y-24220000D03*
X48819000Y-16210000D03*
X48819000Y-13610000D03*
X219270000Y-120520000D03*
X219270000Y-123120000D03*
X228397000Y-13920000D03*
X228397000Y-16520000D03*
X151950000Y-41620000D03*
X141790000Y-41620000D03*
X186520000Y-94120000D03*
X186520000Y-91520000D03*
X75990210Y-104740000D03*
X73390210Y-104740000D03*
X100880000Y-38030000D03*
X100880000Y-35430000D03*
X218244720Y-19020000D03*
X218244720Y-21620000D03*
X190316875Y-19020000D03*
X190316875Y-21620000D03*
X42170000Y-74710210D03*
X44770000Y-74710210D03*
X58979000Y-21629135D03*
X58979000Y-19029135D03*
X51640000Y-134980000D03*
X51640000Y-132380000D03*
X74219000Y-21629135D03*
X74219000Y-19029135D03*
X131013400Y-116603200D03*
X145821600Y-106113000D03*
X155981600Y-106113000D03*
X158040000Y-18510000D03*
X156770000Y-18510000D03*
X155500000Y-18510000D03*
X127914600Y-55871800D03*
X130514600Y-55871800D03*
X117399000Y-16210000D03*
X117399000Y-13610000D03*
X109779000Y-21629135D03*
X109779000Y-19029135D03*
X234510000Y-104620000D03*
X242130000Y-104620000D03*
X132570000Y-88780000D03*
X135170000Y-88780000D03*
X243570000Y-26820000D03*
X243570000Y-24220000D03*
X110780000Y-77200000D03*
X113380000Y-77200000D03*
X243670000Y-19020000D03*
X243670000Y-21620000D03*
X190278655Y-13920000D03*
X190278655Y-16520000D03*
X206070000Y-65720000D03*
X206070000Y-68320000D03*
X251170000Y-119370000D03*
X251170000Y-116770000D03*
X132570000Y-96280000D03*
X135170000Y-96280000D03*
X230939195Y-19020000D03*
X230939195Y-21620000D03*
X287720000Y-70130000D03*
X287720000Y-67530000D03*
X51930000Y-140310000D03*
X54430000Y-140310000D03*
X56430000Y-140310000D03*
X58930000Y-140310000D03*
X48860000Y-143310000D03*
X62000000Y-143310000D03*
X105840000Y-63230000D03*
X108440000Y-63230000D03*
X203011350Y-19020000D03*
X203011350Y-21620000D03*
X14910000Y-64600000D03*
X17450000Y-64600000D03*
X19990000Y-64600000D03*
X22530000Y-64600000D03*
X25070000Y-64600000D03*
X27610000Y-64600000D03*
X30150000Y-64600000D03*
X32690000Y-64600000D03*
X169090000Y-23110000D03*
X171690000Y-23110000D03*
X213870000Y-37820000D03*
X216470000Y-37820000D03*
X27470000Y-60720000D03*
X27470000Y-58120000D03*
X86919000Y-16210000D03*
X86919000Y-13610000D03*
X186270000Y-77920000D03*
X56439000Y-21629135D03*
X56439000Y-19029135D03*
X267670000Y-44820000D03*
X265070000Y-44820000D03*
X116700000Y-38030000D03*
X116700000Y-35430000D03*
X56439000Y-16210000D03*
X56439000Y-13610000D03*
X225857000Y-24220000D03*
X225857000Y-26820000D03*
X200570000Y-37920000D03*
X203170000Y-37920000D03*
X168820500Y-142735000D03*
X33770000Y-60820000D03*
X33770000Y-58220000D03*
X209810000Y-88850000D03*
X209810000Y-91450000D03*
X122204200Y-35424800D03*
X119604200Y-35424800D03*
X275950000Y-44840000D03*
X278550000Y-44840000D03*
X174870000Y-86320000D03*
X174870000Y-88860000D03*
X174870000Y-91400000D03*
X174870000Y-93940000D03*
X174870000Y-96480000D03*
X182490000Y-96480000D03*
X182490000Y-93940000D03*
X182490000Y-91400000D03*
X182490000Y-88860000D03*
X182490000Y-86320000D03*
X111770000Y-93780000D03*
X114370000Y-93780000D03*
X132600000Y-65590000D03*
X135200000Y-65590000D03*
X42290210Y-92510210D03*
X44890210Y-92510210D03*
X209770000Y-45020000D03*
X207170000Y-45020000D03*
X75990210Y-84910210D03*
X73390210Y-84910210D03*
X94710000Y-38030000D03*
X94710000Y-35430000D03*
X256570000Y-24220000D03*
X256570000Y-26820000D03*
X233477000Y-13920000D03*
X233477000Y-16520000D03*
X247549000Y-69970000D03*
X247549000Y-67370000D03*
X242170000Y-41520000D03*
X244770000Y-41520000D03*
X119939000Y-21629135D03*
X119939000Y-19029135D03*
X247320000Y-83370000D03*
X249920000Y-83370000D03*
X75990210Y-107810210D03*
X73390210Y-107810210D03*
X168420500Y-137335000D03*
X208077000Y-24220000D03*
X208077000Y-26820000D03*
X236070000Y-24220000D03*
X236070000Y-26820000D03*
X99619000Y-16210000D03*
X99619000Y-13610000D03*
X111770000Y-86180000D03*
X114370000Y-86180000D03*
X205537000Y-24220000D03*
X205537000Y-26820000D03*
X132600000Y-68090000D03*
X135200000Y-68090000D03*
X31670000Y-54520000D03*
X42290210Y-69710210D03*
X44890210Y-69710210D03*
X58979000Y-26963135D03*
X58979000Y-24363135D03*
X174870000Y-106320000D03*
X174870000Y-108860000D03*
X174870000Y-111400000D03*
X174870000Y-113940000D03*
X174870000Y-116480000D03*
X182490000Y-116480000D03*
X182490000Y-113940000D03*
X182490000Y-111400000D03*
X182490000Y-108860000D03*
X182490000Y-106320000D03*
X17470000Y-128820000D03*
X17470000Y-126220000D03*
X213157000Y-24220000D03*
X213157000Y-26820000D03*
X64186000Y-53220000D03*
X123270000Y-112720000D03*
X124770000Y-112720000D03*
X59106000Y-53220000D03*
X20570000Y-128820000D03*
X20570000Y-126220000D03*
X276170000Y-67320000D03*
X276170000Y-69860000D03*
X276170000Y-72400000D03*
X276170000Y-74940000D03*
X276170000Y-77480000D03*
X283790000Y-77480000D03*
X283790000Y-74940000D03*
X283790000Y-72400000D03*
X283790000Y-69860000D03*
X283790000Y-67320000D03*
X195570000Y-48220000D03*
X192970000Y-48220000D03*
X69270000Y-16210000D03*
X69270000Y-13610000D03*
X72220000Y-134520000D03*
X137160000Y-49440000D03*
X147320000Y-49440000D03*
X275950000Y-27060000D03*
X278550000Y-27060000D03*
X238470000Y-51020000D03*
X241070000Y-51020000D03*
X188020500Y-142335000D03*
X51359000Y-26963135D03*
X51359000Y-24363135D03*
X284450000Y-87970000D03*
X274290000Y-87970000D03*
X223170000Y-37820000D03*
X220570000Y-37820000D03*
X105840000Y-60410000D03*
X108440000Y-60410000D03*
X102159000Y-21629135D03*
X102159000Y-19029135D03*
X89459000Y-21629135D03*
X89459000Y-19029135D03*
X132570000Y-101480000D03*
X135170000Y-101480000D03*
X242170000Y-45020000D03*
X244770000Y-45020000D03*
X275950000Y-39760000D03*
X278550000Y-39760000D03*
X215697000Y-24220000D03*
X215697000Y-26820000D03*
X92253000Y-16210000D03*
X92253000Y-13610000D03*
X228870000Y-34320000D03*
X231470000Y-34320000D03*
X104216664Y-38030000D03*
X104216664Y-35430000D03*
X238470000Y-24220000D03*
X238470000Y-26820000D03*
X26970000Y-128820000D03*
X26970000Y-126220000D03*
X286230000Y-29600000D03*
X288830000Y-29600000D03*
X190370000Y-74820000D03*
X190370000Y-72220000D03*
X230360000Y-120520000D03*
X230360000Y-123120000D03*
X231110000Y-69560000D03*
X231110000Y-72160000D03*
X132570000Y-98880000D03*
X135170000Y-98880000D03*
X42290210Y-87510000D03*
X44890210Y-87510000D03*
X121183600Y-41266800D03*
X46270000Y-26963135D03*
X46270000Y-24363135D03*
X210970000Y-105820000D03*
X210970000Y-103220000D03*
X43870000Y-42320000D03*
X46470000Y-42320000D03*
X266420000Y-76970000D03*
X266420000Y-74370000D03*
X97079000Y-21629135D03*
X97079000Y-19029135D03*
X168120000Y-111470000D03*
X165520000Y-111470000D03*
X52121000Y-126839400D03*
X35670000Y-54520000D03*
X194870000Y-86320000D03*
X194870000Y-88860000D03*
X194870000Y-91400000D03*
X194870000Y-93940000D03*
X194870000Y-96480000D03*
X202490000Y-96480000D03*
X202490000Y-93940000D03*
X202490000Y-91400000D03*
X202490000Y-88860000D03*
X202490000Y-86320000D03*
X200444299Y-13920000D03*
X200444299Y-16520000D03*
X104699000Y-26963135D03*
X104699000Y-24363135D03*
X42170000Y-134320000D03*
X169189600Y-88510800D03*
X166589600Y-88510800D03*
X231070000Y-26820000D03*
X231070000Y-24220000D03*
X84510000Y-54870000D03*
X94670000Y-54870000D03*
X42290210Y-67210210D03*
X44890210Y-67210210D03*
X53899000Y-16210000D03*
X53899000Y-13610000D03*
X122479000Y-26963135D03*
X122479000Y-24363135D03*
X102159000Y-16210000D03*
X102159000Y-13610000D03*
X190297000Y-24220000D03*
X190297000Y-26820000D03*
X163770000Y-34320000D03*
X161170000Y-34320000D03*
X94539000Y-16210000D03*
X94539000Y-13610000D03*
X18415200Y-29303400D03*
X18415200Y-39463400D03*
X195394665Y-19020000D03*
X195394665Y-21620000D03*
X107360000Y-38030000D03*
X107360000Y-35430000D03*
X186270000Y-67420000D03*
X251220000Y-112820000D03*
X251220000Y-110220000D03*
X38709800Y-72193800D03*
X132600000Y-60490000D03*
X135200000Y-60490000D03*
X84125000Y-26963135D03*
X84125000Y-24363135D03*
X247820000Y-91670000D03*
X247820000Y-89070000D03*
X210670000Y-26820000D03*
X210670000Y-24220000D03*
X53899000Y-21629135D03*
X53899000Y-19029135D03*
X112319000Y-21629135D03*
X112319000Y-19029135D03*
X66599000Y-26963135D03*
X66599000Y-24363135D03*
X209770000Y-41420000D03*
X207170000Y-41420000D03*
X38709800Y-82303000D03*
X187030500Y-117645000D03*
X187030500Y-115045000D03*
X246710000Y-112920000D03*
X246710000Y-110320000D03*
X251370000Y-24220000D03*
X251370000Y-26820000D03*
X286230000Y-32140000D03*
X288830000Y-32140000D03*
X194870000Y-106320000D03*
X194870000Y-108860000D03*
X194870000Y-111400000D03*
X194870000Y-113940000D03*
X194870000Y-116480000D03*
X202490000Y-116480000D03*
X202490000Y-113940000D03*
X202490000Y-111400000D03*
X202490000Y-108860000D03*
X202490000Y-106320000D03*
X129070000Y-21640000D03*
X267200000Y-96030000D03*
X267200000Y-98630000D03*
X78892600Y-111802600D03*
X199470000Y-121820000D03*
X202070000Y-121820000D03*
X267132000Y-102557000D03*
X75990210Y-74810210D03*
X73390210Y-74810210D03*
X205550245Y-19020000D03*
X205550245Y-21620000D03*
X122479000Y-21629135D03*
X122479000Y-19029135D03*
X109779000Y-16210000D03*
X109779000Y-13610000D03*
X210270000Y-79120000D03*
X210270000Y-76520000D03*
X80569000Y-26963135D03*
X80569000Y-24363135D03*
X234610000Y-62320000D03*
X242230000Y-62320000D03*
X256470000Y-19020000D03*
X256470000Y-21620000D03*
X228400300Y-19020000D03*
X228400300Y-21620000D03*
X226470000Y-67320000D03*
X226470000Y-69920000D03*
X267470000Y-91220000D03*
X267470000Y-88620000D03*
X75990210Y-79910210D03*
X73390210Y-79910210D03*
X275950000Y-19440000D03*
X278550000Y-19440000D03*
X193820000Y-31710000D03*
X241170000Y-24220000D03*
X241170000Y-26820000D03*
X251100000Y-91520000D03*
X251100000Y-88920000D03*
X80569000Y-16210000D03*
X80569000Y-13610000D03*
X75990210Y-66020000D03*
X73390210Y-66020000D03*
X45190210Y-100210210D03*
X42590210Y-100210210D03*
X99619000Y-21629135D03*
X99619000Y-19029135D03*
X210670000Y-114020000D03*
X210670000Y-116620000D03*
X77521000Y-21629135D03*
X77521000Y-19029135D03*
X223270000Y-41420000D03*
X220670000Y-41420000D03*
X284500000Y-92620000D03*
X274340000Y-92620000D03*
X161870000Y-139720000D03*
X180140000Y-16520000D03*
X180140000Y-13920000D03*
X42290210Y-62110210D03*
X44890210Y-62110210D03*
X268370000Y-117720000D03*
X268370000Y-115120000D03*
X275950000Y-24520000D03*
X278550000Y-24520000D03*
X251970000Y-41420000D03*
X249370000Y-41420000D03*
X243658166Y-13920000D03*
X243658166Y-16520000D03*
X185195833Y-13920000D03*
X185195833Y-16520000D03*
X210070000Y-66820000D03*
X210070000Y-69420000D03*
X251020000Y-97420000D03*
X251020000Y-100020000D03*
X200370000Y-41420000D03*
X202970000Y-41420000D03*
X56439000Y-26963135D03*
X56439000Y-24363135D03*
X267370000Y-82320000D03*
X267370000Y-84920000D03*
X38300000Y-35450000D03*
X35700000Y-35450000D03*
X32600000Y-26730000D03*
X35200000Y-26730000D03*
X110470000Y-38030000D03*
X110470000Y-35430000D03*
X223322510Y-19020000D03*
X223322510Y-21620000D03*
X192970000Y-41120000D03*
X195570000Y-41120000D03*
X208068532Y-13920000D03*
X208068532Y-16520000D03*
X110780000Y-74280000D03*
X113380000Y-74280000D03*
X132600000Y-62990000D03*
X135200000Y-62990000D03*
X61640000Y-107730000D03*
X61340000Y-104700000D03*
X56490000Y-104700000D03*
X56190000Y-107730000D03*
X67805000Y-107860000D03*
X67805000Y-105320000D03*
X67805000Y-102780000D03*
X67805000Y-100240000D03*
X67805000Y-97700000D03*
X67805000Y-95160000D03*
X67805000Y-92620000D03*
X67805000Y-90080000D03*
X67805000Y-87540000D03*
X67805000Y-85000000D03*
X67805000Y-82460000D03*
X67805000Y-79920000D03*
X67805000Y-77380000D03*
X67805000Y-74840000D03*
X67805000Y-72300000D03*
X67805000Y-69760000D03*
X67805000Y-67220000D03*
X67805000Y-64680000D03*
X67805000Y-62140000D03*
X67805000Y-59600000D03*
X50025000Y-59600000D03*
X50025000Y-62140000D03*
X50025000Y-64680000D03*
X50025000Y-67220000D03*
X50025000Y-69760000D03*
X50025000Y-72300000D03*
X50025000Y-74840000D03*
X50025000Y-77380000D03*
X50025000Y-79920000D03*
X50025000Y-82460000D03*
X50025000Y-85000000D03*
X50025000Y-87540000D03*
X50025000Y-90080000D03*
X50025000Y-92620000D03*
X50025000Y-95160000D03*
X50025000Y-97700000D03*
X50025000Y-100240000D03*
X50025000Y-102780000D03*
X50025000Y-105320000D03*
X50025000Y-107860000D03*
X61455000Y-59830000D03*
X58915000Y-59830000D03*
X56375000Y-59830000D03*
X256770000Y-41320000D03*
X259370000Y-41320000D03*
X97079000Y-16210000D03*
X97079000Y-13610000D03*
X251070000Y-77120000D03*
X251070000Y-74520000D03*
X195570000Y-44620000D03*
X192970000Y-44620000D03*
X168170000Y-117020000D03*
X170770000Y-117020000D03*
X117399000Y-21629135D03*
X117399000Y-19029135D03*
X271870000Y-70230000D03*
X271870000Y-67630000D03*
X58979000Y-16210000D03*
X58979000Y-13610000D03*
X209770000Y-37920000D03*
X207170000Y-37920000D03*
X214870000Y-106320000D03*
X214870000Y-108860000D03*
X214870000Y-111400000D03*
X214870000Y-113940000D03*
X214870000Y-116480000D03*
X222490000Y-116480000D03*
X222490000Y-113940000D03*
X222490000Y-111400000D03*
X222490000Y-108860000D03*
X222490000Y-106320000D03*
X189870000Y-115020000D03*
X189870000Y-117620000D03*
X160670000Y-71520000D03*
X160670000Y-96920000D03*
X230937000Y-13920000D03*
X230937000Y-16520000D03*
X213151354Y-13920000D03*
X213151354Y-16520000D03*
X186670000Y-104520000D03*
X186670000Y-107120000D03*
X210170000Y-74320000D03*
X210170000Y-71720000D03*
X205527121Y-13920000D03*
X205527121Y-16520000D03*
X231170000Y-74680000D03*
X231170000Y-77280000D03*
X84379000Y-16210000D03*
X84379000Y-13610000D03*
X267670000Y-37720000D03*
X265070000Y-37720000D03*
X197933560Y-19020000D03*
X197933560Y-21620000D03*
X187777980Y-19020000D03*
X187777980Y-21620000D03*
X100914400Y-111929600D03*
X103454400Y-111929600D03*
X99161800Y-106113000D03*
X89001800Y-106113000D03*
X80070000Y-76270000D03*
X177622400Y-19020000D03*
X177622400Y-21620000D03*
X14670000Y-60720000D03*
X14670000Y-58120000D03*
X275950000Y-37220000D03*
X278550000Y-37220000D03*
X248670000Y-24220000D03*
X248670000Y-26820000D03*
X241070000Y-19020000D03*
X241070000Y-21620000D03*
X206420000Y-90320000D03*
X206420000Y-92920000D03*
X228470000Y-26820000D03*
X228470000Y-24220000D03*
X114859000Y-26963135D03*
X114859000Y-24363135D03*
X26190000Y-142120000D03*
X36350000Y-142120000D03*
X14910000Y-121800000D03*
X17450000Y-121800000D03*
X19990000Y-121800000D03*
X22530000Y-121800000D03*
X25070000Y-121800000D03*
X27610000Y-121800000D03*
X30150000Y-121800000D03*
X32690000Y-121800000D03*
X44890210Y-82410210D03*
X42290210Y-82410210D03*
X107239000Y-21629135D03*
X107239000Y-19029135D03*
M02*
