M48
; DRILL file {KiCad 7.0.5} date Tue Aug  8 11:47:51 2023
; FORMAT={-:-/ absolute / metric / decimal}
; #@! TF.CreationDate,2023-08-08T11:47:51-04:00
; #@! TF.GenerationSoftware,Kicad,Pcbnew,7.0.5
; #@! TF.FileFunction,MixedPlating,1,4
FMAT,2
METRIC
; #@! TA.AperFunction,Plated,PTH,ViaDrill
T1C0.400
; #@! TA.AperFunction,Plated,PTH,ComponentDrill
T2C0.600
; #@! TA.AperFunction,Plated,PTH,ComponentDrill
T3C0.700
; #@! TA.AperFunction,Plated,PTH,ComponentDrill
T4C0.750
; #@! TA.AperFunction,Plated,PTH,ComponentDrill
T5C0.800
; #@! TA.AperFunction,Plated,PTH,ComponentDrill
T6C0.900
; #@! TA.AperFunction,Plated,PTH,ComponentDrill
T7C0.920
; #@! TA.AperFunction,Plated,PTH,ComponentDrill
T8C1.000
; #@! TA.AperFunction,Plated,PTH,ComponentDrill
T9C1.020
; #@! TA.AperFunction,Plated,PTH,ComponentDrill
T10C1.200
; #@! TA.AperFunction,Plated,PTH,ComponentDrill
T11C1.500
; #@! TA.AperFunction,Plated,PTH,ComponentDrill
T12C1.600
; #@! TA.AperFunction,Plated,PTH,ComponentDrill
T13C2.330
; #@! TA.AperFunction,Plated,PTH,ComponentDrill
T14C2.800
; #@! TA.AperFunction,NonPlated,NPTH,ComponentDrill
T15C1.500
; #@! TA.AperFunction,NonPlated,NPTH,ComponentDrill
T16C1.800
; #@! TA.AperFunction,NonPlated,NPTH,ComponentDrill
T17C3.250
%
G90
G05
T1
X59.67Y-49.02
X86.01Y-45.02
X88.02Y-40.14
X92.17Y-48.02
X97.97Y-42.07
X98.92Y-67.77
X104.64Y-51.76
X119.42Y-43.97
X132.02Y-23.07
X174.02Y-126.07
X181.57Y-48.82
X183.62Y-51.22
X188.748Y-126.814
X193.827Y-126.84
X225.97Y-59.72
X229.032Y-100.728
X229.92Y-80.32
X242.57Y-60.02
X260.02Y-62.87
X263.17Y-59.82
X265.57Y-62.92
T2
X14.967Y-54.47
X16.467Y-54.47
X123.27Y-112.72
X124.77Y-112.72
T3
X31.67Y-54.52
X35.67Y-54.52
X38.71Y-72.194
X38.71Y-82.303
X39.235Y-96.019
X39.235Y-100.337
X39.235Y-106.636
X42.17Y-134.32
X42.17Y-138.52
X52.121Y-126.839
X54.026Y-53.22
X56.591Y-126.839
X59.106Y-53.22
X64.186Y-53.22
X72.22Y-134.52
X76.67Y-134.52
X80.07Y-76.27
X106.17Y-134.52
X110.75Y-31.48
X111.64Y-134.52
X129.07Y-16.3
X129.07Y-21.64
X132.44Y-31.67
X159.28Y-13.09
X161.87Y-139.72
X168.421Y-137.335
X168.82Y-142.735
X183.04Y-35.53
X186.27Y-67.42
X186.27Y-72.22
X186.27Y-77.92
X188.02Y-142.335
X188.12Y-137.135
X193.82Y-31.71
X193.921Y-139.735
X267.132Y-102.557
T4
X72.5Y-51.91
X73.77Y-51.91
X75.04Y-51.91
X155.5Y-18.51
X156.77Y-18.51
X158.04Y-18.51
T5
X13.564Y-29.303
X13.564Y-39.463
X18.415Y-29.303
X18.415Y-39.463
X26.11Y-136.12
X26.19Y-142.12
X36.27Y-136.12
X36.35Y-142.12
X41.351Y-122.841
X46.351Y-122.841
X84.51Y-54.87
X89.002Y-106.113
X94.67Y-54.87
X99.162Y-106.113
X119.97Y-60.5
X119.97Y-63.04
X119.97Y-65.58
X119.97Y-68.12
X119.97Y-70.66
X119.97Y-73.2
X119.97Y-75.74
X119.97Y-78.28
X119.97Y-86.18
X119.97Y-88.72
X119.97Y-91.26
X119.97Y-93.8
X119.97Y-96.34
X119.97Y-98.88
X119.97Y-101.42
X119.97Y-103.96
X127.59Y-60.5
X127.59Y-63.04
X127.59Y-65.58
X127.59Y-68.12
X127.59Y-70.66
X127.59Y-73.2
X127.59Y-75.74
X127.59Y-78.28
X127.59Y-86.18
X127.59Y-88.72
X127.59Y-91.26
X127.59Y-93.8
X127.59Y-96.34
X127.59Y-98.88
X127.59Y-101.42
X127.59Y-103.96
X137.16Y-49.44
X141.79Y-41.62
X142.39Y-13.67
X145.822Y-106.113
X147.32Y-49.44
X151.95Y-41.62
X152.55Y-13.67
X153.67Y-78.36
X153.67Y-88.52
X154.09Y-49.37
X155.982Y-106.113
X164.25Y-49.37
X234.51Y-104.62
X234.61Y-62.32
X234.86Y-83.27
X242.13Y-104.62
X242.23Y-62.32
X242.48Y-83.27
X274.29Y-87.97
X274.34Y-92.62
X284.45Y-87.97
X284.5Y-92.62
T6
X14.27Y-126.12
X14.27Y-128.72
X14.67Y-58.12
X14.67Y-60.72
X17.47Y-126.22
X17.47Y-128.82
X17.87Y-58.12
X17.87Y-60.72
X20.57Y-126.22
X20.57Y-128.82
X21.07Y-58.12
X21.07Y-60.72
X23.67Y-126.22
X23.67Y-128.82
X24.27Y-58.12
X24.27Y-60.72
X26.97Y-126.22
X26.97Y-128.82
X27.47Y-58.12
X27.47Y-60.72
X30.17Y-126.22
X30.17Y-128.82
X30.67Y-58.22
X30.67Y-60.82
X32.5Y-19.91
X32.6Y-23.48
X32.6Y-26.73
X33.47Y-126.22
X33.47Y-128.82
X33.77Y-58.22
X33.77Y-60.82
X35.1Y-19.91
X35.2Y-23.48
X35.2Y-26.73
X35.63Y-38.73
X35.683Y-42.334
X35.7Y-35.45
X38.23Y-38.73
X38.283Y-42.334
X38.3Y-35.45
X42.17Y-74.71
X42.29Y-59.51
X42.29Y-62.11
X42.29Y-67.21
X42.29Y-69.71
X42.29Y-72.21
X42.29Y-79.81
X42.29Y-82.41
X42.29Y-85.01
X42.29Y-87.51
X42.29Y-92.51
X42.37Y-90.02
X42.59Y-100.21
X43.37Y-13.61
X43.37Y-16.21
X43.47Y-19.029
X43.47Y-21.629
X43.47Y-24.363
X43.47Y-26.963
X43.77Y-35.52
X43.77Y-38.82
X43.87Y-42.32
X44.77Y-74.71
X44.89Y-59.51
X44.89Y-62.11
X44.89Y-67.21
X44.89Y-69.71
X44.89Y-72.21
X44.89Y-79.81
X44.89Y-82.41
X44.89Y-85.01
X44.89Y-87.51
X44.89Y-92.51
X44.97Y-90.02
X45.19Y-100.21
X46.27Y-19.029
X46.27Y-21.629
X46.27Y-24.363
X46.27Y-26.963
X46.279Y-13.61
X46.279Y-16.21
X46.37Y-35.52
X46.37Y-38.82
X46.47Y-42.32
X48.77Y-24.363
X48.77Y-26.963
X48.819Y-13.61
X48.819Y-16.21
X48.819Y-19.029
X48.819Y-21.629
X51.126Y-32.021
X51.126Y-35.196
X51.151Y-41.648
X51.177Y-38.422
X51.227Y-44.696
X51.359Y-13.61
X51.359Y-16.21
X51.359Y-19.029
X51.359Y-21.629
X51.359Y-24.363
X51.359Y-26.963
X51.64Y-132.38
X51.64Y-134.98
X53.726Y-32.021
X53.726Y-35.196
X53.751Y-41.648
X53.777Y-38.422
X53.827Y-44.696
X53.899Y-13.61
X53.899Y-16.21
X53.899Y-19.029
X53.899Y-21.629
X53.899Y-24.363
X53.899Y-26.963
X56.439Y-13.61
X56.439Y-16.21
X56.439Y-19.029
X56.439Y-21.629
X56.439Y-24.363
X56.439Y-26.963
X58.979Y-13.61
X58.979Y-16.21
X58.979Y-19.029
X58.979Y-21.629
X58.979Y-24.363
X58.979Y-26.963
X59.07Y-132.54
X59.07Y-135.14
X61.519Y-13.61
X61.519Y-16.21
X61.519Y-19.029
X61.519Y-21.629
X61.519Y-24.363
X61.519Y-26.963
X64.059Y-13.61
X64.059Y-16.21
X64.059Y-19.029
X64.059Y-21.629
X64.059Y-24.363
X64.059Y-26.963
X66.599Y-13.61
X66.599Y-16.21
X66.599Y-19.029
X66.599Y-21.629
X66.599Y-24.363
X66.599Y-26.963
X69.139Y-19.029
X69.139Y-21.629
X69.139Y-24.363
X69.139Y-26.963
X69.27Y-13.61
X69.27Y-16.21
X71.679Y-13.61
X71.679Y-16.21
X71.679Y-19.029
X71.679Y-21.629
X71.679Y-24.363
X71.679Y-26.963
X73.37Y-69.37
X73.39Y-59.51
X73.39Y-62.11
X73.39Y-66.02
X73.39Y-72.11
X73.39Y-74.81
X73.39Y-79.91
X73.39Y-82.41
X73.39Y-84.91
X73.39Y-87.51
X73.39Y-92.61
X73.39Y-95.11
X73.39Y-97.71
X73.39Y-100.21
X73.39Y-104.74
X73.39Y-107.81
X74.219Y-19.029
X74.219Y-21.629
X74.27Y-13.642
X74.27Y-16.242
X75.97Y-69.37
X75.99Y-59.51
X75.99Y-62.11
X75.99Y-66.02
X75.99Y-72.11
X75.99Y-74.81
X75.99Y-79.91
X75.99Y-82.41
X75.99Y-84.91
X75.99Y-87.51
X75.99Y-92.61
X75.99Y-95.11
X75.99Y-97.71
X75.99Y-100.21
X75.99Y-104.74
X75.99Y-107.81
X77.521Y-13.61
X77.521Y-16.21
X77.521Y-19.029
X77.521Y-21.629
X77.521Y-24.363
X77.521Y-26.963
X80.569Y-13.61
X80.569Y-16.21
X80.569Y-19.029
X80.569Y-21.629
X80.569Y-24.363
X80.569Y-26.963
X84.125Y-19.029
X84.125Y-21.629
X84.125Y-24.363
X84.125Y-26.963
X84.379Y-13.61
X84.379Y-16.21
X86.919Y-13.61
X86.919Y-16.21
X86.919Y-19.029
X86.919Y-21.629
X87.732Y-136.433
X88.43Y-35.43
X88.43Y-38.03
X89.002Y-133.893
X89.459Y-13.61
X89.459Y-16.21
X89.459Y-19.029
X89.459Y-21.629
X90.272Y-136.433
X91.542Y-133.893
X92.253Y-13.61
X92.253Y-16.21
X92.253Y-18.981
X92.253Y-21.581
X92.57Y-51.02
X92.812Y-136.433
X94.082Y-133.893
X94.539Y-13.61
X94.539Y-16.21
X94.539Y-19.029
X94.539Y-21.629
X94.539Y-24.363
X94.539Y-26.963
X94.71Y-35.43
X94.71Y-38.03
X95.17Y-51.02
X95.352Y-136.433
X96.622Y-133.893
X97.079Y-13.61
X97.079Y-16.21
X97.079Y-19.029
X97.079Y-21.629
X97.079Y-24.363
X97.079Y-26.963
X97.72Y-35.43
X97.72Y-38.03
X99.619Y-13.61
X99.619Y-16.21
X99.619Y-19.029
X99.619Y-21.629
X99.619Y-24.363
X99.619Y-26.963
X100.88Y-35.43
X100.88Y-38.03
X100.914Y-111.93
X102.159Y-13.61
X102.159Y-16.21
X102.159Y-19.029
X102.159Y-21.629
X102.159Y-24.363
X102.159Y-26.963
X103.454Y-111.93
X104.217Y-35.43
X104.217Y-38.03
X104.699Y-13.61
X104.699Y-16.21
X104.699Y-19.029
X104.699Y-21.629
X104.699Y-24.363
X104.699Y-26.963
X105.84Y-60.41
X105.84Y-63.23
X105.84Y-66.29
X107.239Y-13.61
X107.239Y-16.21
X107.239Y-19.029
X107.239Y-21.629
X107.239Y-24.363
X107.239Y-26.963
X107.36Y-35.43
X107.36Y-38.03
X108.44Y-60.41
X108.44Y-63.23
X108.44Y-66.29
X109.779Y-13.61
X109.779Y-16.21
X109.779Y-19.029
X109.779Y-21.629
X109.779Y-24.363
X109.779Y-26.963
X110.47Y-35.43
X110.47Y-38.03
X110.78Y-68.93
X110.78Y-71.5
X110.78Y-74.28
X110.78Y-77.2
X111.77Y-86.18
X111.77Y-88.78
X111.77Y-91.28
X111.77Y-93.78
X111.77Y-96.38
X111.77Y-98.88
X111.77Y-101.38
X112.319Y-13.61
X112.319Y-16.21
X112.319Y-19.029
X112.319Y-21.629
X112.319Y-24.363
X112.319Y-26.963
X113.38Y-68.93
X113.38Y-71.5
X113.38Y-74.28
X113.38Y-77.2
X113.58Y-35.43
X113.58Y-38.03
X114.37Y-86.18
X114.37Y-88.78
X114.37Y-91.28
X114.37Y-93.78
X114.37Y-96.38
X114.37Y-98.88
X114.37Y-101.38
X114.859Y-13.61
X114.859Y-16.21
X114.859Y-19.029
X114.859Y-21.629
X114.859Y-24.363
X114.859Y-26.963
X116.7Y-35.43
X116.7Y-38.03
X117.399Y-13.61
X117.399Y-16.21
X117.399Y-19.029
X117.399Y-21.629
X117.399Y-24.363
X117.399Y-26.963
X119.604Y-35.425
X119.939Y-13.61
X119.939Y-16.21
X119.939Y-19.029
X119.939Y-21.629
X119.939Y-24.363
X119.939Y-26.963
X119.98Y-47.17
X122.204Y-35.425
X122.479Y-13.61
X122.479Y-16.21
X122.479Y-19.029
X122.479Y-21.629
X122.479Y-24.363
X122.479Y-26.963
X122.58Y-47.17
X127.915Y-55.872
X130.515Y-55.872
X132.57Y-86.18
X132.57Y-88.78
X132.57Y-91.28
X132.57Y-93.88
X132.57Y-96.28
X132.57Y-98.88
X132.57Y-101.48
X132.6Y-60.49
X132.6Y-62.99
X132.6Y-65.59
X132.6Y-68.09
X132.6Y-70.69
X132.6Y-73.19
X132.6Y-75.79
X135.17Y-86.18
X135.17Y-88.78
X135.17Y-91.28
X135.17Y-93.88
X135.17Y-96.28
X135.17Y-98.88
X135.17Y-101.48
X135.2Y-60.49
X135.2Y-62.99
X135.2Y-65.59
X135.2Y-68.09
X135.2Y-70.69
X135.2Y-73.19
X135.2Y-75.79
X141.02Y-37.17
X143.345Y-111.93
X143.62Y-37.17
X145.885Y-111.93
X157.12Y-55.796
X159.72Y-55.796
X161.17Y-34.32
X163.64Y-13.06
X163.7Y-23.11
X163.75Y-16.45
X163.77Y-34.32
X165.52Y-107.97
X165.52Y-111.47
X166.24Y-13.06
X166.3Y-23.11
X166.35Y-16.45
X166.59Y-88.511
X166.59Y-94.571
X167.37Y-72.32
X168.12Y-107.97
X168.12Y-111.47
X168.17Y-117.02
X169.06Y-16.49
X169.09Y-23.11
X169.14Y-26.41
X169.16Y-19.75
X169.19Y-88.511
X169.19Y-94.571
X169.97Y-72.32
X170.77Y-117.02
X171.66Y-16.49
X171.69Y-23.11
X171.74Y-26.41
X171.76Y-19.75
X177.597Y-24.22
X177.597Y-26.82
X177.61Y-13.92
X177.61Y-16.52
X177.622Y-19.02
X177.622Y-21.62
X180.14Y-13.92
X180.14Y-16.52
X180.161Y-19.02
X180.161Y-21.62
X182.57Y-19.02
X182.57Y-21.62
X182.654Y-13.92
X182.654Y-16.52
X185.196Y-13.92
X185.196Y-16.52
X185.27Y-19.02
X185.27Y-21.62
X185.72Y-121.759
X186.47Y-86.12
X186.47Y-88.72
X186.52Y-91.52
X186.52Y-94.12
X186.67Y-104.52
X186.67Y-107.12
X186.67Y-109.72
X186.67Y-112.32
X187.03Y-115.045
X187.03Y-117.645
X187.737Y-13.92
X187.737Y-16.52
X187.757Y-24.22
X187.757Y-26.82
X187.778Y-19.02
X187.778Y-21.62
X188.32Y-121.759
X189.87Y-104.42
X189.87Y-107.02
X189.87Y-109.72
X189.87Y-112.32
X189.87Y-115.02
X189.87Y-117.62
X190.27Y-66.82
X190.27Y-69.42
X190.279Y-13.92
X190.279Y-16.52
X190.297Y-24.22
X190.297Y-26.82
X190.317Y-19.02
X190.317Y-21.62
X190.37Y-72.22
X190.37Y-74.82
X190.67Y-90.22
X190.67Y-92.82
X190.77Y-85.22
X190.77Y-87.82
X190.77Y-95.02
X190.77Y-97.62
X192.86Y-13.92
X192.86Y-16.52
X192.87Y-19.02
X192.87Y-21.62
X192.87Y-24.22
X192.87Y-26.82
X192.97Y-37.92
X192.97Y-41.12
X192.97Y-44.62
X192.97Y-48.22
X195.361Y-13.92
X195.361Y-16.52
X195.395Y-19.02
X195.395Y-21.62
X195.4Y-24.22
X195.4Y-26.82
X195.57Y-37.92
X195.57Y-41.12
X195.57Y-44.62
X195.57Y-48.22
X197.903Y-13.92
X197.903Y-16.52
X197.934Y-19.02
X197.934Y-21.62
X197.97Y-24.22
X197.97Y-26.82
X199.47Y-121.82
X200.37Y-41.42
X200.37Y-45.02
X200.444Y-13.92
X200.444Y-16.52
X200.472Y-19.02
X200.472Y-21.62
X200.57Y-24.22
X200.57Y-26.82
X200.57Y-37.92
X202.07Y-121.82
X202.97Y-41.42
X202.97Y-45.02
X202.986Y-13.92
X202.986Y-16.52
X202.997Y-24.22
X202.997Y-26.82
X203.011Y-19.02
X203.011Y-21.62
X203.17Y-37.92
X205.527Y-13.92
X205.527Y-16.52
X205.537Y-24.22
X205.537Y-26.82
X205.55Y-19.02
X205.55Y-21.62
X206.07Y-65.72
X206.07Y-68.32
X206.07Y-72.32
X206.07Y-74.92
X206.27Y-95.52
X206.27Y-98.12
X206.42Y-90.32
X206.42Y-92.92
X206.52Y-85.12
X206.52Y-87.72
X207.17Y-37.92
X207.17Y-41.42
X207.17Y-45.02
X207.17Y-109.87
X207.17Y-112.47
X207.17Y-117.92
X207.17Y-120.52
X208.069Y-13.92
X208.069Y-16.52
X208.077Y-19.02
X208.077Y-21.62
X208.077Y-24.22
X208.077Y-26.82
X209.77Y-37.92
X209.77Y-41.42
X209.77Y-45.02
X209.81Y-88.85
X209.81Y-91.45
X210.07Y-66.82
X210.07Y-69.42
X210.17Y-71.72
X210.17Y-74.32
X210.27Y-76.52
X210.27Y-79.12
X210.61Y-13.92
X210.61Y-16.52
X210.628Y-19.02
X210.628Y-21.62
X210.67Y-24.22
X210.67Y-26.82
X210.67Y-114.02
X210.67Y-116.62
X210.97Y-103.22
X210.97Y-105.82
X210.97Y-108.12
X210.97Y-110.72
X213.151Y-13.92
X213.151Y-16.52
X213.157Y-24.22
X213.157Y-26.82
X213.167Y-19.02
X213.167Y-21.62
X213.77Y-44.92
X213.87Y-37.82
X213.87Y-41.32
X215.693Y-13.92
X215.693Y-16.52
X215.697Y-24.22
X215.697Y-26.82
X215.706Y-19.02
X215.706Y-21.62
X216.37Y-44.92
X216.47Y-37.82
X216.47Y-41.32
X218.234Y-13.92
X218.234Y-16.52
X218.245Y-19.02
X218.245Y-21.62
X218.364Y-24.22
X218.364Y-26.82
X219.27Y-120.52
X219.27Y-123.12
X219.87Y-101.42
X220.57Y-37.82
X220.67Y-41.42
X220.67Y-44.92
X220.776Y-13.92
X220.776Y-16.52
X220.78Y-48.55
X220.784Y-19.02
X220.784Y-21.62
X220.85Y-51.63
X220.904Y-24.22
X220.904Y-26.82
X222.47Y-101.42
X223.17Y-37.82
X223.27Y-41.42
X223.27Y-44.92
X223.317Y-13.92
X223.317Y-16.52
X223.323Y-19.02
X223.323Y-21.62
X223.37Y-24.22
X223.37Y-26.82
X223.38Y-48.55
X223.45Y-51.63
X225.857Y-13.92
X225.857Y-16.52
X225.857Y-24.22
X225.857Y-26.82
X225.861Y-19.02
X225.861Y-21.62
X226.17Y-108.92
X226.17Y-111.52
X226.47Y-67.32
X226.47Y-69.92
X226.57Y-72.37
X226.57Y-74.97
X228.397Y-13.92
X228.397Y-16.52
X228.4Y-19.02
X228.4Y-21.62
X228.47Y-24.22
X228.47Y-26.82
X228.87Y-34.32
X228.87Y-37.82
X228.97Y-44.82
X228.97Y-48.22
X229.67Y-109.62
X229.67Y-112.22
X230.31Y-115.12
X230.31Y-117.72
X230.36Y-120.52
X230.36Y-123.12
X230.62Y-89.07
X230.62Y-91.67
X230.937Y-13.92
X230.937Y-16.52
X230.939Y-19.02
X230.939Y-21.62
X231.07Y-24.22
X231.07Y-26.82
X231.11Y-69.56
X231.11Y-72.16
X231.17Y-74.68
X231.17Y-77.28
X231.47Y-34.32
X231.47Y-37.82
X231.57Y-44.82
X231.57Y-48.22
X233.477Y-13.92
X233.477Y-16.52
X233.478Y-19.02
X233.478Y-21.62
X233.57Y-24.22
X233.57Y-26.82
X235.17Y-41.42
X236.017Y-13.92
X236.017Y-16.52
X236.017Y-19.02
X236.017Y-21.62
X236.07Y-24.22
X236.07Y-26.82
X237.77Y-41.42
X238.47Y-19.02
X238.47Y-21.62
X238.47Y-24.22
X238.47Y-26.82
X238.47Y-51.02
X238.57Y-13.92
X238.57Y-16.52
X241.05Y-13.92
X241.05Y-16.52
X241.07Y-19.02
X241.07Y-21.62
X241.07Y-51.02
X241.17Y-24.22
X241.17Y-26.82
X242.07Y-37.92
X242.17Y-41.52
X242.17Y-45.02
X243.57Y-24.22
X243.57Y-26.82
X243.658Y-13.92
X243.658Y-16.52
X243.67Y-19.02
X243.67Y-21.62
X244.67Y-37.92
X244.77Y-41.52
X244.77Y-45.02
X245.66Y-104.92
X246.17Y-13.92
X246.17Y-16.52
X246.177Y-19.02
X246.177Y-21.62
X246.27Y-24.22
X246.27Y-26.82
X246.71Y-110.32
X246.71Y-112.92
X246.77Y-116.62
X246.77Y-119.22
X247.32Y-83.37
X247.51Y-72.34
X247.51Y-74.94
X247.549Y-67.37
X247.549Y-69.97
X247.82Y-89.07
X247.82Y-91.67
X247.92Y-95.02
X247.92Y-97.62
X248.26Y-104.92
X248.67Y-24.22
X248.67Y-26.82
X248.77Y-13.92
X248.77Y-16.52
X248.77Y-19.02
X248.77Y-21.62
X249.12Y-62.27
X249.37Y-37.82
X249.37Y-41.42
X249.37Y-44.92
X249.92Y-83.37
X250.67Y-67.42
X250.67Y-70.02
X251.02Y-97.42
X251.02Y-100.02
X251.07Y-74.52
X251.07Y-77.12
X251.1Y-88.92
X251.1Y-91.52
X251.17Y-116.77
X251.17Y-119.37
X251.22Y-110.22
X251.22Y-112.82
X251.37Y-13.92
X251.37Y-16.52
X251.37Y-19.02
X251.37Y-21.62
X251.37Y-24.22
X251.37Y-26.82
X251.72Y-62.27
X251.97Y-37.82
X251.97Y-41.42
X251.97Y-44.92
X253.87Y-13.92
X253.87Y-16.52
X253.97Y-19.02
X253.97Y-21.62
X253.97Y-24.22
X253.97Y-26.82
X256.18Y-104.462
X256.37Y-13.92
X256.37Y-16.52
X256.47Y-19.02
X256.47Y-21.62
X256.57Y-24.22
X256.57Y-26.82
X256.67Y-37.72
X256.77Y-41.32
X256.87Y-44.82
X258.78Y-104.462
X259.27Y-37.72
X259.37Y-41.32
X259.47Y-44.82
X264.97Y-41.32
X265.07Y-37.72
X265.07Y-44.82
X266.42Y-74.37
X266.42Y-76.97
X267.2Y-96.03
X267.2Y-98.63
X267.37Y-82.32
X267.37Y-84.92
X267.47Y-88.62
X267.47Y-91.22
X267.57Y-41.32
X267.67Y-37.72
X267.67Y-44.82
X268.37Y-115.12
X268.37Y-117.72
X271.87Y-67.63
X271.87Y-70.23
X271.92Y-72.63
X271.92Y-75.23
X275.95Y-19.44
X275.95Y-24.52
X275.95Y-27.06
X275.95Y-32.14
X275.95Y-37.22
X275.95Y-39.76
X275.95Y-42.3
X275.95Y-44.84
X276.01Y-21.98
X276.01Y-29.6
X276.01Y-34.68
X278.55Y-19.44
X278.55Y-24.52
X278.55Y-27.06
X278.55Y-32.14
X278.55Y-37.22
X278.55Y-39.76
X278.55Y-42.3
X278.55Y-44.84
X278.61Y-21.98
X278.61Y-29.6
X278.61Y-34.68
X286.17Y-19.44
X286.17Y-24.52
X286.17Y-27.06
X286.23Y-21.98
X286.23Y-29.6
X286.23Y-32.14
X287.72Y-67.53
X287.72Y-70.13
X287.771Y-75.38
X287.771Y-77.98
X288.77Y-19.44
X288.77Y-24.52
X288.77Y-27.06
X288.83Y-21.98
X288.83Y-29.6
X288.83Y-32.14
T7
X51.93Y-140.31
X54.43Y-140.31
X56.43Y-140.31
X58.93Y-140.31
T8
X14.91Y-64.6
X14.91Y-121.8
X17.45Y-64.6
X17.45Y-121.8
X19.99Y-64.6
X19.99Y-121.8
X22.53Y-64.6
X22.53Y-121.8
X25.07Y-64.6
X25.07Y-121.8
X27.61Y-64.6
X27.61Y-121.8
X30.15Y-64.6
X30.15Y-121.8
X32.69Y-64.6
X32.69Y-121.8
X43.612Y-5.165
X43.612Y-7.705
X43.612Y-10.245
X46.152Y-5.165
X46.152Y-7.705
X46.152Y-10.245
X48.692Y-5.165
X48.692Y-7.705
X48.692Y-10.245
X51.232Y-5.165
X51.232Y-7.705
X51.232Y-10.245
X53.772Y-5.165
X53.772Y-7.705
X53.772Y-10.245
X56.312Y-5.165
X56.312Y-7.705
X56.312Y-10.245
X58.852Y-5.165
X58.852Y-7.705
X58.852Y-10.245
X61.392Y-5.165
X61.392Y-7.705
X61.392Y-10.245
X63.932Y-5.165
X63.932Y-7.705
X63.932Y-10.245
X66.472Y-5.165
X66.472Y-7.705
X66.472Y-10.245
X69.012Y-5.165
X69.012Y-7.705
X69.012Y-10.245
X71.552Y-5.165
X71.552Y-7.705
X71.552Y-10.245
X74.092Y-5.165
X74.092Y-7.705
X74.092Y-10.245
X76.632Y-5.165
X76.632Y-7.705
X76.632Y-10.245
X79.172Y-5.165
X79.172Y-7.705
X79.172Y-10.245
X81.712Y-5.165
X81.712Y-7.705
X81.712Y-10.245
X84.252Y-5.165
X84.252Y-7.705
X84.252Y-10.245
X86.792Y-5.165
X86.792Y-7.705
X86.792Y-10.245
X89.332Y-5.165
X89.332Y-7.705
X89.332Y-10.245
X91.872Y-5.165
X91.872Y-7.705
X91.872Y-10.245
X94.412Y-5.165
X94.412Y-7.705
X94.412Y-10.245
X96.952Y-5.165
X96.952Y-7.705
X96.952Y-10.245
X99.492Y-5.165
X99.492Y-7.705
X99.492Y-10.245
X102.032Y-5.165
X102.032Y-7.705
X102.032Y-10.245
X104.572Y-5.165
X104.572Y-7.705
X104.572Y-10.245
X107.112Y-5.165
X107.112Y-7.705
X107.112Y-10.245
X109.652Y-5.165
X109.652Y-7.705
X109.652Y-10.245
X112.192Y-5.165
X112.192Y-7.705
X112.192Y-10.245
X114.732Y-5.165
X114.732Y-7.705
X114.732Y-10.245
X117.272Y-5.165
X117.272Y-7.705
X117.272Y-10.245
X119.812Y-5.165
X119.812Y-7.705
X119.812Y-10.245
X122.352Y-5.165
X122.352Y-7.705
X122.352Y-10.245
X174.331Y-134.645
X174.331Y-137.185
X174.331Y-139.725
X174.331Y-142.265
X174.331Y-144.805
X174.87Y-67.32
X174.87Y-69.86
X174.87Y-72.4
X174.87Y-74.94
X174.87Y-77.48
X174.87Y-86.32
X174.87Y-88.86
X174.87Y-91.4
X174.87Y-93.94
X174.87Y-96.48
X174.87Y-106.32
X174.87Y-108.86
X174.87Y-111.4
X174.87Y-113.94
X174.87Y-116.48
X177.648Y-5.165
X177.648Y-7.705
X177.648Y-10.245
X180.188Y-5.165
X180.188Y-7.705
X180.188Y-10.245
X181.951Y-134.645
X181.951Y-137.185
X181.951Y-139.725
X181.951Y-142.265
X181.951Y-144.805
X182.49Y-67.32
X182.49Y-69.86
X182.49Y-72.4
X182.49Y-74.94
X182.49Y-77.48
X182.49Y-86.32
X182.49Y-88.86
X182.49Y-91.4
X182.49Y-93.94
X182.49Y-96.48
X182.49Y-106.32
X182.49Y-108.86
X182.49Y-111.4
X182.49Y-113.94
X182.49Y-116.48
X182.728Y-5.165
X182.728Y-7.705
X182.728Y-10.245
X185.268Y-5.165
X185.268Y-7.705
X185.268Y-10.245
X187.808Y-5.165
X187.808Y-7.705
X187.808Y-10.245
X190.348Y-5.165
X190.348Y-7.705
X190.348Y-10.245
X192.888Y-5.165
X192.888Y-7.705
X192.888Y-10.245
X194.67Y-67.32
X194.67Y-69.86
X194.67Y-72.4
X194.67Y-74.94
X194.67Y-77.48
X194.87Y-86.32
X194.87Y-88.86
X194.87Y-91.4
X194.87Y-93.94
X194.87Y-96.48
X194.87Y-106.32
X194.87Y-108.86
X194.87Y-111.4
X194.87Y-113.94
X194.87Y-116.48
X195.428Y-5.165
X195.428Y-7.705
X195.428Y-10.245
X197.968Y-5.165
X197.968Y-7.705
X197.968Y-10.245
X200.508Y-5.165
X200.508Y-7.705
X200.508Y-10.245
X202.29Y-67.32
X202.29Y-69.86
X202.29Y-72.4
X202.29Y-74.94
X202.29Y-77.48
X202.49Y-86.32
X202.49Y-88.86
X202.49Y-91.4
X202.49Y-93.94
X202.49Y-96.48
X202.49Y-106.32
X202.49Y-108.86
X202.49Y-111.4
X202.49Y-113.94
X202.49Y-116.48
X203.048Y-5.165
X203.048Y-7.705
X203.048Y-10.245
X205.588Y-5.165
X205.588Y-7.705
X205.588Y-10.245
X208.128Y-5.165
X208.128Y-7.705
X208.128Y-10.245
X210.668Y-5.165
X210.668Y-7.705
X210.668Y-10.245
X213.208Y-5.165
X213.208Y-7.705
X213.208Y-10.245
X214.87Y-67.32
X214.87Y-69.86
X214.87Y-72.4
X214.87Y-74.94
X214.87Y-77.48
X214.87Y-86.32
X214.87Y-88.86
X214.87Y-91.4
X214.87Y-93.94
X214.87Y-96.48
X214.87Y-106.32
X214.87Y-108.86
X214.87Y-111.4
X214.87Y-113.94
X214.87Y-116.48
X215.748Y-5.165
X215.748Y-7.705
X215.748Y-10.245
X218.288Y-5.165
X218.288Y-7.705
X218.288Y-10.245
X220.828Y-5.165
X220.828Y-7.705
X220.828Y-10.245
X222.49Y-67.32
X222.49Y-69.86
X222.49Y-72.4
X222.49Y-74.94
X222.49Y-77.48
X222.49Y-86.32
X222.49Y-88.86
X222.49Y-91.4
X222.49Y-93.94
X222.49Y-96.48
X222.49Y-106.32
X222.49Y-108.86
X222.49Y-111.4
X222.49Y-113.94
X222.49Y-116.48
X223.368Y-5.165
X223.368Y-7.705
X223.368Y-10.245
X225.908Y-5.165
X225.908Y-7.705
X225.908Y-10.245
X228.448Y-5.165
X228.448Y-7.705
X228.448Y-10.245
X230.988Y-5.165
X230.988Y-7.705
X230.988Y-10.245
X233.528Y-5.165
X233.528Y-7.705
X233.528Y-10.245
X234.87Y-67.32
X234.87Y-69.86
X234.87Y-72.4
X234.87Y-74.94
X234.87Y-77.48
X234.91Y-109.92
X234.91Y-112.46
X234.91Y-115.0
X234.91Y-117.54
X234.91Y-120.08
X234.92Y-88.77
X234.92Y-91.31
X234.92Y-93.85
X234.92Y-96.39
X234.92Y-98.93
X236.068Y-5.165
X236.068Y-7.705
X236.068Y-10.245
X238.608Y-5.165
X238.608Y-7.705
X238.608Y-10.245
X241.148Y-5.165
X241.148Y-7.705
X241.148Y-10.245
X242.49Y-67.32
X242.49Y-69.86
X242.49Y-72.4
X242.49Y-74.94
X242.49Y-77.48
X242.53Y-109.92
X242.53Y-112.46
X242.53Y-115.0
X242.53Y-117.54
X242.53Y-120.08
X242.54Y-88.77
X242.54Y-91.31
X242.54Y-93.85
X242.54Y-96.39
X242.54Y-98.93
X243.688Y-5.165
X243.688Y-7.705
X243.688Y-10.245
X246.228Y-5.165
X246.228Y-7.705
X246.228Y-10.245
X248.768Y-5.165
X248.768Y-7.705
X248.768Y-10.245
X251.308Y-5.165
X251.308Y-7.705
X251.308Y-10.245
X253.848Y-5.165
X253.848Y-7.705
X253.848Y-10.245
X254.8Y-88.93
X254.8Y-91.47
X254.8Y-94.01
X254.8Y-96.55
X254.8Y-99.09
X254.87Y-67.32
X254.87Y-69.86
X254.87Y-72.4
X254.87Y-74.94
X254.87Y-77.48
X255.55Y-109.79
X255.55Y-112.33
X255.55Y-114.87
X255.55Y-117.41
X255.55Y-119.95
X256.388Y-5.165
X256.388Y-7.705
X256.388Y-10.245
X262.42Y-88.93
X262.42Y-91.47
X262.42Y-94.01
X262.42Y-96.55
X262.42Y-99.09
X262.49Y-67.32
X262.49Y-69.86
X262.49Y-72.4
X262.49Y-74.94
X262.49Y-77.48
X263.17Y-109.79
X263.17Y-112.33
X263.17Y-114.87
X263.17Y-117.41
X263.17Y-119.95
X276.17Y-67.32
X276.17Y-69.86
X276.17Y-72.4
X276.17Y-74.94
X276.17Y-77.48
X283.79Y-67.32
X283.79Y-69.86
X283.79Y-72.4
X283.79Y-74.94
X283.79Y-77.48
T9
X50.025Y-59.6
X50.025Y-62.14
X50.025Y-64.68
X50.025Y-67.22
X50.025Y-69.76
X50.025Y-72.3
X50.025Y-74.84
X50.025Y-77.38
X50.025Y-79.92
X50.025Y-82.46
X50.025Y-85.0
X50.025Y-87.54
X50.025Y-90.08
X50.025Y-92.62
X50.025Y-95.16
X50.025Y-97.7
X50.025Y-100.24
X50.025Y-102.78
X50.025Y-105.32
X50.025Y-107.86
X56.375Y-59.83
X58.915Y-59.83
X61.455Y-59.83
X67.805Y-59.6
X67.805Y-62.14
X67.805Y-64.68
X67.805Y-67.22
X67.805Y-69.76
X67.805Y-72.3
X67.805Y-74.84
X67.805Y-77.38
X67.805Y-79.92
X67.805Y-82.46
X67.805Y-85.0
X67.805Y-87.54
X67.805Y-90.08
X67.805Y-92.62
X67.805Y-95.16
X67.805Y-97.7
X67.805Y-100.24
X67.805Y-102.78
X67.805Y-105.32
X67.805Y-107.86
T10
X26.035Y-9.796
X26.035Y-35.196
X160.67Y-71.52
X160.67Y-96.92
T11
X78.893Y-111.803
X121.184Y-41.267
X124.77Y-132.32
X131.013Y-116.603
T12
X84.152Y-140.033
X84.262Y-145.833
X100.092Y-145.833
X100.202Y-140.033
T13
X48.86Y-143.31
X62.0Y-143.31
T14
X38.532Y-2.625
X127.432Y-2.625
X172.568Y-2.625
X261.468Y-2.625
T15
X56.49Y-104.7
X61.34Y-104.7
T16
X56.19Y-107.73
X61.64Y-107.73
T17
X86.462Y-142.783
X97.892Y-142.783
T0
M30
