%TF.GenerationSoftware,KiCad,Pcbnew,7.0.5*%
%TF.CreationDate,2025-02-05T20:03:38-05:00*%
%TF.ProjectId,selftest_bd,73656c66-7465-4737-945f-62642e6b6963,2.1*%
%TF.SameCoordinates,Original*%
%TF.FileFunction,Soldermask,Top*%
%TF.FilePolarity,Negative*%
%FSLAX46Y46*%
G04 Gerber Fmt 4.6, Leading zero omitted, Abs format (unit mm)*
G04 Created by KiCad (PCBNEW 7.0.5) date 2025-02-05 20:03:38*
%MOMM*%
%LPD*%
G01*
G04 APERTURE LIST*
%ADD10C,1.500000*%
%ADD11R,1.800000X1.800000*%
%ADD12C,1.800000*%
%ADD13O,2.300000X1.600000*%
%ADD14R,1.600000X1.600000*%
%ADD15O,1.600000X1.600000*%
%ADD16C,3.250000*%
%ADD17R,1.408000X1.408000*%
%ADD18C,1.408000*%
%ADD19C,2.400000*%
%ADD20C,4.200000*%
%ADD21C,1.600000*%
%ADD22R,1.500000X1.500000*%
%ADD23R,2.400000X1.600000*%
%ADD24O,2.400000X1.600000*%
%ADD25O,2.400000X2.400000*%
%ADD26C,3.000000*%
%ADD27R,1.428000X1.428000*%
%ADD28C,1.428000*%
%ADD29C,3.346000*%
%ADD30R,1.700000X1.700000*%
%ADD31O,1.700000X1.700000*%
%ADD32O,1.800000X1.800000*%
%ADD33O,1.500000X1.500000*%
%ADD34R,3.500000X1.700000*%
%ADD35R,1.700000X3.500000*%
G04 APERTURE END LIST*
D10*
%TO.C,TP15*%
X279531800Y-146020000D03*
%TD*%
%TO.C,TP32*%
X91753500Y-186994335D03*
%TD*%
%TO.C,TP5*%
X323469000Y-73660000D03*
%TD*%
D11*
%TO.C,D4*%
X226893200Y-185851800D03*
D12*
X229433200Y-185851800D03*
%TD*%
D10*
%TO.C,TP23*%
X266217400Y-189204600D03*
%TD*%
%TO.C,TP40*%
X255143000Y-167767000D03*
%TD*%
D13*
%TO.C,K16*%
X189778400Y-122651600D03*
X189778400Y-120111600D03*
X189778400Y-117571600D03*
X189778400Y-115031600D03*
X189778400Y-112491600D03*
X182158400Y-112491600D03*
X182158400Y-115031600D03*
X182158400Y-117571600D03*
X182158400Y-120111600D03*
X182158400Y-122651600D03*
%TD*%
D10*
%TO.C,TP35*%
X97553500Y-189594335D03*
%TD*%
D13*
%TO.C,K4*%
X189845200Y-161656200D03*
X189845200Y-159116200D03*
X189845200Y-156576200D03*
X189845200Y-154036200D03*
X189845200Y-151496200D03*
X182225200Y-151496200D03*
X182225200Y-154036200D03*
X182225200Y-156576200D03*
X182225200Y-159116200D03*
X182225200Y-161656200D03*
%TD*%
D14*
%TO.C,D1*%
X129855200Y-145706200D03*
D15*
X122235200Y-145706200D03*
%TD*%
D16*
%TO.C,J3*%
X287959800Y-180390800D03*
X276529800Y-180390800D03*
D17*
X286689800Y-186740800D03*
D18*
X285419800Y-189280800D03*
X284149800Y-186740800D03*
X282879800Y-189280800D03*
X281609800Y-186740800D03*
X280339800Y-189280800D03*
X279069800Y-186740800D03*
X277799800Y-189280800D03*
D19*
X290269800Y-183140800D03*
X290159800Y-177340800D03*
X274329800Y-177340800D03*
X274219800Y-183140800D03*
%TD*%
D10*
%TO.C,J2*%
X186182000Y-52595335D03*
X183642000Y-52595335D03*
X181102000Y-52595335D03*
X178562000Y-52595335D03*
X176022000Y-52595335D03*
X173482000Y-52595335D03*
X170942000Y-52595335D03*
X168402000Y-52595335D03*
X165862000Y-52595335D03*
X163322000Y-52595335D03*
X160782000Y-52595335D03*
X158242000Y-52595335D03*
X155702000Y-52595335D03*
X153162000Y-52595335D03*
X150622000Y-52595335D03*
X148082000Y-52595335D03*
X145542000Y-52595335D03*
X143002000Y-52595335D03*
X140462000Y-52595335D03*
X137922000Y-52595335D03*
X135382000Y-52595335D03*
X132842000Y-52595335D03*
X130302000Y-52595335D03*
X127762000Y-52595335D03*
X125222000Y-52595335D03*
X122682000Y-52595335D03*
X120142000Y-52595335D03*
X117602000Y-52595335D03*
X115062000Y-52595335D03*
X112522000Y-52595335D03*
X109982000Y-52595335D03*
X107442000Y-52595335D03*
X186182000Y-55135335D03*
X183642000Y-55135335D03*
X181102000Y-55135335D03*
X178562000Y-55135335D03*
X176022000Y-55135335D03*
X173482000Y-55135335D03*
X170942000Y-55135335D03*
X168402000Y-55135335D03*
X165862000Y-55135335D03*
X163322000Y-55135335D03*
X160782000Y-55135335D03*
X158242000Y-55135335D03*
X155702000Y-55135335D03*
X153162000Y-55135335D03*
X150622000Y-55135335D03*
X148082000Y-55135335D03*
X145542000Y-55135335D03*
X143002000Y-55135335D03*
X140462000Y-55135335D03*
X137922000Y-55135335D03*
X135382000Y-55135335D03*
X132842000Y-55135335D03*
X130302000Y-55135335D03*
X127762000Y-55135335D03*
X125222000Y-55135335D03*
X122682000Y-55135335D03*
X120142000Y-55135335D03*
X117602000Y-55135335D03*
X115062000Y-55135335D03*
X112522000Y-55135335D03*
X109982000Y-55135335D03*
X107442000Y-55135335D03*
X186182000Y-57675335D03*
X183642000Y-57675335D03*
X181102000Y-57675335D03*
X178562000Y-57675335D03*
X176022000Y-57675335D03*
X173482000Y-57675335D03*
X170942000Y-57675335D03*
X168402000Y-57675335D03*
X165862000Y-57675335D03*
X163322000Y-57675335D03*
X160782000Y-57675335D03*
X158242000Y-57675335D03*
X155702000Y-57675335D03*
X153162000Y-57675335D03*
X150622000Y-57675335D03*
X148082000Y-57675335D03*
X145542000Y-57675335D03*
X143002000Y-57675335D03*
X140462000Y-57675335D03*
X137922000Y-57675335D03*
X135382000Y-57675335D03*
X132842000Y-57675335D03*
X130302000Y-57675335D03*
X127762000Y-57675335D03*
X125222000Y-57675335D03*
X122682000Y-57675335D03*
X120142000Y-57675335D03*
X117602000Y-57675335D03*
X115062000Y-57675335D03*
X112522000Y-57675335D03*
X109982000Y-57675335D03*
X107442000Y-57675335D03*
D20*
X191262000Y-50055335D03*
X102362000Y-50055335D03*
%TD*%
D10*
%TO.C,TP2*%
X308641200Y-77724000D03*
%TD*%
%TO.C,TP11*%
X294221400Y-101256600D03*
%TD*%
%TO.C,TP9*%
X89099600Y-60248665D03*
%TD*%
D21*
%TO.C,R9*%
X325501000Y-171196000D03*
D15*
X315341000Y-171196000D03*
%TD*%
D21*
%TO.C,R1*%
X211045200Y-150616200D03*
D15*
X211045200Y-140456200D03*
%TD*%
D21*
%TO.C,R7*%
X84886800Y-84480400D03*
D15*
X95046800Y-84480400D03*
%TD*%
D13*
%TO.C,K17*%
X111343500Y-192084335D03*
X111343500Y-189544335D03*
X111343500Y-187004335D03*
X111343500Y-184464335D03*
X111343500Y-181924335D03*
X103723500Y-181924335D03*
X103723500Y-184464335D03*
X103723500Y-187004335D03*
X103723500Y-189544335D03*
X103723500Y-192084335D03*
%TD*%
D10*
%TO.C,TP4*%
X117221000Y-83439000D03*
%TD*%
%TO.C,J1*%
X320217800Y-52595335D03*
X317677800Y-52595335D03*
X315137800Y-52595335D03*
X312597800Y-52595335D03*
X310057800Y-52595335D03*
X307517800Y-52595335D03*
X304977800Y-52595335D03*
X302437800Y-52595335D03*
X299897800Y-52595335D03*
X297357800Y-52595335D03*
X294817800Y-52595335D03*
X292277800Y-52595335D03*
X289737800Y-52595335D03*
X287197800Y-52595335D03*
X284657800Y-52595335D03*
X282117800Y-52595335D03*
X279577800Y-52595335D03*
X277037800Y-52595335D03*
X274497800Y-52595335D03*
X271957800Y-52595335D03*
X269417800Y-52595335D03*
X266877800Y-52595335D03*
X264337800Y-52595335D03*
X261797800Y-52595335D03*
X259257800Y-52595335D03*
X256717800Y-52595335D03*
X254177800Y-52595335D03*
X251637800Y-52595335D03*
X249097800Y-52595335D03*
X246557800Y-52595335D03*
X244017800Y-52595335D03*
X241477800Y-52595335D03*
X320217800Y-55135335D03*
X317677800Y-55135335D03*
X315137800Y-55135335D03*
X312597800Y-55135335D03*
X310057800Y-55135335D03*
X307517800Y-55135335D03*
X304977800Y-55135335D03*
X302437800Y-55135335D03*
X299897800Y-55135335D03*
X297357800Y-55135335D03*
X294817800Y-55135335D03*
X292277800Y-55135335D03*
X289737800Y-55135335D03*
X287197800Y-55135335D03*
X284657800Y-55135335D03*
X282117800Y-55135335D03*
X279577800Y-55135335D03*
X277037800Y-55135335D03*
X274497800Y-55135335D03*
X271957800Y-55135335D03*
X269417800Y-55135335D03*
X266877800Y-55135335D03*
X264337800Y-55135335D03*
X261797800Y-55135335D03*
X259257800Y-55135335D03*
X256717800Y-55135335D03*
X254177800Y-55135335D03*
X251637800Y-55135335D03*
X249097800Y-55135335D03*
X246557800Y-55135335D03*
X244017800Y-55135335D03*
X241477800Y-55135335D03*
X320217800Y-57675335D03*
X317677800Y-57675335D03*
X315137800Y-57675335D03*
X312597800Y-57675335D03*
X310057800Y-57675335D03*
X307517800Y-57675335D03*
X304977800Y-57675335D03*
X302437800Y-57675335D03*
X299897800Y-57675335D03*
X297357800Y-57675335D03*
X294817800Y-57675335D03*
X292277800Y-57675335D03*
X289737800Y-57675335D03*
X287197800Y-57675335D03*
X284657800Y-57675335D03*
X282117800Y-57675335D03*
X279577800Y-57675335D03*
X277037800Y-57675335D03*
X274497800Y-57675335D03*
X271957800Y-57675335D03*
X269417800Y-57675335D03*
X266877800Y-57675335D03*
X264337800Y-57675335D03*
X261797800Y-57675335D03*
X259257800Y-57675335D03*
X256717800Y-57675335D03*
X254177800Y-57675335D03*
X251637800Y-57675335D03*
X249097800Y-57675335D03*
X246557800Y-57675335D03*
X244017800Y-57675335D03*
X241477800Y-57675335D03*
D20*
X325297800Y-50055335D03*
X236397800Y-50055335D03*
%TD*%
D10*
%TO.C,TP14*%
X279531800Y-152319200D03*
%TD*%
D13*
%TO.C,K14*%
X149845200Y-122626200D03*
X149845200Y-120086200D03*
X149845200Y-117546200D03*
X149845200Y-115006200D03*
X149845200Y-112466200D03*
X142225200Y-112466200D03*
X142225200Y-115006200D03*
X142225200Y-117546200D03*
X142225200Y-120086200D03*
X142225200Y-122626200D03*
%TD*%
D22*
%TO.C,U4*%
X221818200Y-83138600D03*
D10*
X224358200Y-83138600D03*
X226898200Y-83138600D03*
%TD*%
D23*
%TO.C,U2*%
X250418600Y-128701800D03*
D24*
X250418600Y-126161800D03*
X250418600Y-123621800D03*
X250418600Y-121081800D03*
X250418600Y-118541800D03*
X250418600Y-116001800D03*
X250418600Y-113461800D03*
X250418600Y-110921800D03*
X242798600Y-110921800D03*
X242798600Y-113461800D03*
X242798600Y-116001800D03*
X242798600Y-118541800D03*
X242798600Y-121081800D03*
X242798600Y-123621800D03*
X242798600Y-126161800D03*
X242798600Y-128701800D03*
%TD*%
D23*
%TO.C,U3*%
X250266200Y-157581600D03*
D24*
X250266200Y-155041600D03*
X250266200Y-152501600D03*
X250266200Y-149961600D03*
X250266200Y-147421600D03*
X250266200Y-144881600D03*
X250266200Y-142341600D03*
X250266200Y-139801600D03*
X242646200Y-139801600D03*
X242646200Y-142341600D03*
X242646200Y-144881600D03*
X242646200Y-147421600D03*
X242646200Y-149961600D03*
X242646200Y-152501600D03*
X242646200Y-155041600D03*
X242646200Y-157581600D03*
%TD*%
D21*
%TO.C,C1*%
X294941000Y-163449000D03*
X289941000Y-163449000D03*
%TD*%
D10*
%TO.C,TP17*%
X283718000Y-142367000D03*
%TD*%
D13*
%TO.C,K6*%
X109915200Y-119186200D03*
X109915200Y-116646200D03*
X109915200Y-114106200D03*
X109915200Y-111566200D03*
X109915200Y-109026200D03*
X102295200Y-109026200D03*
X102295200Y-111566200D03*
X102295200Y-114106200D03*
X102295200Y-116646200D03*
X102295200Y-119186200D03*
%TD*%
D21*
%TO.C,R11*%
X265684000Y-138811000D03*
D15*
X265684000Y-128651000D03*
%TD*%
D19*
%TO.C,R12*%
X212369400Y-85572600D03*
D25*
X212369400Y-60172600D03*
%TD*%
D10*
%TO.C,TP1*%
X326961200Y-63484065D03*
%TD*%
D13*
%TO.C,K2*%
X149845200Y-161656200D03*
X149845200Y-159116200D03*
X149845200Y-156576200D03*
X149845200Y-154036200D03*
X149845200Y-151496200D03*
X142225200Y-151496200D03*
X142225200Y-154036200D03*
X142225200Y-156576200D03*
X142225200Y-159116200D03*
X142225200Y-161656200D03*
%TD*%
%TO.C,K9*%
X109915200Y-140046200D03*
X109915200Y-137506200D03*
X109915200Y-134966200D03*
X109915200Y-132426200D03*
X109915200Y-129886200D03*
X102295200Y-129886200D03*
X102295200Y-132426200D03*
X102295200Y-134966200D03*
X102295200Y-137506200D03*
X102295200Y-140046200D03*
%TD*%
D10*
%TO.C,TP20*%
X336753200Y-168605200D03*
%TD*%
D13*
%TO.C,K15*%
X169845200Y-122651600D03*
X169845200Y-120111600D03*
X169845200Y-117571600D03*
X169845200Y-115031600D03*
X169845200Y-112491600D03*
X162225200Y-112491600D03*
X162225200Y-115031600D03*
X162225200Y-117571600D03*
X162225200Y-120111600D03*
X162225200Y-122651600D03*
%TD*%
%TO.C,K13*%
X109845200Y-161656200D03*
X109845200Y-159116200D03*
X109845200Y-156576200D03*
X109845200Y-154036200D03*
X109845200Y-151496200D03*
X102225200Y-151496200D03*
X102225200Y-154036200D03*
X102225200Y-156576200D03*
X102225200Y-159116200D03*
X102225200Y-161656200D03*
%TD*%
D10*
%TO.C,TP24*%
X287782000Y-172440600D03*
%TD*%
D13*
%TO.C,K5*%
X170045200Y-161656200D03*
X170045200Y-159116200D03*
X170045200Y-156576200D03*
X170045200Y-154036200D03*
X170045200Y-151496200D03*
X162425200Y-151496200D03*
X162425200Y-154036200D03*
X162425200Y-156576200D03*
X162425200Y-159116200D03*
X162425200Y-161656200D03*
%TD*%
%TO.C,K8*%
X149845200Y-142656200D03*
X149845200Y-140116200D03*
X149845200Y-137576200D03*
X149845200Y-135036200D03*
X149845200Y-132496200D03*
X142225200Y-132496200D03*
X142225200Y-135036200D03*
X142225200Y-137576200D03*
X142225200Y-140116200D03*
X142225200Y-142656200D03*
%TD*%
D10*
%TO.C,TP25*%
X282651200Y-172440600D03*
%TD*%
D21*
%TO.C,R14*%
X95631000Y-95123000D03*
D15*
X85471000Y-95123000D03*
%TD*%
D26*
%TO.C,TP6*%
X199415400Y-185343800D03*
%TD*%
D10*
%TO.C,TP28*%
X178536600Y-163347400D03*
%TD*%
D21*
%TO.C,R6*%
X77343000Y-84912200D03*
D15*
X77343000Y-74752200D03*
%TD*%
D26*
%TO.C,TP37*%
X229870000Y-166446200D03*
%TD*%
D21*
%TO.C,R15*%
X232994200Y-178028600D03*
D15*
X222834200Y-178028600D03*
%TD*%
D14*
%TO.C,D3*%
X130205200Y-124356200D03*
D15*
X122585200Y-124356200D03*
%TD*%
D27*
%TO.C,J4*%
X247968400Y-181315065D03*
D28*
X250468400Y-181315065D03*
X252468400Y-181315065D03*
X254968400Y-181315065D03*
D29*
X244898400Y-184315065D03*
X258038400Y-184315065D03*
%TD*%
D30*
%TO.C,J6*%
X331965600Y-113515600D03*
D31*
X334505600Y-113515600D03*
X337045600Y-113515600D03*
X339585600Y-113515600D03*
X342125600Y-113515600D03*
X344665600Y-113515600D03*
X347205600Y-113515600D03*
X349745600Y-113515600D03*
%TD*%
D10*
%TO.C,TP34*%
X116853500Y-183994335D03*
%TD*%
D13*
%TO.C,K3*%
X189845200Y-142656200D03*
X189845200Y-140116200D03*
X189845200Y-137576200D03*
X189845200Y-135036200D03*
X189845200Y-132496200D03*
X182225200Y-132496200D03*
X182225200Y-135036200D03*
X182225200Y-137576200D03*
X182225200Y-140116200D03*
X182225200Y-142656200D03*
%TD*%
D10*
%TO.C,TP33*%
X117253500Y-189394335D03*
%TD*%
%TO.C,TP26*%
X338582000Y-95885000D03*
%TD*%
D13*
%TO.C,K1*%
X209372200Y-122635600D03*
X209372200Y-120095600D03*
X209372200Y-117555600D03*
X209372200Y-115015600D03*
X209372200Y-112475600D03*
X201752200Y-112475600D03*
X201752200Y-115015600D03*
X201752200Y-117555600D03*
X201752200Y-120095600D03*
X201752200Y-122635600D03*
%TD*%
D10*
%TO.C,TP13*%
X304381400Y-101256600D03*
%TD*%
%TO.C,TP12*%
X299301400Y-101256600D03*
%TD*%
D13*
%TO.C,K12*%
X129768600Y-119100600D03*
X129768600Y-116560600D03*
X129768600Y-114020600D03*
X129768600Y-111480600D03*
X129768600Y-108940600D03*
X122148600Y-108940600D03*
X122148600Y-111480600D03*
X122148600Y-114020600D03*
X122148600Y-116560600D03*
X122148600Y-119100600D03*
%TD*%
D10*
%TO.C,TP22*%
X266217400Y-184708800D03*
%TD*%
D21*
%TO.C,R5*%
X84963000Y-76327000D03*
D15*
X95123000Y-76327000D03*
%TD*%
D10*
%TO.C,TP36*%
X97653500Y-184394335D03*
%TD*%
D21*
%TO.C,R4*%
X80136200Y-148896600D03*
D15*
X90296200Y-148896600D03*
%TD*%
D14*
%TO.C,C3*%
X328209144Y-84201000D03*
D21*
X330709144Y-84201000D03*
%TD*%
D26*
%TO.C,TP38*%
X319074800Y-88450865D03*
%TD*%
D10*
%TO.C,TP39*%
X248159400Y-167844465D03*
%TD*%
%TO.C,TP27*%
X344119200Y-99110800D03*
%TD*%
D13*
%TO.C,K7*%
X169845200Y-142656200D03*
X169845200Y-140116200D03*
X169845200Y-137576200D03*
X169845200Y-135036200D03*
X169845200Y-132496200D03*
X162225200Y-132496200D03*
X162225200Y-135036200D03*
X162225200Y-137576200D03*
X162225200Y-140116200D03*
X162225200Y-142656200D03*
%TD*%
D10*
%TO.C,TP21*%
X341122000Y-168656000D03*
%TD*%
D21*
%TO.C,R13*%
X224256600Y-74980800D03*
D15*
X224256600Y-64820800D03*
%TD*%
D21*
%TO.C,R10*%
X277495000Y-138938000D03*
D15*
X277495000Y-128778000D03*
%TD*%
D14*
%TO.C,C2*%
X208955000Y-162814000D03*
D21*
X211455000Y-162814000D03*
%TD*%
D10*
%TO.C,TP19*%
X279006800Y-117876800D03*
%TD*%
%TO.C,TP18*%
X278892000Y-122047000D03*
%TD*%
D13*
%TO.C,K11*%
X129758200Y-161656200D03*
X129758200Y-159116200D03*
X129758200Y-156576200D03*
X129758200Y-154036200D03*
X129758200Y-151496200D03*
X122138200Y-151496200D03*
X122138200Y-154036200D03*
X122138200Y-156576200D03*
X122138200Y-159116200D03*
X122138200Y-161656200D03*
%TD*%
D10*
%TO.C,TP7*%
X326961200Y-68824065D03*
%TD*%
D26*
%TO.C,TP3*%
X301040800Y-171475400D03*
%TD*%
D14*
%TO.C,D2*%
X129870200Y-167208200D03*
D15*
X122250200Y-167208200D03*
%TD*%
D10*
%TO.C,TP8*%
X117221000Y-88519000D03*
%TD*%
D21*
%TO.C,R3*%
X80086200Y-144246600D03*
D15*
X90246200Y-144246600D03*
%TD*%
D10*
%TO.C,TP31*%
X120777000Y-187071000D03*
%TD*%
D32*
%TO.C,U1*%
X301937000Y-153413000D03*
D33*
X301637000Y-150383000D03*
X296787000Y-150383000D03*
D32*
X296487000Y-153413000D03*
D31*
X308102000Y-153543000D03*
D34*
X309002000Y-153543000D03*
D31*
X308102000Y-151003000D03*
D34*
X309002000Y-151003000D03*
D30*
X308102000Y-148463000D03*
D34*
X309002000Y-148463000D03*
D31*
X308102000Y-145923000D03*
D34*
X309002000Y-145923000D03*
D31*
X308102000Y-143383000D03*
D34*
X309002000Y-143383000D03*
D31*
X308102000Y-140843000D03*
D34*
X309002000Y-140843000D03*
D31*
X308102000Y-138303000D03*
D34*
X309002000Y-138303000D03*
D30*
X308102000Y-135763000D03*
D34*
X309002000Y-135763000D03*
D31*
X308102000Y-133223000D03*
D34*
X309002000Y-133223000D03*
D31*
X308102000Y-130683000D03*
D34*
X309002000Y-130683000D03*
D31*
X308102000Y-128143000D03*
D34*
X309002000Y-128143000D03*
D31*
X308102000Y-125603000D03*
D34*
X309002000Y-125603000D03*
D30*
X308102000Y-123063000D03*
D34*
X309002000Y-123063000D03*
D31*
X308102000Y-120523000D03*
D34*
X309002000Y-120523000D03*
D31*
X308102000Y-117983000D03*
D34*
X309002000Y-117983000D03*
D31*
X308102000Y-115443000D03*
D34*
X309002000Y-115443000D03*
D31*
X308102000Y-112903000D03*
D34*
X309002000Y-112903000D03*
D30*
X308102000Y-110363000D03*
D34*
X309002000Y-110363000D03*
D31*
X308102000Y-107823000D03*
D34*
X309002000Y-107823000D03*
D31*
X308102000Y-105283000D03*
D34*
X309002000Y-105283000D03*
D31*
X290322000Y-105283000D03*
D34*
X289422000Y-105283000D03*
D31*
X290322000Y-107823000D03*
D34*
X289422000Y-107823000D03*
D30*
X290322000Y-110363000D03*
D34*
X289422000Y-110363000D03*
D31*
X290322000Y-112903000D03*
D34*
X289422000Y-112903000D03*
D31*
X290322000Y-115443000D03*
D34*
X289422000Y-115443000D03*
D31*
X290322000Y-117983000D03*
D34*
X289422000Y-117983000D03*
D31*
X290322000Y-120523000D03*
D34*
X289422000Y-120523000D03*
D30*
X290322000Y-123063000D03*
D34*
X289422000Y-123063000D03*
D31*
X290322000Y-125603000D03*
D34*
X289422000Y-125603000D03*
D31*
X290322000Y-128143000D03*
D34*
X289422000Y-128143000D03*
D31*
X290322000Y-130683000D03*
D34*
X289422000Y-130683000D03*
D31*
X290322000Y-133223000D03*
D34*
X289422000Y-133223000D03*
D30*
X290322000Y-135763000D03*
D34*
X289422000Y-135763000D03*
D31*
X290322000Y-138303000D03*
D34*
X289422000Y-138303000D03*
D31*
X290322000Y-140843000D03*
D34*
X289422000Y-140843000D03*
D31*
X290322000Y-143383000D03*
D34*
X289422000Y-143383000D03*
D31*
X290322000Y-145923000D03*
D34*
X289422000Y-145923000D03*
D30*
X290322000Y-148463000D03*
D34*
X289422000Y-148463000D03*
D31*
X290322000Y-151003000D03*
D34*
X289422000Y-151003000D03*
D31*
X290322000Y-153543000D03*
D34*
X289422000Y-153543000D03*
D31*
X301752000Y-105513000D03*
D35*
X301752000Y-104613000D03*
D30*
X299212000Y-105513000D03*
D35*
X299212000Y-104613000D03*
D31*
X296672000Y-105513000D03*
D35*
X296672000Y-104613000D03*
%TD*%
D22*
%TO.C,U5*%
X106908600Y-97485200D03*
D10*
X109448600Y-97485200D03*
X111988600Y-97485200D03*
%TD*%
D13*
%TO.C,K10*%
X129758200Y-140046200D03*
X129758200Y-137506200D03*
X129758200Y-134966200D03*
X129758200Y-132426200D03*
X129758200Y-129886200D03*
X122138200Y-129886200D03*
X122138200Y-132426200D03*
X122138200Y-134966200D03*
X122138200Y-137506200D03*
X122138200Y-140046200D03*
%TD*%
D19*
%TO.C,R2*%
X204045200Y-157456200D03*
D25*
X204045200Y-132056200D03*
%TD*%
D11*
%TO.C,D5*%
X309875000Y-185953400D03*
D12*
X312415000Y-185953400D03*
%TD*%
D21*
%TO.C,R16*%
X316636400Y-179171600D03*
D15*
X306476400Y-179171600D03*
%TD*%
D21*
%TO.C,R8*%
X325501000Y-166497000D03*
D15*
X315341000Y-166497000D03*
%TD*%
D30*
%TO.C,J5*%
X331762000Y-151615600D03*
D31*
X334302000Y-151615600D03*
X336842000Y-151615600D03*
X339382000Y-151615600D03*
X341922000Y-151615600D03*
X344462000Y-151615600D03*
X347002000Y-151615600D03*
X349542000Y-151615600D03*
%TD*%
M02*
