M48
; DRILL file {KiCad 7.0.5} date Sat Oct 12 11:19:11 2024
; FORMAT={-:-/ absolute / metric / decimal}
; #@! TF.CreationDate,2024-10-12T11:19:11-04:00
; #@! TF.GenerationSoftware,Kicad,Pcbnew,7.0.5
; #@! TF.FileFunction,Plated,1,4,PTH
FMAT,2
METRIC
; #@! TA.AperFunction,Plated,PTH,ViaDrill
T1C0.400
; #@! TA.AperFunction,Plated,PTH,ComponentDrill
T2C0.700
; #@! TA.AperFunction,Plated,PTH,ComponentDrill
T3C0.750
; #@! TA.AperFunction,Plated,PTH,ComponentDrill
T4C0.800
; #@! TA.AperFunction,Plated,PTH,ComponentDrill
T5C0.900
; #@! TA.AperFunction,Plated,PTH,ComponentDrill
T6C0.920
; #@! TA.AperFunction,Plated,PTH,ComponentDrill
T7C1.000
; #@! TA.AperFunction,Plated,PTH,ComponentDrill
T8C1.020
; #@! TA.AperFunction,Plated,PTH,ComponentDrill
T9C1.200
; #@! TA.AperFunction,Plated,PTH,ComponentDrill
T10C1.500
; #@! TA.AperFunction,Plated,PTH,ComponentDrill
T11C1.600
; #@! TA.AperFunction,Plated,PTH,ComponentDrill
T12C2.330
; #@! TA.AperFunction,Plated,PTH,ComponentDrill
T13C2.800
%
G90
G05
T1
X44.984Y-122.979
X56.21Y-56.939
X59.944Y-51.325
X63.322Y-43.756
X64.313Y-46.931
X67.818Y-53.877
X69.977Y-72.814
X70.085Y-50.506
X71.044Y-59.592
X71.298Y-49.598
X74.575Y-49.623
X89.834Y-53.842
X114.681Y-76.928
X164.491Y-71.645
X173.558Y-50.157
X196.901Y-50.995
X203.048Y-49.268
X207.086Y-59.987
X210.261Y-56.786
X213.221Y-43.813
X214.021Y-45.775
X214.82Y-44.176
X221.26Y-26.89
X221.463Y-30.396
X223.8Y-47.515
X261.925Y-104.462
X262.941Y-101.922
X263.373Y-28.77
X264.338Y-78.173
X264.592Y-80.662
X265.405Y-25.62
X267.259Y-71.315
T2
X25.27Y-12.819
X27.923Y-139.564
X33.724Y-142.164
X33.823Y-136.964
X53.023Y-136.564
X53.391Y-36.009
X53.391Y-41.089
X53.423Y-141.964
X56.947Y-139.641
X114.707Y-115.917
X184.329Y-120.414
X191.313Y-120.337
X202.387Y-137.279
X202.387Y-141.775
X215.062Y-74.617
X215.177Y-70.447
X215.702Y-98.59
X215.702Y-104.889
X218.821Y-125.011
X219.888Y-94.937
X223.952Y-125.011
X230.391Y-53.827
X235.471Y-53.827
X240.551Y-53.827
X244.811Y-30.294
X259.639Y-26.23
X263.131Y-16.054
X263.131Y-21.394
X272.923Y-121.175
X274.752Y-48.455
X277.292Y-121.226
X280.289Y-51.681
T3
X43.993Y-48.836
X45.263Y-47.566
X46.533Y-48.836
X163.551Y-34.358
X164.821Y-33.088
X166.091Y-34.358
T4
X13.513Y-27.322
X13.513Y-37.482
X16.256Y-96.817
X16.306Y-101.467
X21.057Y-37.05
X21.133Y-28.897
X21.641Y-47.693
X26.416Y-96.817
X26.466Y-101.467
X31.217Y-37.05
X31.293Y-28.897
X31.801Y-47.693
X58.405Y-98.276
X58.42Y-119.778
X58.755Y-76.926
X66.025Y-98.276
X66.04Y-119.778
X66.375Y-76.926
X145.125Y-115.384
X147.215Y-93.026
X147.215Y-103.186
X147.625Y-115.384
X159.004Y-130.599
X160.427Y-17.391
X160.427Y-27.551
X169.164Y-130.599
X178.816Y-92.372
X178.816Y-94.912
X178.816Y-97.452
X178.816Y-99.992
X178.816Y-102.532
X178.816Y-105.072
X178.816Y-107.612
X178.816Y-110.152
X178.969Y-63.492
X178.969Y-66.032
X178.969Y-68.572
X178.969Y-71.112
X178.969Y-73.652
X178.969Y-76.192
X178.969Y-78.732
X178.969Y-81.272
X186.436Y-92.372
X186.436Y-94.912
X186.436Y-97.452
X186.436Y-99.992
X186.436Y-102.532
X186.436Y-105.072
X186.436Y-107.612
X186.436Y-110.152
X186.589Y-63.492
X186.589Y-66.032
X186.589Y-68.572
X186.589Y-71.112
X186.589Y-73.652
X186.589Y-76.192
X186.589Y-78.732
X186.589Y-81.272
X201.854Y-81.221
X201.854Y-91.381
X213.665Y-81.348
X213.665Y-91.508
X226.111Y-116.019
X231.111Y-116.019
X242.646Y-131.742
X251.511Y-119.067
X251.511Y-123.766
X252.806Y-131.742
X261.671Y-119.067
X261.671Y-123.766
X264.379Y-36.771
X266.879Y-36.771
T5
X17.512Y-112.412
X17.512Y-117.492
X17.512Y-120.032
X17.572Y-114.952
X17.572Y-122.572
X17.598Y-127.068
X17.598Y-132.148
X17.598Y-134.688
X17.598Y-137.228
X17.598Y-139.768
X17.658Y-129.608
X20.112Y-112.412
X20.112Y-117.492
X20.112Y-120.032
X20.172Y-114.952
X20.172Y-122.572
X20.198Y-127.068
X20.198Y-132.148
X20.198Y-134.688
X20.198Y-137.228
X20.198Y-139.768
X20.258Y-129.608
X21.179Y-33.19
X21.179Y-41.953
X23.779Y-33.19
X23.779Y-41.953
X29.63Y-12.789
X29.69Y-22.839
X29.74Y-16.179
X32.23Y-12.789
X32.29Y-22.839
X32.34Y-16.179
X32.515Y-63.826
X32.515Y-66.426
X33.515Y-96.626
X33.515Y-99.226
X33.685Y-82.916
X33.685Y-85.516
X33.782Y-87.668
X33.782Y-90.268
X34.465Y-104.576
X34.465Y-107.176
X35.05Y-16.219
X35.08Y-22.839
X35.13Y-26.139
X35.15Y-19.479
X37.65Y-16.219
X37.68Y-22.839
X37.73Y-26.139
X37.75Y-19.479
X43.587Y-23.949
X43.587Y-26.549
X43.6Y-13.649
X43.6Y-16.249
X43.612Y-18.749
X43.612Y-21.349
X46.13Y-13.649
X46.13Y-16.249
X46.151Y-18.749
X46.151Y-21.349
X48.56Y-18.749
X48.56Y-21.349
X48.644Y-13.649
X48.644Y-16.249
X49.165Y-119.276
X49.665Y-68.726
X49.665Y-71.326
X49.715Y-62.176
X49.715Y-64.776
X49.785Y-90.026
X49.785Y-92.626
X49.815Y-104.426
X49.815Y-107.026
X49.865Y-81.526
X49.865Y-84.126
X50.215Y-111.526
X50.215Y-114.126
X50.965Y-98.176
X51.185Y-13.649
X51.185Y-16.249
X51.26Y-18.749
X51.26Y-21.349
X51.765Y-119.276
X52.625Y-76.626
X53.565Y-98.176
X53.727Y-13.649
X53.727Y-16.249
X53.747Y-23.949
X53.747Y-26.549
X53.768Y-18.749
X53.768Y-21.349
X54.255Y-112.717
X54.255Y-115.317
X54.28Y-102.502
X54.28Y-105.102
X54.28Y-107.531
X54.28Y-110.131
X54.338Y-61.011
X54.338Y-63.611
X54.661Y-87.287
X54.661Y-89.887
X55.225Y-76.626
X56.268Y-13.649
X56.268Y-16.249
X56.287Y-23.949
X56.287Y-26.549
X56.306Y-18.749
X56.306Y-21.349
X58.85Y-13.649
X58.85Y-16.249
X58.86Y-18.749
X58.86Y-21.349
X58.86Y-23.949
X58.86Y-26.549
X58.96Y-37.649
X58.96Y-40.849
X58.96Y-44.349
X58.96Y-47.949
X61.307Y-54.145
X61.351Y-13.649
X61.351Y-16.249
X61.384Y-18.749
X61.384Y-21.349
X61.39Y-23.949
X61.39Y-26.549
X61.56Y-37.649
X61.56Y-40.849
X61.56Y-44.349
X61.56Y-47.949
X63.892Y-13.649
X63.892Y-16.249
X63.907Y-54.145
X63.923Y-18.749
X63.923Y-21.349
X63.96Y-23.949
X63.96Y-26.549
X66.36Y-41.149
X66.36Y-44.749
X66.434Y-13.649
X66.434Y-16.249
X66.462Y-18.749
X66.462Y-21.349
X66.56Y-23.949
X66.56Y-26.549
X66.56Y-37.649
X68.96Y-41.149
X68.96Y-44.749
X68.975Y-13.649
X68.975Y-16.249
X68.987Y-23.949
X68.987Y-26.549
X69.001Y-18.749
X69.001Y-21.349
X69.16Y-37.649
X69.828Y-88.398
X69.828Y-90.998
X69.828Y-93.298
X69.828Y-95.898
X70.128Y-82.498
X70.128Y-85.098
X70.155Y-103.192
X70.155Y-105.792
X70.155Y-108.492
X70.155Y-111.092
X70.155Y-113.792
X70.155Y-116.392
X70.18Y-66.51
X70.18Y-69.11
X70.206Y-60.998
X70.206Y-63.598
X71.517Y-13.649
X71.517Y-16.249
X71.527Y-23.949
X71.527Y-26.549
X71.54Y-18.749
X71.54Y-21.349
X73.16Y-37.649
X73.16Y-41.149
X73.16Y-44.749
X74.058Y-13.649
X74.058Y-16.249
X74.067Y-18.749
X74.067Y-21.349
X74.067Y-23.949
X74.067Y-26.549
X74.168Y-119.266
X74.168Y-121.866
X74.315Y-106.576
X74.315Y-109.176
X74.422Y-64.96
X74.422Y-67.56
X74.448Y-72.458
X74.448Y-75.058
X75.76Y-37.649
X75.76Y-41.149
X75.76Y-44.749
X76.6Y-13.649
X76.6Y-16.249
X76.618Y-18.749
X76.618Y-21.349
X76.66Y-23.949
X76.66Y-26.549
X78.304Y-80.586
X79.141Y-13.649
X79.141Y-16.249
X79.147Y-23.949
X79.147Y-26.549
X79.157Y-18.749
X79.157Y-21.349
X79.76Y-44.649
X79.86Y-37.549
X79.86Y-41.049
X80.904Y-80.586
X81.682Y-13.649
X81.682Y-16.249
X81.687Y-23.949
X81.687Y-26.549
X81.695Y-18.749
X81.695Y-21.349
X82.36Y-44.649
X82.46Y-37.549
X82.46Y-41.049
X83.684Y-59.961
X84.224Y-13.649
X84.224Y-16.249
X84.234Y-18.749
X84.234Y-21.349
X84.354Y-23.949
X84.354Y-26.549
X86.284Y-59.961
X86.56Y-37.549
X86.66Y-41.149
X86.66Y-44.649
X86.765Y-13.649
X86.765Y-16.249
X86.77Y-48.279
X86.773Y-18.749
X86.773Y-21.349
X86.84Y-51.359
X86.894Y-23.949
X86.894Y-26.549
X89.16Y-37.549
X89.26Y-41.149
X89.26Y-44.649
X89.307Y-13.649
X89.307Y-16.249
X89.312Y-18.749
X89.312Y-21.349
X89.36Y-23.949
X89.36Y-26.549
X89.37Y-48.279
X89.44Y-51.359
X90.615Y-102.426
X90.615Y-105.026
X90.715Y-107.226
X90.715Y-109.826
X90.78Y-70.858
X90.78Y-73.458
X90.815Y-112.126
X90.815Y-114.726
X90.851Y-64.635
X90.877Y-67.556
X91.075Y-90.096
X91.075Y-92.696
X91.847Y-13.649
X91.847Y-16.249
X91.847Y-23.949
X91.847Y-26.549
X91.851Y-18.749
X91.851Y-21.349
X93.451Y-64.635
X93.477Y-67.556
X94.365Y-93.826
X94.365Y-96.426
X94.387Y-13.649
X94.387Y-16.249
X94.39Y-18.749
X94.39Y-21.349
X94.46Y-23.949
X94.46Y-26.549
X94.465Y-88.626
X94.465Y-91.226
X94.615Y-83.426
X94.615Y-86.026
X94.815Y-106.626
X94.815Y-109.226
X94.86Y-34.049
X94.86Y-37.549
X94.96Y-44.549
X94.96Y-47.949
X96.927Y-13.649
X96.927Y-16.249
X96.929Y-18.749
X96.929Y-21.349
X97.06Y-23.949
X97.06Y-26.549
X97.46Y-34.049
X97.46Y-37.549
X97.56Y-44.549
X97.56Y-47.949
X98.37Y-60.114
X99.467Y-13.649
X99.467Y-16.249
X99.468Y-18.749
X99.468Y-21.349
X99.56Y-23.949
X99.56Y-26.549
X100.97Y-60.114
X101.011Y-123.004
X101.16Y-41.149
X102.007Y-13.649
X102.007Y-16.249
X102.007Y-18.749
X102.007Y-21.349
X102.06Y-23.949
X102.06Y-26.549
X103.611Y-123.004
X103.76Y-41.149
X104.46Y-18.749
X104.46Y-21.349
X104.46Y-23.949
X104.46Y-26.549
X104.46Y-50.749
X104.56Y-13.649
X104.56Y-16.249
X106.676Y-123.004
X107.04Y-13.649
X107.04Y-16.249
X107.06Y-18.749
X107.06Y-21.349
X107.06Y-50.749
X107.16Y-23.949
X107.16Y-26.549
X108.06Y-37.649
X108.16Y-41.249
X108.16Y-44.749
X109.276Y-123.004
X109.56Y-23.949
X109.56Y-26.549
X109.648Y-13.649
X109.648Y-16.249
X109.66Y-18.749
X109.66Y-21.349
X109.811Y-65.262
X109.811Y-67.862
X109.871Y-70.382
X109.871Y-72.982
X110.115Y-83.926
X110.115Y-86.526
X110.115Y-93.726
X110.115Y-96.326
X110.215Y-88.726
X110.215Y-91.326
X110.515Y-106.726
X110.515Y-109.326
X110.66Y-37.649
X110.76Y-41.249
X110.76Y-44.749
X112.16Y-13.649
X112.16Y-16.249
X112.167Y-18.749
X112.167Y-21.349
X112.26Y-23.949
X112.26Y-26.549
X113.741Y-65.316
X113.741Y-67.916
X113.741Y-70.299
X113.741Y-72.899
X113.97Y-102.654
X113.97Y-105.254
X114.072Y-107.861
X114.072Y-110.461
X114.415Y-92.826
X114.415Y-95.426
X114.575Y-122.598
X114.66Y-23.949
X114.66Y-26.549
X114.681Y-82.613
X114.681Y-85.213
X114.76Y-13.649
X114.76Y-16.249
X114.76Y-18.749
X114.76Y-21.349
X115.36Y-37.549
X115.36Y-41.149
X115.36Y-44.649
X117.175Y-122.598
X117.36Y-13.649
X117.36Y-16.249
X117.36Y-18.749
X117.36Y-21.349
X117.36Y-23.949
X117.36Y-26.549
X117.96Y-37.549
X117.96Y-41.149
X117.96Y-44.649
X119.172Y-60.368
X119.86Y-13.649
X119.86Y-16.249
X119.96Y-18.749
X119.96Y-21.349
X119.96Y-23.949
X119.96Y-26.549
X121.772Y-60.368
X122.36Y-13.649
X122.36Y-16.249
X122.46Y-18.749
X122.46Y-21.349
X122.56Y-23.949
X122.56Y-26.549
X122.66Y-37.449
X122.76Y-41.049
X122.86Y-44.549
X125.26Y-37.449
X125.36Y-41.049
X125.46Y-44.549
X129.667Y-63.995
X129.667Y-66.595
X129.794Y-68.897
X129.794Y-71.497
X130.915Y-109.226
X130.96Y-41.049
X131.06Y-37.449
X131.06Y-44.549
X131.696Y-86.975
X131.696Y-93.035
X133.382Y-63.597
X133.382Y-66.197
X133.515Y-109.226
X133.56Y-41.049
X133.66Y-37.449
X133.66Y-44.549
X133.742Y-68.922
X133.742Y-71.522
X133.742Y-74.122
X133.742Y-76.722
X134.296Y-86.975
X134.296Y-93.035
X138.578Y-49.369
X141.178Y-49.369
X149.642Y-64.222
X152.192Y-82.212
X152.242Y-64.222
X152.292Y-69.772
X152.292Y-73.272
X154.792Y-82.212
X154.892Y-69.772
X154.892Y-73.272
X163.063Y-138.422
X165.603Y-138.422
X166.561Y-19.664
X166.661Y-23.234
X166.661Y-26.484
X167.407Y-52.443
X169.161Y-19.664
X169.261Y-23.234
X169.261Y-26.484
X169.691Y-38.484
X169.744Y-42.088
X169.761Y-35.204
X170.007Y-52.443
X171.236Y-94.852
X171.236Y-97.452
X171.236Y-100.052
X171.236Y-102.452
X171.236Y-105.052
X171.236Y-107.552
X171.236Y-110.152
X171.359Y-65.982
X171.359Y-68.582
X171.359Y-71.082
X171.359Y-73.682
X171.359Y-76.182
X171.359Y-78.782
X171.359Y-81.282
X172.291Y-38.484
X172.344Y-42.088
X172.361Y-35.204
X173.836Y-94.852
X173.836Y-97.452
X173.836Y-100.052
X173.836Y-102.452
X173.836Y-105.052
X173.836Y-107.552
X173.836Y-110.152
X173.959Y-65.982
X173.959Y-68.582
X173.959Y-71.082
X173.959Y-73.682
X173.959Y-76.182
X173.959Y-78.782
X173.959Y-81.282
X177.431Y-13.364
X177.431Y-15.964
X177.531Y-18.783
X177.531Y-21.383
X177.531Y-24.117
X177.531Y-26.717
X177.831Y-35.274
X177.831Y-38.574
X177.931Y-42.074
X180.331Y-18.783
X180.331Y-21.383
X180.331Y-24.117
X180.331Y-26.717
X180.34Y-13.364
X180.34Y-15.964
X180.431Y-35.274
X180.431Y-38.574
X180.531Y-42.074
X182.831Y-24.117
X182.831Y-26.717
X182.88Y-13.364
X182.88Y-15.964
X182.88Y-18.783
X182.88Y-21.383
X183.848Y-125.955
X183.848Y-128.555
X185.187Y-31.775
X185.187Y-34.95
X185.212Y-41.402
X185.238Y-38.176
X185.289Y-44.45
X185.42Y-13.364
X185.42Y-15.964
X185.42Y-18.783
X185.42Y-21.383
X185.42Y-24.117
X185.42Y-26.717
X187.787Y-31.775
X187.787Y-34.95
X187.812Y-41.402
X187.838Y-38.176
X187.889Y-44.45
X187.96Y-13.364
X187.96Y-15.964
X187.96Y-18.783
X187.96Y-21.383
X187.96Y-24.117
X187.96Y-26.717
X190.5Y-13.364
X190.5Y-15.964
X190.5Y-18.783
X190.5Y-21.383
X190.5Y-24.117
X190.5Y-26.717
X190.953Y-76.116
X190.953Y-79.176
X190.953Y-81.996
X191.278Y-126.115
X191.278Y-128.715
X192.036Y-94.952
X192.036Y-97.452
X192.036Y-99.952
X192.036Y-102.552
X192.036Y-105.052
X192.036Y-107.552
X192.036Y-110.152
X193.04Y-13.364
X193.04Y-15.964
X193.04Y-18.783
X193.04Y-21.383
X193.04Y-24.117
X193.04Y-26.717
X193.553Y-76.116
X193.553Y-79.176
X193.553Y-81.996
X194.636Y-94.952
X194.636Y-97.452
X194.636Y-99.952
X194.636Y-102.552
X194.636Y-105.052
X194.636Y-107.552
X194.636Y-110.152
X195.58Y-13.364
X195.58Y-15.964
X195.58Y-18.783
X195.58Y-21.383
X195.58Y-24.117
X195.58Y-26.717
X198.12Y-13.364
X198.12Y-15.964
X198.12Y-18.783
X198.12Y-21.383
X198.12Y-24.117
X198.12Y-26.717
X200.118Y-65.397
X200.118Y-68.317
X200.118Y-71.097
X200.118Y-73.667
X200.66Y-13.364
X200.66Y-15.964
X200.66Y-18.783
X200.66Y-21.383
X200.66Y-24.117
X200.66Y-26.717
X202.718Y-65.397
X202.718Y-68.317
X202.718Y-71.097
X202.718Y-73.667
X203.2Y-18.783
X203.2Y-21.383
X203.2Y-24.117
X203.2Y-26.717
X203.331Y-13.364
X203.331Y-15.964
X205.74Y-13.364
X205.74Y-15.964
X205.74Y-18.783
X205.74Y-21.383
X205.74Y-24.117
X205.74Y-26.717
X208.179Y-18.783
X208.179Y-21.383
X208.331Y-13.396
X208.331Y-15.996
X211.582Y-13.364
X211.582Y-15.964
X211.582Y-18.783
X211.582Y-21.383
X211.582Y-24.117
X211.582Y-26.717
X213.381Y-78.808
X213.97Y-141.851
X214.63Y-13.364
X214.63Y-15.964
X214.63Y-18.783
X214.63Y-21.383
X214.63Y-24.117
X214.63Y-26.717
X214.905Y-57.599
X214.905Y-60.199
X215.24Y-139.311
X215.981Y-78.808
X216.51Y-141.851
X217.505Y-57.599
X217.505Y-60.199
X217.78Y-139.311
X218.186Y-18.783
X218.186Y-21.383
X218.186Y-24.117
X218.186Y-26.717
X218.44Y-13.364
X218.44Y-15.964
X218.637Y-72.963
X218.757Y-65.463
X218.757Y-67.963
X218.757Y-70.463
X218.757Y-80.663
X218.757Y-83.263
X218.757Y-85.763
X218.757Y-90.763
X218.837Y-88.273
X219.05Y-141.851
X219.057Y-98.463
X220.32Y-139.311
X220.98Y-13.364
X220.98Y-15.964
X220.98Y-18.783
X220.98Y-21.383
X221.237Y-72.963
X221.357Y-65.463
X221.357Y-67.963
X221.357Y-70.463
X221.357Y-80.663
X221.357Y-83.263
X221.357Y-85.763
X221.357Y-90.763
X221.437Y-88.273
X221.59Y-141.851
X221.657Y-98.463
X222.86Y-139.311
X223.52Y-13.364
X223.52Y-15.964
X223.52Y-18.783
X223.52Y-21.383
X224.054Y-34.379
X224.054Y-36.979
X226.314Y-13.364
X226.314Y-15.964
X226.314Y-18.735
X226.314Y-21.335
X228.6Y-13.364
X228.6Y-15.964
X228.6Y-18.783
X228.6Y-21.383
X228.6Y-24.117
X228.6Y-26.717
X228.771Y-35.184
X228.771Y-37.784
X231.14Y-13.364
X231.14Y-15.964
X231.14Y-18.783
X231.14Y-21.383
X231.14Y-24.117
X231.14Y-26.717
X231.781Y-35.184
X231.781Y-37.784
X233.68Y-13.364
X233.68Y-15.964
X233.68Y-18.783
X233.68Y-21.383
X233.68Y-24.117
X233.68Y-26.717
X234.941Y-35.184
X234.941Y-37.784
X236.22Y-13.364
X236.22Y-15.964
X236.22Y-18.783
X236.22Y-21.383
X236.22Y-24.117
X236.22Y-26.717
X238.278Y-35.184
X238.278Y-37.784
X238.76Y-13.364
X238.76Y-15.964
X238.76Y-18.783
X238.76Y-21.383
X238.76Y-24.117
X238.76Y-26.717
X241.3Y-13.364
X241.3Y-15.964
X241.3Y-18.783
X241.3Y-21.383
X241.3Y-24.117
X241.3Y-26.717
X241.421Y-35.184
X241.421Y-37.784
X243.683Y-41.699
X243.84Y-13.364
X243.84Y-15.964
X243.84Y-18.783
X243.84Y-21.383
X243.84Y-24.117
X243.84Y-26.717
X244.531Y-35.184
X244.531Y-37.784
X246.045Y-138.523
X246.283Y-41.699
X246.38Y-13.364
X246.38Y-15.964
X246.38Y-18.783
X246.38Y-21.383
X246.38Y-24.117
X246.38Y-26.717
X247.641Y-35.184
X247.641Y-37.784
X248.585Y-138.523
X248.92Y-13.364
X248.92Y-15.964
X248.92Y-18.783
X248.92Y-21.383
X248.92Y-24.117
X248.92Y-26.717
X249.837Y-67.623
X249.857Y-57.763
X249.857Y-60.363
X249.857Y-64.273
X249.857Y-70.363
X249.857Y-73.063
X250.761Y-35.184
X250.761Y-37.784
X251.46Y-13.364
X251.46Y-15.964
X251.46Y-18.783
X251.46Y-21.383
X251.46Y-24.117
X251.46Y-26.717
X252.086Y-78.162
X252.086Y-80.662
X252.086Y-83.162
X252.086Y-85.762
X252.086Y-90.862
X252.086Y-93.362
X252.086Y-95.962
X252.086Y-98.462
X252.086Y-102.992
X252.086Y-106.062
X252.437Y-67.623
X252.457Y-57.763
X252.457Y-60.363
X252.457Y-64.273
X252.457Y-70.363
X252.457Y-73.063
X254.0Y-13.364
X254.0Y-15.964
X254.0Y-18.783
X254.0Y-21.383
X254.0Y-24.117
X254.0Y-26.717
X254.686Y-78.162
X254.686Y-80.662
X254.686Y-83.162
X254.686Y-85.762
X254.686Y-90.862
X254.686Y-93.362
X254.686Y-95.962
X254.686Y-98.462
X254.686Y-102.992
X254.686Y-106.062
X256.54Y-13.364
X256.54Y-15.964
X256.54Y-18.783
X256.54Y-21.383
X256.54Y-24.117
X256.54Y-26.717
X267.868Y-108.145
X267.868Y-110.745
X267.921Y-59.474
X267.921Y-62.074
X270.15Y-21.785
X271.068Y-108.245
X271.068Y-110.845
X271.121Y-59.474
X271.121Y-62.074
X272.75Y-21.785
X274.168Y-108.245
X274.168Y-110.845
X274.321Y-59.474
X274.321Y-62.074
X277.268Y-108.245
X277.268Y-110.845
X277.521Y-59.474
X277.521Y-62.074
X280.568Y-108.245
X280.568Y-110.845
X280.721Y-59.474
X280.721Y-62.074
X283.768Y-108.245
X283.768Y-110.845
X283.921Y-59.574
X283.921Y-62.174
X286.309Y-108.191
X286.309Y-110.791
X287.021Y-59.574
X287.021Y-62.174
X288.51Y-20.566
X288.51Y-25.646
X288.51Y-28.186
X288.57Y-23.106
X288.57Y-30.726
X288.57Y-33.266
X291.11Y-20.566
X291.11Y-25.646
X291.11Y-28.186
X291.17Y-23.106
X291.17Y-30.726
X291.17Y-33.266
T6
X184.138Y-133.885
X186.638Y-133.885
X188.638Y-133.885
X191.138Y-133.885
T7
X38.395Y-104.066
X38.395Y-106.606
X38.395Y-109.146
X38.395Y-111.686
X38.395Y-114.226
X38.465Y-61.596
X38.465Y-64.136
X38.465Y-66.676
X38.465Y-69.216
X38.465Y-71.756
X38.465Y-82.456
X38.465Y-84.996
X38.465Y-87.536
X38.465Y-90.076
X38.465Y-92.616
X39.893Y-134.494
X39.893Y-137.034
X39.893Y-139.574
X39.893Y-142.114
X39.893Y-144.654
X43.612Y-5.165
X43.612Y-7.705
X43.612Y-10.245
X46.015Y-104.066
X46.015Y-106.606
X46.015Y-109.146
X46.015Y-111.686
X46.015Y-114.226
X46.085Y-61.596
X46.085Y-64.136
X46.085Y-66.676
X46.085Y-69.216
X46.085Y-71.756
X46.085Y-82.456
X46.085Y-84.996
X46.085Y-87.536
X46.085Y-90.076
X46.085Y-92.616
X46.152Y-5.165
X46.152Y-7.705
X46.152Y-10.245
X47.514Y-134.494
X47.514Y-137.034
X47.514Y-139.574
X47.514Y-142.114
X47.514Y-144.654
X48.692Y-5.165
X48.692Y-7.705
X48.692Y-10.245
X51.232Y-5.165
X51.232Y-7.705
X51.232Y-10.245
X53.772Y-5.165
X53.772Y-7.705
X53.772Y-10.245
X56.312Y-5.165
X56.312Y-7.705
X56.312Y-10.245
X58.308Y-82.456
X58.308Y-84.996
X58.308Y-87.536
X58.308Y-90.076
X58.308Y-92.616
X58.308Y-104.066
X58.308Y-106.606
X58.308Y-109.146
X58.308Y-111.686
X58.308Y-114.226
X58.319Y-61.511
X58.319Y-64.051
X58.319Y-66.591
X58.319Y-69.131
X58.319Y-71.671
X58.852Y-5.165
X58.852Y-7.705
X58.852Y-10.245
X61.392Y-5.165
X61.392Y-7.705
X61.392Y-10.245
X63.932Y-5.165
X63.932Y-7.705
X63.932Y-10.245
X65.928Y-82.456
X65.928Y-84.996
X65.928Y-87.536
X65.928Y-90.076
X65.928Y-92.616
X65.928Y-104.066
X65.928Y-106.606
X65.928Y-109.146
X65.928Y-111.686
X65.928Y-114.226
X65.939Y-61.511
X65.939Y-64.051
X65.939Y-66.591
X65.939Y-69.131
X65.939Y-71.671
X66.472Y-5.165
X66.472Y-7.705
X66.472Y-10.245
X69.012Y-5.165
X69.012Y-7.705
X69.012Y-10.245
X71.552Y-5.165
X71.552Y-7.705
X71.552Y-10.245
X74.092Y-5.165
X74.092Y-7.705
X74.092Y-10.245
X76.632Y-5.165
X76.632Y-7.705
X76.632Y-10.245
X78.395Y-65.036
X78.395Y-67.576
X78.395Y-70.116
X78.395Y-72.656
X78.395Y-75.196
X78.395Y-85.066
X78.395Y-87.606
X78.395Y-90.146
X78.395Y-92.686
X78.395Y-95.226
X78.395Y-104.066
X78.395Y-106.606
X78.395Y-109.146
X78.395Y-111.686
X78.395Y-114.226
X79.172Y-5.165
X79.172Y-7.705
X79.172Y-10.245
X81.712Y-5.165
X81.712Y-7.705
X81.712Y-10.245
X84.252Y-5.165
X84.252Y-7.705
X84.252Y-10.245
X86.015Y-65.036
X86.015Y-67.576
X86.015Y-70.116
X86.015Y-72.656
X86.015Y-75.196
X86.015Y-85.066
X86.015Y-87.606
X86.015Y-90.146
X86.015Y-92.686
X86.015Y-95.226
X86.015Y-104.066
X86.015Y-106.606
X86.015Y-109.146
X86.015Y-111.686
X86.015Y-114.226
X86.792Y-5.165
X86.792Y-7.705
X86.792Y-10.245
X89.332Y-5.165
X89.332Y-7.705
X89.332Y-10.245
X91.872Y-5.165
X91.872Y-7.705
X91.872Y-10.245
X94.412Y-5.165
X94.412Y-7.705
X94.412Y-10.245
X96.952Y-5.165
X96.952Y-7.705
X96.952Y-10.245
X98.395Y-65.062
X98.395Y-67.602
X98.395Y-70.142
X98.395Y-72.682
X98.395Y-75.222
X98.395Y-85.066
X98.395Y-87.606
X98.395Y-90.146
X98.395Y-92.686
X98.395Y-95.226
X98.595Y-104.066
X98.595Y-106.606
X98.595Y-109.146
X98.595Y-111.686
X98.595Y-114.226
X99.492Y-5.165
X99.492Y-7.705
X99.492Y-10.245
X102.032Y-5.165
X102.032Y-7.705
X102.032Y-10.245
X104.572Y-5.165
X104.572Y-7.705
X104.572Y-10.245
X106.015Y-65.062
X106.015Y-67.602
X106.015Y-70.142
X106.015Y-72.682
X106.015Y-75.222
X106.015Y-85.066
X106.015Y-87.606
X106.015Y-90.146
X106.015Y-92.686
X106.015Y-95.226
X106.215Y-104.066
X106.215Y-106.606
X106.215Y-109.146
X106.215Y-111.686
X106.215Y-114.226
X107.112Y-5.165
X107.112Y-7.705
X107.112Y-10.245
X109.652Y-5.165
X109.652Y-7.705
X109.652Y-10.245
X112.192Y-5.165
X112.192Y-7.705
X112.192Y-10.245
X114.732Y-5.165
X114.732Y-7.705
X114.732Y-10.245
X117.272Y-5.165
X117.272Y-7.705
X117.272Y-10.245
X118.328Y-65.062
X118.328Y-67.602
X118.328Y-70.142
X118.328Y-72.682
X118.328Y-75.222
X118.395Y-85.066
X118.395Y-87.606
X118.395Y-90.146
X118.395Y-92.686
X118.395Y-95.226
X118.395Y-104.066
X118.395Y-106.606
X118.395Y-109.146
X118.395Y-111.686
X118.395Y-114.226
X119.812Y-5.165
X119.812Y-7.705
X119.812Y-10.245
X122.352Y-5.165
X122.352Y-7.705
X122.352Y-10.245
X125.948Y-65.062
X125.948Y-67.602
X125.948Y-70.142
X125.948Y-72.682
X125.948Y-75.222
X126.015Y-85.066
X126.015Y-87.606
X126.015Y-90.146
X126.015Y-92.686
X126.015Y-95.226
X126.015Y-104.066
X126.015Y-106.606
X126.015Y-109.146
X126.015Y-111.686
X126.015Y-114.226
X137.922Y-65.046
X137.922Y-67.586
X137.922Y-70.126
X137.922Y-72.666
X137.922Y-75.206
X145.542Y-65.046
X145.542Y-67.586
X145.542Y-70.126
X145.542Y-72.666
X145.542Y-75.206
X177.648Y-5.165
X177.648Y-7.705
X177.648Y-10.245
X180.188Y-5.165
X180.188Y-7.705
X180.188Y-10.245
X182.728Y-5.165
X182.728Y-7.705
X182.728Y-10.245
X185.268Y-5.165
X185.268Y-7.705
X185.268Y-10.245
X187.808Y-5.165
X187.808Y-7.705
X187.808Y-10.245
X190.348Y-5.165
X190.348Y-7.705
X190.348Y-10.245
X192.888Y-5.165
X192.888Y-7.705
X192.888Y-10.245
X195.428Y-5.165
X195.428Y-7.705
X195.428Y-10.245
X197.968Y-5.165
X197.968Y-7.705
X197.968Y-10.245
X200.508Y-5.165
X200.508Y-7.705
X200.508Y-10.245
X203.048Y-5.165
X203.048Y-7.705
X203.048Y-10.245
X205.588Y-5.165
X205.588Y-7.705
X205.588Y-10.245
X208.128Y-5.165
X208.128Y-7.705
X208.128Y-10.245
X210.668Y-5.165
X210.668Y-7.705
X210.668Y-10.245
X213.208Y-5.165
X213.208Y-7.705
X213.208Y-10.245
X215.748Y-5.165
X215.748Y-7.705
X215.748Y-10.245
X218.288Y-5.165
X218.288Y-7.705
X218.288Y-10.245
X220.828Y-5.165
X220.828Y-7.705
X220.828Y-10.245
X223.368Y-5.165
X223.368Y-7.705
X223.368Y-10.245
X225.908Y-5.165
X225.908Y-7.705
X225.908Y-10.245
X228.448Y-5.165
X228.448Y-7.705
X228.448Y-10.245
X230.988Y-5.165
X230.988Y-7.705
X230.988Y-10.245
X233.528Y-5.165
X233.528Y-7.705
X233.528Y-10.245
X236.068Y-5.165
X236.068Y-7.705
X236.068Y-10.245
X238.608Y-5.165
X238.608Y-7.705
X238.608Y-10.245
X241.148Y-5.165
X241.148Y-7.705
X241.148Y-10.245
X243.688Y-5.165
X243.688Y-7.705
X243.688Y-10.245
X246.228Y-5.165
X246.228Y-7.705
X246.228Y-10.245
X248.768Y-5.165
X248.768Y-7.705
X248.768Y-10.245
X251.308Y-5.165
X251.308Y-7.705
X251.308Y-10.245
X253.848Y-5.165
X253.848Y-7.705
X253.848Y-10.245
X256.388Y-5.165
X256.388Y-7.705
X256.388Y-10.245
X267.932Y-104.186
X268.136Y-66.086
X270.472Y-104.186
X270.676Y-66.086
X273.012Y-104.186
X273.216Y-66.086
X275.552Y-104.186
X275.756Y-66.086
X278.092Y-104.186
X278.296Y-66.086
X280.632Y-104.186
X280.836Y-66.086
X283.172Y-104.186
X283.376Y-66.086
X285.712Y-104.186
X285.916Y-66.086
T8
X226.492Y-57.853
X226.492Y-60.393
X226.492Y-62.933
X226.492Y-65.473
X226.492Y-68.013
X226.492Y-70.553
X226.492Y-73.093
X226.492Y-75.633
X226.492Y-78.173
X226.492Y-80.713
X226.492Y-83.253
X226.492Y-85.793
X226.492Y-88.333
X226.492Y-90.873
X226.492Y-93.413
X226.492Y-95.953
X226.492Y-98.493
X226.492Y-101.033
X226.492Y-103.573
X226.492Y-106.113
X232.842Y-58.083
X235.382Y-58.083
X237.922Y-58.083
X244.272Y-57.853
X244.272Y-60.393
X244.272Y-62.933
X244.272Y-65.473
X244.272Y-68.013
X244.272Y-70.553
X244.272Y-73.093
X244.272Y-75.633
X244.272Y-78.173
X244.272Y-80.713
X244.272Y-83.253
X244.272Y-85.793
X244.272Y-88.333
X244.272Y-90.873
X244.272Y-93.413
X244.272Y-95.953
X244.272Y-98.493
X244.272Y-101.033
X244.272Y-103.573
X244.272Y-106.113
T9
X140.215Y-84.626
X140.215Y-110.026
X148.539Y-12.743
X148.539Y-38.143
T10
X135.585Y-137.914
X166.04Y-119.016
X237.211Y-124.045
X255.245Y-41.021
T11
X210.39Y-135.711
X210.5Y-129.911
X226.33Y-129.911
X226.44Y-135.711
T12
X181.068Y-136.885
X194.208Y-136.885
T13
X38.532Y-2.625
X127.432Y-2.625
X172.568Y-2.625
X261.468Y-2.625
T0
M30
